<?xml version="1.0" standalone="no"?>
<!DOCTYPE svg PUBLIC "-//W3C//DTD SVG 1.1//EN" "http://www.w3.org/Graphics/SVG/1.1/DTD/svg11.dtd" >
<svg xmlns="http://www.w3.org/2000/svg">
<metadata>
This is a custom SVG webfont generated by Font Squirrel.
Copyright   : Copyright c 2010 by Anatoletype  fRED Published  by Anatoletype All rights reserved
Designer    : Elena Albertoni and fRED Bordfeld
Foundry     : Anatoletype  fRED
Foundry URL : httpanatoletypenet
</metadata>
<defs>
<font id="DejaWebBoldItalic" horiz-adv-x="1189" >
<font-face units-per-em="2048" ascent="1556" descent="-492" />
<missing-glyph horiz-adv-x="428" />
<glyph unicode=" "  horiz-adv-x="428" />
<glyph unicode="&#x09;" horiz-adv-x="428" />
<glyph unicode="&#xa0;" horiz-adv-x="428" />
<glyph unicode="!" horiz-adv-x="671" d="M197 103q0 104 44 151t143 47q65 0 97 -27.5t32 -90.5q0 -53 -10 -90.5t-31.5 -62t-55.5 -36t-82 -11.5q-69 0 -103 27.5t-34 92.5zM288 453l6 80l8 89l10 96l10 97l11 94q6 46 13 87l77 497h282l-77 -497l-15 -87q-8 -46 -18 -94l-20 -97q-10 -49 -21 -96l-20 -89 l-18 -80h-228z" />
<glyph unicode="&#x22;" horiz-adv-x="835" d="M264 987l55 506h241l-105 -506h-191zM644 987l55 506h242l-106 -506h-191z" />
<glyph unicode="#" horiz-adv-x="1508" d="M164 374l36 233h289l98 258h-245l36 228h299l141 377h217l-143 -377h229l143 377h213l-143 -377h241l-36 -228h-292l-99 -258h249l-36 -233h-299l-142 -374h-213l143 374h-230l-142 -374h-214l141 374h-241zM704 607h230l99 258h-231z" />
<glyph unicode="$" horiz-adv-x="1152" d="M116 106l125 240q47 -26 92 -44.5t90 -31.5q37 -11 75 -17l65 424q-3 2 -7 4q-53 26 -104.5 56.5t-92 70t-65 90t-24.5 117.5q0 96 41 180t113 146t169 97q78 29 166 34l35 226h194l-36 -232q52 -5 101 -13q58 -9 106.5 -22.5t84.5 -28.5l-123 -233q-67 21 -161 41 q-22 5 -47 8l-58 -373l2 -2q54 -27 105.5 -59t92 -73.5t65 -94t24.5 -121.5q0 -72 -21.5 -136.5t-60 -119.5t-92.5 -98.5t-120 -74.5t-142 -48q-26 -5 -52 -9l-40 -257h-195l39 254q-6 1 -13 1q-54 6 -110.5 18t-112.5 32t-108 49zM571 1074q0 -39 24.5 -70t64.5 -58l15 -9 l46 292q-29 -2 -53 -8q-31 -9 -52.5 -28.5t-33 -49t-11.5 -69.5zM693 253q7 2 13 3q43 12 73.5 35.5t47 60t16.5 86.5q0 44 -24.5 78t-65.5 61l-9 6z" />
<glyph unicode="%" horiz-adv-x="1843" d="M225 977q0 68 8.5 134t29 126t54 111.5t83 89t116.5 58.5t155 21q75 0 129 -25.5t89.5 -69.5t52.5 -103t17 -127t-8.5 -134t-29 -126t-54 -111.5t-83.5 -89t-117 -58.5t-155 -21q-75 0 -129 25.5t-89 69.5t-52 103t-17 127zM340 52l1267 1503l157 -96l-1267 -1503z M457 976q0 -30 5 -58t16.5 -50.5t31.5 -36t50 -13.5q37 0 64 20.5t45.5 53t30 74t17.5 83t8 79.5t2 65q0 30 -5 58t-17 50.5t-32 36t-50 13.5q-22 0 -42.5 -9.5t-39 -29.5t-34 -50.5t-26.5 -72t-17.5 -95t-6.5 -118.5zM1120 297q0 68 8.5 134t29 126t54 111.5t83.5 89 t117 58.5t155 21q75 0 129 -25.5t89 -69.5t52 -103t17 -127t-8.5 -134t-29 -126t-54 -111.5t-83 -89t-117 -58.5t-154.5 -21q-75 0 -129.5 25.5t-89.5 69.5t-52 103t-17 127zM1350 292q0 -29 5 -56.5t17 -49.5t32.5 -35t51.5 -13q37 0 64 20.5t45.5 53.5t30 74.5t18 84 t8.5 81.5t2 67q0 30 -5 57.5t-17 48.5t-32.5 33.5t-51.5 12.5q-37 0 -63.5 -20t-45.5 -53t-30.5 -74t-18 -83.5t-8.5 -81.5t-2 -67z" />
<glyph unicode="&#x26;" horiz-adv-x="1588" d="M152 330q0 89 18 156t55 119t93 92.5t132 78.5q-29 11 -56.5 34t-49 55.5t-34.5 73t-13 86.5q0 118 50.5 210t136.5 155.5t199 96.5t239 33q62 0 124.5 -8.5t119 -26.5t104.5 -45.5t80.5 -66t46.5 -87.5q9 -29 9 -62q0 -23 -4 -47l-8 -57h338l-35 -221h-338l-69 -456 q-9 -56 -9 -102q0 -41 10 -72q11 -32 34.5 -50t62.5 -18q20 0 42.5 1.5t44.5 4.5t42.5 7t38.5 9l2 -202q-20 -8 -47.5 -16.5t-59.5 -15.5t-65.5 -12t-64.5 -5q-107 0 -174 23t-101.5 74t-39.5 132q-1 18 -1 37q0 69 14 159l111 727q5 28 -6 50.5t-32 39t-50 28t-61 18.5 t-65.5 10t-63.5 3q-48 0 -95 -11t-84 -34.5t-60 -59t-23 -84.5q0 -44 18.5 -78t51 -58t77.5 -36.5t98 -12.5h61l-37 -238h-90q-62 0 -120 -17.5t-103 -50t-72.5 -79.5t-27.5 -107q0 -45 16.5 -83t46.5 -65.5t73 -42.5t96 -15q50 0 96 8t84 19l7 -207q-45 -22 -112.5 -35.5 t-158.5 -13.5q-98 0 -179 23.5t-139.5 69.5t-91 112.5t-32.5 152.5z" />
<glyph unicode="'" horiz-adv-x="462" d="M278 997l57 496h262l-97 -496h-222z" />
<glyph unicode="(" horiz-adv-x="728" d="M201 398q0 176 29.5 332.5t86 301t139.5 280.5t191 271l194 -79l-95 -136q-46 -68 -87.5 -143.5t-76 -160.5t-59.5 -187.5t-39 -225.5t-14 -273q0 -76 7 -157t21 -160.5t34.5 -154t48.5 -138.5l-224 -83q-38 78 -67 165t-49 178.5t-30 185.5t-10 184z" />
<glyph unicode=")" horiz-adv-x="730" d="M80 -236l95 136q46 68 87.5 143.5t76 160.5t59.5 187.5t39 225.5t14 273q0 76 -7 157t-21 160.5t-34.5 154t-48.5 138.5l224 83q38 -78 67 -165t49 -178.5t30 -185.5t10 -184q0 -176 -29.5 -332.5t-86 -301t-139.5 -280.5t-191 -271z" />
<glyph unicode="*" horiz-adv-x="940" d="M178 865l337 183l-281 181l82 124l272 -190l55 357h133l-56 -357l330 190l42 -124l-333 -181l278 -183l-82 -124l-270 191l-56 -356h-132l55 356l-331 -191z" />
<glyph unicode="+" horiz-adv-x="1449" d="M292 531l35 222h395l68 436h241l-68 -436h397l-35 -222h-396l-74 -476h-241l74 476h-396z" />
<glyph unicode="," horiz-adv-x="564" d="M65 -280l39 67l43 80q21 40 35.5 74t14.5 51q0 12 -7.5 23t-16.5 26t-16.5 34.5t-7.5 47.5q0 46 13 79.5t37 55.5t57 32.5t72 10.5q69 0 101 -30t32 -92q0 -58 -25 -126.5t-63 -137.5t-84 -134t-88 -116z" />
<glyph unicode="-" horiz-adv-x="811" d="M213 467l35 222h532l-35 -222h-532z" />
<glyph unicode="." horiz-adv-x="563" d="M146 103q0 104 44 151t142 47q65 0 97 -27.5t32 -90.5q0 -53 -10 -90.5t-31.5 -62t-56 -36t-82.5 -11.5q-68 0 -101.5 27.5t-33.5 92.5z" />
<glyph unicode="/" horiz-adv-x="732" d="M-10 -190l730 1683h222l-730 -1683h-222z" />
<glyph unicode="0" horiz-adv-x="1283" d="M181 519q0 120 17.5 235t53 218t91 189.5t131 149.5t173 98t217.5 35q79 0 143.5 -18.5t115.5 -53t89 -83.5t62.5 -110t37 -132t12.5 -149q0 -120 -17.5 -235.5t-53.5 -218t-92 -189.5t-132 -149.5t-173.5 -98t-217.5 -35.5q-118 0 -204 41.5t-142.5 114.5t-83.5 173 t-27 218zM477 567q0 -66 8 -131t31 -117.5t64 -85t107 -32.5q62 0 112 30.5t87.5 81.5t64.5 117.5t44 138.5t25 144t8 135q0 44 -3.5 88t-12.5 85t-24.5 76.5t-39 61.5t-56 41t-76.5 15q-65 0 -115.5 -30t-88 -80.5t-63.5 -116t-42 -137.5t-23 -145.5t-7 -138.5z" />
<glyph unicode="1" horiz-adv-x="1021" d="M132 0l38 239h287l142 924l-321 -126l-32 204l398 177h278l-183 -1179h261l-38 -239h-830z" />
<glyph unicode="2" horiz-adv-x="1058" d="M104 0l38 239l320 313l130 131q63 65 112 128.5t78.5 124.5t29.5 119q0 36 -14.5 62.5t-39 44t-56.5 26.5t-68 9q-75 0 -152.5 -21.5t-147.5 -53.5l-58 213q43 23 95.5 43t109 34.5t113.5 23t108 8.5q82 0 157 -20.5t132 -61t91 -102.5t34 -144q0 -81 -25.5 -159 t-68 -151t-98.5 -141.5t-116 -129.5l-294 -296h514l-38 -239h-886z" />
<glyph unicode="3" horiz-adv-x="1051" d="M91 53l87 227q63 -26 135.5 -44t152.5 -18q56 0 103.5 15.5t82 44t54 67.5t19.5 87q0 45 -25 77.5t-66 53t-92.5 30t-104.5 9.5h-99l35 239h121q53 0 105.5 17.5t94 47.5t67.5 70t26 85q0 32 -13 57t-36.5 42.5t-55.5 27t-70 9.5q-27 0 -58.5 -4t-65 -11t-67.5 -16.5 t-66 -20.5l-47 210q38 19 82.5 35t91.5 28t95 19t92 7q92 0 169.5 -19t133.5 -59.5t87.5 -103t31.5 -149.5q0 -69 -25 -129.5t-64.5 -107.5t-89 -78t-98.5 -40q45 -12 84 -39t67 -64t44 -82.5t16 -94.5q0 -122 -48 -216.5t-130.5 -159t-194 -97.5t-238.5 -33 q-45 0 -90.5 6.5t-87.5 17.5t-79.5 25.5t-65.5 31.5z" />
<glyph unicode="4" horiz-adv-x="1208" d="M111 304l45 288l682 826h337l-136 -875h209l-38 -239h-209l-47 -304h-283l47 304h-607zM418 543h338l79 533z" />
<glyph unicode="5" horiz-adv-x="1127" d="M118 60l89 237q36 -19 75 -33.5t79.5 -24.5t81 -15.5t80.5 -5.5q62 0 112.5 20t86 56.5t55 88t19.5 113.5q0 45 -16.5 77t-46 53t-70 30.5t-89.5 9.5q-33 0 -72 -2.5t-78.5 -6.5t-78.5 -9.5t-72 -11.5l121 782h761l-38 -239h-479l-42 -277q9 1 19 2t21.5 2t24.5 1h30 q90 0 165.5 -22.5t129.5 -68t84.5 -113t30.5 -157.5q0 -135 -48.5 -241.5t-133 -180.5t-200.5 -113t-251 -39q-45 0 -93.5 6.5t-94.5 18t-88 27.5t-74 36z" />
<glyph unicode="6" horiz-adv-x="1156" d="M170 439q0 132 20 258t61.5 238t104.5 205.5t148.5 161t194 105t241.5 37.5q36 0 75.5 -5t79 -15t76.5 -25.5t69 -36.5l-94 -212q-32 14 -63.5 24.5t-64 18t-66 11t-69.5 3.5q-81 0 -138 -21t-98 -55.5t-68.5 -79t-49.5 -92.5l-22 -52l-20 -45l-19 -40q-10 -19 -20 -36 l7 -5q15 19 37 43t46 42q24 20 53.5 34.5t61.5 24.5t65 14.5t64 4.5q91 0 164 -26.5t124 -76t78 -119t27 -154.5q0 -126 -42 -234.5t-119 -189t-187 -126.5t-245 -46q-106 0 -183.5 35t-128.5 97.5t-75.5 148t-24.5 186.5zM440 403q0 -44 12 -79.5t36.5 -61t61.5 -39.5 t87 -14q62 0 109 27.5t79 71.5t48 98.5t16 109.5q0 39 -11 74t-33 60.5t-56.5 40.5t-80.5 15q-65 0 -115 -25.5t-84 -68t-51.5 -97t-17.5 -112.5z" />
<glyph unicode="7" horiz-adv-x="966" d="M212 0q28 92 63.5 190.5t79 200t93.5 204.5t107.5 203.5t121.5 196.5t134 184h-560l38 239h863l-32 -197q-73 -94 -142.5 -202t-132.5 -221t-118.5 -226t-101 -217.5t-79 -195.5t-52.5 -159h-282z" />
<glyph unicode="8" horiz-adv-x="1184" d="M150 317q0 96 34.5 169t90.5 129.5t127 98.5l66 37q-49 29 -88 65q-41 39 -66 87.5t-25 113.5q0 102 47 181.5t123.5 134t173.5 83t198 28.5q77 0 148.5 -19.5t126.5 -58.5t88 -97t33 -136q0 -91 -34 -158.5t-90 -118t-128 -88.5l-42 -22l34 -21q53 -32 93.5 -72.5 t65.5 -90.5t25 -115q0 -115 -47.5 -203.5t-127 -149t-183.5 -91.5t-218 -31q-81 0 -157.5 23t-136 67.5t-95.5 108.5t-36 146zM431 378q0 -43 17 -76t45.5 -55.5t66 -34.5t79.5 -12q47 0 89.5 14t75 40t51.5 64t19 86q0 54 -25 95.5t-66.5 74.5t-94.5 60l-2 2l-4 -2 q-71 -30 -127 -67q-56 -36 -90 -81.5t-34 -107.5zM571 1065q0 -49 25 -87.5t65 -71.5q26 -21 57 -40q58 26 105 54q56 33 90.5 71t34.5 88q0 38 -14 65t-38.5 43.5t-57.5 24t-70 7.5q-38 0 -73 -9.5t-63 -29t-44.5 -48.5t-16.5 -67z" />
<glyph unicode="9" horiz-adv-x="1156" d="M135 54l94 212q32 -14 63.5 -24.5t64 -18t66 -11t69.5 -3.5q81 0 138 21t98 55.5t68.5 79t49.5 92.5l23 52l20 45l19 40q9 19 19 36l-7 5q-15 -19 -37 -43t-46 -42q-24 -20 -53.5 -34.5t-61.5 -24.5t-65 -14.5t-64 -4.5q-91 0 -164 26.5t-124 76t-78 119t-27 154.5 q0 126 42 234.5t119 189t187 126.5t245 46q106 0 183.5 -35t128.5 -97.5t75.5 -148t24.5 -186.5q0 -132 -20 -258t-61.5 -238t-104.5 -205.5t-148.5 -161t-194 -105t-241.5 -37.5q-36 0 -75.5 5t-79 15t-76.5 25.5t-69 36.5zM486 900q0 -39 11 -74t33 -60.5t56.5 -40.5 t80.5 -15q65 0 115 25.5t84 68t51.5 97t17.5 112.5q0 44 -12 79.5t-36.5 61t-61.5 39.5t-87 14q-62 0 -109 -27.5t-79 -71.5t-48 -98.5t-16 -109.5z" />
<glyph unicode=":" horiz-adv-x="563" d="M146 103q0 104 44 151t142 47q65 0 97 -27.5t32 -90.5q0 -53 -10 -90.5t-31.5 -62t-56 -36t-82.5 -11.5q-68 0 -101.5 27.5t-33.5 92.5zM268 894q0 105 44 152t142 47q65 0 97 -27.5t32 -90.5q0 -106 -40.5 -153.5t-137.5 -47.5q-69 0 -103 27.5t-34 92.5z" />
<glyph unicode=";" horiz-adv-x="563" d="M65 -280l39 67l43 80q21 40 35.5 74t14.5 51q0 12 -7.5 23t-16.5 26t-16.5 34.5t-7.5 47.5q0 46 13 79.5t37 55.5t57 32.5t72 10.5q69 0 101 -30t32 -92q0 -58 -25 -126.5t-63 -137.5t-84 -134t-88 -116zM269 894q0 105 44 152t141 47q66 0 97.5 -27.5t31.5 -90.5 q0 -53 -9.5 -90.5t-30.5 -62.5t-55.5 -36.5t-83.5 -11.5q-67 0 -101 27.5t-34 92.5z" />
<glyph unicode="&#x3c;" horiz-adv-x="1353" d="M234 538l31 201l1050 435l39 -187l-830 -342l729 -341l-107 -202z" />
<glyph unicode="=" horiz-adv-x="1450" d="M257 295l35 222h1033l-35 -222h-1033zM330 754l35 222h1033l-35 -222h-1033z" />
<glyph unicode="&#x3e;" horiz-adv-x="1450" d="M187 296l850 349l-729 341l98 188l914 -436l-31 -201l-1050 -435z" />
<glyph unicode="?" horiz-adv-x="981" d="M301 103q0 104 44.5 151t142.5 47q65 0 97 -27.5t32 -90.5q0 -105 -41 -152.5t-138 -47.5q-69 0 -103 27.5t-34 92.5zM330 1438q43 19 89.5 34.5t93.5 26t91.5 16t83.5 5.5q93 0 165.5 -17.5t121.5 -53t74.5 -88.5t25.5 -123q0 -85 -27 -146t-68 -108t-90 -87t-94 -83 t-79.5 -95.5t-45.5 -125.5q-2 -14 -5 -31.5t-6 -37l-6 -38.5l-4 -33h-284q1 4 3 21l6 36q3 19 6 35t3 18q15 94 49 161.5t77 118t89 89.5l85 72q38 34 62.5 69t24.5 80q0 60 -41 90.5t-108 30.5q-28 0 -55 -2.5t-58 -9t-67 -17.5t-82 -27z" />
<glyph unicode="@" horiz-adv-x="2107" d="M201 393q0 171 42 321t117.5 275t180.5 224t230.5 167t267 104t290.5 36q134 0 244 -26.5t196.5 -74.5t149.5 -114.5t104.5 -146.5t61.5 -170.5t20 -186.5q0 -111 -22 -210.5t-60.5 -184.5t-92.5 -153.5t-118.5 -116.5t-136.5 -74t-148 -26q-114 0 -182 39.5t-89 118.5 q-21 -32 -50 -58.5t-62.5 -45.5t-70 -29.5t-73.5 -10.5q-67 0 -122 25.5t-94 74.5t-60.5 120t-21.5 162q0 139 38 258t109 206t172.5 136.5t229.5 49.5q51 0 98.5 -8t92 -22.5t85.5 -33.5t80 -41l-77 -495q-10 -61 -10 -102q0 -44 9 -71q9 -25 25 -35t38 -10q41 0 74.5 26 t60 69t46 97.5t32 111.5t18.5 111t6 97q0 124 -35 220.5t-105.5 162.5t-177 100t-249.5 34q-106 0 -205.5 -27.5t-186.5 -79.5t-158.5 -126.5t-122.5 -168t-79.5 -205t-28.5 -236.5q0 -140 38 -249.5t107.5 -184.5t167 -114.5t215.5 -39.5q27 0 59.5 3t65 8.5t62.5 13 t52 15.5l28 -201q-34 -15 -74 -27t-83 -21t-88 -14t-88 -5q-169 0 -306 54t-234 153.5t-149.5 239.5t-52.5 312zM983 499q0 -108 37.5 -164t93.5 -56q15 0 31 4t33.5 16.5t36.5 35t40 60.5l64 415q-28 20 -58 33t-74 13q-54 0 -93 -32t-63.5 -83.5t-36 -115t-11.5 -126.5z " />
<glyph unicode="A" horiz-adv-x="1319" d="M11 0l722 1493h326l248 -1493h-285l-43 311h-540l-140 -311h-288zM551 550h390l-95 651z" />
<glyph unicode="B" horiz-adv-x="1218" d="M129 0l233 1493h472q85 0 163.5 -17t139 -53.5t97 -93.5t36.5 -137q0 -66 -14 -121.5t-42.5 -101.5t-71.5 -83.5t-100 -67.5q39 -15 72 -40.5t57 -60.5t38 -78.5t14 -94.5q0 -140 -48.5 -242.5t-135.5 -169.5t-208.5 -99.5t-268.5 -32.5h-433zM449 239h192 q60 0 111.5 15.5t89.5 46t60 77t22 109.5q0 49 -21 83t-56.5 54t-83 29t-99.5 9h-150zM552 901h191q55 0 98 16t71.5 45t43.5 71t15 93q0 40 -17.5 65t-47 39t-68.5 19t-82 5h-150z" />
<glyph unicode="C" horiz-adv-x="1244" d="M188 597q0 121 23 236.5t68 218t111.5 188.5t152.5 148t191.5 97t229.5 35q72 0 135.5 -15t116.5 -39.5t94 -55.5t69 -62l-137 -185q-34 25 -70.5 46t-76.5 35t-83 22t-90 8q-76 0 -137.5 -25.5t-109.5 -70.5t-83 -105.5t-58 -130t-34 -144.5t-11 -149q0 -89 18.5 -167 t56 -137t94 -93t131.5 -34q49 0 96 11.5t90.5 30.5t83 42t74.5 46l104 -178q-49 -47 -105 -84t-117.5 -62.5t-128.5 -39t-139 -13.5q-141 0 -246 50.5t-174.5 136t-104 199t-34.5 240.5z" />
<glyph unicode="D" horiz-adv-x="1382" d="M129 0l233 1493h473q146 0 258 -39.5t187.5 -114.5t114.5 -182t39 -242q0 -219 -56.5 -389.5t-166 -287t-269.5 -177.5t-367 -61h-446zM449 239h191q129 0 223 41.5t154.5 121.5t89.5 196.5t29 266.5q0 97 -22 169.5t-67.5 121.5t-114.5 73.5t-162 24.5h-164z" />
<glyph unicode="E" horiz-adv-x="1091" d="M129 0l233 1493h870l-38 -239h-588l-57 -373h558l-38 -239h-558l-62 -403h606l-37 -239h-889z" />
<glyph unicode="F" horiz-adv-x="1052" d="M129 0l233 1493h856l-38 -239h-574l-62 -401h543l-38 -239h-542l-96 -614h-282z" />
<glyph unicode="G" horiz-adv-x="1387" d="M184 596q0 135 26.5 256.5t77 224t124 184.5t166.5 139.5t204.5 88.5t238.5 31q67 0 131 -13.5t121 -38t105 -58t84 -73.5l-126 -199q-30 24 -70.5 48.5t-88 44t-99.5 31.5t-105 12q-75 0 -140 -22t-119.5 -62t-97.5 -97.5t-72.5 -128.5t-45 -154t-15.5 -175 q0 -108 25 -186.5t69.5 -129.5t105.5 -75.5t133 -24.5q29 0 64 5.5t68 15.5t61 23t43 28l44 280h-296l38 239h578l-100 -643q-59 -52 -123.5 -89t-134 -60.5t-142.5 -34.5t-147 -11q-136 0 -244.5 46.5t-184 129.5t-116 197.5t-40.5 250.5z" />
<glyph unicode="H" horiz-adv-x="1389" d="M129 0l233 1493h282l-96 -615h567l94 615h284l-232 -1493h-283l99 639h-566l-100 -639h-282z" />
<glyph unicode="I" horiz-adv-x="539" d="M129 0l233 1493h282l-233 -1493h-282z" />
<glyph unicode="J" horiz-adv-x="603" d="M-146 -410l39 244l102 9q40 3 75 20t62.5 51t48 87.5t32.5 129.5l210 1362h282l-203 -1313q-24 -152 -71.5 -263.5t-119.5 -184t-168 -107.5t-217 -35h-72z" />
<glyph unicode="K" horiz-adv-x="1267" d="M129 0l233 1493h282l-91 -586l575 586h341l-717 -708l548 -785h-356l-435 628l-98 -628h-282z" />
<glyph unicode="L" horiz-adv-x="1026" d="M129 0l233 1493h282l-195 -1254h595l-38 -239h-877z" />
<glyph unicode="M" horiz-adv-x="1726" d="M99 0q4 23 13 69l21 107l29 136l34 158l37 171l39 176l151 676h387l71 -689q7 -75 11 -139.5t5.5 -122.5t1.5 -111.5t-1 -106.5h10q12 45 36 110t54 139l65 152l65 152l262 616h382l-63 -676l-17 -176l-17 -171l-16 -158l-14 -137q-6 -62 -11.5 -107t-9.5 -68h-275 q4 25 10 74l15 114l17 140l18 156l19 159l17 150q7 59 15.5 119t16.5 108q9 56 19 109l-8 3l-144 -347l-339 -785h-325l-65 770l-26 362l-8 -4q-8 -59 -19 -122q-9 -54 -22 -121.5t-27 -133.5l-31 -146l-32 -151l-31 -147l-27 -131l-21 -106q-9 -45 -13 -70h-259z" />
<glyph unicode="N" horiz-adv-x="1398" d="M129 0l233 1493h341l249 -683q21 -57 40 -118l38 -121q18 -61 33 -121.5t26 -115.5l11 3l11 145q6 81 13.5 169.5t18 182.5t24.5 186l72 473h263l-232 -1493h-342l-234 620l-44 122q-23 65 -43.5 131t-37 128.5t-26.5 114.5l-10 -2q-3 -46 -9 -104l-12 -122 q-6 -63 -14 -130.5l-16 -131.5l-18 -124l-15 -107l-58 -395h-262z" />
<glyph unicode="O" horiz-adv-x="1491" d="M184 591q0 134 25 255.5t72.5 224.5t117 186t158 141.5t196 90t231.5 31.5q141 0 246 -49t174 -133.5t103 -197.5t34 -241q0 -141 -26 -264.5t-74.5 -226.5t-119 -184t-159 -137t-194.5 -85.5t-226 -29.5q-129 0 -232.5 43t-176 123.5t-111 195t-38.5 257.5zM482 633 q0 -93 17.5 -169.5t55 -130.5t97 -84t143.5 -30q72 0 133.5 23t111 65t87.5 100.5t63.5 130t38.5 152.5t13 168q0 82 -14 157.5t-49 133t-95.5 91.5t-153.5 34q-82 0 -147 -28t-115 -76.5t-85 -112t-57.5 -135t-33 -146t-10.5 -143.5z" />
<glyph unicode="P" horiz-adv-x="1187" d="M129 0l233 1493h489q118 0 204.5 -28t143 -77.5t84 -118t27.5 -150.5q0 -137 -49.5 -243.5t-135 -179.5t-202 -111t-249.5 -38h-178l-85 -547h-282zM534 786h208q57 0 106 16t84 49t55 82.5t20 117.5q0 51 -15 89.5t-43.5 63.5t-70 37.5t-94.5 12.5h-178z" />
<glyph unicode="Q" horiz-adv-x="1491" d="M184 583q0 149 28.5 276.5t80.5 231.5t125 184t163 134.5t193.5 82.5t217.5 28q117 0 217.5 -39t174 -116t115.5 -191t42 -264q0 -91 -12 -178.5t-36.5 -169t-62.5 -156.5t-90.5 -140.5t-119.5 -120t-150 -96.5l222 -227l-232 -171l-266 323q-6 -1 -16 -1l-19 -1 q-9 -1 -17 -1h-10q-131 0 -233 44.5t-172 125t-106.5 193t-36.5 249.5zM482 629q0 -62 9 -116.5t27 -100t44 -82t60 -61.5t76 -38t92 -13q91 0 173 40.5t144.5 121t99 201t36.5 280.5q0 102 -23 179t-64 129t-97.5 78t-124.5 26q-61 0 -118.5 -18.5t-108 -54.5t-92 -90 t-71 -125.5t-46 -160.5t-16.5 -195z" />
<glyph unicode="R" horiz-adv-x="1276" d="M129 0l233 1493h484q95 0 172.5 -18.5t132.5 -57t85 -99t30 -144.5q0 -91 -29.5 -167.5t-75.5 -134.5t-102 -97t-108 -55l-1 -10q37 -14 67 -37t54.5 -60.5t45.5 -91.5t41 -129l103 -392h-301l-80 289q-26 94 -52 152.5t-58.5 90t-75 42.5t-102.5 11h-90l-91 -585h-282z M540 824h164q56 0 103.5 21.5t82.5 59t54.5 87.5t19.5 107q0 37 -12 65.5t-35.5 48.5t-57.5 30.5t-78 10.5h-175z" />
<glyph unicode="S" horiz-adv-x="1080" d="M101 94l108 222q41 -27 84.5 -46.5t88.5 -32t91 -19t91 -6.5q43 0 80.5 13.5t65 38t43.5 60t16 80.5q0 44 -21.5 81t-56.5 71t-79 66l-92 66q-46 33 -90.5 69.5t-79.5 80t-56.5 95t-21.5 114.5q0 100 38.5 186t110.5 150t174.5 100.5t230.5 36.5q50 0 97 -7.5t90 -20.5 t81.5 -31t71.5 -39l-109 -216q-32 16 -66 29.5t-70.5 23t-75 15t-77.5 5.5q-41 0 -77 -10t-63 -29.5t-43 -47t-16 -63.5q0 -40 21.5 -74.5t55.5 -66.5q36 -33 80 -65l90 -67q46 -34 91 -72t79.5 -83.5t56 -98.5t21.5 -118q0 -114 -40.5 -208t-114 -162t-176 -105.5 t-226.5 -37.5q-44 0 -96 7t-105.5 22t-106 38.5t-98.5 55.5z" />
<glyph unicode="T" horiz-adv-x="1112" d="M207 1254l38 239h1095l-38 -239h-407l-199 -1254h-282l199 1254h-406z" />
<glyph unicode="U" horiz-adv-x="1357" d="M207 315q-6 44 -6 94q0 76 14 164l144 920h282l-140 -894q-12 -77 -12 -141q1 -7 1 -15q2 -70 26 -120t75 -77t136 -27q72 0 128 28t96 76.5t65 113t36 136.5l144 920h270l-139 -894q-24 -152 -71.5 -269t-126 -196.5t-190.5 -120.5t-264 -41q-145 0 -243.5 39.5 t-154 115.5t-70.5 188z" />
<glyph unicode="V" horiz-adv-x="1300" d="M250 1493h287l85 -543l31 -209l27 -192q12 -87 19 -151t6 -88h6q5 16 19 50l34 82l47 107l55 125l62 136l63 140l250 543h285l-701 -1493h-336z" />
<glyph unicode="W" horiz-adv-x="1819" d="M285 1493h279l18 -548q4 -114 5 -209.5t-0.5 -173t-4.5 -137.5l-5 -103h10l27 103l38 135l52 171q30 94 72 208l184 554h382l17 -493q2 -56 3.5 -118.5t1.5 -126t-0.5 -126t-1.5 -119t-3 -105t-4 -83.5h9l24 88l30 106l36 117l37 122l39 118l37 107l169 513h271 l-523 -1493h-362q-11 275 -18 510l-4 135q-2 68 -3 132l-2 123q-1 59 -1 109t1 88.5t3 61.5h-8l-19 -63l-28 -88l-35 -110l-41 -124l-44 -132l-44 -133l-172 -509h-363z" />
<glyph unicode="X" horiz-adv-x="1315" d="M5 0l605 789l-315 704h326l209 -472l347 472h314l-530 -707l349 -786h-326l-244 554l-419 -554h-316z" />
<glyph unicode="Y" horiz-adv-x="1239" d="M250 1493h306l210 -610l398 610h302l-606 -892l-93 -601h-282l93 601z" />
<glyph unicode="Z" horiz-adv-x="1091" d="M69 0l32 202l762 1053h-582l38 238h915l-32 -202l-756 -1052h613l-38 -239h-952z" />
<glyph unicode="[" horiz-adv-x="728" d="M81 -270l283 1826h490l-31 -193h-237l-223 -1440h237l-29 -193h-490z" />
<glyph unicode="\" horiz-adv-x="668" d="M246 1493h182l208 -1683h-182z" />
<glyph unicode="]" horiz-adv-x="728" d="M72 -270l31 193h237l222 1440h-237l30 193h490l-284 -1826h-489z" />
<glyph unicode="^" horiz-adv-x="1452" d="M293 936l566 557h204l391 -557h-201l-328 338l-429 -338h-203z" />
<glyph unicode="_" horiz-adv-x="1012" d="M8 -201l27 172h933l-27 -172h-933z" />
<glyph unicode="`" horiz-adv-x="859" d="M445 1551l146 148l282 -311l-117 -115z" />
<glyph unicode="a" horiz-adv-x="1210" d="M160 423q0 99 17.5 191t51 172.5t82 147t111.5 114t139 74t164 26.5q51 0 99.5 -13.5t88.5 -34t68.5 -45.5t39.5 -47l43 112h186l-101 -535l-42 -585h-194l-10 170q-34 -53 -81 -95q-52 -46 -122 -74.5t-162 -28.5q-90 0 -160.5 36.5t-119 98.5t-73.5 144t-25 172z M441 488q0 -58 10.5 -110t32 -91.5t53 -63t73.5 -23.5q40 0 73.5 18.5t61.5 48t50 68t39 78.5t29 78q11 34 19 62v1l53 223q-16 27 -42.5 52.5t-59 45.5t-70 32t-75.5 12q-43 0 -78 -17t-62.5 -47t-47.5 -71t-33 -89t-19.5 -100.5t-6.5 -106.5z" />
<glyph unicode="b" horiz-adv-x="1152" d="M145 124l223 1432h262l-82 -519q25 22 59 42t73 35.5t80.5 24.5t82.5 9q89 0 153 -29t105.5 -82.5t61.5 -129t20 -168.5q0 -180 -47 -322.5t-132.5 -241t-204 -150.5t-260.5 -52q-64 0 -123 10t-110 29t-92 47t-69 65zM430 270q9 -15 26.5 -28t40 -22t48 -14t50.5 -5 q76 0 133.5 29.5t96.5 88.5t58.5 149t19.5 211q0 52 -7.5 96t-24 76t-43 50.5t-63.5 18.5q-30 0 -62 -6.5t-65 -22t-65.5 -41t-62.5 -62.5z" />
<glyph unicode="c" horiz-adv-x="954" d="M150 421q0 168 48 302.5t134.5 229t207.5 145t267 50.5q36 0 73.5 -6t74 -17t70.5 -27t61 -36l-118 -204q-44 28 -104.5 45t-123.5 17q-75 0 -133 -35t-97.5 -95.5t-60.5 -142.5t-21 -175q0 -65 13.5 -115.5t41 -85t70.5 -53t103 -18.5q25 0 55.5 4.5t62.5 13t63 20.5 t57 26l53 -191q-35 -22 -79.5 -40.5t-92.5 -32t-96 -21t-90 -7.5q-111 0 -193.5 32.5t-137 92t-81.5 142t-27 182.5z" />
<glyph unicode="d" horiz-adv-x="1210" d="M160 423q0 99 17.5 191t51 172.5t82 147t111.5 114t139 74t164 26.5q31 0 64 -6.5t63.5 -18t58 -27.5t48.5 -36l77 495h261l-151 -982l-39 -573h-194l-10 159q-34 -49 -80 -88q-52 -45 -122.5 -72t-162.5 -27q-90 0 -160.5 36.5t-119 98.5t-73.5 144t-25 172zM441 488 q0 -58 10.5 -110t32 -91.5t53 -63t73.5 -23.5q40 0 74 17t62.5 45.5t51 65.5t39.5 77t28 80q9 33 14 62l36 230q-16 27 -39 52.5t-52 45.5t-63.5 32t-72.5 12q-43 0 -78 -17t-62.5 -47t-47.5 -71t-33 -89t-19.5 -100.5t-6.5 -106.5z" />
<glyph unicode="e" horiz-adv-x="1070" d="M158 430q0 82 18 167t53 164.5t86.5 150t119.5 123t151 83t181 30.5q76 0 141.5 -20t113.5 -59.5t75.5 -98t27.5 -134.5q0 -68 -20.5 -122t-57.5 -96.5t-88 -73t-111.5 -50.5t-128 -29.5t-137.5 -9.5q-29 0 -57.5 2t-50.5 5q-26 4 -49 8q-2 -24 -2 -46q0 -40 8 -74 q13 -51 42 -86t72 -53t97 -18q42 0 81 2.5t77 9.5t75.5 17.5t75.5 27.5l54 -186q-48 -26 -99 -43.5t-103.5 -28t-106 -15.5t-106.5 -5q-107 0 -188 32t-135 91.5t-81.5 144t-27.5 190.5zM460 672q20 -4 46 -7q22 -3 53 -5t69 -2q42 0 84.5 7.5t76 24.5t55 43.5t21.5 65.5 q0 31 -11 55t-31.5 40.5t-49 24.5t-62.5 8q-51 0 -92 -20t-72.5 -54.5t-53.5 -81t-33 -99.5z" />
<glyph unicode="f" horiz-adv-x="733" d="M146 899l35 221h191l12 79q16 97 47 169.5t81.5 120.5t122 71.5t167.5 23.5q60 0 108.5 -11t84.5 -27l-93 -210q-27 8 -66 13.5t-71 5.5q-30 0 -49.5 -8.5t-32.5 -25.5t-20.5 -41.5t-12.5 -55.5l-16 -104h272l-35 -221h-272l-143 -899h-262l143 899h-191z" />
<glyph unicode="g" horiz-adv-x="1200" d="M151 -389l78 225q24 -13 57 -24t69.5 -19t76 -12.5t77.5 -4.5q77 0 145.5 21.5t119.5 64t81 107t30 151.5q0 25 -1 56v2q-3 -3 -6 -7q-39 -51 -89 -89t-111.5 -60t-137.5 -22q-90 0 -161 32t-119.5 89t-74 134.5t-25.5 167.5q0 99 17.5 191t51 172.5t82 147t111.5 114 t139 74t164 26.5q51 0 99.5 -13.5t88.5 -34t68.5 -45.5t39.5 -47l43 112h186l-120 -571q1 -81 2 -154v-64l2 -63v-58v-45q0 -110 -25.5 -198.5t-70.5 -157.5t-108 -118.5t-138 -81.5t-160 -47.5t-174 -15.5q-42 0 -86.5 4.5t-85 13t-76 20.5t-59.5 27zM441 488 q0 -58 11 -105.5t32.5 -82t53.5 -53.5t74 -19q40 0 73.5 16t61 43t49.5 61.5t39 71.5t29 73q9 27 15 50l56 234q-16 27 -42.5 52.5t-59 45.5t-70 32t-75.5 12q-43 0 -78 -17t-62.5 -47t-47.5 -71t-33 -89t-19.5 -100.5t-6.5 -106.5z" />
<glyph unicode="h" horiz-adv-x="1202" d="M125 0l242 1556h262l-88 -559q29 34 70.5 62t88 48t93.5 30.5t86 10.5q105 0 170.5 -32t98.5 -93q34 -61 38 -149q1 -19 0 -39q0 -74 -13 -162l-104 -673h-262l97 629q9 55 14 107q2 18 1 34q0 32 -6 59q-9 40 -36 65t-82 25q-43 0 -87.5 -18t-84.5 -49t-74 -73t-56 -91 l-107 -688h-261z" />
<glyph unicode="i" horiz-adv-x="512" d="M125 0l174 1120h262l-175 -1120h-261zM321 1364q0 97 41 140.5t134 43.5q65 0 97 -26t32 -86q0 -97 -41 -139.5t-134 -42.5q-65 0 -97 25t-32 85z" />
<glyph unicode="j" horiz-adv-x="512" d="M-115 -436l12 217q63 6 103.5 22t65.5 45t38.5 73.5t23.5 107.5l169 1091h262l-164 -1058q-19 -119 -57.5 -211.5t-100 -156t-149 -97t-203.5 -33.5zM319 1364q0 97 41 140.5t134 43.5q65 0 97 -26t32 -86q0 -97 -41 -139.5t-134 -42.5q-65 0 -97 25t-32 85z" />
<glyph unicode="k" horiz-adv-x="1037" d="M125 0l242 1556h261l-133 -860l157 162l64 65l64 67q30 33 55.5 65.5t40.5 64.5h297q-21 -36 -53 -78l-69 -80l-71 -76l-61 -60l-232 -224l382 -602h-317l-290 498l-77 -498h-260z" />
<glyph unicode="l" horiz-adv-x="511" d="M125 0l242 1556h262l-243 -1556h-261z" />
<glyph unicode="m" horiz-adv-x="1793" d="M125 0l174 1120h185l12 -154q57 84 146.5 133t201.5 49q64 0 111.5 -16t81 -42t53.5 -60.5t29 -70.5q27 41 67 76t86.5 60t96.5 39t97 14q111 0 177.5 -37t98.5 -102t34 -152v-24q0 -77 -14 -166l-103 -667h-262l93 604q5 30 9.5 65t5.5 70v13q1 28 -3 54q-4 33 -18.5 58 t-39.5 40t-65 15t-77 -16t-69 -44.5t-57.5 -67t-43.5 -82.5l-109 -709h-263l94 604q4 31 9 66t6 70v12q0 30 -4 56q-5 33 -18.5 57t-38.5 39t-64 15q-45 0 -83 -18t-69 -47t-55 -66.5t-40 -77.5l-111 -710h-261z" />
<glyph unicode="n" horiz-adv-x="1203" d="M125 0l174 1120h186l11 -154q34 41 74.5 74.5t87 57.5t98 37t106.5 13q111 0 180.5 -32t104.5 -93t40 -149q1 -19 1 -39q0 -73 -14 -161l-104 -674h-263l98 628q7 55 11 108q1 13 1 24q0 38 -8 69q-11 41 -40 65.5t-86 24.5q-47 0 -87.5 -14t-76 -41t-66 -66t-56.5 -88 l-111 -710h-261z" />
<glyph unicode="o" d="M152 436q0 161 45.5 292.5t129 224.5t201 144t261.5 51q99 0 177 -34.5t133 -96t84 -146.5t29 -187q0 -161 -45.5 -292.5t-128.5 -224.5t-200.5 -144t-261.5 -51q-99 0 -177.5 34t-133.5 95.5t-84 147t-29 187.5zM430 476q0 -72 15 -124t42.5 -85.5t67 -50t88.5 -16.5 q53 0 105.5 27t94 82t67 138.5t25.5 196.5q0 142 -57.5 209t-155.5 67q-54 0 -106 -27t-93.5 -82.5t-67 -139t-25.5 -195.5z" />
<glyph unicode="p" horiz-adv-x="1152" d="M57 -426l240 1546h186l9 -126q33 36 73.5 64.5t85.5 48.5t93 30.5t96 10.5q89 0 153 -29t105.5 -82.5t61.5 -129t20 -168.5q0 -180 -47 -322.5t-132.5 -241t-204 -150.5t-260.5 -52q-41 0 -79.5 4t-74.5 12l-63 -415h-262zM422 239q33 -18 76 -28t94 -10q76 0 133.5 29.5 t96.5 88.5t58.5 149t19.5 211q0 52 -7.5 96t-24 76t-43 50.5t-63.5 18.5q-30 0 -62 -6.5t-65 -22t-65.5 -41t-62.5 -62.5z" />
<glyph unicode="q" horiz-adv-x="1180" d="M160 421q0 99 17.5 191.5t52 173.5t84.5 147.5t116 114t147 74t176 26.5q46 0 85 -11.5t70 -31t54.5 -45t38.5 -52.5l43 112h186l-239 -1546h-261l79 507q-20 -21 -51.5 -40t-69 -34t-79 -24t-83.5 -9q-89 0 -157 32.5t-114.5 91t-70.5 141t-24 182.5zM439 476 q0 -57 9.5 -106.5t30.5 -87t53 -59t77 -21.5q38 0 75.5 12t69.5 31.5t56.5 45t37.5 52.5l67 434q-16 27 -39 52.5t-52 45.5t-63.5 32t-72.5 12q-43 0 -78.5 -17t-63 -47.5t-48 -72t-33.5 -90.5t-19.5 -104t-6.5 -112z" />
<glyph unicode="r" horiz-adv-x="776" d="M125 0l175 1120h187l8 -142q32 39 72.5 70t86.5 53.5t96 34.5t101 12q18 0 32.5 -1.5t26.5 -4.5t21.5 -7t17.5 -8l-79 -267q-26 8 -53.5 13.5t-63.5 5.5q-35 0 -70.5 -7.5t-68 -23.5t-61 -40.5t-50.5 -58.5l-116 -749h-262z" />
<glyph unicode="s" horiz-adv-x="935" d="M89 100l121 204q33 -22 67.5 -41.5t70.5 -34.5t73 -24t74 -9q33 0 60 9.5t46.5 26t30 39.5t10.5 49q0 35 -30.5 64.5t-76.5 59.5l-99 62q-54 33 -100 72t-76.5 89t-30.5 115q0 77 30 144t86 116.5t136 78t181 28.5q47 0 95 -9t93 -24t84.5 -35t70.5 -42l-107 -200 q-64 34 -131.5 60.5t-136.5 26.5q-26 0 -48 -7t-37.5 -20t-24.5 -32.5t-9 -43.5q0 -35 30.5 -64.5t76.5 -59.5l100 -61q54 -32 99.5 -71.5t76 -89.5t30.5 -115q0 -89 -38.5 -161t-104 -122.5t-151.5 -78t-181 -27.5q-54 0 -106 9.5t-98.5 27t-86 41t-69.5 50.5z" />
<glyph unicode="t" horiz-adv-x="814" d="M157 899l29 183l198 38l76 319h235l-49 -319h311l-34 -221h-312l-69 -456q-10 -62 -12 -108v-14q0 -36 8 -61q10 -30 33.5 -44.5t64.5 -14.5q16 0 32 1t31.5 3.5t32 6.5t34.5 9l33 -190q-21 -13 -47 -24t-54.5 -18.5t-58.5 -12t-59 -4.5q-100 0 -166.5 26.5t-103 82 t-44.5 140.5q-2 26 -2 55q0 65 12 146l73 477h-192z" />
<glyph unicode="u" horiz-adv-x="1176" d="M177 223q-3 28 -3 60q0 68 14 152l106 685h262l-99 -639q-11 -72 -13 -125v-12q0 -45 10 -75q12 -34 38 -51t69 -17q42 0 80.5 13t74 36t69 55t64.5 71l115 744h262l-173 -1120h-220l5 143q-35 -42 -80 -74t-94.5 -53.5t-101 -32.5t-100.5 -11q-83 0 -143.5 26 t-96.5 81.5t-45 143.5z" />
<glyph unicode="v" horiz-adv-x="1046" d="M191 1120h288l65 -491l14 -110q7 -54 11.5 -102.5t7 -91t1.5 -74.5h7l107 264q30 72 60 154l58 162l50 155.5t35 133.5h268q-14 -77 -38.5 -158.5t-55 -163.5t-66 -160t-70.5 -147l-252 -491h-308z" />
<glyph unicode="w" horiz-adv-x="1613" d="M216 1120h276l23 -438q3 -45 5 -106t2 -122t-1.5 -114t-6.5 -82h9q4 20 13.5 52.5t23.5 70.5l28 80l31 82l29 76l24 62l166 439h316l32 -438q2 -26 4.5 -62.5t5 -77t4.5 -83t2 -80.5v-70t-3 -51h9l133 396q19 56 38 119t35.5 125t30 119.5t20.5 102.5h250 q-13 -68 -33.5 -146.5t-46.5 -160.5t-55.5 -163.5t-60.5 -156.5l-206 -493h-326l-42 570q-3 37 -5 72t-3.5 67t-2 61.5t0.5 56.5h-6q-6 -24 -15 -57l-20 -69q-11 -36 -24.5 -75.5t-27.5 -76.5l-209 -549h-328z" />
<glyph unicode="x" horiz-adv-x="1084" d="M19 0l463 578l-266 542h282l163 -358l277 358h284l-439 -545l281 -575h-282l-181 387l-298 -387h-284z" />
<glyph unicode="y" horiz-adv-x="1050" d="M-8 -408l90 207q33 -12 69.5 -18t68.5 -6q28 0 58 21.5t62 62.5q23 29 48 66l-199 1195h285l63 -482l14 -104q8 -60 14.5 -120.5t9.5 -111.5q1 -10 1 -18l69 150l70 160q35 84 68 172t61.5 177.5t48.5 176.5h272q-29 -107 -60.5 -202.5t-65 -183t-70.5 -169.5l-76 -163 l-122 -238q-61 -113 -121.5 -208t-121.5 -171t-123 -129t-125 -81.5t-128 -28.5q-20 0 -42 3t-44 9t-41 14.5t-33 19.5z" />
<glyph unicode="z" horiz-adv-x="891" d="M58 0l34 213l571 694h-442l34 213h747l-34 -213l-571 -694h479l-33 -213h-785z" />
<glyph unicode="{" horiz-adv-x="1146" d="M255 511l31 192h55q75 0 123.5 23t79 62t46.5 91t25 111q7 46 11.5 93t12.5 95q13 85 36 153t66.5 116.5t112 76t173.5 30.5q25 1 51.5 1.5t53.5 0.5h82l-29 -194h-63q-68 0 -110 -11t-67.5 -37.5t-39 -70.5t-23.5 -110q-6 -42 -11 -89t-12 -95q-9 -56 -23.5 -109.5 t-40.5 -99t-67.5 -79.5t-104.5 -49q42 -12 69.5 -35t44 -53.5t23.5 -66t7 -70.5q0 -57 -9 -104t-20.5 -90.5t-20.5 -87t-9 -91.5q0 -35 8.5 -63.5t29.5 -48.5t56 -31t88 -11h62l-31 -194h-83q-27 0 -53 0.5t-51 1.5q-82 2 -136.5 22t-87 55t-46 82.5t-13.5 105.5 q0 42 5 79.5t11.5 72.5t14 69t13.5 70q9 58 9 110t-18 91.5t-59.5 62.5t-116.5 23h-55z" />
<glyph unicode="|" horiz-adv-x="538" d="M101 -483l318 2048h185l-318 -2048h-185z" />
<glyph unicode="}" horiz-adv-x="1146" d="M122 -334l30 194h62q66 0 109 15t70 43.5t41 70.5t22 96q8 50 12.5 105t13.5 112q8 52 22.5 101t40.5 90t67 72t102 47q-57 14 -88.5 44.5t-44.5 71.5q-13 37 -13 80q0 5 1 10q1 49 9 101q6 39 14 75l16 71q7 35 12.5 70t5.5 71t-8.5 64.5t-28.5 49t-55 31.5t-87 11h-63 l31 194h81q31 0 58 -0.5t53 -2.5q80 -3 133 -23.5t85 -55.5t45 -82.5t13 -104.5q0 -44 -5 -82t-11.5 -74t-14 -70.5t-13.5 -71.5q-10 -62 -10 -114q0 -50 18 -88q18 -39 59.5 -61.5t116.5 -22.5h56l-29 -192h-57q-76 0 -125 -23t-79 -63t-45.5 -92.5t-24.5 -110.5 q-7 -43 -12 -87.5t-12 -88.5q-13 -85 -35.5 -153t-65.5 -117t-110.5 -76.5t-170.5 -30.5l-54 -2q-27 -1 -56 -1h-81z" />
<glyph unicode="~" horiz-adv-x="1450" d="M221 447l35 218q42 31 85.5 58t88.5 47t92.5 31.5t98.5 11.5q44 0 83.5 -10t77 -25t74 -33t73.5 -33t76 -25t82 -10q47 0 92.5 13.5t89.5 36t85 51t79 59.5l-34 -218q-42 -32 -86 -59t-89 -46.5t-92.5 -31t-97.5 -11.5q-44 0 -83.5 10t-77 25t-74 33t-73.5 33t-76.5 25 t-82.5 10q-47 0 -93 -13.5t-89.5 -35.5t-84.5 -51t-79 -60z" />
<glyph unicode="&#xa1;" horiz-adv-x="672" d="M171 -17l77 497l15 87q8 46 18 94l20 97q10 49 21 96l20 89l18 80h228l-6 -80l-8 -89l-10 -96l-10 -97l-11 -94q-6 -46 -13 -87l-77 -497h-282zM363 1293q0 53 10 90.5t31.5 62t55.5 36t82 11.5q69 0 103 -27.5t34 -92.5q0 -104 -44 -151t-143 -47q-65 0 -97 27.5 t-32 90.5z" />
<glyph unicode="&#xa2;" horiz-adv-x="1045" d="M143 428q0 168 53.5 301.5t149 226.5t226.5 142q63 24 131 36l36 226h206l-34 -214l33 -4q43 -6 84.5 -17t79.5 -27t70 -36l-117 -204q-52 28 -124 45q-31 7 -63 11l-113 -711q6 1 12 1q36 5 73.5 13.5t73.5 20.5t66 26l49 -191q-39 -22 -87.5 -40.5t-101.5 -32 t-106 -20.5q-8 -1 -15 -2l-35 -226h-206l36 228q-55 9 -102 25q-93 33 -154 93t-91 144t-30 186zM425 487q0 -69 17 -122t51 -90q28 -29 66 -48l106 669q-10 -4 -21 -9q-67 -33 -116 -91t-76 -137.5t-27 -171.5z" />
<glyph unicode="&#xa3;" horiz-adv-x="1179" d="M113 0l38 239q43 0 85.5 33.5t79 89.5t63.5 129t39 151h-193l37 239h194l16 108q22 136 63 236.5t106.5 165.5t158 97t216.5 32q38 0 73.5 -3.5t69.5 -10t67.5 -16t67.5 -21.5l-105 -242q-26 11 -55 19.5t-59 14.5t-60.5 9.5t-58.5 3.5q-48 0 -81.5 -16.5t-55.5 -47 t-35.5 -74.5t-21.5 -99l-24 -156h369l-38 -239h-369q-10 -69 -25 -128.5t-36.5 -109.5t-50.5 -91t-67 -74h578l-38 -239h-948z" />
<glyph unicode="&#xa4;" horiz-adv-x="1147" d="M97 208l219 206q-14 38 -20.5 83.5t-6.5 84.5q0 77 24 146.5t75 137.5l-156 205l147 138l153 -207q50 32 104 49t108 17t102.5 -17t90.5 -45l218 207l101 -138l-216 -207q6 -18 11 -39t8.5 -42.5t5.5 -42.5t2 -40q0 -78 -23.5 -147.5t-75.5 -138.5l153 -207l-145 -137 l-155 206q-48 -32 -101.5 -49t-107.5 -17q-56 0 -104.5 16.5t-90.5 45.5l-218 -207zM461 607q0 -39 12 -76t35 -65.5t56.5 -45.5t76.5 -17q52 0 98.5 23.5t80.5 61.5t54 87t20 100q0 39 -12 75.5t-35 65t-56.5 46t-75.5 17.5q-53 0 -99.5 -23t-81 -61t-54 -87t-19.5 -101z " />
<glyph unicode="&#xa5;" horiz-adv-x="1233" d="M151 432l27 165h394l9 61l-37 113h-340l26 165h252l-207 557h286l206 -554l373 554h287l-382 -557h252l-25 -165h-337l-74 -113l-9 -61h393l-25 -165h-394l-67 -432h-280l66 432h-394z" />
<glyph unicode="&#xa6;" horiz-adv-x="538" d="M119 -370l118 758h184l-118 -758h-184zM301 694l119 758h184l-118 -758h-185z" />
<glyph unicode="&#xa7;" horiz-adv-x="917" d="M99 -137l33 209q30 -14 65 -28.5t72 -26.5t74.5 -19.5t72.5 -7.5q30 0 60.5 7t55.5 22.5t40.5 40.5t15.5 60q0 32 -19.5 58t-51 49.5t-71.5 46.5l-82 49q-42 26 -82.5 56t-72 68.5t-50.5 86t-19 107.5q0 121 62 206t177 142q-43 37 -65 85t-22 104q0 90 35.5 154.5 t94 106.5t133 61.5t151.5 19.5q78 0 152 -15.5t143 -42.5l-33 -203l-59 28q-31 14 -64 25t-67 18t-68 7q-32 0 -63 -6.5t-55.5 -21.5t-39.5 -39.5t-15 -61.5q0 -30 19.5 -55t51 -48.5t71.5 -47.5l83 -49q42 -26 82 -56.5t71.5 -68t51 -84t19.5 -104.5q0 -119 -61.5 -207 t-181.5 -146q45 -35 69 -83.5t24 -105.5q0 -91 -37.5 -157t-98.5 -108.5t-138.5 -62.5t-158.5 -20t-156 16t-148 42zM362 703q0 -49 28 -88t68.5 -70t85.5 -55l80 -42q28 13 54.5 31.5t46 41t31.5 50t12 59.5q0 31 -13 59.5t-34.5 53t-49 45.5t-56.5 39.5t-57 32.5l-51 27 q-28 -15 -54 -33t-46.5 -40.5t-32.5 -50t-12 -60.5z" />
<glyph unicode="&#xa8;" horiz-adv-x="859" d="M316 1452q0 93 38.5 134.5t128.5 41.5q60 0 90.5 -24.5t30.5 -81.5q0 -93 -38.5 -134t-127.5 -41q-61 0 -91.5 24t-30.5 81zM717 1452q0 93 38 134.5t128 41.5q62 0 92.5 -25t30.5 -82q0 -92 -39.5 -133t-127.5 -41q-62 0 -92 24t-30 81z" />
<glyph unicode="&#xa9;" horiz-adv-x="1716" d="M244 609q0 123 27 237t78.5 213t125.5 180.5t169 139t209.5 89.5t245.5 32q104 0 189.5 -24.5t153 -68t117.5 -103.5t82.5 -131t48.5 -150t16 -160q0 -122 -30 -234.5t-84.5 -210.5t-131.5 -177.5t-171.5 -136.5t-204.5 -88t-230 -31q-140 0 -252.5 45t-192 127 t-122.5 197t-43 255zM419 625q0 -116 32 -207t92 -154t147 -96.5t197 -33.5q138 0 256.5 54t205 149.5t135.5 224.5t49 279q0 100 -28 192.5t-85.5 162.5t-146 112t-208.5 42q-103 0 -191 -26.5t-160 -74t-127 -114.5t-92.5 -147.5t-56.5 -172.5t-19 -190zM569 632 q0 124 37.5 226t107 175t168.5 112.5t223 39.5q30 0 61 -4.5t60.5 -12.5t55.5 -20.5t47 -27.5l-106 -184q-36 22 -82 34.5t-96 12.5q-61 0 -103.5 -27.5t-69 -71t-38.5 -98t-12 -108.5q0 -42 8.5 -76t28 -58t52 -37.5t81.5 -13.5q21 0 45 3.5t48 9.5t47 14.5t43 19.5 l49 -168q-27 -17 -64 -32t-76.5 -26t-79.5 -17t-74 -6q-98 0 -167 26.5t-112 72t-62.5 108t-19.5 134.5z" />
<glyph unicode="&#xaa;" horiz-adv-x="895" d="M203 399l31 191h672l-31 -191h-672zM250 896q0 68 27 128t85.5 105t151 71t223.5 26h31q5 33 -1 54t-24 33.5t-47.5 17t-70.5 4.5q-27 0 -56 -4t-57.5 -11t-56 -16t-50.5 -18l-28 169q34 13 73.5 25.5t81.5 21.5t84.5 14.5t84.5 5.5q97 0 159.5 -25t95.5 -72t39 -115 q3 -23 3 -48q0 -50 -9 -109l-70 -443h-231q2 11 7 27t10 30q6 17 14 35q-22 -23 -50 -42t-58.5 -32.5t-62 -21.5t-59.5 -8q-56 0 -100.5 14t-75 40t-47 62.5t-16.5 81.5zM496 959q0 -29 17.5 -48t49.5 -19t61.5 10.5t53 29t39.5 42.5t20 51l4 29h-77q-81 0 -124.5 -24 t-43.5 -71z" />
<glyph unicode="&#xab;" horiz-adv-x="1380" d="M158 572l617 544l145 -143l-402 -389l288 -383l-196 -123zM784 590l562 500l141 -149l-347 -342l241 -364l-186 -123z" />
<glyph unicode="&#xac;" horiz-adv-x="1450" d="M258 680l34 211h1150l-94 -604h-187l61 393h-964z" />
<glyph unicode="&#xad;" horiz-adv-x="691" d="M150 458l37 241h534l-38 -241h-533z" />
<glyph unicode="&#xae;" horiz-adv-x="1579" d="M289 914q0 109 24 209.5t70 187.5t113 158t153 121t190 77.5t224 27.5q98 0 176.5 -22.5t140.5 -62t106.5 -93.5t73.5 -116.5t43 -131t14 -137.5q0 -108 -27 -206.5t-77 -183.5t-120 -154.5t-155.5 -118.5t-184.5 -75.5t-207 -26.5q-126 0 -229 38.5t-176 109.5 t-112.5 172.5t-39.5 226.5zM469 928q0 -100 27.5 -177t80 -129.5t128.5 -79.5t174 -27q121 0 223.5 46.5t176.5 127.5t116 189.5t42 232.5q0 82 -23.5 160.5t-73 139t-126.5 97.5t-185 37q-134 0 -238.5 -48.5t-176 -132t-108.5 -196t-37 -240.5zM613 711l102 657h305 q122 0 180 -38.5t58 -121.5q0 -38 -12 -67t-31.5 -50t-44.5 -36.5t-51 -26.5q-3 -2 -5 -2t-4 -1q19 -5 33 -11.5t24.5 -18t17.5 -29t13 -45.5l47 -210h-200l-50 198q-3 14 -9 22t-14 11.5t-20 4.5t-27 1h-84l-36 -237h-192zM863 1086h115q16 0 30.5 7t25.5 19t17 27.5 t6 32.5q0 30 -20 43.5t-56 13.5h-96z" />
<glyph unicode="&#xaf;" horiz-adv-x="859" d="M380 1351l32 202h622l-32 -202h-622z" />
<glyph unicode="&#xb0;" horiz-adv-x="847" d="M261 1158q0 78 33 146t87.5 119t125.5 80t147 29q65 0 118.5 -22.5t92 -61t60 -91t21.5 -112.5q0 -78 -33.5 -146.5t-88.5 -119.5t-126 -80t-146 -29q-63 0 -116.5 22.5t-92 61.5t-60.5 91.5t-22 112.5zM448 1181q0 -27 9.5 -51.5t27 -42.5t41.5 -28.5t53 -10.5 q36 0 68.5 12.5t56.5 35t38.5 54.5t14.5 71q0 27 -10 51.5t-27.5 42.5t-41.5 28.5t-53 10.5q-35 0 -66.5 -13.5t-56.5 -37t-39.5 -55t-14.5 -67.5z" />
<glyph unicode="&#xb1;" horiz-adv-x="1449" d="M326 745l35 222h394l54 346h242l-54 -346h396l-35 -222h-395l-60 -386h-242l60 386h-395z" />
<glyph unicode="&#xb2;" horiz-adv-x="633" d="M183 668l30 191l179 154q51 44 85 77t54 61t28 53t8 52q0 33 -21 53t-62 20q-48 0 -93 -10.5t-89 -33.5l-18 179q21 10 52 19.5t65.5 17t70 12t65.5 4.5q72 0 123.5 -13.5t84.5 -39t49 -61.5t16 -82q0 -47 -10.5 -88t-37.5 -83t-72.5 -89.5t-114.5 -108.5l-106 -93h283 l-29 -191h-540z" />
<glyph unicode="&#xb3;" horiz-adv-x="716" d="M237 683l75 184q32 -14 73 -20t91 -6q47 0 73 22.5t26 58.5q0 18 -7 30.5t-23 21t-42.5 12t-65.5 3.5h-49l30 190h68q29 0 52.5 6.5t40.5 19t26 31t9 41.5t-15.5 37.5t-44.5 14.5q-38 0 -76.5 -7.5t-85.5 -24.5l-19 172q21 10 49 18.5t59.5 15.5t63.5 11t61 4 q124 0 186 -49.5t62 -130.5q0 -37 -12 -71t-33.5 -62.5t-51.5 -50t-66 -33.5q26 -6 49 -19.5t39.5 -33t26 -45t9.5 -55.5q0 -69 -25 -126.5t-73.5 -99.5t-121.5 -65.5t-169 -23.5q-53 0 -99 7.5t-90 22.5z" />
<glyph unicode="&#xb4;" horiz-adv-x="859" d="M420 1397l368 302l135 -158l-388 -269z" />
<glyph unicode="&#xb5;" horiz-adv-x="1247" d="M58 -426l245 1546h263l-98 -618q-7 -48 -9 -89t3.5 -75t19 -60t37.5 -44t59 -27.5t83 -9.5q49 0 88 29.5t67.5 76t47 103.5t27.5 113l95 601h263l-126 -793q-5 -31 -6.5 -55t1.5 -40.5t12 -25.5t26 -9q14 0 34 7.5t33 14.5l7 -193q-20 -13 -45 -23t-51 -17t-51 -10.5 t-46 -3.5q-39 0 -68 11t-48.5 31.5t-31 49.5t-16.5 65q-26 -37 -56 -66t-64 -49.5t-72 -31t-81 -10.5q-34 0 -66 7t-59 19.5t-46.5 31t-28.5 42.5l-79 -498h-263z" />
<glyph unicode="&#xb6;" horiz-adv-x="1105" d="M263 1001q0 111 38.5 201.5t105.5 155t158.5 100t197.5 35.5h440l-262 -1690h-152l241 1553h-172l-241 -1553h-153l132 846q-78 9 -140 37t-104.5 73t-65.5 106t-23 136z" />
<glyph unicode="&#xb7;" horiz-adv-x="566" d="M243 669q0 47 10.5 85.5t32.5 65.5t55.5 41.5t79.5 14.5q64 0 95 -34.5t31 -94.5q0 -96 -44 -151t-135 -55q-64 0 -94.5 34t-30.5 94z" />
<glyph unicode="&#xb8;" horiz-adv-x="859" d="M123 -477l47 57q27 33 53 73.5t47 90t31 108.5h230q-12 -77 -42.5 -137t-70.5 -108.5t-85 -86.5l-85 -70z" />
<glyph unicode="&#xb9;" horiz-adv-x="715" d="M208 668l30 191h175l68 443l-201 -79l4 180l235 100h221l-99 -644h156l-30 -191h-559z" />
<glyph unicode="&#xba;" horiz-adv-x="871" d="M175 399l30 191h670l-30 -191h-670zM213 1029q0 106 32.5 196.5t94 156.5t149 103t197.5 37q77 0 137 -26.5t101 -72t62 -106t21 -127.5q0 -107 -33 -197t-94.5 -155.5t-149.5 -102.5t-197 -37q-77 0 -137 26.5t-100.5 71.5t-61.5 105t-21 128zM461 1066q0 -89 34.5 -129 t93.5 -40q28 0 58 16t55 48t41 80.5t16 113.5q0 88 -35 128.5t-95 40.5q-27 0 -57 -16.5t-54.5 -48.5t-40.5 -80.5t-16 -112.5z" />
<glyph unicode="&#xbb;" horiz-adv-x="1380" d="M82 253l347 342l-241 364l186 123l411 -478l-562 -500zM649 221l402 389l-288 383l196 123l452 -494l-617 -544z" />
<glyph unicode="&#xbc;" horiz-adv-x="1811" d="M208 668l30 191h175l68 443l-201 -79l4 180l235 100h221l-99 -644h156l-30 -191h-559zM315 52l1261 1503l159 -96l-1263 -1503zM1039 158l36 227l388 450h254l-76 -487h123l-30 -190h-123l-25 -158h-227l24 158h-344zM1275 348h138l31 206z" />
<glyph unicode="&#xbd;" horiz-adv-x="1818" d="M208 668l30 191h175l68 443l-201 -79l4 180l235 100h221l-99 -644h156l-30 -191h-559zM315 52l1261 1503l159 -96l-1263 -1503zM1155 0l30 191l179 154q51 44 84.5 77t54 61t28.5 52.5t8 51.5q0 34 -21.5 54t-61.5 20q-48 0 -93.5 -10.5t-90.5 -33.5l-18 179 q21 10 52 19.5t66 17t70.5 12t65.5 4.5q72 0 123.5 -13.5t85 -39t49 -61.5t15.5 -82q0 -47 -11 -88t-37.5 -83t-72 -89.5t-114.5 -108.5l-106 -93h284l-30 -191h-539z" />
<glyph unicode="&#xbe;" horiz-adv-x="1814" d="M237 683l74 184q33 -14 74 -20t91 -6q47 0 73 22.5t26 58.5t-30 50.5t-109 16.5h-49l30 190h69q28 0 51.5 6.5t40.5 19t26 31t9 41.5t-15 37.5t-44 14.5q-38 0 -76.5 -7.5t-86.5 -24.5l-18 172q20 10 48.5 18.5t60 15.5t63.5 11t60 4q125 0 187.5 -49.5t62.5 -130.5 q0 -37 -12 -71t-34 -62.5t-52.5 -50t-66.5 -33.5q27 -6 49.5 -19.5t39 -33t26 -45t9.5 -55.5q0 -69 -24.5 -126.5t-73.5 -99.5t-121.5 -65.5t-168.5 -23.5q-53 0 -99.5 7.5t-89.5 22.5zM315 52l1262 1503l158 -96l-1263 -1503zM1040 158l36 227l388 450h254l-76 -487h122 l-30 -190h-122l-24 -158h-229l24 158h-343zM1275 348h138l31 206z" />
<glyph unicode="&#xbf;" horiz-adv-x="982" d="M135 265q0 85 27 146t68 108t90 87t94 83t79.5 95.5t45.5 125.5q2 14 5 31.5t6 37l6 38.5l4 33h284q-1 -4 -3 -21l-6 -36q-3 -19 -6 -35t-3 -18q-15 -94 -49 -161.5t-77 -118t-89 -88.5l-84 -73q-39 -34 -63.5 -69t-24.5 -80q0 -60 41 -90.5t108 -30.5q28 0 55 2.5t58 9 t67 17.5t82 27l30 -220q-43 -19 -89.5 -34.5t-93.5 -26t-91.5 -16t-83.5 -5.5q-93 0 -165.5 17.5t-121.5 53t-74.5 88.5t-25.5 123zM593 1320q0 105 41 152.5t138 47.5q69 0 103 -27.5t34 -92.5q0 -104 -44.5 -151t-142.5 -47q-65 0 -97 27.5t-32 90.5z" />
<glyph unicode="&#xc0;" horiz-adv-x="1319" d="M11 0l722 1493h326l248 -1493h-285l-43 311h-540l-140 -311h-288zM551 550h390l-95 651zM605 1746l132 191l368 -216l-109 -135z" />
<glyph unicode="&#xc1;" horiz-adv-x="1319" d="M11 0l722 1493h326l248 -1493h-285l-43 311h-540l-140 -311h-288zM551 550h390l-95 651zM827 1721l434 216l104 -195l-441 -159z" />
<glyph unicode="&#xc2;" horiz-adv-x="1319" d="M11 0l722 1493h326l248 -1493h-285l-43 311h-540l-140 -311h-288zM551 550h390l-95 651zM588 1713l376 235l310 -229l-142 -147l-199 126l-245 -126z" />
<glyph unicode="&#xc3;" horiz-adv-x="1319" d="M11 0l722 1493h326l248 -1493h-285l-43 311h-540l-140 -311h-288zM551 550h390l-95 651zM556 1707q19 37 50.5 73t72 64t88.5 45.5t101 17.5q46 0 75.5 -13t53 -29t46 -29t53.5 -13q17 0 34 7.5t33 20.5t29.5 30.5t23.5 36.5l140 -106q-26 -54 -59.5 -94t-73 -66t-85 -39 t-93.5 -13q-50 0 -81.5 13t-55.5 29l-43 28q-20 13 -47 13q-19 0 -36 -6.5t-32.5 -18.5t-29.5 -27.5t-26 -33.5z" />
<glyph unicode="&#xc4;" horiz-adv-x="1319" d="M11 0l722 1493h326l248 -1493h-285l-43 311h-540l-140 -311h-288zM551 550h390l-95 651zM583 1737q0 93 39 134t127 41q62 0 92 -24t30 -81q0 -93 -38.5 -134t-126.5 -41q-62 0 -92.5 24t-30.5 81zM1016 1737q0 91 38 133t127 42q61 0 91.5 -24.5t30.5 -81.5 q0 -92 -39.5 -133t-125.5 -41q-62 0 -92 24t-30 81z" />
<glyph unicode="&#xc5;" horiz-adv-x="1319" d="M11 0l722 1493h2l-3 3q-30 27 -47 65.5t-17 85.5q0 57 22.5 108t63 89.5t95.5 61.5t121 23q57 0 98.5 -17.5t68.5 -46t40 -65t13 -74.5q0 -66 -23.5 -118.5t-64.5 -90.5q-20 -18 -42 -32l247 -1485h-285l-43 311h-540l-140 -311h-288zM551 550h390l-95 651zM847 1673 q0 -38 20 -56.5t52 -18.5q41 0 66 26t25 73q0 14 -4 27.5t-12.5 24t-21.5 17t-31 6.5q-42 0 -68 -27t-26 -72z" />
<glyph unicode="&#xc6;" horiz-adv-x="1824" d="M-9 0l982 1493h992l-37 -239h-589l-57 -373h556l-38 -239h-556l-62 -403h607l-38 -239h-890l57 362h-399l-226 -362h-302zM676 607h281l91 594z" />
<glyph unicode="&#xc7;" horiz-adv-x="1243" d="M188 597q0 121 23 236.5t68 218t111.5 188.5t152.5 148t191.5 97t229.5 35q72 0 135.5 -15t116.5 -39.5t94 -55.5t69 -62l-137 -185q-34 25 -70.5 46t-76.5 35t-83 22t-90 8q-76 0 -137.5 -25.5t-109.5 -70.5t-83 -105.5t-58 -130t-34 -144.5t-11 -149q0 -89 18.5 -167 t56 -137t94 -93t131.5 -34q49 0 96 11.5t90.5 30.5t83 42t74.5 46l104 -178q-49 -47 -105 -84t-117.5 -62.5t-128.5 -39t-139 -13.5q-141 0 -246 50.5t-174.5 136t-104 199t-34.5 240.5zM435 -477l47 57q27 33 53 73.5t47 90t31 108.5h230q-12 -77 -42.5 -137t-70.5 -108.5 t-85 -86.5l-85 -70z" />
<glyph unicode="&#xc8;" horiz-adv-x="1091" d="M129 0l233 1493h870l-38 -239h-588l-57 -373h558l-38 -239h-558l-62 -403h606l-37 -239h-889zM516 1746l132 191l368 -216l-109 -135z" />
<glyph unicode="&#xc9;" horiz-adv-x="1091" d="M129 0l233 1493h870l-38 -239h-588l-57 -373h558l-38 -239h-558l-62 -403h606l-37 -239h-889zM715 1721l434 216l104 -195l-441 -159z" />
<glyph unicode="&#xca;" horiz-adv-x="1091" d="M129 0l233 1493h870l-38 -239h-588l-57 -373h558l-38 -239h-558l-62 -403h606l-37 -239h-889zM506 1713l376 235l310 -229l-142 -147l-199 126l-245 -126z" />
<glyph unicode="&#xcb;" horiz-adv-x="1091" d="M129 0l233 1493h870l-38 -239h-588l-57 -373h558l-38 -239h-558l-62 -403h606l-37 -239h-889zM494 1737q0 93 39 134t127 41q62 0 92 -24t30 -81q0 -93 -38.5 -134t-126.5 -41q-62 0 -92.5 24t-30.5 81zM927 1737q0 91 38 133t127 42q61 0 91.5 -24.5t30.5 -81.5 q0 -92 -39.5 -133t-125.5 -41q-62 0 -92 24t-30 81z" />
<glyph unicode="&#xcc;" horiz-adv-x="539" d="M129 0l233 1493h282l-233 -1493h-282zM168 1746l132 191l368 -216l-109 -135z" />
<glyph unicode="&#xcd;" horiz-adv-x="539" d="M129 0l233 1493h282l-233 -1493h-282zM376 1721l434 216l104 -195l-441 -159z" />
<glyph unicode="&#xce;" horiz-adv-x="539" d="M129 0l233 1493h282l-233 -1493h-282zM201 1713l376 235l310 -229l-142 -147l-199 126l-245 -126z" />
<glyph unicode="&#xcf;" horiz-adv-x="539" d="M129 0l233 1493h282l-233 -1493h-282zM194 1737q0 93 39 134t127 41q62 0 92 -24t30 -81q0 -93 -38.5 -134t-126.5 -41q-62 0 -92.5 24t-30.5 81zM627 1737q0 91 38 133t127 42q61 0 91.5 -24.5t30.5 -81.5q0 -92 -39.5 -133t-125.5 -41q-62 0 -92 24t-30 81z" />
<glyph unicode="&#xd0;" horiz-adv-x="1434" d="M74 624l32 202h204l104 667h473q146 0 258 -39.5t187.5 -114.5t114.5 -182t39 -242q0 -219 -56.5 -389.5t-166 -287t-269.5 -177.5t-367 -61h-446l97 624h-204zM501 239h191q129 0 223 41.5t154.5 121.5t89.5 196.5t29 266.5q0 97 -22 169.5t-67.5 121.5t-114.5 73.5 t-162 24.5h-164l-66 -428h328l-31 -202h-329z" />
<glyph unicode="&#xd1;" horiz-adv-x="1398" d="M129 0l233 1493h341l249 -683q21 -57 40 -118l38 -121q18 -61 33 -121.5t26 -115.5l11 3l11 145q6 81 13.5 169.5t18 182.5t24.5 186l72 473h263l-232 -1493h-342l-234 620l-44 122q-23 65 -43.5 131t-37 128.5t-26.5 114.5l-10 -2q-3 -46 -9 -104l-12 -122 q-6 -64 -14 -131l-16 -131l-18 -124l-15 -107l-58 -395h-262zM580 1707q19 37 50.5 73t72 64t88.5 45.5t101 17.5q46 0 75.5 -13t53 -29t46 -29t53.5 -13q17 0 34 7.5t33 20.5t29.5 30.5t23.5 36.5l140 -106q-26 -54 -59.5 -94t-73 -66t-85 -39t-93.5 -13q-50 0 -81.5 13 t-55.5 29l-43 28q-20 13 -47 13q-19 0 -36 -6.5t-32.5 -18.5t-29.5 -27.5t-26 -33.5z" />
<glyph unicode="&#xd2;" horiz-adv-x="1491" d="M184 591q0 134 25 255.5t72.5 224.5t117 186t158 141.5t196 90t231.5 31.5q141 0 246 -49t174 -133.5t103 -197.5t34 -241q0 -141 -26 -264.5t-74.5 -226.5t-119 -184t-159 -137t-194.5 -85.5t-226 -29.5q-129 0 -232.5 43t-176 123.5t-111 195t-38.5 257.5zM482 633 q0 -93 17.5 -169.5t55 -130.5t97 -84t143.5 -30q72 0 133.5 23t111 65t87.5 100.5t63.5 130t38.5 152.5t13 168q0 82 -14 157.5t-49 133t-95.5 91.5t-153.5 34q-82 0 -147 -28t-115 -76.5t-85 -112t-57.5 -135t-33 -146t-10.5 -143.5zM658 1746l132 191l368 -216l-109 -135z " />
<glyph unicode="&#xd3;" horiz-adv-x="1491" d="M184 591q0 134 25 255.5t72.5 224.5t117 186t158 141.5t196 90t231.5 31.5q141 0 246 -49t174 -133.5t103 -197.5t34 -241q0 -141 -26 -264.5t-74.5 -226.5t-119 -184t-159 -137t-194.5 -85.5t-226 -29.5q-129 0 -232.5 43t-176 123.5t-111 195t-38.5 257.5zM482 633 q0 -93 17.5 -169.5t55 -130.5t97 -84t143.5 -30q72 0 133.5 23t111 65t87.5 100.5t63.5 130t38.5 152.5t13 168q0 82 -14 157.5t-49 133t-95.5 91.5t-153.5 34q-82 0 -147 -28t-115 -76.5t-85 -112t-57.5 -135t-33 -146t-10.5 -143.5zM828 1721l434 216l104 -195l-441 -159z " />
<glyph unicode="&#xd4;" horiz-adv-x="1491" d="M184 591q0 134 25 255.5t72.5 224.5t117 186t158 141.5t196 90t231.5 31.5q141 0 246 -49t174 -133.5t103 -197.5t34 -241q0 -141 -26 -264.5t-74.5 -226.5t-119 -184t-159 -137t-194.5 -85.5t-226 -29.5q-129 0 -232.5 43t-176 123.5t-111 195t-38.5 257.5zM482 633 q0 -93 17.5 -169.5t55 -130.5t97 -84t143.5 -30q72 0 133.5 23t111 65t87.5 100.5t63.5 130t38.5 152.5t13 168q0 82 -14 157.5t-49 133t-95.5 91.5t-153.5 34q-82 0 -147 -28t-115 -76.5t-85 -112t-57.5 -135t-33 -146t-10.5 -143.5zM680 1713l376 235l310 -229l-142 -147 l-199 126l-245 -126z" />
<glyph unicode="&#xd5;" horiz-adv-x="1491" d="M184 591q0 134 25 255.5t72.5 224.5t117 186t158 141.5t196 90t231.5 31.5q141 0 246 -49t174 -133.5t103 -197.5t34 -241q0 -141 -26 -264.5t-74.5 -226.5t-119 -184t-159 -137t-194.5 -85.5t-226 -29.5q-129 0 -232.5 43t-176 123.5t-111 195t-38.5 257.5zM482 633 q0 -93 17.5 -169.5t55 -130.5t97 -84t143.5 -30q72 0 133.5 23t111 65t87.5 100.5t63.5 130t38.5 152.5t13 168q0 82 -14 157.5t-49 133t-95.5 91.5t-153.5 34q-82 0 -147 -28t-115 -76.5t-85 -112t-57.5 -135t-33 -146t-10.5 -143.5zM628 1707q19 37 50.5 73t72 64 t88.5 45.5t101 17.5q46 0 75.5 -13t53 -29t46 -29t53.5 -13q17 0 34 7.5t33 20.5t29.5 30.5t23.5 36.5l140 -106q-26 -54 -59.5 -94t-73 -66t-85 -39t-93.5 -13q-50 0 -81.5 13t-55.5 29l-43 28q-20 13 -47 13q-19 0 -36 -6.5t-32.5 -18.5t-29.5 -27.5t-26 -33.5z" />
<glyph unicode="&#xd6;" horiz-adv-x="1491" d="M184 591q0 134 25 255.5t72.5 224.5t117 186t158 141.5t196 90t231.5 31.5q141 0 246 -49t174 -133.5t103 -197.5t34 -241q0 -141 -26 -264.5t-74.5 -226.5t-119 -184t-159 -137t-194.5 -85.5t-226 -29.5q-129 0 -232.5 43t-176 123.5t-111 195t-38.5 257.5zM482 633 q0 -93 17.5 -169.5t55 -130.5t97 -84t143.5 -30q72 0 133.5 23t111 65t87.5 100.5t63.5 130t38.5 152.5t13 168q0 82 -14 157.5t-49 133t-95.5 91.5t-153.5 34q-82 0 -147 -28t-115 -76.5t-85 -112t-57.5 -135t-33 -146t-10.5 -143.5zM668 1737q0 93 39 134t127 41 q62 0 92 -24t30 -81q0 -93 -38.5 -134t-126.5 -41q-62 0 -92.5 24t-30.5 81zM1101 1737q0 91 38 133t127 42q61 0 91.5 -24.5t30.5 -81.5q0 -92 -39.5 -133t-125.5 -41q-62 0 -92 24t-30 81z" />
<glyph unicode="&#xd7;" horiz-adv-x="1380" d="M180 221l447 405l-304 383l196 170l301 -379l417 378l129 -156l-420 -380l324 -407l-196 -170l-321 402l-444 -402z" />
<glyph unicode="&#xd8;" horiz-adv-x="1511" d="M72 -20l203 239q-30 52 -52 113q-39 113 -39 251q0 145 28.5 270.5t81 229.5t126.5 185.5t165 137.5t195.5 85t219.5 29q121 0 221 -44q44 -20 83 -46l176 208l163 -136l-194 -228q32 -52 54 -115q40 -113 40 -252q0 -144 -28.5 -270t-81.5 -230t-127 -185t-164.5 -137 t-195.5 -85t-219 -29q-122 0 -222 43q-47 20 -87 49l-184 -216zM483 629q0 -82 14 -148l621 730q-25 21 -55 35q-58 28 -130 28q-91 0 -173 -39.5t-143.5 -120t-97.5 -201.5t-36 -284zM604 282q27 -23 60 -38q58 -27 130 -27q60 0 116.5 19.5t106.5 57.5t91.5 93t72 127 t47 159t16.5 189q0 84 -16 153z" />
<glyph unicode="&#xd9;" horiz-adv-x="1357" d="M207 315q-6 44 -6 94q0 76 14 164l144 920h282l-140 -894q-12 -77 -12 -141q0 -8 1 -15q1 -70 25.5 -120t75.5 -77t136 -27q72 0 128 28t96 76.5t65 113t36 136.5l144 920h270l-139 -894q-24 -152 -71.5 -269t-126 -196.5t-190.5 -120.5t-264 -41q-145 0 -243.5 39.5 t-154 115.5t-70.5 188zM621 1746l132 191l368 -216l-109 -135z" />
<glyph unicode="&#xda;" horiz-adv-x="1357" d="M207 315q-6 44 -6 94q0 76 14 164l144 920h282l-140 -894q-12 -77 -12 -141q0 -8 1 -15q1 -70 25.5 -120t75.5 -77t136 -27q72 0 128 28t96 76.5t65 113t36 136.5l144 920h270l-139 -894q-24 -152 -71.5 -269t-126 -196.5t-190.5 -120.5t-264 -41q-145 0 -243.5 39.5 t-154 115.5t-70.5 188zM803 1721l434 216l104 -195l-441 -159z" />
<glyph unicode="&#xdb;" horiz-adv-x="1357" d="M207 315q-6 44 -6 94q0 76 14 164l144 920h282l-140 -894q-12 -77 -12 -141q0 -8 1 -15q1 -70 25.5 -120t75.5 -77t136 -27q72 0 128 28t96 76.5t65 113t36 136.5l144 920h270l-139 -894q-24 -152 -71.5 -269t-126 -196.5t-190.5 -120.5t-264 -41q-145 0 -243.5 39.5 t-154 115.5t-70.5 188zM615 1713l376 235l310 -229l-142 -147l-199 126l-245 -126z" />
<glyph unicode="&#xdc;" horiz-adv-x="1357" d="M207 315q-6 44 -6 94q0 76 14 164l144 920h282l-140 -894q-12 -77 -12 -141q0 -8 1 -15q1 -70 25.5 -120t75.5 -77t136 -27q72 0 128 28t96 76.5t65 113t36 136.5l144 920h270l-139 -894q-24 -152 -71.5 -269t-126 -196.5t-190.5 -120.5t-264 -41q-145 0 -243.5 39.5 t-154 115.5t-70.5 188zM603 1737q0 93 39 134t127 41q62 0 92 -24t30 -81q0 -93 -38.5 -134t-126.5 -41q-62 0 -92.5 24t-30.5 81zM1036 1737q0 91 38 133t127 42q61 0 91.5 -24.5t30.5 -81.5q0 -92 -39.5 -133t-125.5 -41q-62 0 -92 24t-30 81z" />
<glyph unicode="&#xdd;" horiz-adv-x="1239" d="M250 1493h306l210 -610l398 610h302l-606 -892l-93 -601h-282l93 601zM752 1721l434 216l104 -195l-441 -159z" />
<glyph unicode="&#xde;" horiz-adv-x="1187" d="M129 0l233 1493h281l-41 -262h208q118 0 204.5 -28t143 -77.5t84 -118.5t27.5 -151q0 -137 -49 -243t-135 -179t-202.5 -111t-250.5 -38h-176l-45 -285h-282zM493 524h207q58 0 107 16t84.5 48.5t55.5 82t20 117.5q0 52 -15 90t-43.5 63.5t-70.5 38t-95 12.5h-177z" />
<glyph unicode="&#xdf;" horiz-adv-x="1218" d="M125 0l150 971q24 151 72.5 261t122.5 182t172.5 107t222.5 35q74 0 140.5 -19t116.5 -54.5t79.5 -87t29.5 -116.5q0 -71 -23.5 -124t-58.5 -94.5t-75 -74.5l-76 -64q-35 -30 -58.5 -60.5t-23.5 -66.5q0 -39 22 -67.5t55 -54t71.5 -51t71.5 -58.5t55 -76.5t22 -104.5 q0 -97 -38.5 -173.5t-105 -129t-155 -80.5t-188.5 -28q-64 0 -124.5 19t-99.5 53l113 203q18 -11 41 -19.5t47 -14.5t47.5 -9t42.5 -3q27 0 52 6.5t45 20.5t32 37t12 56q0 39 -22 66.5t-55.5 51.5t-72 48t-72 56.5t-55.5 77t-22 108.5q0 70 23.5 121t58.5 90.5t75.5 71 t75.5 62t58.5 64t23.5 76.5q0 28 -11.5 50.5t-31.5 38.5t-48.5 24.5t-62.5 8.5q-53 0 -94.5 -21.5t-72.5 -62t-52 -99.5t-33 -134l-157 -1019h-262z" />
<glyph unicode="&#xe0;" horiz-adv-x="1200" d="M151 423q0 99 17.5 191t51 172.5t82 147t111.5 114t139 74t164 26.5q51 0 99.5 -13.5t88.5 -34t68.5 -45.5t39.5 -47l43 112h186l-101 -535l-42 -585h-194l-10 170q-34 -53 -81 -95q-52 -46 -122 -74.5t-162 -28.5q-90 0 -160.5 36.5t-119 98.5t-73.5 144t-25 172z M432 488q0 -58 10.5 -110t32 -91.5t53 -63t73.5 -23.5q40 0 73.5 18.5t61.5 48t50 68t39 78.5t29 78q11 34 19 62v1l53 223q-16 27 -42.5 52.5t-59 45.5t-70 32t-75.5 12q-43 0 -78 -17t-62.5 -47t-47.5 -71t-33 -89t-19.5 -100.5t-6.5 -106.5zM432 1551l146 148l282 -311 l-117 -115z" />
<glyph unicode="&#xe1;" horiz-adv-x="1200" d="M151 423q0 99 17.5 191t51 172.5t82 147t111.5 114t139 74t164 26.5q51 0 99.5 -13.5t88.5 -34t68.5 -45.5t39.5 -47l43 112h186l-101 -535l-42 -585h-194l-10 170q-34 -53 -81 -95q-52 -46 -122 -74.5t-162 -28.5q-90 0 -160.5 36.5t-119 98.5t-73.5 144t-25 172z M432 488q0 -58 10.5 -110t32 -91.5t53 -63t73.5 -23.5q40 0 73.5 18.5t61.5 48t50 68t39 78.5t29 78q11 34 19 62v1l53 223q-16 27 -42.5 52.5t-59 45.5t-70 32t-75.5 12q-43 0 -78 -17t-62.5 -47t-47.5 -71t-33 -89t-19.5 -100.5t-6.5 -106.5zM620 1397l368 302l135 -158 l-388 -269z" />
<glyph unicode="&#xe2;" horiz-adv-x="1200" d="M151 423q0 99 17.5 191t51 172.5t82 147t111.5 114t139 74t164 26.5q51 0 99.5 -13.5t88.5 -34t68.5 -45.5t39.5 -47l43 112h186l-101 -535l-42 -585h-194l-10 170q-34 -53 -81 -95q-52 -46 -122 -74.5t-162 -28.5q-90 0 -160.5 36.5t-119 98.5t-73.5 144t-25 172z M424 1416l382 283l302 -277l-140 -137l-196 155l-237 -155zM432 488q0 -58 10.5 -110t32 -91.5t53 -63t73.5 -23.5q40 0 73.5 18.5t61.5 48t50 68t39 78.5t29 78q11 34 19 62v1l53 223q-16 27 -42.5 52.5t-59 45.5t-70 32t-75.5 12q-43 0 -78 -17t-62.5 -47t-47.5 -71 t-33 -89t-19.5 -100.5t-6.5 -106.5z" />
<glyph unicode="&#xe3;" horiz-adv-x="1200" d="M151 423q0 99 17.5 191t51 172.5t82 147t111.5 114t139 74t164 26.5q51 0 99.5 -13.5t88.5 -34t68.5 -45.5t39.5 -47l43 112h186l-101 -535l-42 -585h-194l-10 170q-34 -53 -81 -95q-52 -46 -122 -74.5t-162 -28.5q-90 0 -160.5 36.5t-119 98.5t-73.5 144t-25 172z M350 1439q19 37 50.5 74.5t72 67.5t89 49t101.5 19q30 0 53 -7.5t41 -19.5t33 -25l30 -25q15 -12 31.5 -19.5t37.5 -7.5q17 0 34 9t33 24t30 34t24 38l139 -106q-51 -108 -133 -164.5t-179 -56.5q-34 0 -58 7.5t-43 19t-34 24.5l-28 24q-14 12 -28.5 19.5t-33.5 7.5 q-18 0 -35 -8.5t-33 -22t-30 -30.5t-27 -35zM432 488q0 -58 10.5 -110t32 -91.5t53 -63t73.5 -23.5q40 0 73.5 18.5t61.5 48t50 68t39 78.5t29 78q11 34 19 62v1l53 223q-16 27 -42.5 52.5t-59 45.5t-70 32t-75.5 12q-43 0 -78 -17t-62.5 -47t-47.5 -71t-33 -89 t-19.5 -100.5t-6.5 -106.5z" />
<glyph unicode="&#xe4;" horiz-adv-x="1200" d="M151 423q0 99 17.5 191t51 172.5t82 147t111.5 114t139 74t164 26.5q51 0 99.5 -13.5t88.5 -34t68.5 -45.5t39.5 -47l43 112h186l-101 -535l-42 -585h-194l-10 170q-34 -53 -81 -95q-52 -46 -122 -74.5t-162 -28.5q-90 0 -160.5 36.5t-119 98.5t-73.5 144t-25 172z M424 1452q0 93 38.5 134.5t128.5 41.5q60 0 90.5 -24.5t30.5 -81.5q0 -93 -38.5 -134t-127.5 -41q-61 0 -91.5 24t-30.5 81zM432 488q0 -58 10.5 -110t32 -91.5t53 -63t73.5 -23.5q40 0 73.5 18.5t61.5 48t50 68t39 78.5t29 78q11 34 19 62v1l53 223q-16 27 -42.5 52.5 t-59 45.5t-70 32t-75.5 12q-43 0 -78 -17t-62.5 -47t-47.5 -71t-33 -89t-19.5 -100.5t-6.5 -106.5zM825 1452q0 93 38 134.5t128 41.5q62 0 92.5 -25t30.5 -82q0 -92 -39.5 -133t-127.5 -41q-62 0 -92 24t-30 81z" />
<glyph unicode="&#xe5;" horiz-adv-x="1200" d="M151 423q0 99 17.5 191t51 172.5t82 147t111.5 114t139 74t164 26.5q51 0 99.5 -13.5t88.5 -34t68.5 -45.5t39.5 -47l43 112h186l-101 -535l-42 -585h-194l-10 170q-34 -53 -81 -95q-52 -46 -122 -74.5t-162 -28.5q-90 0 -160.5 36.5t-119 98.5t-73.5 144t-25 172z M432 488q0 -58 10.5 -110t32 -91.5t53 -63t73.5 -23.5q40 0 73.5 18.5t61.5 48t50 68t39 78.5t29 78q11 34 19 62v1l53 223q-16 27 -42.5 52.5t-59 45.5t-70 32t-75.5 12q-43 0 -78 -17t-62.5 -47t-47.5 -71t-33 -89t-19.5 -100.5t-6.5 -106.5zM513 1434q0 57 22.5 108 t63 89.5t95.5 61.5t121 23q57 0 98.5 -17.5t68.5 -46t40 -65t13 -74.5q0 -66 -23.5 -118.5t-64.5 -90t-95.5 -57.5t-116.5 -20q-47 0 -87.5 14.5t-70.5 41.5t-47 65.5t-17 85.5zM692 1460q0 -38 20 -56.5t52 -18.5q41 0 66 26t25 73q0 14 -4 27.5t-12.5 24t-21.5 17t-31 6.5 q-42 0 -68 -27t-26 -72z" />
<glyph unicode="&#xe6;" horiz-adv-x="1699" d="M126 248q0 117 47.5 204.5t132.5 145.5t203.5 87t259.5 29h54q5 31 5 57q0 22 -4 39q-7 40 -32 64t-67 34.5t-102 10.5q-32 0 -69 -4.5t-75 -12.5t-75.5 -19.5t-70.5 -26.5l-29 201q47 20 97.5 37t102.5 29t104 18.5t101 6.5q61 0 111.5 -8t92 -24.5t73 -43t54.5 -62.5 q72 65 163.5 101.5t198.5 36.5q76 0 139 -20t109 -59.5t71.5 -98t25.5 -134.5q0 -67 -19.5 -121.5t-55 -97t-85 -73t-108.5 -50t-125.5 -29t-136.5 -9.5q-29 0 -57.5 2t-50.5 5q-26 3 -49 7q-2 -22 -2 -42q0 -43 9 -78q12 -51 41 -86t71.5 -53t96.5 -18q42 0 79.5 2.5 t73 9.5t71 17.5t73.5 27.5l54 -186q-48 -26 -97 -43.5t-99 -28t-101.5 -15.5t-104.5 -5q-83 0 -146.5 16t-110 44t-77.5 66t-47 83q-33 -39 -68 -76.5t-83 -67t-112.5 -47.5t-155.5 -18q-72 0 -127.5 21t-93.5 57.5t-58 87t-20 110.5zM406 320q0 -50 26.5 -84.5t75.5 -34.5 q47 0 93 18.5t83 49t62 69.5t31 81l14 94h-102q-56 0 -107.5 -11t-90.5 -34.5t-62 -60t-23 -87.5zM1095 672q20 -4 46 -8q22 -3 53 -5t69 -2q42 0 84.5 7.5t76 24.5t55 44t21.5 66q0 31 -11 55t-31.5 40.5t-49 24.5t-62.5 8q-51 0 -92 -20t-72.5 -54.5t-53.5 -81t-33 -99.5z " />
<glyph unicode="&#xe7;" horiz-adv-x="944" d="M141 421q0 168 48 302.5t134.5 229t207.5 145t267 50.5q36 0 73.5 -6t74 -17t70.5 -27t61 -36l-118 -204q-44 28 -104.5 45t-123.5 17q-75 0 -133 -35t-97.5 -95.5t-60.5 -142.5t-21 -175q0 -65 13.5 -115.5t41 -85t70.5 -53t103 -18.5q25 0 55.5 4.5t62.5 13t63 20.5 t57 26l53 -191q-35 -22 -79.5 -40.5t-92.5 -32t-96 -21t-90 -7.5q-111 0 -193.5 32.5t-137 92t-81.5 142t-27 182.5zM246 -477l48 57q26 33 52 73.5t47 90t31 108.5h230q-12 -77 -42.5 -137t-70.5 -108.5t-85 -86.5l-85 -70z" />
<glyph unicode="&#xe8;" horiz-adv-x="1069" d="M153 430q0 82 18 167t53 164.5t86.5 150t119.5 123t151 83t181 30.5q76 0 141.5 -20t113.5 -59.5t75.5 -98t27.5 -134.5q0 -68 -20.5 -122t-57.5 -96.5t-88 -73t-111.5 -50.5t-128 -29.5t-137.5 -9.5q-29 0 -57.5 2t-50.5 5q-26 4 -49 8q-2 -24 -2 -46q0 -40 8 -74 q13 -51 42 -86t72 -53t97 -18q42 0 81 2.5t77 9.5t75.5 17.5t75.5 27.5l54 -186q-48 -26 -99 -43.5t-103.5 -28t-106 -15.5t-106.5 -5q-107 0 -188 32t-135 91.5t-81.5 144t-27.5 190.5zM455 672q20 -4 46 -7q22 -3 53 -5t69 -2q42 0 84.5 7.5t76 24.5t55 43.5t21.5 65.5 q0 31 -11 55t-31.5 40.5t-49 24.5t-62.5 8q-51 0 -92 -20t-72.5 -54.5t-53.5 -81t-33 -99.5zM511 1551l146 148l282 -311l-117 -115z" />
<glyph unicode="&#xe9;" horiz-adv-x="1069" d="M153 430q0 82 18 167t53 164.5t86.5 150t119.5 123t151 83t181 30.5q76 0 141.5 -20t113.5 -59.5t75.5 -98t27.5 -134.5q0 -68 -20.5 -122t-57.5 -96.5t-88 -73t-111.5 -50.5t-128 -29.5t-137.5 -9.5q-29 0 -57.5 2t-50.5 5q-26 4 -49 8q-2 -24 -2 -46q0 -40 8 -74 q13 -51 42 -86t72 -53t97 -18q42 0 81 2.5t77 9.5t75.5 17.5t75.5 27.5l54 -186q-48 -26 -99 -43.5t-103.5 -28t-106 -15.5t-106.5 -5q-107 0 -188 32t-135 91.5t-81.5 144t-27.5 190.5zM455 672q20 -4 46 -7q22 -3 53 -5t69 -2q42 0 84.5 7.5t76 24.5t55 43.5t21.5 65.5 q0 31 -11 55t-31.5 40.5t-49 24.5t-62.5 8q-51 0 -92 -20t-72.5 -54.5t-53.5 -81t-33 -99.5zM666 1397l368 302l135 -158l-388 -269z" />
<glyph unicode="&#xea;" horiz-adv-x="1069" d="M153 430q0 82 18 167t53 164.5t86.5 150t119.5 123t151 83t181 30.5q76 0 141.5 -20t113.5 -59.5t75.5 -98t27.5 -134.5q0 -68 -20.5 -122t-57.5 -96.5t-88 -73t-111.5 -50.5t-128 -29.5t-137.5 -9.5q-29 0 -57.5 2t-50.5 5q-26 4 -49 8q-2 -24 -2 -46q0 -40 8 -74 q13 -51 42 -86t72 -53t97 -18q42 0 81 2.5t77 9.5t75.5 17.5t75.5 27.5l54 -186q-48 -26 -99 -43.5t-103.5 -28t-106 -15.5t-106.5 -5q-107 0 -188 32t-135 91.5t-81.5 144t-27.5 190.5zM455 672q20 -4 46 -7q22 -3 53 -5t69 -2q42 0 84.5 7.5t76 24.5t55 43.5t21.5 65.5 q0 31 -11 55t-31.5 40.5t-49 24.5t-62.5 8q-51 0 -92 -20t-72.5 -54.5t-53.5 -81t-33 -99.5zM465 1416l382 283l302 -277l-140 -137l-196 155l-237 -155z" />
<glyph unicode="&#xeb;" horiz-adv-x="1069" d="M153 430q0 82 18 167t53 164.5t86.5 150t119.5 123t151 83t181 30.5q76 0 141.5 -20t113.5 -59.5t75.5 -98t27.5 -134.5q0 -68 -20.5 -122t-57.5 -96.5t-88 -73t-111.5 -50.5t-128 -29.5t-137.5 -9.5q-29 0 -57.5 2t-50.5 5q-26 4 -49 8q-2 -24 -2 -46q0 -40 8 -74 q13 -51 42 -86t72 -53t97 -18q42 0 81 2.5t77 9.5t75.5 17.5t75.5 27.5l54 -186q-48 -26 -99 -43.5t-103.5 -28t-106 -15.5t-106.5 -5q-107 0 -188 32t-135 91.5t-81.5 144t-27.5 190.5zM455 672q20 -4 46 -7q22 -3 53 -5t69 -2q42 0 84.5 7.5t76 24.5t55 43.5t21.5 65.5 q0 31 -11 55t-31.5 40.5t-49 24.5t-62.5 8q-51 0 -92 -20t-72.5 -54.5t-53.5 -81t-33 -99.5zM461 1452q0 93 38.5 134.5t128.5 41.5q60 0 90.5 -24.5t30.5 -81.5q0 -93 -38.5 -134t-127.5 -41q-61 0 -91.5 24t-30.5 81zM862 1452q0 93 38 134.5t128 41.5q62 0 92.5 -25 t30.5 -82q0 -92 -39.5 -133t-127.5 -41q-62 0 -92 24t-30 81z" />
<glyph unicode="&#xec;" horiz-adv-x="510" d="M125 0l174 1120h261l-175 -1120h-260zM155 1551l146 148l282 -311l-117 -115z" />
<glyph unicode="&#xed;" horiz-adv-x="510" d="M125 0l174 1120h261l-175 -1120h-260zM327 1397l368 302l135 -158l-388 -269z" />
<glyph unicode="&#xee;" horiz-adv-x="510" d="M129 0l174 1120h261l-175 -1120h-260zM131 1416l382 283l302 -277l-140 -137l-196 155l-237 -155z" />
<glyph unicode="&#xef;" horiz-adv-x="510" d="M125 0l174 1120h261l-175 -1120h-260zM140 1452q0 93 38.5 134.5t128.5 41.5q60 0 90.5 -24.5t30.5 -81.5q0 -93 -38.5 -134t-127.5 -41q-61 0 -91.5 24t-30.5 81zM541 1452q0 93 38 134.5t128 41.5q62 0 92.5 -25t30.5 -82q0 -92 -39.5 -133t-127.5 -41q-62 0 -92 24 t-30 81z" />
<glyph unicode="&#xf0;" d="M152 428q0 89 18 171.5t53 154t86.5 130t118 100t147.5 64.5t175 23q19 0 38 -2t35 -5t29 -8t21 -11q-6 22 -17.5 47t-24.5 49t-26.5 44.5t-22.5 31.5l-184 -85l-75 124l173 81q-11 14 -23 26.5t-26 24.5l-27 25l-29 24l176 139l43 -31q23 -17 45 -35.5t41 -36.5t31 -32 l213 101l68 -130l-187 -89q46 -68 80 -140.5t56.5 -148t34 -153t11.5 -154.5q0 -112 -20.5 -211.5t-59.5 -183.5t-94.5 -151t-125 -113.5t-152 -71.5t-175.5 -25q-95 0 -173.5 34.5t-134 95.5t-86 144.5t-30.5 182.5zM431 475q0 -56 12 -106t37.5 -87.5t66 -59.5t97.5 -22 q42 0 79 14.5t68 42t55.5 68t41 91.5t25.5 112t9 131q0 13 -0.5 32.5t-1.5 40t-2.5 39.5t-3.5 31q-15 12 -35.5 22t-45 17t-54 10.5t-63.5 3.5q-63 0 -115 -29t-90 -80t-59 -120.5t-21 -150.5z" />
<glyph unicode="&#xf1;" horiz-adv-x="1203" d="M125 0l174 1120h186l11 -154q34 41 74.5 74.5t87 57.5t98 37t106.5 13q111 0 180.5 -32t104.5 -93t40 -149q1 -19 1 -39q0 -73 -14 -161l-104 -674h-263l98 628q8 55 11 108q1 12 1 24q0 38 -8 69q-11 41 -40 65.5t-86 24.5q-47 0 -87.5 -14t-76 -41t-66 -66t-56.5 -88 l-111 -710h-261zM429 1439q19 37 50.5 74.5t72 67.5t89 49t101.5 19q30 0 53 -7.5t41 -19.5t33 -25l30 -25q15 -12 31.5 -19.5t37.5 -7.5q17 0 34 9t33 24t30 34t24 38l139 -106q-51 -108 -133 -164.5t-179 -56.5q-34 0 -58 7.5t-43 19t-33 24.5l-29 24q-14 12 -28.5 19.5 t-33.5 7.5q-18 0 -35 -8.5t-33 -22t-30 -30.5t-27 -35z" />
<glyph unicode="&#xf2;" d="M152 436q0 161 45.5 292.5t129 224.5t201 144t261.5 51q99 0 177 -34.5t133 -96t84 -146.5t29 -187q0 -161 -45.5 -292.5t-128.5 -224.5t-200.5 -144t-261.5 -51q-99 0 -177.5 34t-133.5 95.5t-84 147t-29 187.5zM430 476q0 -72 15 -124t42.5 -85.5t67 -50t88.5 -16.5 q53 0 105.5 27t94 82t67 138.5t25.5 196.5q0 142 -57.5 209t-155.5 67q-54 0 -106 -27t-93.5 -82.5t-67 -139t-25.5 -195.5zM482 1551l146 148l282 -311l-117 -115z" />
<glyph unicode="&#xf3;" d="M152 436q0 161 45.5 292.5t129 224.5t201 144t261.5 51q99 0 177 -34.5t133 -96t84 -146.5t29 -187q0 -161 -45.5 -292.5t-128.5 -224.5t-200.5 -144t-261.5 -51q-99 0 -177.5 34t-133.5 95.5t-84 147t-29 187.5zM430 476q0 -72 15 -124t42.5 -85.5t67 -50t88.5 -16.5 q53 0 105.5 27t94 82t67 138.5t25.5 196.5q0 142 -57.5 209t-155.5 67q-54 0 -106 -27t-93.5 -82.5t-67 -139t-25.5 -195.5zM686 1397l368 302l135 -158l-388 -269z" />
<glyph unicode="&#xf4;" d="M152 436q0 161 45.5 292.5t129 224.5t201 144t261.5 51q99 0 177 -34.5t133 -96t84 -146.5t29 -187q0 -161 -45.5 -292.5t-128.5 -224.5t-200.5 -144t-261.5 -51q-99 0 -177.5 34t-133.5 95.5t-84 147t-29 187.5zM430 476q0 -72 15 -124t42.5 -85.5t67 -50t88.5 -16.5 q53 0 105.5 27t94 82t67 138.5t25.5 196.5q0 142 -57.5 209t-155.5 67q-54 0 -106 -27t-93.5 -82.5t-67 -139t-25.5 -195.5zM479 1416l382 283l302 -277l-140 -137l-196 155l-237 -155z" />
<glyph unicode="&#xf5;" d="M152 436q0 161 45.5 292.5t129 224.5t201 144t261.5 51q99 0 177 -34.5t133 -96t84 -146.5t29 -187q0 -161 -45.5 -292.5t-128.5 -224.5t-200.5 -144t-261.5 -51q-99 0 -177.5 34t-133.5 95.5t-84 147t-29 187.5zM430 476q0 -72 15 -124t42.5 -85.5t67 -50t88.5 -16.5 q53 0 105.5 27t94 82t67 138.5t25.5 196.5q0 142 -57.5 209t-155.5 67q-54 0 -106 -27t-93.5 -82.5t-67 -139t-25.5 -195.5zM430 1439q19 37 50.5 74.5t72 67.5t89 49t101.5 19q30 0 53 -7.5t41 -19.5t33 -25l30 -25q15 -12 31.5 -19.5t37.5 -7.5q17 0 34 9t33 24t30 34 t24 38l139 -106q-51 -108 -133 -164.5t-179 -56.5q-34 0 -58 7.5t-43 19t-34 24.5l-28 24q-14 12 -28.5 19.5t-33.5 7.5q-18 0 -35 -8.5t-33 -22t-30 -30.5t-27 -35z" />
<glyph unicode="&#xf6;" d="M152 436q0 161 45.5 292.5t129 224.5t201 144t261.5 51q99 0 177 -34.5t133 -96t84 -146.5t29 -187q0 -161 -45.5 -292.5t-128.5 -224.5t-200.5 -144t-261.5 -51q-99 0 -177.5 34t-133.5 95.5t-84 147t-29 187.5zM430 476q0 -72 15 -124t42.5 -85.5t67 -50t88.5 -16.5 q53 0 105.5 27t94 82t67 138.5t25.5 196.5q0 142 -57.5 209t-155.5 67q-54 0 -106 -27t-93.5 -82.5t-67 -139t-25.5 -195.5zM486 1452q0 93 38.5 134.5t128.5 41.5q60 0 90.5 -24.5t30.5 -81.5q0 -93 -38.5 -134t-127.5 -41q-61 0 -91.5 24t-30.5 81zM887 1452 q0 93 38 134.5t128 41.5q62 0 92.5 -25t30.5 -82q0 -92 -39.5 -133t-127.5 -41q-62 0 -92 24t-30 81z" />
<glyph unicode="&#xf7;" horiz-adv-x="1450" d="M292 531l35 222h1033l-35 -222h-1033zM610 167q0 96 41 144.5t134 48.5q64 0 96 -29.5t32 -89.5q0 -97 -42.5 -144t-133.5 -47q-65 0 -96 28.5t-31 88.5zM745 1036q0 97 41 145.5t134 48.5q64 0 96 -29.5t32 -89.5q0 -97 -42.5 -144.5t-133.5 -47.5q-65 0 -96 28.5 t-31 88.5z" />
<glyph unicode="&#xf8;" d="M106 -81l142 201q-43 55 -67 127q-29 85 -29 187q0 161 45.5 293t129.5 225.5t202 144.5t263 51q87 0 159 -27l151 215l172 -114l-157 -223q43 -55 68 -127q29 -85 29 -187q0 -161 -45.5 -292.5t-129.5 -225t-202 -144.5t-263 -51q-87 0 -158 27l-136 -194zM430 474 q0 -47 6 -86l365 519q-35 13 -77 13q-54 0 -106.5 -27.5t-94.5 -83t-67.5 -139t-25.5 -196.5zM566 212q34 -12 76 -12q54 0 106.5 27t94.5 82.5t67.5 139.5t25.5 197q0 46 -6 85z" />
<glyph unicode="&#xf9;" horiz-adv-x="1176" d="M178 223q-4 28 -4 60q0 68 14 152l106 685h262l-99 -639q-11 -72 -13 -125v-12q0 -45 10 -76q12 -34 38 -50.5t69 -16.5q42 0 80.5 13t74 36t69 55t64.5 71l115 744h262l-173 -1120h-220l5 143q-35 -42 -80 -74t-94.5 -53.5t-101 -32.5t-100.5 -11q-83 0 -143.5 26 t-96 81.5t-44.5 143.5zM490 1551l146 148l282 -311l-117 -115z" />
<glyph unicode="&#xfa;" horiz-adv-x="1176" d="M178 223q-4 28 -4 60q0 68 14 152l106 685h262l-99 -639q-11 -72 -13 -125v-12q0 -45 10 -76q12 -34 38 -50.5t69 -16.5q42 0 80.5 13t74 36t69 55t64.5 71l115 744h262l-173 -1120h-220l5 143q-35 -42 -80 -74t-94.5 -53.5t-101 -32.5t-100.5 -11q-83 0 -143.5 26 t-96 81.5t-44.5 143.5zM662 1397l368 302l135 -158l-388 -269z" />
<glyph unicode="&#xfb;" horiz-adv-x="1176" d="M178 223q-4 28 -4 60q0 68 14 152l106 685h262l-99 -639q-11 -72 -13 -125v-12q0 -45 10 -76q12 -34 38 -50.5t69 -16.5q42 0 80.5 13t74 36t69 55t64.5 71l115 744h262l-173 -1120h-220l5 143q-35 -42 -80 -74t-94.5 -53.5t-101 -32.5t-100.5 -11q-83 0 -143.5 26 t-96 81.5t-44.5 143.5zM467 1416l382 283l302 -277l-140 -137l-196 155l-237 -155z" />
<glyph unicode="&#xfc;" horiz-adv-x="1176" d="M178 223q-4 28 -4 60q0 68 14 152l106 685h262l-99 -639q-11 -72 -13 -125v-12q0 -45 10 -76q12 -34 38 -50.5t69 -16.5q42 0 80.5 13t74 36t69 55t64.5 71l115 744h262l-173 -1120h-220l5 143q-35 -42 -80 -74t-94.5 -53.5t-101 -32.5t-100.5 -11q-83 0 -143.5 26 t-96 81.5t-44.5 143.5zM474 1452q0 93 38.5 134.5t128.5 41.5q60 0 90.5 -24.5t30.5 -81.5q0 -93 -38.5 -134t-127.5 -41q-61 0 -91.5 24t-30.5 81zM875 1452q0 93 38 134.5t128 41.5q62 0 92.5 -25t30.5 -82q0 -92 -39.5 -133t-127.5 -41q-62 0 -92 24t-30 81z" />
<glyph unicode="&#xfd;" horiz-adv-x="1050" d="M-8 -408l90 207q33 -12 69.5 -18t68.5 -6q28 0 58 21.5t62 62.5q23 29 48 66l-199 1195h285l63 -482l14 -104q8 -60 14.5 -120.5t9.5 -111.5q1 -10 1 -18l69 150l69 160q36 84 69 172t61.5 177.5t48.5 176.5h272q-29 -107 -60.5 -202.5t-65 -183t-70.5 -169.5l-76 -163 l-123 -238q-60 -113 -120.5 -208t-121.5 -171t-123 -129t-125 -81.5t-128 -28.5q-20 0 -42 3t-44 9t-41 14.5t-33 19.5zM635 1397l368 302l135 -158l-388 -269z" />
<glyph unicode="&#xfe;" horiz-adv-x="1152" d="M57 -426l308 1982h260l-40 -265q-14 -89 -28.5 -156.5t-47.5 -120.5l6 -4q34 33 71.5 59t78.5 43.5t84.5 26.5t90.5 9q89 0 153 -29t105.5 -82.5t61.5 -129t20 -168.5q0 -180 -47 -322.5t-132.5 -241t-204 -150.5t-260.5 -52q-41 0 -79.5 4t-74.5 12l-63 -415h-262z M427 270q9 -15 26.5 -28t40 -22t48 -14t50.5 -5q76 0 133.5 29.5t96.5 88.5t58.5 149t19.5 211q0 52 -7.5 96t-24 76t-43 50.5t-63.5 18.5q-30 0 -62 -6.5t-65 -22t-65.5 -41t-62.5 -62.5z" />
<glyph unicode="&#xff;" horiz-adv-x="1050" d="M-8 -408l90 207q33 -12 69.5 -18t68.5 -6q28 0 58 21.5t62 62.5q23 29 48 66l-199 1195h285l63 -482l14 -104q8 -60 14.5 -120.5t9.5 -111.5q1 -10 1 -18l69 150l69 160q36 84 69 172t61.5 177.5t48.5 176.5h272q-29 -107 -60.5 -202.5t-65 -183t-70.5 -169.5l-76 -163 l-123 -238q-60 -113 -120.5 -208t-121.5 -171t-123 -129t-125 -81.5t-128 -28.5q-20 0 -42 3t-44 9t-41 14.5t-33 19.5zM453 1452q0 93 38.5 134.5t128.5 41.5q60 0 90.5 -24.5t30.5 -81.5q0 -93 -38.5 -134t-127.5 -41q-61 0 -91.5 24t-30.5 81zM854 1452q0 93 38 134.5 t128 41.5q62 0 92.5 -25t30.5 -82q0 -92 -39.5 -133t-127.5 -41q-62 0 -92 24t-30 81z" />
<glyph unicode="&#x152;" horiz-adv-x="1908" d="M184 586q0 144 28.5 269.5t80.5 229t125.5 184.5t163.5 137t194.5 85t218.5 29q50 0 95 -7t87 -20h872l-37 -239h-591l-21 -134l-15 -100l-12 -75q-5 -33 -9 -64h558l-38 -239h-558l-62 -403h609l-38 -239h-891q-52 -14 -106.5 -21.5t-111.5 -7.5q-121 0 -221 44 t-171 124.5t-110.5 194t-39.5 252.5zM482 633q0 -100 21.5 -177.5t62 -130.5t98 -80.5t130.5 -27.5q51 0 101.5 11.5t90.5 35.5l147 954q-35 31 -89 43.5t-115 12.5t-117.5 -17.5t-106 -52.5t-90.5 -88t-70.5 -124t-46 -161t-16.5 -198z" />
<glyph unicode="&#x153;" horiz-adv-x="1825" d="M152 436q0 161 45.5 292.5t129 224.5t201 144t261.5 51q116 0 205 -43.5t144 -120.5q74 75 172.5 119.5t216.5 44.5q76 0 139.5 -20t109.5 -59.5t71.5 -98t25.5 -134.5q0 -68 -19.5 -122t-55 -96.5t-85 -73t-108.5 -50.5t-125.5 -29.5t-136.5 -9.5q-29 0 -57 2t-51 5 l-50 8q-2 -24 -2 -46q0 -40 8 -74q13 -51 42 -86t72 -53t97 -18q42 0 79 2.5t72.5 9.5t71 17.5t74.5 27.5l54 -186q-48 -26 -97 -43.5t-99 -28t-102 -15.5t-105 -5q-66 0 -119 11t-95.5 31.5t-76.5 50.5t-61 68q-41 -39 -89 -69.5t-101.5 -50.5t-112 -30.5t-119.5 -10.5 q-99 0 -177.5 34t-133.5 95.5t-84 147t-29 187.5zM430 476q0 -72 15 -124t42.5 -85.5t67 -50t88.5 -16.5q53 0 105.5 27t94 82t67 138.5t25.5 196.5q0 142 -57.5 209t-155.5 67q-54 0 -106 -27t-93.5 -82.5t-67 -139t-25.5 -195.5zM1220 672q21 -4 47 -7q23 -3 53.5 -5 t68.5 -2q42 0 84.5 7.5t76 24.5t55 43.5t21.5 65.5q0 31 -11 55t-31.5 40.5t-49 24.5t-63.5 8q-56 0 -98 -20t-72 -54.5t-50 -81t-31 -99.5z" />
<glyph unicode="&#x178;" horiz-adv-x="1239" d="M250 1493h306l210 -610l398 610h302l-606 -892l-93 -601h-282l93 601zM542 1737q0 93 39 134t127 41q62 0 92 -24t30 -81q0 -93 -38.5 -134t-126.5 -41q-62 0 -92.5 24t-30.5 81zM975 1737q0 91 38 133t127 42q61 0 91.5 -24.5t30.5 -81.5q0 -92 -39.5 -133t-125.5 -41 q-62 0 -92 24t-30 81z" />
<glyph unicode="&#x2c6;" horiz-adv-x="859" d="M312 1416l382 283l302 -277l-140 -137l-196 155l-237 -155z" />
<glyph unicode="&#x2dc;" horiz-adv-x="783" d="M237 1439q19 37 50.5 74.5t72 67.5t89 49t101.5 19q30 0 53 -7.5t41 -19.5t33 -25l30 -25q15 -12 31.5 -19.5t37.5 -7.5q17 0 34 9t33 24t30 34t24 38l139 -106q-51 -108 -133 -164.5t-179 -56.5q-34 0 -58 7.5t-43 19t-33 24.5l-29 24q-14 12 -28.5 19.5t-33.5 7.5 q-18 0 -35 -8.5t-33 -22t-30 -30.5t-27 -35z" />
<glyph unicode="&#x2013;" horiz-adv-x="884" d="M150 454l32 214h731l-34 -214h-729z" />
<glyph unicode="&#x2014;" horiz-adv-x="1805" d="M150 454l32 214h1649l-33 -214h-1648z" />
<glyph unicode="&#x2018;" horiz-adv-x="542" d="M260 1002q0 36 15 83t40 98t56.5 103.5t64.5 100.5l64 89q31 41 55 68l133 -54l-38 -64q-22 -38 -43.5 -79.5t-39.5 -83t-27 -74.5q18 -20 35 -49.5t17 -74.5q0 -57 -16 -94t-42.5 -58.5t-62 -30t-74.5 -8.5q-69 0 -103 34t-34 94z" />
<glyph unicode="&#x2019;" horiz-adv-x="542" d="M235 947l38 64q22 38 43.5 79.5t39.5 83t27 74.5q-18 20 -35 49.5t-17 74.5q0 57 16 94t42.5 58.5t62 30t74.5 8.5q69 0 103 -34t34 -94q0 -36 -15 -83t-40 -98t-56.5 -103.5t-64.5 -100.5l-64 -89q-31 -41 -55 -68z" />
<glyph unicode="&#x201a;" horiz-adv-x="506" d="M0 -318l38 64q22 38 43.5 79.5t39.5 83t27 74.5q-18 20 -35 49.5t-17 74.5q0 57 16 94t42.5 58.5t62 30t74.5 8.5q69 0 103 -34t34 -94q0 -36 -15 -83t-40 -98t-56.5 -103.5t-64.5 -100.5l-64 -89q-31 -41 -55 -68z" />
<glyph unicode="&#x201c;" horiz-adv-x="1007" d="M261 1004q0 38 15.5 85.5t40.5 99.5t56.5 105.5t64.5 103t64.5 91.5t55.5 71l133 -56q-16 -26 -37 -64l-43 -81q-22 -42 -40.5 -84.5t-28.5 -76.5q18 -20 35 -50.5t17 -76.5q0 -59 -16 -97t-43 -60t-62.5 -30.5t-74.5 -8.5q-69 0 -103 34.5t-34 94.5zM727 1004 q0 38 15.5 85.5t40.5 99.5t56.5 105.5t64.5 103t64.5 91.5t55.5 71l133 -56l-38 -64l-43.5 -81t-39.5 -84.5t-27 -76.5q17 -20 34 -50.5t17 -76.5q0 -59 -16 -97t-43 -60t-62.5 -30.5t-74.5 -8.5q-69 0 -103 34.5t-34 94.5z" />
<glyph unicode="&#x201d;" horiz-adv-x="1007" d="M232 933l38 65q22 38 43.5 80t39.5 84.5t27 76.5q-17 20 -34 50.5t-17 76.5q0 59 16 97t43 60t62.5 30.5t74.5 8.5q69 0 103 -34.5t34 -94.5q0 -38 -15.5 -85.5t-40.5 -99.5t-56.5 -105.5t-64.5 -103t-64.5 -91.5t-55.5 -71zM698 933l38 65l42 80q22 42 40.5 84.5 t28.5 76.5q-18 20 -35 50.5t-17 76.5q0 59 16 97t43 60t62.5 30.5t74.5 8.5q69 0 103 -34.5t34 -94.5q0 -38 -15.5 -85.5t-40.5 -99.5t-56.5 -105.5t-64.5 -103t-64.5 -91.5t-55.5 -71z" />
<glyph unicode="&#x201e;" horiz-adv-x="972" d="M-2 -332l38 64l43.5 81t39.5 84.5t27 76.5q-17 20 -34 50.5t-17 76.5q0 59 16 97t43 60t62.5 30.5t74.5 8.5q69 0 103 -34.5t34 -94.5q0 -38 -15.5 -85.5t-40.5 -99.5t-56.5 -105.5t-64.5 -103t-64.5 -91.5t-55.5 -71zM464 -332l38 64l42 81q22 42 40.5 84.5t28.5 76.5 q-18 20 -35 50.5t-17 76.5q0 59 16 97t43 60t62.5 30.5t74.5 8.5q69 0 103 -34.5t34 -94.5q0 -38 -15.5 -85.5t-40.5 -99.5t-56.5 -105.5t-64.5 -103t-64.5 -91.5t-55.5 -71z" />
<glyph unicode="&#x2022;" horiz-adv-x="927" d="M296 550q0 86 19 154.5t57.5 116t97 72.5t137.5 25q54 0 95.5 -14.5t69 -43t42 -70.5t14.5 -97q0 -68 -13.5 -133t-48.5 -116t-96 -82t-156 -31q-110 0 -164 53.5t-54 165.5z" />
<glyph unicode="&#x2026;" horiz-adv-x="1521" d="M146 103q0 104 44 151t142 47q65 0 97 -27.5t32 -90.5q0 -53 -10 -90.5t-31.5 -62t-56 -36t-82.5 -11.5q-68 0 -101.5 27.5t-33.5 92.5zM625 103q0 104 43.5 151t141.5 47q66 0 98 -27t32 -90q0 -105 -40.5 -153t-139.5 -48q-68 0 -101.5 27.5t-33.5 92.5zM1104 103 q0 104 44 151t142 47q65 0 97 -27.5t32 -90.5q0 -53 -9.5 -90.5t-31 -62t-55.5 -36t-82 -11.5q-69 0 -103 27.5t-34 92.5z" />
<glyph unicode="&#x2039;" horiz-adv-x="806" d="M158 571l630 538l135 -152l-400 -379l277 -352l-174 -143z" />
<glyph unicode="&#x203a;" horiz-adv-x="806" d="M72 235l400 379l-277 352l174 143l468 -488l-630 -538z" />
<glyph unicode="&#x20ac;" horiz-adv-x="1249" d="M71 451l33 209h165q0 7 1 15t2 15l2 15q1 8 3 16l8 50q4 25 11 51h-168l34 209h204q25 59 61.5 118t84.5 113.5t107 101.5t129.5 81.5t152.5 54.5t176 20q67 0 128.5 -11.5t116 -33t101 -53.5t82.5 -73l-187 -192q-25 27 -56.5 49t-70 37t-83.5 23t-97 8q-78 0 -137 -26 t-102 -63.5t-71.5 -79.5t-44.5 -74h544l-32 -209h-583q-2 -14 -4 -26.5t-4 -26.5l-4 -27q-2 -13 -3 -26l-3 -26q-2 -14 -3 -30h579l-33 -209h-531q4 -14 12 -36.5t22 -48.5t35 -52.5t52.5 -48t74.5 -35t100 -13.5q45 0 93 10t93 28t84.5 42.5t68.5 53.5l126 -180 q-44 -44 -100.5 -80.5t-124 -63t-145 -41.5t-162.5 -15q-94 0 -168.5 21.5t-132.5 58t-99.5 85t-70 102t-44.5 108.5t-22 105h-200z" />
<glyph unicode="&#x2122;" horiz-adv-x="1677" d="M233 1347l23 146h673l-23 -146h-237l-92 -601h-198l93 601h-239zM880 746l116 747h282l24 -185q7 -47 14 -104.5t11.5 -113t4.5 -103.5q1 -4 1 -7q0 -43 -6 -69h5q4 24 20.5 68t39.5 99l52 115l53 117l82 183h261l-116 -747h-193l31 201q19 121 48 213t50 151l-8 4 q-21 -53 -52 -119l-59 -130l-150 -320h-194l-53 354q-3 21 -5 54l-3 66q-1 33 -1.5 60t-0.5 35l-10 -2v-10q0 -38 -6 -115q-8 -86 -28 -226l-33 -216h-177z" />
<glyph unicode="&#xe000;" horiz-adv-x="1120" d="M0 1120h1120v-1120h-1120v1120z" />
<glyph unicode="&#xfb01;" horiz-adv-x="1244" d="M146 899l35 221h190l18 118q14 91 46.5 156.5t85 107.5t126.5 62t172 20q47 0 96.5 -9t85.5 -25l-84 -209q-4 1 -15.5 3.5t-27 4.5t-33 4t-32.5 2q-39 0 -67 -7t-47 -22.5t-30 -40.5t-16 -61l-16 -104h663l-173 -1120h-263l138 899h-401l-138 -899h-262l140 899h-191z M1056 1364q0 97 40.5 140.5t134.5 43.5q65 0 97 -26t32 -86q0 -97 -41.5 -139.5t-134.5 -42.5q-65 0 -96.5 25t-31.5 85z" />
<glyph unicode="&#xfb02;" horiz-adv-x="1244" d="M146 899l35 221h190l12 75q16 107 57.5 181.5t105.5 120.5t150 66.5t192 20.5q55 0 113.5 -8t118 -22.5t118 -34.5t113.5 -44l-228 -1475h-263l202 1309q-25 12 -52 20.5t-56 14t-60.5 8.5t-65.5 3q-39 0 -70 -7t-53.5 -23.5t-37 -44t-20.5 -68.5l-14 -92h263l-35 -221 h-264l-138 -899h-262l140 899h-191z" />
<glyph unicode="&#xfb03;" horiz-adv-x="1908" d="M146 899l35 221h190l18 118q14 91 46.5 156.5t85 107.5t126.5 62t172 20q47 0 96.5 -9t85.5 -25l-84 -209q-20 7 -48.5 10.5t-59.5 3.5q-39 0 -67 -7t-47 -22.5t-30 -40.5t-16 -61l-16 -104h400l19 118q14 91 46.5 156.5t85 107.5t126 62t170.5 20q48 0 98 -9t86 -25 l-84 -209q-20 7 -49 10.5t-59 3.5q-39 0 -67 -7t-46.5 -22.5t-29.5 -40.5t-16 -61l-17 -104h664l-174 -1120h-263l139 899h-401l-138 -899h-263l138 899h-401l-138 -899h-262l140 899h-191zM1719 1364q0 97 41 140.5t134 43.5q66 0 98 -26t32 -86q0 -97 -41.5 -139.5 t-134.5 -42.5q-65 0 -97 25t-32 85z" />
<glyph unicode="&#xfb04;" horiz-adv-x="1907" d="M146 899l35 221h190l18 118q14 91 46.5 156.5t85 107.5t126.5 62t172 20q47 0 96.5 -9t85.5 -25l-84 -209q-20 7 -48.5 10.5t-59.5 3.5q-39 0 -67 -7t-47 -22.5t-30 -40.5t-16 -61l-16 -104h400l12 75q16 107 57.5 181.5t105.5 120.5t150 66.5t192 20.5q55 0 114 -8 t118 -22.5t118 -34.5t114 -44l-229 -1475h-263l203 1309q-25 12 -52 20.5t-56.5 14t-61 8.5t-64.5 3q-40 0 -71 -7t-53.5 -23.5t-36.5 -44t-20 -68.5l-15 -92h263l-35 -221h-263l-138 -899h-262l138 899h-401l-138 -899h-262l140 899h-191z" />
</font>
</defs>
</svg>
