<?xml version="1.0" standalone="no"?>
<!DOCTYPE svg PUBLIC "-//W3C//DTD SVG 1.1//EN" "http://www.w3.org/Graphics/SVG/1.1/DTD/svg11.dtd" >
<svg xmlns="http://www.w3.org/2000/svg">
<metadata>
This is a custom SVG webfont generated by Font Squirrel.
Copyright   : Typeface  The Monotype Corporation plc Data  The Monotype Corporation plc Type Solutions inc 19901992 All rights reserved Portions  1992 Microsoft Corp
</metadata>
<defs>
<font id="BellMTBold" horiz-adv-x="1109" >
<font-face units-per-em="2048" ascent="1638" descent="-410" />
<missing-glyph horiz-adv-x="544" />
<glyph unicode=" "  horiz-adv-x="544" />
<glyph unicode="&#x09;" horiz-adv-x="544" />
<glyph unicode="&#xa0;" horiz-adv-x="544" />
<glyph unicode="!" horiz-adv-x="576" d="M130 1180q0 73 48.5 118t109.5 45q66 0 111.5 -48t45.5 -113q0 -62 -126 -820h-63q-126 758 -126 818zM148 120q0 57 41 98t99 41q57 0 98 -41t41 -98q0 -58 -41 -99t-98 -41q-58 0 -99 41t-41 99z" />
<glyph unicode="&#x22;" horiz-adv-x="1131" d="M177 1235q0 64 42.5 108t105.5 44q68 0 107.5 -44t39.5 -104q0 -42 -24 -135l-98 -383h-49l-104 385q-20 74 -20 129zM658 1238q0 57 42.5 103t108.5 46q67 0 106.5 -46t39.5 -102q0 -31 -26 -134l-97 -384h-49l-102 384q-23 87 -23 133z" />
<glyph unicode="#" horiz-adv-x="1365" d="M88 356v123h224l77 371h-301v122h326l86 405h123l-86 -405h420l85 405h123l-85 -405h196v-122h-222l-75 -371h297v-123h-322l-86 -402h-123l86 402h-422l-85 -402h-123l85 402h-198zM434 479h422l76 371h-420z" />
<glyph unicode="$" horiz-adv-x="1088" d="M106 240q0 62 37.5 97.5t83.5 35.5q58 0 94 -38t36 -86q0 -55 -48 -94q-28 -23 -28 -37q0 -30 60 -68t157 -48v438q-217 64 -289.5 149t-72.5 192q0 130 104.5 222t257.5 93v135h93v-135q173 -11 257.5 -85.5t84.5 -151.5q0 -51 -32 -86t-86 -35q-50 0 -85.5 32t-35.5 82 q0 32 32 84q17 28 17 36q0 44 -152 63v-366q181 -59 241 -89t109 -103.5t49 -167.5q0 -155 -105 -251.5t-294 -119.5v-249h-93v249q-140 0 -266 88t-126 214zM289 866q0 -106 209 -171v336q-88 -4 -148.5 -53.5t-60.5 -111.5zM591 3q135 20 186.5 83t51.5 122q0 46 -37 98.5 t-201 103.5v-407z" />
<glyph unicode="%" horiz-adv-x="1685" d="M79 994q0 133 92 240t257 107q161 0 255 -105.5t94 -241.5q0 -143 -98 -244.5t-251 -101.5q-165 0 -257 106.5t-92 239.5zM281 994q0 -149 42.5 -220.5t104.5 -71.5q70 0 108.5 78.5t38.5 213.5q0 136 -39 214t-108 78t-108 -78t-39 -214zM370 -36l827 1377h119 l-829 -1377h-117zM909 313q0 132 92 239t257 107q161 0 255 -105t94 -241q0 -144 -98 -245.5t-251 -101.5t-251 101t-98 246zM1111 312q0 -149 42.5 -220.5t104.5 -71.5q70 0 108.5 78.5t38.5 213.5q0 136 -39 214.5t-108 78.5t-108 -78.5t-39 -214.5z" />
<glyph unicode="&#x26;" horiz-adv-x="1515" d="M100 306q0 85 48 180t293 262q-161 164 -161 308q0 114 86 198t212 84q116 0 187.5 -65.5t71.5 -146.5q0 -124 -163 -266q189 -150 353 -438q85 138 85 265q0 106 -103 114q-42 4 -42 30q0 27 57 27l200 -4q59 0 137 6q37 3 50 3q35 0 35 -28q0 -20 -40 -30 q-66 -17 -101 -44t-54 -58.5t-90 -178.5q-46 -93 -96 -164q127 -260 235 -260q44 0 95 34q28 19 38 19q29 0 29 -28t-106.5 -88t-207.5 -60q-79 0 -137 49t-116 144q-236 -194 -439 -194q-156 0 -256 90t-100 240zM340 440q0 -111 76.5 -213.5t199.5 -102.5q112 0 246 107 q-147 275 -376 469q-146 -119 -146 -260zM454 1145q0 -105 167 -236q97 96 97 200q0 80 -46 122t-101 42q-47 0 -82 -36t-35 -92z" />
<glyph unicode="'" horiz-adv-x="576" d="M140 1233q0 65 41.5 109.5t105.5 44.5q69 0 108.5 -44.5t39.5 -105.5q0 -42 -23 -132l-99 -383h-48l-105 382q-20 72 -20 129z" />
<glyph unicode="(" horiz-adv-x="683" d="M97 412q0 175 39 322.5t113 295.5t147 232.5t92.5 96t91.5 11.5q26 0 26 -15q0 -10 -23 -38q-86 -100 -196.5 -353.5t-110.5 -551.5q0 -301 112.5 -554.5t194.5 -350.5q23 -28 23 -37q0 -16 -21 -16q-76 0 -95.5 11t-94.5 99t-146.5 231.5t-111.5 291.5t-40 325z" />
<glyph unicode=")" horiz-adv-x="683" d="M77 1355q0 15 25 15q73 0 92.5 -11.5t94.5 -98.5t147.5 -234.5t111 -292.5t38.5 -321t-39.5 -325t-112 -293.5t-146.5 -230.5t-93.5 -97.5t-95.5 -11.5q-22 0 -22 15q0 10 24 38q85 100 195.5 354t110.5 551q0 301 -112 555t-194 350q-24 28 -24 38z" />
<glyph unicode="*" horiz-adv-x="1024" d="M86 947q0 28 22 48.5t51 20.5q25 0 126.5 -19.5t125.5 -28.5q17 -6 26 -6q17 0 17 14q0 11 -23 23q-10 4 -109.5 68t-115 82.5t-15.5 39.5q0 30 20.5 49.5t46.5 19.5q21 0 47.5 -20.5t83.5 -110.5t63 -102q14 -32 27 -32q15 0 15 15q0 10 -4 23q-7 25 -22 119.5 t-15 134.5q0 82 65 82q73 0 73 -85q0 -33 -20 -104l-42 -153q-5 -15 -5 -20q0 -16 12 -16q10 0 27 25q106 153 149 196t76 43q28 0 45 -21t17 -47q0 -22 -15 -41t-110.5 -82.5t-136.5 -82.5q-22 -10 -22 -23q0 -15 15 -15q6 0 17 4q32 12 131 30.5t141 18.5q30 0 49.5 -21.5 t19.5 -45.5q0 -27 -19.5 -48.5t-51.5 -21.5q-30 0 -140 24.5t-130 30.5q-11 4 -19 4q-14 0 -14 -13q0 -11 18 -21q47 -27 132.5 -87t95.5 -73t10 -38q0 -67 -70 -67q-32 0 -61.5 36t-93.5 142l-35 55q-9 13 -11 18q-9 16 -20 16q-13 0 -13 -14q0 -10 38 -156q23 -88 23 -117 q0 -80 -70 -80q-28 0 -47 19.5t-19 53.5q0 30 14.5 125.5t31.5 153.5q2 6 2 11q0 13 -15 13q-13 0 -20 -16q-10 -23 -72 -119.5t-86.5 -113t-44.5 -16.5q-26 0 -47 18.5t-21 47.5q0 24 17.5 47t109.5 83.5t113 71.5q25 12 25 25q0 12 -15 12q-8 0 -21 -4q-26 -8 -131 -29 t-128 -21q-25 0 -46.5 19.5t-21.5 48.5z" />
<glyph unicode="+" horiz-adv-x="1365" d="M139 475v131h478v478h132v-478h478v-131h-478v-478h-132v478h-478z" />
<glyph unicode="," horiz-adv-x="555" d="M91 -283q0 14 21 28q88 61 126 125t38 99q0 29 -45 40q-121 30 -121 121q0 56 47 92.5t103 36.5q86 0 137 -57t51 -129q0 -79 -59.5 -172.5t-151.5 -152t-124 -58.5q-22 0 -22 27z" />
<glyph unicode="-" horiz-adv-x="747" d="M41 393v112q0 31 5.5 36t42.5 5h569q36 0 42 -5t6 -36v-112q0 -31 -5.5 -36t-42.5 -5h-569q-37 0 -42.5 5t-5.5 36z" />
<glyph unicode="." horiz-adv-x="491" d="M106 120q0 57 41 98t98 41q58 0 99 -41t41 -98q0 -58 -41 -99t-99 -41q-57 0 -98 41t-41 99z" />
<glyph unicode="/" horiz-adv-x="1088" d="M117 -37l717 1463h136l-717 -1463h-136z" />
<glyph unicode="0" horiz-adv-x="1088" d="M52 525q0 232 141.5 404.5t351.5 172.5q136 0 257.5 -76.5t178 -213.5t56.5 -265q0 -129 -53 -261t-172 -219.5t-274 -87.5q-212 0 -349 161.5t-137 384.5zM324 516q0 -232 62 -351t161 -119q111 0 166 126.5t55 379.5q0 230 -56.5 358t-159.5 128q-102 0 -165 -135 t-63 -387z" />
<glyph unicode="1" horiz-adv-x="1088" d="M251 984q0 18 12.5 23t53.5 8q183 14 323 84q17 8 28 8q26 0 26 -60v-755q0 -157 24.5 -200.5t89.5 -45.5q47 -1 59 -7.5t12 -23.5q0 -27 -33 -27q-7 0 -17 1q-156 11 -229 11q-77 0 -223 -8q-52 -2 -70 -2q-39 0 -39 27q0 17 12.5 22.5t61.5 9.5q61 5 87.5 28.5 t32.5 50.5t10 127v449q0 115 -13 159.5t-42 63t-93 25.5q-51 6 -62 11t-11 21z" />
<glyph unicode="2" horiz-adv-x="1088" d="M89 20q0 17 31 37q94 63 261.5 214.5t238 292t70.5 285.5q0 83 -32.5 130t-88.5 47q-67 0 -129 -50t-98 -142.5t-36 -185.5q0 -52 17 -78t50 -26q42 0 80 46q37 45 51 78q14 31 34 31q27 0 27 -25q0 -39 -75 -137.5t-189 -98.5q-91 0 -144.5 59.5t-53.5 134.5 q0 173 184.5 320.5t358.5 147.5q139 0 226 -84.5t87 -209.5q0 -64 -28.5 -133t-72 -121t-177 -152t-256.5 -183h197q152 0 196.5 17.5t88.5 78.5q32 46 50 46q27 0 27 -28q0 -13 -9 -32q-61 -129 -123 -299h-689q-50 0 -62 3.5t-12 16.5z" />
<glyph unicode="3" horiz-adv-x="1088" d="M102 202q0 61 37.5 97t89.5 36q45 0 81.5 -33t36.5 -81q0 -26 -17 -63q-12 -28 -12 -41q0 -32 35.5 -52.5t78.5 -20.5q111 0 191.5 178.5t80.5 254.5q0 41 -24 66t-53 25q-37 0 -128 -70q-64 -49 -78 -49q-29 0 -29 26q0 18 23 36q175 139 224.5 220.5t49.5 153.5 q0 67 -33 106t-84 39q-78 0 -140.5 -69t-62.5 -160q0 -32 16 -53t37 -21q44 0 89 78q10 18 28 18q27 0 27 -28q0 -29 -65.5 -105.5t-157.5 -76.5q-63 0 -107 44.5t-44 111.5q0 139 141 235.5t312 96.5q142 0 211.5 -60.5t69.5 -137.5q0 -46 -31 -95t-65 -77t-163 -115 q150 0 219 -78.5t69 -164.5q0 -102 -72 -195t-184 -145.5t-247 -52.5q-146 0 -248 63.5t-102 158.5z" />
<glyph unicode="4" horiz-adv-x="1088" d="M42 380q10 68 20.5 87t106.5 130.5t187 205.5l182 182q91 87 116.5 100.5t50.5 13.5q30 0 40 -8t10 -31l1 -49v-547q202 0 215 159q2 37 28 37q27 0 27 -38q0 -11 -2 -33q-6 -79 -6 -158q0 -47 2 -87q5 -69 5 -85q0 -43 -28 -43q-22 0 -34 53q-15 66 -47.5 97t-117.5 31 q-14 0 -42 -2v-172q0 -109 22 -143t101 -35q37 -1 37 -27q0 -29 -37 -29q-7 0 -69 3q-151 7 -225 7q-56 0 -146 -7q-18 -2 -26 -2q-48 0 -60 5t-12 22q0 27 65 33q50 5 72.5 22t31 59.5t19.5 263.5q-258 0 -487 -15zM131 455l398 8q2 27 2 282q0 109 -2 141l-159 -164 q-152 -155 -239 -267z" />
<glyph unicode="5" horiz-adv-x="1088" d="M91 193q0 58 40 93.5t94 35.5q55 0 87.5 -32.5t32.5 -73.5q0 -23 -12 -61q-10 -31 -10 -46q0 -23 24 -43t74 -20q134 0 194 126.5t60 277.5q0 98 -44 145.5t-100 47.5q-71 0 -134 -54q-64 -54 -83 -126q-13 -49 -35 -49q-29 0 -29 32q0 22 44.5 309.5t59.5 338.5 q102 -27 241 -27q177 0 255 109q25 35 40 35q32 0 32 -28q0 -93 -121 -202t-339 -109q-31 0 -88 3l-41 -256q67 55 139 82.5t149 27.5q145 0 234.5 -91t89.5 -224q0 -168 -146.5 -299.5t-385.5 -131.5q-157 0 -239.5 62t-82.5 148z" />
<glyph unicode="6" horiz-adv-x="1088" d="M96 463q0 267 164.5 452.5t440.5 185.5q151 0 231 -55t80 -137q0 -52 -40.5 -90.5t-93.5 -38.5q-56 0 -91.5 36.5t-35.5 99.5l1 57q0 62 -76 62q-108 0 -193 -101.5t-110 -303.5q56 34 117 51t127 17q153 0 265 -93.5t112 -253.5q0 -165 -124 -270t-315 -105 q-220 0 -339.5 135t-119.5 352zM353 348q0 -141 53.5 -223.5t138.5 -82.5q83 0 131.5 79.5t48.5 211.5q0 145 -44 217t-132 72q-93 0 -144.5 -74t-51.5 -200z" />
<glyph unicode="7" horiz-adv-x="1088" d="M125 745q0 31 34.5 187t53 187t35.5 31q19 0 34 -29q10 -19 34.5 -29t145.5 -11.5t135 -1.5h398q-13 -44 -44 -104q-130 -246 -173 -407t-53 -376q-6 -141 -37.5 -194.5t-110.5 -53.5q-57 0 -95.5 36t-38.5 92q0 53 31 143t136 278l210 371h-351q-139 0 -178 -16t-86 -82 q-37 -51 -52 -51q-28 0 -28 30z" />
<glyph unicode="8" horiz-adv-x="1088" d="M126 242q0 72 56.5 147t175.5 128q-99 48 -148.5 115t-49.5 154q0 147 114.5 237t283.5 90q161 0 257 -69t96 -175q0 -67 -41.5 -121.5t-145.5 -125.5q112 -48 168 -122t56 -173q0 -145 -124.5 -248.5t-306.5 -103.5q-171 0 -281 81.5t-110 185.5zM296 245q0 -90 65 -147 t166 -57q113 0 172 61.5t59 140.5q0 57 -46.5 107t-283.5 134q-66 -52 -99 -111.5t-33 -127.5zM339 876q0 -42 36 -89.5t190 -100.5q66 -22 84 -29q50 34 83 88t33 114q0 66 -54.5 129t-159.5 63q-97 0 -154.5 -55.5t-57.5 -119.5z" />
<glyph unicode="9" horiz-adv-x="1088" d="M77 168q0 51 40.5 90t93.5 39q47 0 86.5 -33t39.5 -104l-1 -56q0 -63 77 -63q113 0 194.5 104.5t108.5 300.5q-56 -33 -117 -50t-127 -17q-154 0 -266 93.5t-112 253.5q0 163 125 269t315 106q220 0 339.5 -135.5t119.5 -351.5q0 -268 -165 -453t-440 -185 q-157 0 -234 55.5t-77 136.5zM364 743q0 -144 44 -216t132 -72q85 0 140.5 68t55.5 205q0 142 -53.5 224.5t-139.5 82.5q-83 0 -131 -79.5t-48 -212.5z" />
<glyph unicode=":" horiz-adv-x="491" d="M106 120q0 57 41 98t98 41q58 0 99 -41t41 -98q0 -58 -41 -99t-99 -41q-57 0 -98 41t-41 99zM106 635q0 58 41 98.5t98 40.5q58 0 99 -40.5t41 -98.5q0 -57 -41 -98t-99 -41q-57 0 -98 40.5t-41 98.5z" />
<glyph unicode=";" horiz-adv-x="555" d="M91 -283q0 14 21 28q88 61 126 125t38 99q0 29 -45 40q-121 30 -121 121q0 56 47 92.5t103 36.5q86 0 137 -57t51 -129q0 -79 -59.5 -172.5t-151.5 -152t-124 -58.5q-22 0 -22 27zM138 635q0 57 41 98t98 41q58 0 99 -40.5t41 -98.5q0 -57 -41 -98t-99 -41q-57 0 -98 41 t-41 98z" />
<glyph unicode="&#x3c;" horiz-adv-x="1365" d="M139 484l1 118l1087 456v-142l-911 -374l911 -374v-142z" />
<glyph unicode="=" horiz-adv-x="1365" d="M139 245v131h1088v-131h-1088zM139 705v131h1088v-131h-1088z" />
<glyph unicode="&#x3e;" horiz-adv-x="1365" d="M139 26v142l910 374l-910 374v142l1088 -457l-2 -119z" />
<glyph unicode="?" horiz-adv-x="960" d="M110 1176q0 76 78.5 122t197.5 46q207 0 339.5 -128t132.5 -290q0 -143 -99 -242.5t-233 -99.5q-118 0 -203 52l-26 -274h-80l-7 419q110 -95 195 -95t139.5 88t54.5 221t-59 208t-127 75q-65 0 -65 -42q0 -7 3 -17q10 -29 10 -46q0 -48 -37 -82t-93 -34q-55 0 -88 32.5 t-33 86.5zM138 120q0 57 41 98t98 41q58 0 99 -41t41 -98q0 -58 -41 -99t-99 -41q-57 0 -98 41t-41 99z" />
<glyph unicode="@" horiz-adv-x="1899" d="M92 436q0 402 269.5 676.5t697.5 274.5q215 0 380.5 -84.5t252 -245.5t86.5 -348q0 -289 -170 -499t-430 -210q-108 0 -155.5 54t-47.5 125q0 49 24 137q-183 -316 -345 -316q-80 0 -124 63t-44 163q0 154 69.5 318t205 291.5t241.5 127.5q62 0 98 -39t45 -118l34 119 l244 10l-183 -628q-31 -103 -31 -154q0 -34 24 -57.5t58 -23.5q71 0 179 81t179.5 226t71.5 314q0 263 -171 447t-474 184q-230 0 -433.5 -110.5t-324.5 -335t-121 -477.5q0 -237 104 -416t283.5 -275t398.5 -96q270 0 498 150.5t318 400.5h61q-115 -292 -348 -449.5 t-534 -157.5q-376 0 -631 243t-255 635zM744 278q0 -39 16 -67t42 -28q40 0 114 86.5t128.5 231t54.5 255.5q0 64 -20.5 99.5t-50.5 35.5q-85 0 -184.5 -235t-99.5 -378z" />
<glyph unicode="A" horiz-adv-x="1429" d="M5 16q0 22 24 29q60 17 94 42t73.5 96t94.5 227q124 350 369 946h69q132 -286 373 -900q111 -282 153 -341.5t133 -72.5q30 -4 30 -26q0 -31 -39 -31q-21 0 -109 7q-104 9 -175 9q-69 0 -180 -8q-83 -6 -109 -6q-46 0 -46 29q0 22 32 25q123 11 123 96q0 40 -36 147.5 t-77 195.5q-65 1 -101 1q-201 0 -313 -1q-87 -237 -87 -314q0 -55 43 -85.5t93 -35.5q38 -4 38 -31t-41 -27q-16 0 -84 5q-88 7 -128 7q-79 0 -150 -10q-18 -3 -30 -3q-37 0 -37 30zM418 561l352 5q-28 78 -86 214q-63 148 -94 227z" />
<glyph unicode="B" horiz-adv-x="1301" d="M39 15q0 22 31 26q63 8 91.5 21.5t46 45.5t17.5 104l8 467q0 218 -5 348.5t-17.5 168.5t-35 53t-67.5 18q-40 2 -51.5 9t-11.5 23q0 21 23.5 26t132.5 5q200 0 374 14q103 8 165 8q184 0 294 -81.5t110 -218.5q0 -236 -350 -339q207 -44 310 -134.5t103 -228.5 q0 -115 -75.5 -207t-185 -123.5t-318.5 -31.5q-51 0 -160 6q-90 5 -141 5q-68 0 -183 -9q-47 -4 -66 -4q-39 0 -39 29zM511 299q0 -186 15 -213t95 -27q144 0 215.5 77t71.5 212t-74 221.5t-225 86.5q-33 0 -90 -5q-8 -211 -8 -352zM511 1046q0 -93 8 -318q344 0 344 297 q0 131 -61 195.5t-142 64.5q-58 0 -141 -28q-8 -101 -8 -211z" />
<glyph unicode="C" horiz-adv-x="1365" d="M89 643q0 282 183.5 489.5t463.5 207.5q197 0 401 -111q21 26 44 58q27 39 45 39q20 0 26 -10t10 -62l20 -312l2 -40q0 -40 -32 -40q-21 0 -34 33q-41 106 -147.5 235.5t-268.5 129.5q-120 0 -201.5 -69.5t-127 -190.5t-45.5 -290q0 -289 127 -459.5t316 -170.5 q205 0 376 248q21 30 40 30q32 0 32 -32q0 -66 -157.5 -210t-394.5 -144q-314 0 -496 194t-182 477z" />
<glyph unicode="D" horiz-adv-x="1621" d="M9 15q0 29 43 29q82 0 120 28t48 103t18.5 299t8.5 412q0 265 -25.5 325.5t-126.5 65.5q-36 3 -36 30t32 27q19 0 129 -11q122 -11 170 -11l379 8q190 0 366 -72.5t279.5 -237t103.5 -372.5q0 -154 -60.5 -287.5t-175.5 -224.5t-228 -119.5t-266 -28.5q-44 0 -361 6 l-220 -1l-129 2q-46 0 -57.5 5.5t-11.5 24.5zM522 352q0 -139 12 -191.5t53 -81t133 -28.5q210 0 332 147t122 420q0 277 -131.5 456.5t-373.5 179.5q-83 0 -99.5 -9.5t-20.5 -19.5t-12 -224l-12 -339q-3 -125 -3 -310z" />
<glyph unicode="E" horiz-adv-x="1344" d="M37 14q0 28 38 28q97 0 130.5 52.5t33.5 214.5l6 515q0 264 -6.5 324.5t-34.5 82t-105 32.5q-32 4 -32 28q0 30 37 30l241 -8l807 -3l63 -312q0 -29 -29 -29q-16 0 -36 28q-103 150 -188.5 198t-246.5 48q-90 0 -174 -15q-18 -177 -18 -388q0 -36 2 -121l76 -1 q71 0 122.5 19.5t87.5 83t41 81.5q9 32 31 32q28 0 28 -24q0 -7 -2 -16q-12 -62 -12 -371q0 -43 7 -78q2 -10 2 -17q0 -28 -32 -28q-22 0 -34 53q-20 93 -91 141.5t-224 50.5q-5 -168 -5 -221q0 -228 7 -271t51 -69.5t149 -26.5q381 0 501 242q17 34 37 34q29 0 29 -24 q0 -16 -6 -41l-65 -287l-362 1q-153 1 -285.5 7t-207.5 6q-84 0 -253 -10q-21 -2 -31 -2q-47 0 -47 31z" />
<glyph unicode="F" horiz-adv-x="1259" d="M30 1286q0 28 58 28h1101l51 -302l2 -14q0 -29 -21 -29q-14 0 -28 22q-77 120 -174 186.5t-313 66.5q-149 0 -167 -31.5t-18 -492.5q111 0 170.5 15.5t92 54.5t59.5 144q7 28 23 28q30 0 30 -38l-7 -319q-3 -166 -9 -178.5t-22 -12.5q-25 0 -30 40q-11 93 -63.5 146.5 t-243.5 53.5l-1 -371q0 -109 15.5 -155t46.5 -62.5t97 -18.5q48 -1 61 -6.5t13 -24.5q0 -32 -45 -32q-41 0 -156 7q-97 6 -146 6l-316 -11q-48 0 -48 29q0 27 59 29q102 4 122 91t20 632q0 354 -25.5 422t-124.5 68l-27 -1q-36 0 -36 30z" />
<glyph unicode="G" horiz-adv-x="1664" d="M91 633q0 288 198.5 497.5t543.5 209.5q122 0 220.5 -29.5t223.5 -84.5q25 -11 43 -11q20 0 31 29q14 38 37 38q27 0 33 -63l29 -290q2 -20 2 -32q0 -31 -27 -31q-25 0 -42 35q-78 161 -205.5 262t-293.5 101q-214 0 -334.5 -179t-120.5 -423q0 -272 133.5 -445.5 t314.5 -173.5q77 0 156.5 35.5t102 76t22.5 116.5q0 168 -13.5 209.5t-44.5 57.5t-126 27q-37 4 -37 29q0 29 35 29h151l461 11q31 0 31 -26q0 -15 -12 -20.5t-84 -20.5q-54 -12 -69 -36t-23 -302q-2 -62 -4 -69.5t-118.5 -68t-240 -90t-245.5 -29.5q-206 0 -368 81 t-261 228.5t-99 351.5z" />
<glyph unicode="H" horiz-adv-x="1579" d="M25 17q0 24 41 29q77 8 104.5 33t41 94.5t16 396.5t2.5 357q0 148 -10.5 214.5t-35.5 89.5t-77 29q-40 6 -50 11.5t-10 23.5q0 30 34 30q43 0 145 -8q57 -4 129 -4l282 9q49 0 49 -31q0 -30 -40 -30q-66 0 -91 -16t-37 -63t-12 -182l2 -284q127 -13 274 -13q146 0 281 13 l9 304q0 128 -26 182t-109 57q-68 3 -68 32q0 31 40 31q46 0 140 -5q121 -6 135 -6q170 0 298 8q24 2 34 2q38 0 38 -28q0 -31 -43 -32q-70 -1 -99.5 -19t-41 -55.5t-18.5 -264t-7 -311.5q0 -352 4.5 -431t36 -110t107.5 -31q47 0 47 -30q0 -26 -36 -26q-12 0 -52 3l-277 9 q-25 0 -96 -4q-136 -9 -176 -9q-36 0 -36 29q0 26 30 26q72 0 105 25t48 115t15 359q0 28 -2 84q-175 5 -310 5q-155 0 -245 -10q-12 -201 -11 -364q0 -116 25 -161t106 -49q39 -2 39 -29q0 -28 -41 -28q-15 0 -44 3q-119 11 -249 11q-61 0 -163 -6q-72 -5 -93 -5 q-52 0 -52 30z" />
<glyph unicode="I" horiz-adv-x="789" d="M67 12q0 23 31 27q85 11 114.5 47.5t35.5 175.5t6 432q0 309 -11 413.5t-36.5 128.5t-97.5 30q-38 3 -38 31q0 26 37 26q35 0 144 -5q83 -4 132 -4l307 8q39 0 39 -27q0 -24 -35 -28q-79 -8 -105.5 -29.5t-41 -99.5t-14.5 -353q0 -316 10 -488.5t40.5 -213t101.5 -40.5 q49 0 49 -26q0 -35 -53 -35q-15 0 -44 1q-188 13 -257 13q-151 0 -223 -9q-38 -4 -54 -4q-37 0 -37 29z" />
<glyph unicode="J" horiz-adv-x="960" d="M-8 195q0 61 43.5 108t116.5 47q66 0 103.5 -37t37.5 -85q0 -28 -29 -82q-22 -39 -22 -57q0 -25 16 -37.5t47 -12.5q79 0 113 76.5t34 376.5q0 621 -17 696t-150 78q-41 1 -41 28q0 30 44 30q10 0 72 -4q130 -7 210 -7l291 8q48 0 48 -29q0 -27 -46 -29q-66 -4 -97 -41 t-36.5 -212t-5.5 -330l2 -207q0 -199 -47.5 -292t-151 -153.5t-231.5 -60.5q-138 0 -221 67t-83 161z" />
<glyph unicode="K" horiz-adv-x="1429" d="M46 16q0 16 11 22t51 10q48 6 69.5 25.5t31 66t15 224.5t5.5 394q0 218 -5.5 308t-22.5 132.5t-37.5 54t-83.5 17.5q-32 2 -32 28q0 31 50 31q36 0 108 -6q89 -8 146 -8q35 0 199 9q48 2 74 2q38 0 38 -27q0 -28 -39 -32q-67 -6 -87 -32t-22 -80.5t-4 -463.5 q110 90 253 254t165.5 197t22.5 53q0 51 -93 70q-40 8 -40 33q0 30 38 30q13 0 34 -2q77 -11 221 -11q37 0 117 6q76 5 102 5q43 0 43 -30q0 -26 -41 -31q-57 -6 -115 -31.5t-139 -91t-168 -159.5l-197 -217l67 2q115 0 192 -49t109.5 -119t74.5 -246q32 -131 53 -183 t65.5 -89.5t97.5 -41.5q45 -4 45 -25q0 -30 -43 -30q-12 0 -35 2q-87 10 -180 10q-99 0 -197 -12q-34 53 -51.5 113t-53.5 289q-27 169 -74.5 227.5t-106.5 58.5q-71 0 -166 -92l-2 -258q0 -178 20 -222t109 -55q47 -6 47 -26q0 -35 -42 -35q-20 0 -59 4q-101 11 -240 11 q-90 0 -206 -13q-40 -4 -58 -4q-34 0 -34 33z" />
<glyph unicode="L" horiz-adv-x="1280" d="M27 18q0 14 10 19.5t49 11.5q62 9 95 36.5t46.5 82t15.5 278t2 531.5q0 123 -18 178.5t-51.5 81t-94.5 28.5q-43 2 -43 32t49 30l332 -9q77 0 215 7q50 2 68 2q42 0 42 -29q0 -16 -13.5 -22.5t-67.5 -14.5q-67 -9 -94.5 -34t-37 -87t-9.5 -278v-607q1 -140 25 -166.5 t91 -26.5q164 0 244 25.5t152.5 92.5t155.5 225q17 32 35 32q27 0 27 -29q0 -65 -69 -420q-250 13 -778 13q-184 0 -299 -11q-28 -2 -41 -2q-38 0 -38 30z" />
<glyph unicode="M" horiz-adv-x="1920" d="M42 1296q0 28 36 28q8 0 22 -1q102 -8 421 -8q26 -62 96 -196l139 -273q69 -138 154 -292q69 -121 78 -142q251 561 380 903q240 0 443 12q19 1 28 1q41 0 41 -32q0 -28 -32 -28q-114 0 -149.5 -77.5t-35.5 -377.5l-1 -490q0 -150 39.5 -210t128.5 -63q43 -1 43 -29 q0 -15 -18 -25l-281 2q-129 0 -353 -9q-19 13 -19 28q0 23 52 31q53 9 76.5 26t35.5 63t12 135l4 447q0 343 1 395q-272 -632 -337 -807l-101 -271q-17 -43 -34 -43q-18 0 -43 53q-73 154 -521 1017q-5 -248 -5 -669q0 -222 25 -280.5t140 -68.5q38 -4 38 -28q0 -26 -31 -26 q-11 0 -24 1q-120 8 -172 8q-142 0 -215 -10q-14 -2 -21 -2q-35 0 -35 29q0 14 8.5 19.5t45.5 13.5q96 18 125.5 69t29.5 167l5 571q0 195 -10 258t-49 97t-127 51q-33 7 -33 33z" />
<glyph unicode="N" horiz-adv-x="1557" d="M21 1295q0 33 41 33q10 0 29 -2q23 -2 83 -2q130 0 242 -3q479 -545 799 -874q1 68 1 88l1 396q0 140 -16 200.5t-68 95.5t-121 41q-37 4 -37 31q0 29 34 29q19 0 49 -4q57 -7 167 -7q138 0 210 8q30 3 51 3q38 0 38 -29q0 -28 -51 -33q-63 -6 -117.5 -53t-54.5 -185 l5 -566l-7 -426q0 -55 -34 -55q-9 0 -21 6t-138 138l-373 411q-248 279 -347 400q-2 -27 -2 -503q0 -147 12.5 -230.5t78 -121t118.5 -37.5q34 0 34 -26q0 -30 -36 -30q-23 0 -58 4q-60 8 -153 8q-149 0 -216 -9q-42 -5 -60 -5q-39 0 -39 33q0 24 63 29q113 9 141.5 78 t28.5 188q0 516 -5.5 631t-72 208t-160.5 111q-39 7 -39 31z" />
<glyph unicode="O" horiz-adv-x="1579" d="M86 638q0 288 206.5 494t512.5 206q202 0 353.5 -81t243 -234.5t91.5 -334.5q0 -280 -209 -496.5t-518 -216.5q-281 0 -480.5 179t-199.5 484zM427 658q0 -290 98.5 -450t264.5 -160q147 0 255.5 144.5t108.5 465.5q0 303 -103 456t-261 153q-157 0 -260 -153.5 t-103 -455.5z" />
<glyph unicode="P" horiz-adv-x="1323" d="M55 14q0 22 55 30t78 28.5t33.5 72t11.5 275t1 393.5l-1 315q0 64 -31 102.5t-109 38.5q-35 0 -35 28q0 33 62 33l26 -1q56 -3 130 -3l408 6q310 0 432.5 -93t122.5 -259t-131.5 -266.5t-429.5 -100.5q-69 0 -167 4l-1 -380q0 -120 34 -155.5t103 -37.5q46 -1 58 -7.5 t12 -24.5q0 -26 -58 -26q-26 0 -121 6q-128 7 -179 7q-56 0 -154 -7q-81 -6 -118 -6q-32 0 -32 28zM511 688q57 -5 88 -5q159 0 238 96t79 229q0 126 -72.5 189t-178.5 63q-55 0 -154 -17v-555z" />
<glyph unicode="Q" horiz-adv-x="1579" d="M86 639q0 289 210.5 494t502.5 205q324 0 509.5 -192t185.5 -461q0 -114 -35.5 -219t-105 -196.5t-172.5 -169.5t-235 -142l-287 -136q49 6 73 6q65 0 132.5 -26t195.5 -102q90 -53 112.5 -61.5t61.5 -8.5q111 0 187 118q18 27 39 27q37 0 37 -40q0 -32 -116.5 -155.5 t-291.5 -123.5q-166 0 -347 112q-133 83 -186.5 110.5t-93.5 27.5q-52 0 -77 -30.5t-27 -101.5q-3 -70 -26 -95.5t-73 -25.5q-42 0 -70.5 25.5t-28.5 61.5q0 154 389 320q250 107 320 144q-90 -21 -156 -21q-153 0 -300 78t-237 232t-90 346zM427 658q0 -290 98.5 -450 t264.5 -160q147 0 255.5 144.5t108.5 465.5q0 303 -103 456t-261 153q-157 0 -260 -153.5t-103 -455.5z" />
<glyph unicode="R" horiz-adv-x="1429" d="M37 1291q0 29 56 29q282 0 478 12q87 6 157 6q227 0 356 -90.5t129 -236.5q0 -98 -61 -176t-152.5 -116t-214.5 -48q135 -19 222.5 -81.5t131.5 -248.5q41 -174 88 -229.5t132 -60.5q47 -3 47 -30q0 -29 -76 -29l-385 9q-60 60 -82 214q-28 197 -58 278t-90 116t-139 35 q-23 0 -63 -3q0 -352 2.5 -433.5t32.5 -117t114 -39.5q45 -3 45 -30t-39 -27l-307 8q-62 0 -159 -5q-89 -5 -113 -5q-41 0 -41 29q0 28 36 28q56 0 103.5 28t47.5 237l-1 186l1 359q0 278 -24.5 339.5t-131.5 63.5q-42 1 -42 29zM513 713q26 -1 39 -1q87 0 175.5 32.5 t125 104t36.5 152.5q0 125 -74 195t-191 70q-49 0 -111 -18v-535z" />
<glyph unicode="S" d="M67 420q0 29 30 29q22 0 42 -50q61 -150 166 -250q104 -100 243 -100q118 0 190.5 70t72.5 159t-67 150t-241 117q-169 55 -251.5 105t-132 137.5t-49.5 177.5q0 157 121.5 267t330.5 110q113 0 301 -68q13 13 26 40q15 32 34 32q27 0 33 -44l35 -274l4 -33 q0 -27 -27 -27q-20 0 -29 9.5t-34 61.5q-43 89 -142 160t-199 71q-97 0 -161.5 -55.5t-64.5 -139.5q0 -67 60 -121t231 -102q268 -76 363 -188q94 -112 94 -249q0 -140 -69 -235t-165 -149.5t-246 -54.5q-85 0 -176 24.5t-188 73.5q-20 -23 -34 -60q-16 -41 -40 -41 q-25 0 -30 54l-29 363q-2 24 -2 30z" />
<glyph unicode="T" horiz-adv-x="1536" d="M39 995q0 9 12.5 131.5t28.5 203.5q519 -14 768 -14q189 0 416 11q81 4 133 4q20 0 67 -1q7 -41 18 -169l15 -158q0 -39 -33 -39q-25 0 -48 48q-38 81 -97.5 139t-138 77t-259.5 19q-16 -153 -16 -383q0 -235 9 -453.5t22 -263.5t44 -66t146 -29q39 -3 39 -28 q0 -28 -34 -28l-28 1l-207 5q-242 0 -294 -2l-126 -5q-15 0 -62 2q-23 5 -23 25q0 29 38 29q89 0 134 37t55.5 117.5t10.5 349.5q0 425 -26 692q-165 0 -238.5 -13.5t-141.5 -74t-111 -156.5q-17 -38 -39 -38q-34 0 -34 30z" />
<glyph unicode="U" horiz-adv-x="1557" d="M40 1301q0 30 43 30l322 -11q46 0 105 5q94 7 148 7q51 0 51 -28q0 -27 -40 -29q-72 -4 -107.5 -51.5t-45.5 -195t-10 -324.5q0 -284 27 -381.5t116 -155.5t236 -58q149 0 225 63.5t104.5 199.5t28.5 505q0 218 -34 301t-116 91q-59 6 -59 35t48 29q23 0 77 -6 q56 -5 117 -5q56 0 125 6q52 4 72 4q50 0 50 -29q0 -23 -36 -27q-50 -5 -90.5 -46.5t-52 -137t-11.5 -490.5q0 -260 -52 -376.5t-181.5 -181t-322.5 -64.5q-149 0 -259 26.5t-174.5 81.5t-93 127t-28.5 212l4 533q0 112 -12.5 184t-39.5 95.5t-82 29.5q-35 4 -43.5 10.5 t-8.5 21.5z" />
<glyph unicode="V" horiz-adv-x="1429" d="M11 1300q0 29 38 29l270 -9q141 0 279 10q38 2 46 2q48 0 48 -33q0 -22 -43 -27q-114 -14 -114 -103q0 -154 263 -828q88 221 168 446l98 275q17 50 17 96q0 47 -32.5 80t-73.5 34q-46 2 -46 27q0 32 37 32q28 0 70 -3q85 -7 153 -7q71 0 126 7q41 5 68 5q35 0 35 -31 q0 -26 -35 -31q-53 -8 -91 -36.5t-74.5 -91.5t-121.5 -284l-178 -459q-128 -336 -172 -429h-79l-184 480l-175 444q-106 262 -136 304.5t-54.5 56t-74.5 17.5q-32 1 -32 27z" />
<glyph unicode="W" horiz-adv-x="2176" d="M6 1289q0 16 11.5 21.5t61.5 5.5l252 -5q46 0 123 4q111 6 171 6q36 0 36 -29q0 -27 -43 -30q-43 -4 -77 -30.5t-34 -65.5q0 -31 18.5 -79t155.5 -352l170 -369l216 583q-20 43 -65.5 153t-72.5 131t-88 30q-33 5 -33 29q0 16 12.5 21t88.5 5l239 -5l195 5q102 0 115 -3 t13 -24q0 -27 -37 -27q-65 0 -96 -32t-31 -75q0 -122 280 -769q58 142 150 396t103 294t11 76q0 56 -35 82t-69 27q-50 3 -50 28q0 27 45 27l169 -5q99 0 172 6q41 3 55 3q39 0 39 -28q0 -25 -41 -29t-72 -23t-74.5 -83.5t-125.5 -279.5l-169 -450l-170 -458h-71 q-23 47 -168 438q-76 202 -171 425l-166 -452l-148 -411h-73l-250 559q-150 333 -231 490t-121 191.5t-89 47.5q-31 8 -31 30z" />
<glyph unicode="X" horiz-adv-x="1536" d="M24 1294q0 29 37 29q19 0 52 -4q64 -7 277 -7q89 0 215 6q76 4 88 4q54 0 54 -28t-43 -30q-25 -2 -66 -16.5t-41 -45.5q0 -28 42 -100.5t166 -259.5q215 265 215 332q0 34 -22.5 54t-91.5 35q-32 6 -32 31q0 26 38 26q23 0 77 -4q75 -5 127 -5q72 0 189 6q55 3 68 3 q48 0 48 -29q0 -26 -37 -28q-68 -2 -137.5 -41t-128 -106.5t-265.5 -336.5q113 -194 263 -410t224 -267.5t130 -57.5q47 -5 47 -30q0 -28 -48 -28l-369 12q-72 0 -143 -5q-62 -3 -80 -4q-43 0 -53 -1q-15 -2 -23 -2q-29 0 -29 28q0 25 34 28q110 10 110 77q0 77 -246 421 q-263 -337 -263 -402q0 -70 160 -93q35 -5 35 -26q0 -30 -36 -30q-17 0 -91 4q-89 5 -178 5q-84 0 -131 -4q-60 -6 -80 -6q-58 0 -58 31q0 23 31 27q91 12 144.5 43t131 126.5t290.5 390.5q-253 413 -352.5 527t-208.5 130q-40 6 -40 31z" />
<glyph unicode="Y" horiz-adv-x="1472" d="M14 1298q0 31 35 31q16 0 50 -3q155 -11 227 -11q114 0 256 11q29 2 49 2q34 0 34 -26q0 -25 -37 -29q-103 -10 -103 -73q0 -67 297 -467q279 364 279 445q0 23 -15.5 47t-89.5 45q-30 8 -30 28q0 31 36 31q10 0 27 -2q128 -11 195 -11q73 0 173 10q19 2 32 2 q29 0 29 -27q0 -25 -29 -28q-67 -7 -123.5 -44.5t-137 -143t-179 -249.5t-108.5 -175.5t-10 -217.5q0 -282 25.5 -338.5t126.5 -56.5q36 0 36 -29q0 -30 -40 -30q-30 0 -165 9q-77 5 -110 5q-109 0 -247 -13q-26 -2 -41 -2q-38 0 -38 29q0 25 29 28q98 12 123.5 65.5 t25.5 235.5q0 164 -19 218.5t-110 202.5l-182 283q-90 135 -138.5 173t-104.5 48q-28 5 -28 27z" />
<glyph unicode="Z" horiz-adv-x="1387" d="M77 13q0 16 95 169t698 1051q-212 14 -305 14q-259 0 -386 -231q-32 -57 -59 -57q-29 0 -29 30q0 10 6 28q3 10 32 124q9 33 57 183l526 -12q443 0 520 20l6 2q18 0 18 -20q0 -19 -324 -497l-487 -751h214q180 0 268 20t185.5 97.5t142.5 157.5q19 34 44 34q26 0 26 -29 q0 -15 -9 -39q-46 -136 -88 -307h-1117q-34 0 -34 13z" />
<glyph unicode="[" horiz-adv-x="1045" d="M210 285q0 554 4 760.5t15.5 229t32.5 22.5q17 0 41 -3q229 -23 454 -23q100 0 129 11t29 34l-2 9q-3 15 -3 20q0 24 26 24q25 0 45 -41.5t20 -77.5q0 -64 -76 -127t-175 -63q-151 0 -430 97q-2 -35 -2 -41l8 -472l-2 -535l-6 -402q0 -6 2 -40q279 96 429 96 q101 0 176.5 -63t75.5 -126q0 -37 -20 -78.5t-45 -41.5q-26 0 -26 25l3 19l2 9q0 23 -27.5 34t-131.5 11q-224 0 -453 -23q-24 -3 -41 -3q-20 0 -30.5 20t-16 218t-5.5 521z" />
<glyph unicode="\" horiz-adv-x="1088" d="M116 1426h136l720 -1463h-136z" />
<glyph unicode="]" horiz-adv-x="1045" d="M45 -427q0 64 75.5 127t174.5 63q152 0 431 -96q1 34 1 40l-7 472l2 536l5 401q0 6 -1 41q-279 -97 -430 -97q-100 0 -175.5 63t-75.5 126q0 31 18.5 75.5t45.5 44.5q26 0 26 -24q0 -5 -3 -20l-1 -9q0 -22 27.5 -33.5t131.5 -11.5q224 0 452 23q24 3 42 3 q20 0 30.5 -19.5t16 -218t5.5 -521.5q0 -554 -4.5 -760t-16 -229t-31.5 -23q-18 0 -42 3q-228 23 -453 23q-100 0 -129 -10.5t-29 -34.5l1 -9l3 -19q0 -25 -25 -25q-29 0 -47 45t-18 74z" />
<glyph unicode="^" horiz-adv-x="1195" d="M149 666l411 718h82l404 -718h-159l-295 512l-290 -512h-153z" />
<glyph unicode="_" horiz-adv-x="1024" d="M-12 -154h1048v-102h-1048v102z" />
<glyph unicode="`" horiz-adv-x="683" d="M72 1277q0 34 26.5 59.5t59.5 25.5q44 0 88 -45t133 -177.5t89 -143.5t-13.5 -23t-25.5 -12q-23 0 -143 95l-154 121q-60 47 -60 100z" />
<glyph unicode="a" horiz-adv-x="981" d="M82 189q0 68 33.5 121.5t83 83t163.5 70.5q96 34 128.5 53.5t54.5 57t22 97.5q0 66 -33 105.5t-91 39.5q-50 0 -71 -25q-21 -26 -32 -83q-23 -114 -123 -114q-41 0 -70 24t-29 69q0 96 104.5 143.5t249.5 47.5q125 0 203.5 -38t100.5 -88t22 -156l-2 -237 q0 -187 12.5 -240t53.5 -53q6 0 16 1q20 2 27 2q41 0 41 -23q0 -15 -17 -25.5t-102.5 -26.5t-154.5 -16t-94.5 26.5t-30.5 90.5q-62 -59 -125 -88.5t-127 -29.5q-102 0 -157.5 61.5t-55.5 149.5zM306 240q0 -70 29.5 -106.5t72.5 -36.5q58 0 108 53.5t50 188.5q0 42 -6 157 q-24 -29 -115 -77q-83 -44 -111 -78q-28 -35 -28 -101z" />
<glyph unicode="b" horiz-adv-x="1131" d="M40 1340q0 27 39 27q22 0 95 -5q55 -3 96 -3l100 3q37 0 37 -28l1 -48q0 -409 -3 -479q55 34 114 50.5t122 16.5q171 0 288 -125.5t117 -312.5q0 -126 -57.5 -228.5t-158.5 -167t-233 -64.5q-90 0 -157 24.5t-161 84.5q-13 8 -20 8q-21 0 -31 -39q-19 -67 -42 -67 q-18 0 -22.5 15t-4.5 133l8 726q0 373 -8 408t-76 42q-43 4 -43 29zM391 300q0 -143 52.5 -200.5t124.5 -57.5q91 0 148 105t57 267t-51 273.5t-143 111.5q-62 0 -112 -43t-63 -204.5t-13 -251.5z" />
<glyph unicode="c" horiz-adv-x="960" d="M86 423q0 188 129 322t324 134q128 0 225.5 -61.5t97.5 -145.5q0 -50 -29.5 -78.5t-74.5 -28.5q-86 0 -123 124q-20 68 -44 97q-25 29 -72 29q-82 0 -123.5 -82t-41.5 -246q0 -188 68 -300.5t176 -112.5q144 0 203 171q19 54 45 54q28 0 28 -30q0 -87 -88.5 -188.5 t-264.5 -101.5q-193 0 -314 125.5t-121 318.5z" />
<glyph unicode="d" horiz-adv-x="1131" d="M86 402q0 206 132 338.5t294 132.5q61 0 112.5 -22.5t94.5 -67.5q0 289 -3 385.5t-16 113t-71 26.5q-39 6 -39 28q0 17 13.5 21.5t86.5 4.5h264l-2 -710l-5 -441q0 -102 17.5 -129t80.5 -35q37 -4 37 -28q0 -26 -39 -26h-324v137q-43 -77 -105 -115.5t-144 -38.5 q-153 0 -268.5 119t-115.5 307zM356 431q0 -191 50.5 -279.5t128.5 -88.5q75 0 128.5 84.5t53.5 305.5q0 180 -45 270t-136 90q-90 0 -135 -95.5t-45 -286.5z" />
<glyph unicode="e" horiz-adv-x="981" d="M82 397q0 203 132.5 340.5t330.5 137.5q186 0 283.5 -125t97.5 -238q0 -36 -19 -43t-123 -7l-434 -6q-1 -29 -1 -42q0 -142 69.5 -240.5t187.5 -98.5q121 0 238 105q24 21 34 21q26 0 26 -28q0 -22 -60 -79t-147 -86t-180 -29q-204 0 -319.5 124.5t-115.5 293.5zM356 529 q148 -2 171 -2q113 0 138.5 16t25.5 65q0 82 -47 145t-112 63q-154 0 -176 -287z" />
<glyph unicode="f" horiz-adv-x="683" d="M43 774q0 13 10 42t26.5 35t117.5 11q0 259 120 381.5t333 122.5q139 0 202 -48t63 -105q0 -37 -28 -63.5t-75 -26.5q-81 0 -145 108q-30 52 -50 63t-45 11q-70 0 -105 -75q-31 -68 -31 -310v-58q137 0 178.5 -6t41.5 -20q0 -7 -11.5 -38.5t-19 -38t-26.5 -6.5l-163 -3 q-4 -419 -4 -472q0 -136 29 -178t104 -53q46 -6 46 -30q0 -26 -48 -26q-28 0 -95 5q-64 5 -120 5q-70 0 -167 -7q-64 -4 -82 -4q-38 0 -38 28q0 19 24 25q70 17 87 40t21 120t4 547q-30 1 -79 1q-75 0 -75 23z" />
<glyph unicode="g" horiz-adv-x="1152" d="M70 -333q0 89 77.5 150.5t232.5 96.5q-118 12 -177 51.5t-59 107.5q0 72 55 121t164 75q-114 35 -171.5 102t-57.5 167q0 145 116 243.5t286 98.5q81 0 146 -23t114 -70q118 104 206 104q59 0 96.5 -34t37.5 -78q0 -37 -26 -67.5t-71 -30.5q-63 0 -91 68q-19 45 -37 45 q-21 0 -79 -48q53 -80 53 -172q0 -94 -54 -172.5t-130.5 -111.5t-217.5 -46q-121 -11 -147 -37q-27 -27 -27 -60q0 -40 55 -52q54 -12 299 -19q376 -12 376 -247q0 -160 -140.5 -265.5t-424.5 -105.5q-214 0 -309 62.5t-95 146.5zM267 -307q0 -68 67.5 -119t190.5 -51 q149 0 247.5 68t98.5 161q0 75 -79 110.5t-203 35.5q-147 0 -234.5 -58.5t-87.5 -146.5zM374 578q0 -129 43.5 -199.5t103.5 -70.5q62 0 93 60.5t31 181.5q0 128 -37.5 201t-96.5 73q-60 0 -98.5 -66t-38.5 -180z" />
<glyph unicode="h" horiz-adv-x="1131" d="M37 1329q0 27 43 27q153 0 342 8q-4 -100 -4 -172l1 -267q0 -172 3 -211q59 81 131.5 121.5t159.5 40.5q70 0 133 -32.5t97.5 -108t34.5 -263.5l-3 -314q0 -103 81 -111q32 -3 32 -27q0 -29 -34 -29q-9 0 -27 2q-71 8 -207 8q-23 0 -83 -6q-42 -4 -73 -4q-41 0 -41 27 q0 23 46 30t59 57t13 303q0 231 -23.5 302t-95.5 71q-60 0 -118 -60.5t-76 -168.5t-18 -266q0 -81 8 -141.5t22.5 -75.5t49.5 -20q38 -4 38 -32q0 -26 -43 -26q-32 0 -93 6q-50 5 -89 5q-79 0 -147 -8q-34 -4 -89 -4q-29 0 -29 28q0 23 41 29q51 6 70.5 42.5t26.5 263.5 t7 694q0 143 -22 185.5t-74 59.5q-50 16 -50 37z" />
<glyph unicode="i" horiz-adv-x="619" d="M45 18q0 26 58 31q77 7 86 51.5t9 180.5q0 176 -5.5 323.5t-20.5 168.5t-78 28q-49 5 -49 29t50 28l21 2l312 19q4 -140 4 -499l-3 -215q0 -65 21.5 -87t70.5 -29q56 -7 56 -32q0 -27 -44 -27q-21 0 -73 3q-110 7 -218 7q-53 0 -108 -5q-33 -4 -45 -4q-44 0 -44 27z M126 1217q0 60 42 102t102 42q59 0 101.5 -42t42.5 -102q0 -59 -42.5 -101.5t-101.5 -42.5q-60 0 -102 42.5t-42 101.5z" />
<glyph unicode="j" horiz-adv-x="619" d="M-165 -374q0 50 34 90.5t89 40.5t84 -32t29 -67q0 -24 -26 -78q-7 -16 -7 -28q0 -14 14 -21.5t41 -7.5q121 0 121 221q0 16 -4.5 174.5t-4.5 596.5q0 171 -3 209t-24.5 61.5t-75.5 23.5q-57 0 -57 25q0 31 70 31q94 0 321 12v-855q0 -181 -29 -295t-122 -192t-219 -78 q-105 0 -168 51t-63 118zM134 1222q0 60 42 102t102 42q59 0 101.5 -42t42.5 -102q0 -59 -42.5 -101.5t-101.5 -42.5t-101.5 42.5t-42.5 101.5z" />
<glyph unicode="k" horiz-adv-x="1131" d="M40 1298q0 25 47 28q163 11 331 38v-911q71 43 180.5 148.5t109.5 150.5q0 38 -94 48q-48 5 -48 30q0 24 40 24q24 0 53 -2q80 -4 145 -4q43 0 90 2q66 4 87 4q36 0 36 -27q0 -25 -61 -32q-51 -5 -98 -35.5t-125 -111.5q-59 -61 -69 -68q64 -36 120.5 -100.5 t112.5 -263.5q24 -87 37.5 -113.5t46.5 -41.5t93 -16q29 -1 29 -28q0 -26 -33 -26q-7 0 -19 1q-113 8 -171 8q-50 0 -143 -13q-49 49 -70 168q-26 147 -66.5 194.5t-117.5 77.5q-30 -25 -65 -49q2 -266 20.5 -294t72.5 -33q47 -5 47 -34q0 -28 -43 -28q-13 0 -35 2 q-107 11 -149 11q-65 0 -174 -9q-39 -3 -53 -3q-48 0 -48 29q0 25 39 30q79 10 86 58t7 304l-7 693q0 99 -22 127t-75 37q-44 8 -44 30z" />
<glyph unicode="l" horiz-adv-x="619" d="M11 1286q0 15 12.5 20.5t61.5 9.5q205 17 334 51l3 -839q1 -402 21 -439t80 -40q70 -3 70 -28q0 -31 -43 -31q-12 0 -35 2q-97 8 -188 8q-148 0 -219 -7q-20 -2 -36 -2q-45 0 -45 27q0 26 51 29q55 3 80.5 20t31 47.5t5.5 142.5l-4 393l3 312q0 194 -18.5 235.5 t-109.5 56.5q-55 8 -55 32z" />
<glyph unicode="m" horiz-adv-x="1685" d="M28 826q0 26 41 28q53 3 157 13.5t180 10.5q12 -29 12 -96q0 -17 1 -59q72 78 145.5 116.5t149.5 38.5q54 0 114 -22t131 -103q72 63 148 94.5t156 31.5q137 0 201 -74q63 -75 63 -222l-5 -338q0 -143 14 -164.5t76 -30.5q35 -6 35 -27q0 -31 -41 -31q-7 0 -20 1 q-84 7 -183 7q-54 0 -130 -5q-47 -3 -54 -3q-50 0 -50 28q0 25 33 29q57 8 70 20t20 92.5t7 271.5q0 175 -9 240t-41 99.5t-80 34.5q-43 0 -87.5 -32.5t-91.5 -98.5q-31 -155 -31 -445q0 -123 18 -149t82 -33q38 -4 38 -26q0 -31 -48 -31q-11 0 -77 4q-91 5 -129 5 q-65 0 -154 -7q-23 -2 -35 -2q-44 0 -44 29q0 26 43 29q57 4 72 63.5t15 416.5q0 147 -26 202.5t-85 55.5q-102 0 -161 -108t-59 -417q0 -145 18.5 -177.5t69.5 -35.5q38 -2 38 -26q0 -32 -41 -32q-8 0 -28 3q-52 6 -178 6q-112 0 -173 -7q-24 -2 -36 -2q-33 0 -33 29 q0 27 37 29q60 3 74 21t21 100.5t7 310.5q0 178 -4.5 223t-33 69t-78.5 25q-41 1 -41 27z" />
<glyph unicode="n" d="M26 18q0 25 33 29q51 6 69 28t26.5 137.5t8.5 275.5q0 204 -15 252.5t-72 70.5q-41 16 -41 31q0 24 59 24q166 0 269 13q38 -87 44 -195q68 96 147.5 144t170.5 48q76 0 139 -39t85.5 -93t22.5 -153l-9 -399q0 -82 15 -109t63 -35q40 -7 40 -32q0 -26 -39 -26 q-33 0 -145 8q-39 2 -63 2q-23 0 -132 -9h-49q-41 0 -41 27q0 22 37 29q34 7 54 23t26.5 157t6.5 280q0 154 -24.5 211t-93.5 57q-85 0 -157.5 -124.5t-72.5 -382.5q0 -100 10 -145t24.5 -56.5t61.5 -19.5q28 -5 28 -29q0 -28 -41 -28q-20 0 -44 2q-96 9 -104 9 q-144 0 -236 -10q-15 -2 -24 -2q-37 0 -37 29z" />
<glyph unicode="o" d="M83 422q0 203 139.5 328.5t339.5 125.5q203 0 333.5 -118.5t130.5 -305.5q0 -184 -137 -327t-348 -143q-194 0 -326 120t-132 320zM351 461q0 -182 55.5 -298.5t152.5 -116.5q95 0 143 93t48 245q0 164 -54.5 296.5t-156.5 132.5q-90 0 -139 -92.5t-49 -259.5z" />
<glyph unicode="p" d="M-30 -509q0 24 56 29q91 9 109 111.5t18 700.5l-6 326q0 95 -23 123t-73 33q-38 4 -38 28q0 29 43 29q177 0 334 8l2 -100q0 -6 -2 -30q54 61 115 91.5t129 30.5q140 0 266.5 -123.5t126.5 -316.5q0 -181 -125.5 -313.5t-296.5 -132.5q-61 0 -118 17.5t-111 52.5 q0 -400 22 -466.5t118 -70.5q35 -1 35 -27q0 -27 -47 -27q-27 0 -83 3q-117 8 -204 8q-59 0 -143 -7q-41 -3 -52 -3q-52 0 -52 26zM375 350q0 -170 43 -233.5t137 -63.5q95 0 142.5 86t47.5 257q0 182 -53.5 282.5t-139.5 100.5q-88 0 -132.5 -107t-44.5 -322z" />
<glyph unicode="q" horiz-adv-x="1131" d="M91 412q0 186 129.5 325.5t339.5 139.5q179 0 307 -116q21 34 32.5 66t38.5 32q20 0 25.5 -18t5.5 -93l-2 -255q0 -842 15.5 -903.5t101.5 -65.5q46 -1 46 -28q0 -13 -9.5 -21.5t-63.5 -8.5q-13 0 -50 3q-50 5 -164 5q-50 0 -119 -4q-71 -5 -101 -5q-47 0 -47 30 q0 25 49 28q67 5 89.5 37.5t22.5 108.5l-1 179l-1 161v26q-53 -26 -106.5 -39t-106.5 -13q-196 0 -313.5 128t-117.5 301zM373 436q0 -194 57 -289.5t149 -95.5q94 0 126.5 71.5t32.5 237.5q0 291 -39.5 376t-131.5 85q-97 0 -145.5 -96t-48.5 -289z" />
<glyph unicode="r" horiz-adv-x="832" d="M21 826q0 27 50 28q92 1 313 24l7 -201q50 101 115 151t145 50q76 0 121.5 -44t45.5 -110q0 -52 -32.5 -88.5t-79.5 -36.5q-35 0 -58 18t-49 64q-36 66 -63 66q-37 0 -84 -75t-47 -291q0 -273 18.5 -303.5t81.5 -30.5q55 0 55 -30q0 -28 -54 -28q-30 0 -87 6q-52 5 -98 5 q-99 0 -196 -7q-41 -3 -48 -3q-42 0 -42 31q0 27 49 29q48 2 67 22.5t19 89.5l4 250q0 76 -6 189t-11 134.5t-25.5 38.5t-55.5 20q-36 4 -45.5 9.5t-9.5 22.5z" />
<glyph unicode="s" horiz-adv-x="853" d="M89 287q0 42 24 42t51 -62q96 -225 262 -225q58 0 98.5 30t40.5 87q0 48 -37.5 82.5t-143.5 86.5q-160 79 -219 138q-60 59 -60 157q0 113 87 183.5t214 70.5q101 0 205 -60q14 -8 23 -8q13 0 20 22q10 28 29 28q13 0 18 -9t14 -93.5t9 -140.5q0 -39 -23 -39 q-24 0 -49 56q-85 186 -245 186q-58 0 -94 -29t-36 -62q0 -42 46 -77q46 -36 179 -97q114 -52 158.5 -80.5t75.5 -82t31 -112.5q0 -72 -37.5 -140t-113 -112.5t-176.5 -44.5q-126 0 -213 52q-38 22 -49 22q-13 0 -20 -17q-16 -40 -38 -40q-13 0 -18.5 10t-9 89.5t-3.5 188.5 z" />
<glyph unicode="t" horiz-adv-x="789" d="M33 790q0 20 47 32q93 21 166.5 76t125.5 175q21 49 28.5 59.5t21.5 10.5q29 0 29 -48v-233q61 3 187 3q57 0 94 -10q-15 -75 -26.5 -80t-254.5 -19l-11 -441q0 -94 9.5 -138t43.5 -74t88 -30q46 0 131 49q13 7 22 7q19 0 19 -20q0 -29 -81 -79t-190 -50 q-129 0 -202.5 63t-73.5 266q0 224 8 447q-99 0 -140 5t-41 29z" />
<glyph unicode="u" d="M43 826q0 27 39 27q268 0 298 6q5 -103 5 -281q0 -270 5 -345.5t39.5 -113.5t78.5 -38q52 0 105.5 39t79 102t25.5 206l2 221q0 88 -9.5 116t-64.5 30q-60 3 -60 31q0 17 14.5 21.5t76.5 4.5q139 0 259 7q4 -39 4 -427q0 -312 6 -340.5t65 -33.5q35 -4 35 -29 q0 -29 -40 -29q-8 0 -25 1q-28 2 -66 2q-133 0 -147 -1q-16 -1 -27 -1q-19 0 -23.5 6.5t-4.5 38.5q0 52 7 105q-69 -84 -145.5 -126t-160.5 -42q-255 0 -255 286v309q0 160 -11.5 187.5t-60.5 34.5q-44 6 -44 26z" />
<glyph unicode="v" horiz-adv-x="1024" d="M6 833q0 28 38 28q16 0 50 -3q81 -8 158 -8q31 0 70 3q71 7 85 7q66 0 66 -23q0 -28 -37 -32q-52 -5 -52 -49q0 -26 84 -206t142 -284q65 139 121 292.5t56 190.5q0 40 -46 52q-44 12 -44 33q0 25 36 25q18 0 74 -5q51 -4 71 -4q44 0 82 6q21 3 33 3q31 0 31 -28 q0 -21 -42 -28q-95 -15 -158 -176l-138 -339q-66 -156 -100.5 -225.5t-42 -75t-18.5 -5.5q-13 0 -25 19t-103 201l-231 460q-50 99 -76 118.5t-45 24.5q-39 9 -39 28z" />
<glyph unicode="w" horiz-adv-x="1472" d="M10 832q0 27 41 27q25 0 90 -5q49 -4 91 -4q53 0 154 7q29 2 46 2q45 0 45 -30q0 -25 -44 -29q-53 -5 -53 -44q0 -36 213 -480q119 277 119 344q0 50 -28.5 107t-78.5 72q-33 10 -33 33q0 27 37 27q12 0 41 -2q82 -6 180 -6q40 0 110 6q28 2 45 2q35 0 35 -28 q0 -24 -36 -30q-60 -9 -60 -47q0 -34 21 -81l169 -381q37 83 98 261.5t61 194.5q0 41 -62 49q-47 7 -47 33q0 28 37 28q15 0 37 -2q42 -5 72 -5q31 0 80 4q35 3 40 3q33 0 33 -30q0 -19 -34 -29q-37 -11 -64.5 -41t-60.5 -131l-204 -554q-31 -95 -59 -95q-22 0 -43 49 l-209 457l-23 53l-142 -344q-79 -187 -90 -200.5t-22 -13.5q-21 0 -43 51q-37 85 -90 194l-220 450q-41 82 -60 101.5t-51 25.5q-38 7 -38 31z" />
<glyph unicode="x" d="M22 832q0 29 40 29q15 0 66 -4q65 -6 101 -6q140 0 223 8q21 2 34 2q36 0 36 -29q0 -21 -54 -31q-40 -8 -40 -26q0 -27 51 -88q11 -13 19 -25l90 -119l49 59q86 102 101.5 125t15.5 40q0 29 -69 38q-35 4 -35 29q0 27 48 27q14 0 48 -4q43 -6 89 -6t86 5q26 4 33 4 q38 0 38 -25t-50 -30q-36 -3 -60.5 -16.5t-71.5 -66.5l-105 -120l-84 -101l235 -306q55 -71 96.5 -100.5t92.5 -40.5q44 -9 44 -31q0 -30 -46 -30q-24 0 -84 5q-55 4 -162 4q-100 0 -177 -7q-32 -3 -46 -3q-40 0 -40 28q0 24 48 31q62 10 62 40q0 23 -43 79q-38 49 -46 62 l-17 22l-58 74l-109 -127q-64 -75 -64 -103q0 -23 18.5 -32.5t79.5 -17.5q35 -5 35 -28q0 -28 -47 -28q-12 0 -33 2q-50 6 -125 6q-48 0 -143 -8q-9 -1 -14 -1q-42 0 -42 30q0 24 53 30q53 7 95.5 33t90.5 88q6 9 14 18l155 184l-239 309q-51 65 -77 87t-73 35q-33 9 -33 27 z" />
<glyph unicode="y" horiz-adv-x="1024" d="M-19 -389q0 43 34.5 81.5t90.5 38.5q90 0 114 -107q13 -54 40 -54q68 0 146.5 138.5t78.5 206.5q0 34 -63 183l-168 388q-105 238 -134 273.5t-67 44.5q-39 8 -39 28q0 29 51 29q12 0 81 -7q42 -5 108 -5q109 0 191 8l43 4q40 0 40 -27q0 -26 -48 -35q-32 -6 -50 -27.5 t-18 -41.5q0 -22 53.5 -167t142.5 -342l82 228q67 189 67 259q0 83 -94 96q-42 7 -42 29q0 28 41 28q16 0 58 -5q44 -5 104 -5q40 0 97 6q48 6 55 6q48 0 48 -30q0 -17 -31 -25q-77 -21 -114 -85.5t-156 -402.5q-155 -439 -224.5 -587t-154 -211t-180.5 -63 q-86 0 -134.5 42.5t-48.5 109.5z" />
<glyph unicode="z" horiz-adv-x="939" d="M61 20q0 10 10 26q11 15 25 40q6 11 18 29l155 241q174 270 259 446q-110 0 -181.5 -17t-105.5 -43t-105 -120q-22 -30 -39 -30q-30 0 -30 30q0 11 7 28q24 63 57 209h559q99 0 117 -5.5t18 -18.5q0 -9 -32 -64l-80 -135l-358 -573q195 3 248.5 10t94.5 40t97 121 q34 53 53 53q28 0 28 -30q0 -16 -18 -84q-22 -80 -38 -173h-678q-56 0 -68.5 3.5t-12.5 16.5z" />
<glyph unicode="{" horiz-adv-x="811" d="M165 407v61q105 15 150.5 79.5t45.5 138.5q0 65 -22 150q-31 119 -31 178q0 117 105.5 218.5t306.5 105.5v-46q-101 -16 -148 -71t-47 -117q0 -65 23 -163q25 -103 25 -174q0 -100 -76.5 -192.5t-249.5 -135.5q186 -54 257 -147t71 -185q0 -55 -24 -156 q-25 -101 -25 -170q0 -159 194 -198v-46q-89 0 -146 13t-124 58.5t-105 113t-38 136.5q0 64 31 184q23 90 23 156q0 178 -196 209z" />
<glyph unicode="|" horiz-adv-x="1088" d="M478 -542v1908h132v-1908h-132z" />
<glyph unicode="}" horiz-adv-x="811" d="M91 -463v45q101 17 148 72t47 117q0 65 -23 162q-25 104 -25 174q0 100 76.5 193t249.5 135q-186 55 -257.5 147.5t-71.5 184.5q0 55 25 156q24 101 24 171q0 159 -193 197v47q89 0 145.5 -13t124 -59t105.5 -113.5t38 -135.5q0 -65 -31 -185q-23 -89 -23 -155 q0 -178 196 -210v-61q-105 -15 -150.5 -79.5t-45.5 -137.5q0 -66 22 -151q30 -119 30 -178q0 -90 -63.5 -172.5t-149 -114.5t-198.5 -36z" />
<glyph unicode="~" horiz-adv-x="1365" d="M143 392q6 158 81.5 231.5t168.5 73.5q101 0 381 -121q150 -65 216 -65q74 0 123.5 48.5t57.5 135.5h52q-4 -142 -77 -223.5t-182 -81.5q-54 0 -114 18.5t-261 102.5q-149 62 -213 62q-148 0 -181 -181h-52z" />
<glyph unicode="&#xa1;" horiz-adv-x="576" d="M130 -341q0 62 126 820h63l64 -377q62 -361 62 -441q0 -73 -48 -118t-109 -45q-67 0 -112.5 48t-45.5 113zM148 721q0 58 41 99t99 41q57 0 98 -41t41 -99q0 -57 -41 -98t-98 -41q-58 0 -99 41t-41 98z" />
<glyph unicode="&#xa2;" horiz-adv-x="960" d="M86 423q0 183 125.5 319.5t327.5 136.5q48 0 95 -10l99 288l63 -18l-99 -289q165 -64 165 -178q0 -50 -30 -78.5t-74 -28.5q-82 0 -119 113l-183 -537q59 -67 142 -67q144 0 203 171q19 54 45 54q28 0 28 -30q0 -87 -88.5 -188.5t-264.5 -101.5q-60 0 -116 15l-98 -290 l-64 22l99 288q-122 51 -189 160.5t-67 248.5zM354 486q0 -168 55 -276l192 562q-29 43 -82 43q-82 0 -123.5 -82t-41.5 -247z" />
<glyph unicode="&#xa3;" horiz-adv-x="1792" d="M52 -68q0 84 70 131.5t182 47.5q123 0 310 -58q32 96 61 260l-353 -27q-25 -2 -39 -2t-17.5 4.5t-3.5 24.5v27q0 24 6 29.5t32 7.5l392 28q12 53 53.5 257.5t97.5 330t138 209t176 125t196 41.5q170 0 281 -99.5t111 -252.5q0 -131 -79.5 -228.5t-205.5 -97.5 q-75 0 -124.5 30.5t-49.5 49.5q0 27 27 27q9 0 24 -6q59 -25 86 -25q71 0 106.5 64.5t35.5 192.5q0 124 -55 201t-155 77q-68 0 -126 -32t-93.5 -87.5t-50 -110t-38.5 -215.5q-30 -207 -72 -429l384 31l43 3q22 0 22 -23v-42q0 -20 -5.5 -25t-33.5 -7l-433 -33 q-41 -166 -156 -326q205 -44 336 -44q336 0 408 157q23 49 45 49q27 0 27 -35q0 -194 -101 -289t-258 -95q-67 0 -150.5 21.5t-377.5 158.5q-196 -182 -412 -182q-102 0 -181.5 49.5t-79.5 136.5zM227 -75q0 -39 35 -71.5t94 -32.5q149 0 231 162q-140 53 -220 53 q-70 0 -105 -27.5t-35 -83.5z" />
<glyph unicode="&#xa4;" horiz-adv-x="1408" d="M216 144l127 125q-91 125 -91 273q0 147 91 272l-127 126l89 90l127 -126q64 45 132 67.5t140 22.5q139 0 273 -91l127 127l88 -90l-126 -126q90 -125 90 -272q0 -148 -90 -272l126 -126l-88 -89l-127 126q-62 -45 -130.5 -68t-142.5 -23q-148 0 -272 90l-126 -125z M379 542q0 -135 95 -230.5t230 -95.5q134 0 229.5 96t95.5 230q0 135 -95 230t-230 95t-230 -95t-95 -230z" />
<glyph unicode="&#xa5;" horiz-adv-x="1472" d="M14 1298q0 31 35 31q16 0 50 -3q155 -11 227 -11q114 0 256 11q29 2 49 2q34 0 34 -26q0 -25 -37 -29q-103 -10 -103 -73q0 -45 112 -209h373q91 137 91 187q0 23 -15.5 47t-89.5 45q-30 8 -30 28q0 31 36 31q10 0 27 -2q128 -11 195 -11q73 0 173 10q19 2 32 2 q29 0 29 -27q0 -25 -29 -28q-84 -9 -149.5 -64.5t-180.5 -217.5h344v-75h-398q-120 -170 -142.5 -209t-26.5 -78h567v-75h-571q-1 -46 -1 -111q0 -282 25.5 -338.5t126.5 -56.5q36 0 36 -29q0 -30 -40 -30q-30 0 -165 9q-77 5 -110 5q-109 0 -247 -13q-26 -2 -41 -2 q-38 0 -38 29q0 25 29 28q98 12 123.5 65.5t25.5 235.5q0 157 -15 208h-552v75h528q-85 154 -184 287h-344v75h296q-105 162 -159.5 215t-123.5 65q-28 5 -28 27zM689 916l133 -183q80 103 136 183h-269z" />
<glyph unicode="&#xa6;" horiz-adv-x="1088" d="M478 182h132v-724h-132v724zM478 641v725h132v-725h-132z" />
<glyph unicode="&#xa7;" horiz-adv-x="1024" d="M84 573q0 108 64 167t149 66q-81 142 -81 269q0 114 83 203.5t224 89.5q122 0 192.5 -61t70.5 -136q0 -65 -44 -105.5t-92 -40.5q-45 0 -76.5 26.5t-31.5 68.5q0 45 53 88q29 24 29 39q0 23 -26.5 39.5t-62.5 16.5q-61 0 -101 -43.5t-40 -104.5q0 -95 52 -185t231 -304 q155 -186 207 -274.5t52 -175.5q0 -80 -56 -139t-158 -75q93 -138 93 -260q0 -137 -82.5 -212.5t-222.5 -75.5q-120 0 -188.5 50t-68.5 132q0 61 41 104t103 43q47 0 74 -28t27 -58q0 -38 -34 -71q-35 -34 -35 -55q0 -25 21 -38t63 -13q67 0 101.5 41t34.5 90 q0 77 -58.5 168.5t-279.5 335.5q-117 128 -172 223.5t-55 194.5zM227 666q0 -53 60 -138t185 -226q119 -133 207 -241q48 2 77 24t29 49q0 38 -24.5 77.5t-93.5 121.5l-264 311q-75 88 -115 88q-22 0 -41.5 -21t-19.5 -45z" />
<glyph unicode="&#xa8;" horiz-adv-x="683" d="M9 1142q0 49 35.5 84.5t84.5 35.5q50 0 85.5 -35.5t35.5 -84.5q0 -50 -35.5 -85.5t-85.5 -35.5q-49 0 -84.5 35.5t-35.5 85.5zM433 1142q0 49 35.5 84.5t85.5 35.5q49 0 84.5 -35.5t35.5 -84.5q0 -50 -35.5 -85.5t-84.5 -35.5q-50 0 -85.5 35.5t-35.5 85.5z" />
<glyph unicode="&#xa9;" horiz-adv-x="1536" d="M59 628q0 294 208.5 502t500.5 208q179 0 347 -91t265.5 -260.5t97.5 -358.5q0 -292 -208.5 -500.5t-501.5 -208.5q-292 0 -500.5 208.5t-208.5 500.5zM148 628q0 -255 182.5 -437.5t437.5 -182.5q256 0 438 182.5t182 437.5q0 167 -84.5 313t-229.5 226.5t-306 80.5 q-255 0 -437.5 -181.5t-182.5 -438.5zM336 619q0 193 127 316t313 123q86 0 197 -41q32 -11 46 -11q39 0 46 50h38v-264h-38q-17 101 -86.5 158.5t-159.5 57.5q-117 0 -187.5 -91.5t-70.5 -272.5q0 -213 77.5 -293.5t175.5 -80.5q148 0 261 138v-70q-121 -127 -318 -127 q-180 0 -300.5 110.5t-120.5 297.5z" />
<glyph unicode="&#xaa;" horiz-adv-x="619" d="M36 924q0 62 41.5 98t147.5 71q72 24 97 45.5t25 70.5q0 40 -16 59.5t-49 19.5q-28 0 -38 -12q-11 -12 -19 -47q-16 -72 -90 -72q-76 0 -76 61q0 59 70 89.5t169 30.5q84 0 137.5 -24t68 -55t14.5 -94l-1 -140q0 -113 5.5 -139.5t24.5 -26.5l30 2q36 0 36 -21 q0 -17 -59 -31.5t-121 -14.5q-46 0 -67 10.5t-30 45.5q-35 -28 -73 -42.5t-79 -14.5q-72 0 -110 39t-38 92zM204 954q0 -39 13.5 -58.5t39.5 -19.5q32 0 60.5 29.5t28.5 108.5q0 25 -3 70q-14 -9 -34 -19q-69 -33 -87 -51.5t-18 -59.5z" />
<glyph unicode="&#xab;" horiz-adv-x="1088" d="M59 431q337 282 429 380q17 17 52 17q25 0 25 -12l-3 -9q-13 -20 -101 -178l-119 -198q53 -83 103 -171l87 -154l35 -64q0 -11 -14 -11q-35 0 -43.5 7t-99.5 87zM521 431l271 232q148 131 158.5 148t52.5 17q24 0 24 -12l-3 -9q-13 -20 -101 -178l-119 -198 q54 -83 103 -171l87 -154l35 -64q0 -11 -13 -11q-31 0 -40 5t-149 128z" />
<glyph unicode="&#xac;" horiz-adv-x="1365" d="M139 705v131h1088v-591h-132v460h-956z" />
<glyph unicode="&#xad;" horiz-adv-x="747" d="M41 393v112q0 31 5.5 36t42.5 5h569q36 0 42 -5t6 -36v-112q0 -31 -5.5 -36t-42.5 -5h-569q-37 0 -42.5 5t-5.5 36z" />
<glyph unicode="&#xae;" horiz-adv-x="1536" d="M59 628q0 294 208.5 502t500.5 208q179 0 347 -91t265.5 -260.5t97.5 -358.5q0 -292 -208.5 -500.5t-501.5 -208.5q-292 0 -500.5 208.5t-208.5 500.5zM148 628q0 -255 182.5 -437.5t437.5 -182.5q256 0 438 182.5t182 437.5q0 167 -84.5 313t-229.5 226.5t-306 80.5 q-255 0 -437.5 -181.5t-182.5 -438.5zM373 232v33q57 0 81 22t24 114v472q0 89 -20 109t-69 24v35h362q134 0 200 -20t110.5 -75t44.5 -125q0 -78 -44.5 -130t-134.5 -77l137 -249q52 -96 105 -100v-33h-242l-205 368h-46v-199q0 -84 22.5 -108.5t97.5 -27.5v-33h-423z M676 650q34 -4 56 -4q64 0 111.5 48t47.5 131q0 86 -44 128.5t-133 42.5h-38v-346z" />
<glyph unicode="&#xaf;" horiz-adv-x="544" d="M-316 122v143h631v-143h-631z" />
<glyph unicode="&#xb0;" horiz-adv-x="811" d="M59 1038q0 148 103 247t243 99t243 -99t103 -247q0 -142 -101.5 -244t-244.5 -102q-144 0 -245 101.5t-101 244.5zM190 1039q0 -89 63.5 -152t151.5 -63q89 0 152 63.5t63 151.5q0 92 -64 153.5t-151 61.5q-88 0 -151.5 -62.5t-63.5 -152.5z" />
<glyph unicode="&#xb1;" horiz-adv-x="1365" d="M139 0v131h1088v-131h-1088zM139 675v131h478v478h132v-478h478v-131h-478v-478h-132v478h-478z" />
<glyph unicode="&#xb2;" horiz-adv-x="811" d="M92 714q0 16 40 42q187 122 271 226q83 104 83 217q0 51 -27.5 80t-66.5 29q-68 0 -117 -67.5t-49 -126.5q0 -26 8 -39t24 -13q13 0 41 15q23 12 32 12q23 0 23 -23q0 -25 -46 -53t-94 -28t-82 34.5t-34 84.5q0 95 95 180t242 85q126 0 187.5 -47.5t61.5 -122.5 q0 -81 -67.5 -155.5t-273.5 -203.5h136q96 0 118.5 7.5t64.5 62.5q13 17 31 17q25 0 25 -21q0 -7 -33 -84l-54 -128h-468q-53 0 -62 3.5t-9 16.5z" />
<glyph unicode="&#xb3;" horiz-adv-x="811" d="M106 800q0 37 29 64.5t70 27.5q34 0 54.5 -19.5t20.5 -41.5q0 -15 -11 -38q-6 -15 -6 -25q0 -19 15.5 -28.5t46.5 -9.5q84 0 129.5 85t45.5 150q0 26 -15 42.5t-32 16.5q-18 0 -62 -25q-35 -20 -46 -20q-24 0 -24 23q0 17 46 46q79 49 99 90.5t20 70.5q0 35 -19 65 t-57 30q-57 0 -97 -38.5t-40 -91.5q0 -29 16 -29q8 0 18 5q13 6 23 6q23 0 23 -24q0 -15 -34 -33.5t-67 -18.5q-36 0 -62.5 28t-26.5 66q0 83 91 138.5t213 55.5q99 0 148 -41t49 -97q0 -40 -31.5 -76.5t-116.5 -86.5q74 0 123.5 -38.5t49.5 -109.5q0 -101 -102.5 -173.5 t-257.5 -72.5q-123 0 -173 42t-50 85z" />
<glyph unicode="&#xb4;" horiz-adv-x="683" d="M214 996q0 11 89.5 144.5t133 177.5t87.5 44q34 0 60 -25.5t26 -57.5q0 -61 -105 -138q-82 -60 -155 -120t-97 -60q-12 0 -25.5 12t-13.5 23z" />
<glyph unicode="&#xb5;" horiz-adv-x="1131" d="M55 -321q0 41 24 135q32 125 40.5 198t8.5 247v676h235v-614q0 -80 8.5 -118.5t40 -66t77.5 -27.5q48 0 89.5 30.5t76.5 90.5v705h236v-625q0 -91 4.5 -118.5t29.5 -50.5t59 -23q82 0 94 149h43q-1 -146 -80 -220.5t-177 -74.5q-76 0 -126 39.5t-75 117.5 q-68 -78 -140.5 -117.5t-150.5 -39.5q-35 0 -72 14t-77 42q0 -92 35 -219q23 -84 23 -118q0 -60 -32 -96t-86 -36q-108 0 -108 120z" />
<glyph unicode="&#xb6;" horiz-adv-x="1557" d="M204 769q0 204 108 336t279 176t607 44h158v-41q-94 -16 -125 -46.5t-38.5 -62.5t-7.5 -190v-1433h-108v1710q-25 2 -42 2q-58 0 -130 -15v-1697h-108v707l-71 -1q-276 0 -399 155.5t-123 355.5z" />
<glyph unicode="&#xb8;" horiz-adv-x="683" d="M134 -327q0 28 62 36q101 12 101 66q0 47 -69 48q56 70 114 209h67q-27 -60 -42 -100q75 0 112.5 -35.5t37.5 -76.5q0 -77 -86 -126.5t-250 -49.5q-47 0 -47 29z" />
<glyph unicode="&#xb9;" horiz-adv-x="811" d="M169 1275q0 30 55 31q126 2 224 50q27 13 36 13q18 0 18 -24l-2 -98l3 -209l-1 -113q0 -102 13.5 -134t54.5 -36q46 -5 58 -11t12 -23q0 -27 -39 -27l-182 1l-119 -1l-38 1l-55 -2q-32 0 -32 27q0 26 54 32q66 8 79 45.5t13 272.5q0 122 -20 147.5t-82 29.5q-50 3 -50 28 z" />
<glyph unicode="&#xba;" horiz-adv-x="704" d="M38 1064q0 121 93 197.5t226 76.5q144 0 226.5 -75.5t82.5 -181.5q0 -111 -91.5 -197.5t-231.5 -86.5q-141 0 -223 78.5t-82 188.5zM234 1087q0 -82 28 -160.5t92 -78.5q60 0 85.5 59t25.5 134q0 99 -34 172.5t-89 73.5q-52 0 -80 -53.5t-28 -146.5z" />
<glyph unicode="&#xbb;" horiz-adv-x="1088" d="M59 818q0 10 13 10q31 0 39.5 -4.5t149.5 -127.5l306 -267l-271 -233q-148 -131 -158.5 -148t-52.5 -17q-25 0 -25 13l4 9q13 20 101 177l118 199q-53 83 -102 170l-88 154zM521 818q0 10 13 10q36 0 44.5 -6.5t99.5 -86.5l351 -306q-337 -282 -429 -380q-17 -18 -53 -18 q-25 0 -25 13l4 9q13 20 101 177l118 199q-53 83 -102 170l-87 154z" />
<glyph unicode="&#xbc;" horiz-adv-x="1707" d="M169 1275q0 30 55 31q126 2 224 50q27 13 36 13q18 0 18 -24l-2 -98l3 -209l-1 -113q0 -102 13.5 -134t54.5 -36q46 -5 58 -11t12 -23q0 -27 -39 -27l-182 1l-119 -1l-38 1l-55 -2q-32 0 -32 27q0 26 54 32q66 8 79 45.5t13 272.5q0 122 -20 147.5t-82 29.5q-50 3 -50 28 zM376 -29l839 1397h116l-839 -1397h-116zM948 210l17 72q135 149 247.5 247t153.5 122.5t67 24.5q24 0 24 -27q0 -268 3 -359q86 0 106 14t25 60q4 45 26 45q29 0 29 -33l-1 -49l1 -105q0 -51 -5 -66t-21 -15q-24 0 -28 35q-4 32 -26.5 42t-105.5 10q0 -128 10 -150t57 -26 q42 -4 42 -26q0 -30 -48 -30l-231 1l-60 1l-30 -1q-38 0 -38 27q0 21 46 29q48 8 64.5 37t18.5 138q-210 -6 -343 -18zM1047 281l244 6q2 98 2 117q0 27 -2 114q-155 -140 -244 -237z" />
<glyph unicode="&#xbd;" horiz-adv-x="1707" d="M169 1275q0 30 55 31q126 2 224 50q27 13 36 13q18 0 18 -24l-2 -98l3 -209l-1 -113q0 -102 13.5 -134t54.5 -36q46 -5 58 -11t12 -23q0 -27 -39 -27l-182 1l-119 -1l-38 1l-55 -2q-32 0 -32 27q0 26 54 32q66 8 79 45.5t13 272.5q0 122 -20 147.5t-82 29.5q-50 3 -50 28 zM376 -29l839 1397h116l-839 -1397h-116zM987 20q0 16 41 42q187 122 271 226q83 103 83 217q0 51 -27.5 80t-67.5 29q-68 0 -117 -67t-49 -127q0 -26 8.5 -39t24.5 -13q13 0 40 14q23 13 33 13q23 0 23 -23q0 -25 -46 -53t-94 -28t-82.5 34.5t-34.5 84.5q0 89 90.5 177 t247.5 88q125 0 187 -47.5t62 -122.5q0 -80 -68.5 -156.5t-272.5 -202.5h135q96 0 119 7t64 63q14 17 31 17q25 0 25 -21q0 -7 -33 -84l-54 -128h-468q-52 0 -61.5 3.5t-9.5 16.5z" />
<glyph unicode="&#xbe;" horiz-adv-x="1707" d="M106 800q0 37 29 64.5t70 27.5q34 0 54.5 -19.5t20.5 -41.5q0 -15 -11 -38q-6 -15 -6 -25q0 -19 15.5 -28.5t46.5 -9.5q84 0 129.5 85t45.5 150q0 26 -15 42.5t-32 16.5q-18 0 -62 -25q-35 -20 -46 -20q-24 0 -24 23q0 17 46 46q79 49 99 90.5t20 70.5q0 35 -19 65 t-57 30q-57 0 -97 -38.5t-40 -91.5q0 -29 16 -29q8 0 18 5q13 6 23 6q23 0 23 -24q0 -15 -34 -33.5t-67 -18.5q-36 0 -62.5 28t-26.5 66q0 83 91 138.5t213 55.5q99 0 148 -41t49 -97q0 -40 -31.5 -76.5t-116.5 -86.5q74 0 123.5 -38.5t49.5 -109.5q0 -101 -102.5 -173.5 t-257.5 -72.5q-123 0 -173 42t-50 85zM376 -29l839 1397h116l-839 -1397h-116zM949 210l17 72q135 149 247.5 247t153 122.5t66.5 24.5q25 0 25 -27q0 -295 3 -359q85 0 105 14t25 60q5 45 27 45q29 0 29 -33l-2 -49l2 -105q0 -51 -5 -66t-21 -15q-25 0 -29 35q-4 32 -26 42 t-105 10q0 -128 10 -150t57 -26q42 -4 42 -26q0 -30 -48 -30l-231 1l-61 1l-29 -1q-39 0 -39 27q0 21 46 29q48 8 65 37t19 138q-210 -6 -343 -18zM1048 281l244 6q2 98 2 117q0 27 -2 114q-156 -140 -244 -237z" />
<glyph unicode="&#xbf;" horiz-adv-x="960" d="M101 -84q0 141 99 241.5t233 100.5q118 0 203 -52l26 274h80l7 -420q-110 96 -195 96q-84 0 -139 -87.5t-55 -222.5q0 -130 58.5 -206t127.5 -76q66 0 66 42q0 6 -4 17q-9 29 -9 46q0 47 36.5 81t92.5 34q55 0 88 -33t33 -86q0 -75 -79 -121t-196 -46q-203 0 -338 126.5 t-135 291.5zM543 722q0 57 40.5 98t98.5 41t98.5 -41t40.5 -98q0 -58 -41 -99t-98 -41q-58 0 -98.5 41t-40.5 99z" />
<glyph unicode="&#xc0;" horiz-adv-x="1429" d="M5 16q0 22 24 29q60 17 94 42t73.5 96t94.5 227q124 350 369 946h69q132 -286 373 -900q111 -282 153 -341.5t133 -72.5q30 -4 30 -26q0 -31 -39 -31q-21 0 -109 7q-104 9 -175 9q-69 0 -180 -8q-83 -6 -109 -6q-46 0 -46 29q0 22 32 25q123 11 123 96q0 40 -36 147.5 t-77 195.5q-65 1 -101 1q-201 0 -313 -1q-87 -237 -87 -314q0 -55 43 -85.5t93 -35.5q38 -4 38 -31t-41 -27q-16 0 -84 5q-88 7 -128 7q-79 0 -150 -10q-18 -3 -30 -3q-37 0 -37 30zM416 1687q0 34 26.5 59.5t59.5 25.5q44 0 88 -45t133 -177.5t89 -143.5t-13.5 -23 t-25.5 -12q-23 0 -143 95l-154 121q-60 47 -60 100zM418 561l352 5q-28 78 -86 214q-63 148 -94 227z" />
<glyph unicode="&#xc1;" horiz-adv-x="1429" d="M5 16q0 22 24 29q60 17 94 42t73.5 96t94.5 227q124 350 369 946h69q132 -286 373 -900q111 -282 153 -341.5t133 -72.5q30 -4 30 -26q0 -31 -39 -31q-21 0 -109 7q-104 9 -175 9q-69 0 -180 -8q-83 -6 -109 -6q-46 0 -46 29q0 22 32 25q123 11 123 96q0 40 -36 147.5 t-77 195.5q-65 1 -101 1q-201 0 -313 -1q-87 -237 -87 -314q0 -55 43 -85.5t93 -35.5q38 -4 38 -31t-41 -27q-16 0 -84 5q-88 7 -128 7q-79 0 -150 -10q-18 -3 -30 -3q-37 0 -37 30zM418 561l352 5q-28 78 -86 214q-63 148 -94 227zM618 1406q0 11 89.5 144.5t133 177.5 t87.5 44q34 0 60 -25.5t26 -57.5q0 -61 -105 -138q-82 -60 -155 -120t-97 -60q-12 0 -25.5 12t-13.5 23z" />
<glyph unicode="&#xc2;" horiz-adv-x="1429" d="M5 16q0 22 24 29q60 17 94 42t73.5 96t94.5 227q124 350 369 946h69q132 -286 373 -900q111 -282 153 -341.5t133 -72.5q30 -4 30 -26q0 -31 -39 -31q-21 0 -109 7q-104 9 -175 9q-69 0 -180 -8q-83 -6 -109 -6q-46 0 -46 29q0 22 32 25q123 11 123 96q0 40 -36 147.5 t-77 195.5q-65 1 -101 1q-201 0 -313 -1q-87 -237 -87 -314q0 -55 43 -85.5t93 -35.5q38 -4 38 -31t-41 -27q-16 0 -84 5q-88 7 -128 7q-79 0 -150 -10q-18 -3 -30 -3q-37 0 -37 30zM418 561l352 5q-28 78 -86 214q-63 148 -94 227zM432 1383q0 5 13 29l184 349h176 l178 -343q16 -30 16 -35q0 -10 -33 -10h-51l-197 208l-206 -208h-50q-30 0 -30 10z" />
<glyph unicode="&#xc3;" horiz-adv-x="1429" d="M5 16q0 22 24 29q60 17 94 42t73.5 96t94.5 227q124 350 369 946h69q132 -286 373 -900q111 -282 153 -341.5t133 -72.5q30 -4 30 -26q0 -31 -39 -31q-21 0 -109 7q-104 9 -175 9q-69 0 -180 -8q-83 -6 -109 -6q-46 0 -46 29q0 22 32 25q123 11 123 96q0 40 -36 147.5 t-77 195.5q-65 1 -101 1q-201 0 -313 -1q-87 -237 -87 -314q0 -55 43 -85.5t93 -35.5q38 -4 38 -31t-41 -27q-16 0 -84 5q-88 7 -128 7q-79 0 -150 -10q-18 -3 -30 -3q-37 0 -37 30zM412 1456q0 102 50.5 174.5t143.5 72.5q60 0 149 -51q80 -45 111 -45q67 0 72 78 q1 13 5.5 16t38.5 3q36 0 36 -19q0 -97 -47 -169.5t-140 -72.5q-54 0 -139 45q-91 49 -128 49q-59 0 -72 -81q-1 -9 -5.5 -12t-49.5 -3q-25 0 -25 15zM418 561l352 5q-28 78 -86 214q-63 148 -94 227z" />
<glyph unicode="&#xc4;" horiz-adv-x="1429" d="M5 16q0 22 24 29q60 17 94 42t73.5 96t94.5 227q124 350 369 946h69q132 -286 373 -900q111 -282 153 -341.5t133 -72.5q30 -4 30 -26q0 -31 -39 -31q-21 0 -109 7q-104 9 -175 9q-69 0 -180 -8q-83 -6 -109 -6q-46 0 -46 29q0 22 32 25q123 11 123 96q0 40 -36 147.5 t-77 195.5q-65 1 -101 1q-201 0 -313 -1q-87 -237 -87 -314q0 -55 43 -85.5t93 -35.5q38 -4 38 -31t-41 -27q-16 0 -84 5q-88 7 -128 7q-79 0 -150 -10q-18 -3 -30 -3q-37 0 -37 30zM371 1557q0 49 35.5 84.5t84.5 35.5q50 0 85.5 -35.5t35.5 -84.5q0 -50 -35.5 -85.5 t-85.5 -35.5q-49 0 -84.5 35.5t-35.5 85.5zM418 561l352 5q-28 78 -86 214q-63 148 -94 227zM795 1557q0 49 35.5 84.5t85.5 35.5q49 0 84.5 -35.5t35.5 -84.5q0 -50 -35.5 -85.5t-84.5 -35.5q-50 0 -85.5 35.5t-35.5 85.5z" />
<glyph unicode="&#xc5;" horiz-adv-x="1429" d="M5 16q0 22 24 29q60 17 94 42t73.5 95.5t94.5 227.5q86 242 334 859q-60 26 -90.5 70.5t-30.5 108.5q0 80 56.5 136.5t136.5 56.5t136.5 -56.5t56.5 -136.5q0 -60 -33.5 -109t-88.5 -71l151 -358l181 -447q110 -282 140.5 -328t62 -65.5t85.5 -27.5q30 -4 30 -26 q0 -31 -39 -31q-21 0 -109 7q-104 9 -175 9q-69 0 -180 -8q-83 -6 -109 -6q-46 0 -46 29q0 22 32 25q123 11 123 96q0 40 -36 147.5t-77 195.5q-65 1 -101 1q-201 0 -313 -1q-87 -237 -87 -314q0 -47 37 -81t99 -40q38 -4 38 -31t-41 -27q-16 0 -84 5q-88 7 -128 7 q-79 0 -150 -10q-18 -3 -30 -3q-37 0 -37 30zM418 561l352 5l-180 441zM606 1448q0 -37 26 -64.5t65 -27.5q38 0 65 27t27 65q0 37 -27 64t-65 27q-39 0 -65 -27.5t-26 -63.5z" />
<glyph unicode="&#xc6;" horiz-adv-x="2048" d="M6 17q0 24 37 28q40 4 102 62.5t136 186t177 329.5l173 332q68 128 68 218q0 46 -29.5 72t-118.5 26q-38 0 -38 24q0 32 44 32q13 0 38 -1q157 -12 410 -12h852l59 -272q7 -37 7 -42q0 -24 -24 -24q-20 0 -58 52q-163 222 -378 222q-82 0 -224 -17q-13 -120 -15 -510 q169 0 219 28.5t90 117.5q20 44 27.5 53t24.5 9q26 0 26 -29q0 -8 -2 -21q-8 -48 -8 -330q0 -43 5 -75q2 -19 2 -31q0 -31 -27 -31q-15 0 -22 10t-19 50q-28 90 -89.5 133t-226.5 43v-329q0 -171 32.5 -213t186.5 -42q189 0 312 68.5t179 178.5q17 33 35 33q28 0 28 -28 q0 -8 -9 -48l-64 -280h-433q-74 0 -154 4q-173 8 -250 8q-180 0 -291 -11h-13q-29 0 -29 26q0 27 32 30q84 6 111 29t38 95.5t11 276.5v195q-53 -2 -66 -2l-335 2q-123 -240 -158.5 -330t-35.5 -155q0 -92 94 -106q42 -7 42 -33q0 -28 -32 -28q-20 0 -53 3q-92 6 -156 6 q-90 0 -174 -10q-19 -2 -32 -2q-34 0 -34 29zM587 723l277 2q19 0 82 -2v436q0 92 -31 92q-36 0 -77.5 -57.5t-250.5 -470.5z" />
<glyph unicode="&#xc7;" horiz-adv-x="1365" d="M89 643q0 288 188 492.5t459 204.5q197 0 401 -111q21 26 44 58q27 39 45 39q20 0 26 -10t10 -62l20 -312l2 -40q0 -40 -32 -40q-21 0 -34 33q-41 106 -147.5 235.5t-268.5 129.5q-120 0 -201.5 -69.5t-127 -190.5t-45.5 -290q0 -289 127 -459.5t316 -170.5 q205 0 376 248q21 30 40 30q32 0 32 -32q0 -46 -87.5 -143t-190 -147.5t-198.5 -59.5l-27 -53q61 0 109 -35.5t48 -99.5q0 -68 -44.5 -124.5t-118 -84.5t-205.5 -28q-60 0 -78 9t-18 30q0 28 54 29q83 1 136 31t53 79q0 64 -92 73q62 104 94 171q-287 0 -476 187.5 t-189 482.5z" />
<glyph unicode="&#xc8;" horiz-adv-x="1344" d="M37 14q0 28 38 28q97 0 130.5 52.5t33.5 214.5l6 515q0 264 -6.5 324.5t-34.5 82t-105 32.5q-32 4 -32 28q0 30 37 30l241 -8l807 -3l63 -312q0 -29 -29 -29q-16 0 -36 28q-103 150 -188.5 198t-246.5 48q-90 0 -174 -15q-18 -177 -18 -388q0 -36 2 -121l76 -1 q71 0 122.5 19.5t87.5 83t41 81.5q9 32 31 32q28 0 28 -24q0 -7 -2 -16q-12 -62 -12 -371q0 -43 7 -78q2 -10 2 -17q0 -28 -32 -28q-22 0 -34 53q-20 93 -91 141.5t-224 50.5q-5 -168 -5 -221q0 -228 7 -271t51 -69.5t149 -26.5q381 0 501 242q17 34 37 34q29 0 29 -24 q0 -16 -6 -41l-65 -287l-362 1q-153 1 -285.5 7t-207.5 6q-84 0 -253 -10q-21 -2 -31 -2q-47 0 -47 31zM421 1687q0 34 26.5 59.5t59.5 25.5q44 0 88 -45t133 -177.5t89 -143.5t-13.5 -23t-25.5 -12q-23 0 -143 95l-154 121q-60 47 -60 100z" />
<glyph unicode="&#xc9;" horiz-adv-x="1344" d="M37 14q0 28 38 28q97 0 130.5 52.5t33.5 214.5l6 515q0 264 -6.5 324.5t-34.5 82t-105 32.5q-32 4 -32 28q0 30 37 30l241 -8l807 -3l63 -312q0 -29 -29 -29q-16 0 -36 28q-103 150 -188.5 198t-246.5 48q-90 0 -174 -15q-18 -177 -18 -388q0 -36 2 -121l76 -1 q71 0 122.5 19.5t87.5 83t41 81.5q9 32 31 32q28 0 28 -24q0 -7 -2 -16q-12 -62 -12 -371q0 -43 7 -78q2 -10 2 -17q0 -28 -32 -28q-22 0 -34 53q-20 93 -91 141.5t-224 50.5q-5 -168 -5 -221q0 -228 7 -271t51 -69.5t149 -26.5q381 0 501 242q17 34 37 34q29 0 29 -24 q0 -16 -6 -41l-65 -287l-362 1q-153 1 -285.5 7t-207.5 6q-84 0 -253 -10q-21 -2 -31 -2q-47 0 -47 31zM575 1406q0 11 89.5 144.5t133 177.5t87.5 44q34 0 60 -25.5t26 -57.5q0 -61 -105 -138q-82 -60 -155 -120t-97 -60q-12 0 -25.5 12t-13.5 23z" />
<glyph unicode="&#xca;" horiz-adv-x="1344" d="M37 14q0 28 38 28q97 0 130.5 52.5t33.5 214.5l6 515q0 264 -6.5 324.5t-34.5 82t-105 32.5q-32 4 -32 28q0 30 37 30l241 -8l807 -3l63 -312q0 -29 -29 -29q-16 0 -36 28q-103 150 -188.5 198t-246.5 48q-90 0 -174 -15q-18 -177 -18 -388q0 -36 2 -121l76 -1 q71 0 122.5 19.5t87.5 83t41 81.5q9 32 31 32q28 0 28 -24q0 -7 -2 -16q-12 -62 -12 -371q0 -43 7 -78q2 -10 2 -17q0 -28 -32 -28q-22 0 -34 53q-20 93 -91 141.5t-224 50.5q-5 -168 -5 -221q0 -228 7 -271t51 -69.5t149 -26.5q381 0 501 242q17 34 37 34q29 0 29 -24 q0 -16 -6 -41l-65 -287l-362 1q-153 1 -285.5 7t-207.5 6q-84 0 -253 -10q-21 -2 -31 -2q-47 0 -47 31zM388 1383q0 5 13 29l184 349h176l178 -343q16 -30 16 -35q0 -10 -33 -10h-51l-197 208l-206 -208h-50q-30 0 -30 10z" />
<glyph unicode="&#xcb;" horiz-adv-x="1344" d="M37 14q0 28 38 28q97 0 130.5 52.5t33.5 214.5l6 515q0 264 -6.5 324.5t-34.5 82t-105 32.5q-32 4 -32 28q0 30 37 30l241 -8l807 -3l63 -312q0 -29 -29 -29q-16 0 -36 28q-103 150 -188.5 198t-246.5 48q-90 0 -174 -15q-18 -177 -18 -388q0 -36 2 -121l76 -1 q71 0 122.5 19.5t87.5 83t41 81.5q9 32 31 32q28 0 28 -24q0 -7 -2 -16q-12 -62 -12 -371q0 -43 7 -78q2 -10 2 -17q0 -28 -32 -28q-22 0 -34 53q-20 93 -91 141.5t-224 50.5q-5 -168 -5 -221q0 -228 7 -271t51 -69.5t149 -26.5q381 0 501 242q17 34 37 34q29 0 29 -24 q0 -16 -6 -41l-65 -287l-362 1q-153 1 -285.5 7t-207.5 6q-84 0 -253 -10q-21 -2 -31 -2q-47 0 -47 31zM340 1557q0 49 35.5 84.5t84.5 35.5q50 0 85.5 -35.5t35.5 -84.5q0 -50 -35.5 -85.5t-85.5 -35.5q-49 0 -84.5 35.5t-35.5 85.5zM764 1557q0 49 35.5 84.5t85.5 35.5 q49 0 84.5 -35.5t35.5 -84.5q0 -50 -35.5 -85.5t-84.5 -35.5q-50 0 -85.5 35.5t-35.5 85.5z" />
<glyph unicode="&#xcc;" horiz-adv-x="789" d="M67 12q0 23 31 27q85 11 114.5 47.5t35.5 175.5t6 432q0 309 -11 413.5t-36.5 128.5t-97.5 30q-38 3 -38 31q0 26 37 26q35 0 144 -5q83 -4 132 -4l307 8q39 0 39 -27q0 -24 -35 -28q-79 -8 -105.5 -29.5t-41 -99.5t-14.5 -353q0 -316 10 -488.5t40.5 -213t101.5 -40.5 q49 0 49 -26q0 -35 -53 -35q-15 0 -44 1q-188 13 -257 13q-151 0 -223 -9q-38 -4 -54 -4q-37 0 -37 29zM112 1687q0 34 26.5 59.5t59.5 25.5q44 0 88 -45t133 -177.5t89 -143.5t-13.5 -23t-25.5 -12q-23 0 -143 95l-154 121q-60 47 -60 100z" />
<glyph unicode="&#xcd;" horiz-adv-x="789" d="M67 12q0 23 31 27q85 11 114.5 47.5t35.5 175.5t6 432q0 309 -11 413.5t-36.5 128.5t-97.5 30q-38 3 -38 31q0 26 37 26q35 0 144 -5q83 -4 132 -4l307 8q39 0 39 -27q0 -24 -35 -28q-79 -8 -105.5 -29.5t-41 -99.5t-14.5 -353q0 -316 10 -488.5t40.5 -213t101.5 -40.5 q49 0 49 -26q0 -35 -53 -35q-15 0 -44 1q-188 13 -257 13q-151 0 -223 -9q-38 -4 -54 -4q-37 0 -37 29zM298 1406q0 11 89.5 144.5t133 177.5t87.5 44q34 0 60 -25.5t26 -57.5q0 -61 -105 -138q-82 -60 -155 -120t-97 -60q-12 0 -25.5 12t-13.5 23z" />
<glyph unicode="&#xce;" horiz-adv-x="789" d="M67 12q0 23 31 27q85 11 114.5 47.5t35.5 175.5t6 432q0 309 -11 413.5t-36.5 128.5t-97.5 30q-38 3 -38 31q0 26 37 26q35 0 144 -5q83 -4 132 -4l307 8q39 0 39 -27q0 -24 -35 -28q-79 -8 -105.5 -29.5t-41 -99.5t-14.5 -353q0 -316 10 -488.5t40.5 -213t101.5 -40.5 q49 0 49 -26q0 -35 -53 -35q-15 0 -44 1q-188 13 -257 13q-151 0 -223 -9q-38 -4 -54 -4q-37 0 -37 29zM108 1383q0 5 13 29l184 349h176l178 -343q16 -30 16 -35q0 -10 -33 -10h-51l-197 208l-206 -208h-50q-30 0 -30 10z" />
<glyph unicode="&#xcf;" horiz-adv-x="789" d="M59 1557q0 49 35.5 84.5t84.5 35.5q50 0 85.5 -35.5t35.5 -84.5q0 -50 -35.5 -85.5t-85.5 -35.5q-49 0 -84.5 35.5t-35.5 85.5zM67 12q0 23 31 27q85 11 114.5 47.5t35.5 175.5t6 432q0 309 -11 413.5t-36.5 128.5t-97.5 30q-38 3 -38 31q0 26 37 26q35 0 144 -5 q83 -4 132 -4l307 8q39 0 39 -27q0 -24 -35 -28q-79 -8 -105.5 -29.5t-41 -99.5t-14.5 -353q0 -316 10 -488.5t40.5 -213t101.5 -40.5q49 0 49 -26q0 -35 -53 -35q-15 0 -44 1q-188 13 -257 13q-151 0 -223 -9q-38 -4 -54 -4q-37 0 -37 29zM483 1557q0 49 35.5 84.5 t85.5 35.5q49 0 84.5 -35.5t35.5 -84.5q0 -50 -35.5 -85.5t-84.5 -35.5q-50 0 -85.5 35.5t-35.5 85.5z" />
<glyph unicode="&#xd0;" horiz-adv-x="1621" d="M9 15q0 29 43 29q128 0 154.5 76t35.5 494h-179v75h181q1 114 3 228q0 261 -31.5 308t-120.5 52q-36 3 -36 30t32 27q19 0 129 -11q122 -11 170 -11l379 8q186 0 365 -72t281.5 -239.5t102.5 -370.5q0 -154 -60.5 -287.5t-175.5 -224.5t-228 -119.5t-266 -28.5l-358 6 l-352 1q-46 0 -57.5 5.5t-11.5 24.5zM522 282q0 -136 43.5 -183.5t154.5 -47.5q198 0 326 141t128 426q0 276 -130 456t-375 180q-112 0 -120.5 -27.5t-22.5 -537.5h305v-75h-307z" />
<glyph unicode="&#xd1;" horiz-adv-x="1557" d="M21 1295q0 33 41 33q10 0 29 -2q23 -2 83 -2q130 0 242 -3q479 -545 799 -874q1 68 1 88l1 396q0 140 -16 200.5t-68 95.5t-121 41q-37 4 -37 31q0 29 34 29q19 0 49 -4q57 -7 167 -7q138 0 210 8q30 3 51 3q38 0 38 -29q0 -28 -51 -33q-63 -6 -117.5 -53t-54.5 -185 l5 -566l-7 -426q0 -55 -34 -55q-9 0 -21 6t-138 139l-372 410q-248 279 -348 400q-2 -27 -2 -503q0 -147 12.5 -230.5t78 -121t118.5 -37.5q34 0 34 -26q0 -30 -36 -30q-23 0 -58 4q-60 8 -153 8q-149 0 -216 -9q-42 -5 -60 -5q-39 0 -39 33q0 24 63 29q113 9 141.5 78 t28.5 188q0 516 -5.5 631t-72 208t-160.5 111q-39 7 -39 31zM476 1456q0 102 50.5 174.5t143.5 72.5q60 0 149 -51q80 -45 111 -45q67 0 72 78q1 13 5.5 16t38.5 3q36 0 36 -19q0 -97 -47 -169.5t-140 -72.5q-54 0 -139 45q-91 49 -128 49q-59 0 -72 -81q-1 -9 -5.5 -12 t-49.5 -3q-25 0 -25 15z" />
<glyph unicode="&#xd2;" horiz-adv-x="1579" d="M86 638q0 288 206.5 494t512.5 206q202 0 353.5 -81t243 -234.5t91.5 -334.5q0 -280 -209 -496.5t-518 -216.5q-281 0 -480.5 179t-199.5 484zM427 658q0 -290 98.5 -450t264.5 -160q147 0 255.5 144.5t108.5 465.5q0 303 -103 456t-261 153q-157 0 -260 -153.5 t-103 -455.5zM490 1687q0 34 26.5 59.5t59.5 25.5q44 0 88 -45t133 -177.5t89 -143.5t-13.5 -23t-25.5 -12q-23 0 -143 95l-154 121q-60 47 -60 100z" />
<glyph unicode="&#xd3;" horiz-adv-x="1579" d="M86 638q0 288 206.5 494t512.5 206q202 0 353.5 -81t243 -234.5t91.5 -334.5q0 -280 -209 -496.5t-518 -216.5q-281 0 -480.5 179t-199.5 484zM427 658q0 -290 98.5 -450t264.5 -160q147 0 255.5 144.5t108.5 465.5q0 303 -103 456t-261 153q-157 0 -260 -153.5 t-103 -455.5zM693 1406q0 11 89.5 144.5t133 177.5t87.5 44q34 0 60 -25.5t26 -57.5q0 -61 -105 -138q-82 -60 -155 -120t-97 -60q-12 0 -25.5 12t-13.5 23z" />
<glyph unicode="&#xd4;" horiz-adv-x="1579" d="M86 638q0 288 206.5 494t512.5 206q202 0 353.5 -81t243 -234.5t91.5 -334.5q0 -280 -209 -496.5t-518 -216.5q-281 0 -480.5 179t-199.5 484zM427 658q0 -290 98.5 -450t264.5 -160q147 0 255.5 144.5t108.5 465.5q0 303 -103 456t-261 153q-157 0 -260 -153.5 t-103 -455.5zM506 1383q0 5 13 29l184 349h176l178 -343q16 -30 16 -35q0 -10 -33 -10h-51l-197 208l-206 -208h-50q-30 0 -30 10z" />
<glyph unicode="&#xd5;" horiz-adv-x="1579" d="M86 638q0 288 206.5 494t512.5 206q202 0 353.5 -81t243 -234.5t91.5 -334.5q0 -280 -209 -496.5t-518 -216.5q-281 0 -480.5 179t-199.5 484zM427 658q0 -290 98.5 -450t264.5 -160q147 0 255.5 144.5t108.5 465.5q0 303 -103 456t-261 153q-157 0 -260 -153.5 t-103 -455.5zM487 1456q0 102 50.5 174.5t143.5 72.5q60 0 149 -51q80 -45 111 -45q67 0 72 78q1 13 5.5 16t38.5 3q36 0 36 -19q0 -97 -47 -169.5t-140 -72.5q-54 0 -139 45q-91 49 -128 49q-59 0 -72 -81q-1 -9 -5.5 -12t-49.5 -3q-25 0 -25 15z" />
<glyph unicode="&#xd6;" horiz-adv-x="1579" d="M86 638q0 288 206.5 494t512.5 206q202 0 353.5 -81t243 -234.5t91.5 -334.5q0 -280 -209 -496.5t-518 -216.5q-281 0 -480.5 179t-199.5 484zM427 658q0 -290 98.5 -450t264.5 -160q147 0 255.5 144.5t108.5 465.5q0 303 -103 456t-261 153q-157 0 -260 -153.5 t-103 -455.5zM457 1557q0 49 35.5 84.5t84.5 35.5q50 0 85.5 -35.5t35.5 -84.5q0 -50 -35.5 -85.5t-85.5 -35.5q-49 0 -84.5 35.5t-35.5 85.5zM881 1557q0 49 35.5 84.5t85.5 35.5q49 0 84.5 -35.5t35.5 -84.5q0 -50 -35.5 -85.5t-84.5 -35.5q-50 0 -85.5 35.5t-35.5 85.5z " />
<glyph unicode="&#xd7;" horiz-adv-x="1365" d="M182 949l92 93l408 -409l408 409l93 -93l-408 -409l404 -404l-93 -92l-404 404l-404 -404l-92 92l404 404z" />
<glyph unicode="&#xd8;" horiz-adv-x="1579" d="M86 638q0 205 96 355.5t250 247.5t373 97q242 0 416 -120l134 155l58 -49l-133 -153q213 -196 213 -483q0 -280 -209 -496.5t-518 -216.5q-239 0 -412 123l-129 -150l-55 49l127 147q-211 188 -211 494zM427 654q0 -163 41 -311l615 715q-41 91 -118 150t-175 59 q-159 0 -261 -153.5t-102 -459.5zM496 262q37 -91 117 -152.5t177 -61.5q112 0 203 82.5t126 240t35 307.5q0 163 -42 298z" />
<glyph unicode="&#xd9;" horiz-adv-x="1557" d="M40 1301q0 30 43 30l322 -11q46 0 105 5q94 7 148 7q51 0 51 -28q0 -27 -40 -29q-72 -4 -107.5 -51.5t-45.5 -195t-10 -324.5q0 -284 27 -381.5t116 -155.5t236 -58q149 0 225 63.5t104.5 199.5t28.5 505q0 218 -34 301t-116 91q-59 6 -59 35t48 29q23 0 77 -6 q56 -5 117 -5q56 0 125 6q52 4 72 4q50 0 50 -29q0 -23 -36 -27q-50 -5 -90.5 -46.5t-52 -137t-11.5 -490.5q0 -260 -52 -376.5t-181.5 -181t-322.5 -64.5q-149 0 -259 26.5t-174.5 81.5t-93 127t-28.5 212l4 533q0 112 -12.5 184t-39.5 95.5t-82 29.5q-35 4 -43.5 10.5 t-8.5 21.5zM480 1687q0 34 26.5 59.5t59.5 25.5q44 0 88 -45t133 -177.5t89 -143.5t-13.5 -23t-25.5 -12q-23 0 -143 95l-154 121q-60 47 -60 100z" />
<glyph unicode="&#xda;" horiz-adv-x="1557" d="M40 1301q0 30 43 30l322 -11q46 0 105 5q94 7 148 7q51 0 51 -28q0 -27 -40 -29q-72 -4 -107.5 -51.5t-45.5 -195t-10 -324.5q0 -284 27 -381.5t116 -155.5t236 -58q149 0 225 63.5t104.5 199.5t28.5 505q0 218 -34 301t-116 91q-59 6 -59 35t48 29q23 0 77 -6 q56 -5 117 -5q56 0 125 6q52 4 72 4q50 0 50 -29q0 -23 -36 -27q-50 -5 -90.5 -46.5t-52 -137t-11.5 -490.5q0 -260 -52 -376.5t-181.5 -181t-322.5 -64.5q-149 0 -259 26.5t-174.5 81.5t-93 127t-28.5 212l4 533q0 112 -12.5 184t-39.5 95.5t-82 29.5q-35 4 -43.5 10.5 t-8.5 21.5zM754 1406q0 11 89.5 144.5t133 177.5t87.5 44q34 0 60 -25.5t26 -57.5q0 -61 -105 -138q-82 -60 -155 -120t-97 -60q-12 0 -25.5 12t-13.5 23z" />
<glyph unicode="&#xdb;" horiz-adv-x="1557" d="M40 1301q0 30 43 30l322 -11q46 0 105 5q94 7 148 7q51 0 51 -28q0 -27 -40 -29q-72 -4 -107.5 -51.5t-45.5 -195t-10 -324.5q0 -284 27 -381.5t116 -155.5t236 -58q149 0 225 63.5t104.5 199.5t28.5 505q0 218 -34 301t-116 91q-59 6 -59 35t48 29q23 0 77 -6 q56 -5 117 -5q56 0 125 6q52 4 72 4q50 0 50 -29q0 -23 -36 -27q-50 -5 -90.5 -46.5t-52 -137t-11.5 -490.5q0 -260 -52 -376.5t-181.5 -181t-322.5 -64.5q-149 0 -259 26.5t-174.5 81.5t-93 127t-28.5 212l4 533q0 112 -12.5 184t-39.5 95.5t-82 29.5q-35 4 -43.5 10.5 t-8.5 21.5zM556 1383q0 5 13 29l184 349h176l178 -343q16 -30 16 -35q0 -10 -33 -10h-51l-197 208l-206 -208h-50q-30 0 -30 10z" />
<glyph unicode="&#xdc;" horiz-adv-x="1557" d="M40 1301q0 30 43 30l322 -11q46 0 105 5q94 7 148 7q51 0 51 -28q0 -27 -40 -29q-72 -4 -107.5 -51.5t-45.5 -195t-10 -324.5q0 -284 27 -381.5t116 -155.5t236 -58q149 0 225 63.5t104.5 199.5t28.5 505q0 218 -34 301t-116 91q-59 6 -59 35t48 29q23 0 77 -6 q56 -5 117 -5q56 0 125 6q52 4 72 4q50 0 50 -29q0 -23 -36 -27q-50 -5 -90.5 -46.5t-52 -137t-11.5 -490.5q0 -260 -52 -376.5t-181.5 -181t-322.5 -64.5q-149 0 -259 26.5t-174.5 81.5t-93 127t-28.5 212l4 533q0 112 -12.5 184t-39.5 95.5t-82 29.5q-35 4 -43.5 10.5 t-8.5 21.5zM495 1557q0 49 35.5 84.5t84.5 35.5q50 0 85.5 -35.5t35.5 -84.5q0 -50 -35.5 -85.5t-85.5 -35.5q-49 0 -84.5 35.5t-35.5 85.5zM919 1557q0 49 35.5 84.5t85.5 35.5q49 0 84.5 -35.5t35.5 -84.5q0 -50 -35.5 -85.5t-84.5 -35.5q-50 0 -85.5 35.5t-35.5 85.5z " />
<glyph unicode="&#xdd;" horiz-adv-x="1472" d="M14 1298q0 31 35 31q16 0 50 -3q155 -11 227 -11q114 0 256 11q29 2 49 2q34 0 34 -26q0 -25 -37 -29q-103 -10 -103 -73q0 -67 297 -467q279 364 279 445q0 23 -15.5 47t-89.5 45q-30 8 -30 28q0 31 36 31q10 0 27 -2q128 -11 195 -11q73 0 173 10q19 2 32 2 q29 0 29 -27q0 -25 -29 -28q-67 -7 -123.5 -44.5t-137 -143t-179 -249.5t-108.5 -175.5t-10 -217.5q0 -282 25.5 -338.5t126.5 -56.5q36 0 36 -29q0 -30 -40 -30q-30 0 -165 9q-77 5 -110 5q-109 0 -247 -13q-26 -2 -41 -2q-38 0 -38 29q0 25 29 28q98 12 123.5 65.5 t25.5 235.5q0 164 -19 218.5t-110 201.5l-181 284q-91 135 -139.5 173t-104.5 48q-28 5 -28 27zM676 1406q0 11 89.5 144.5t133 177.5t87.5 44q34 0 60 -25.5t26 -57.5q0 -61 -105 -138q-82 -60 -155 -120t-97 -60q-12 0 -25.5 12t-13.5 23z" />
<glyph unicode="&#xde;" horiz-adv-x="1323" d="M54 14q0 28 59 34q47 5 74 27.5t36.5 80.5t9.5 191v755q0 87 -27 125t-90 42q-57 4 -57 28q0 18 17.5 24.5t75.5 6.5h489q51 0 64.5 -5.5t13.5 -23.5q0 -29 -42 -31q-78 -4 -106.5 -19t-39 -45t-20.5 -143l159 2q128 0 268 -18.5t222 -112t82 -223.5q0 -122 -71.5 -205 t-188 -122t-324.5 -39q-71 0 -147 4q0 -170 8.5 -212.5t35 -61.5t90.5 -26q46 -5 59 -11t13 -22q0 -28 -52 -28q-32 0 -127 6q-134 8 -186 8q-86 0 -220 -13q-20 -2 -33 -2q-45 0 -45 29zM511 419q51 -5 82 -5q152 0 238.5 86.5t86.5 240.5q0 108 -63 179.5t-196 71.5 q-66 0 -148 -17v-556z" />
<glyph unicode="&#xdf;" horiz-adv-x="1173" d="M51 19q0 28 48 30q50 2 73.5 23t23.5 107l1 172v446q0 252 42 347.5t130 159t241 63.5q188 0 285 -85t97 -201q0 -101 -70.5 -175.5t-217.5 -90.5q188 -17 284 -128.5t96 -269.5q0 -173 -113.5 -298.5t-260.5 -125.5q-85 0 -130 45t-45 93q0 46 27 77t74 31 q39 0 69.5 -27t30.5 -82q0 -8 -1 -16q-3 -18 -3 -24q0 -29 32 -29q37 0 53.5 58t16.5 202q0 224 -50 338q-51 113 -211 120q-51 2 -51 30q0 18 8 23.5t49 11.5q62 9 95 30.5t54 70t21 138.5q0 110 -39 165t-117 55q-80 0 -122.5 -59.5t-42.5 -240.5l-1 -222v-543 q0 -65 7 -237l-30 -1q-146 0 -212 -6q-69 -6 -99 -6q-42 0 -42 31z" />
<glyph unicode="&#xe0;" horiz-adv-x="981" d="M82 189q0 68 33.5 121.5t83 83t163.5 70.5q96 34 128.5 53.5t54.5 57t22 97.5q0 66 -33 105.5t-91 39.5q-50 0 -71 -25q-21 -26 -32 -83q-23 -114 -123 -114q-41 0 -70 24t-29 69q0 96 104.5 143.5t249.5 47.5q125 0 203.5 -38t100.5 -88t22 -156l-2 -237 q0 -187 12.5 -240t53.5 -53q6 0 16 1q20 2 27 2q41 0 41 -23q0 -15 -17 -25.5t-102.5 -26.5t-154.5 -16t-94.5 26.5t-30.5 90.5q-62 -59 -125 -88.5t-127 -29.5q-102 0 -157.5 61.5t-55.5 149.5zM253 1277q0 34 26.5 59.5t59.5 25.5q44 0 88 -45t133 -177.5t89 -143.5 t-13.5 -23t-25.5 -12q-23 0 -143 95l-154 121q-60 47 -60 100zM306 240q0 -70 29.5 -106.5t72.5 -36.5q58 0 108 53.5t50 188.5q0 42 -6 157q-24 -29 -115 -77q-83 -44 -111 -78q-28 -35 -28 -101z" />
<glyph unicode="&#xe1;" horiz-adv-x="981" d="M82 189q0 68 33.5 121.5t83 83t163.5 70.5q96 34 128.5 53.5t54.5 57t22 97.5q0 66 -33 105.5t-91 39.5q-50 0 -71 -25q-21 -26 -32 -83q-23 -114 -123 -114q-41 0 -70 24t-29 69q0 96 104.5 143.5t249.5 47.5q125 0 203.5 -38t100.5 -88t22 -156l-2 -237 q0 -187 12.5 -240t53.5 -53q6 0 16 1q20 2 27 2q41 0 41 -23q0 -15 -17 -25.5t-102.5 -26.5t-154.5 -16t-94.5 26.5t-30.5 90.5q-62 -59 -125 -88.5t-127 -29.5q-102 0 -157.5 61.5t-55.5 149.5zM306 240q0 -70 29.5 -106.5t72.5 -36.5q58 0 108 53.5t50 188.5q0 42 -6 157 q-24 -29 -115 -77q-83 -44 -111 -78q-28 -35 -28 -101zM327 996q0 11 89.5 144.5t133 177.5t87.5 44q34 0 60 -25.5t26 -57.5q0 -61 -105 -138q-82 -60 -155 -120t-97 -60q-12 0 -25.5 12t-13.5 23z" />
<glyph unicode="&#xe2;" horiz-adv-x="981" d="M82 189q0 68 33.5 121.5t83 83t163.5 70.5q96 34 128.5 53.5t54.5 57t22 97.5q0 66 -33 105.5t-91 39.5q-50 0 -71 -25q-21 -26 -32 -83q-23 -114 -123 -114q-41 0 -70 24t-29 69q0 96 104.5 143.5t249.5 47.5q125 0 203.5 -38t100.5 -88t22 -156l-2 -237 q0 -187 12.5 -240t53.5 -53q6 0 16 1q20 2 27 2q41 0 41 -23q0 -15 -17 -25.5t-102.5 -26.5t-154.5 -16t-94.5 26.5t-30.5 90.5q-62 -59 -125 -88.5t-127 -29.5q-102 0 -157.5 61.5t-55.5 149.5zM190 977q0 5 13 29l184 349h176l178 -343q16 -30 16 -35q0 -10 -33 -10h-51 l-197 208l-206 -208h-50q-30 0 -30 10zM306 240q0 -70 29.5 -106.5t72.5 -36.5q58 0 108 53.5t50 188.5q0 42 -6 157q-24 -29 -115 -77q-83 -44 -111 -78q-28 -35 -28 -101z" />
<glyph unicode="&#xe3;" horiz-adv-x="981" d="M82 189q0 68 33.5 121.5t83 83t163.5 70.5q96 34 128.5 53.5t54.5 57t22 97.5q0 66 -33 105.5t-91 39.5q-50 0 -71 -25q-21 -26 -32 -83q-23 -114 -123 -114q-41 0 -70 24t-29 69q0 96 104.5 143.5t249.5 47.5q125 0 203.5 -38t100.5 -88t22 -156l-2 -237 q0 -187 12.5 -240t53.5 -53q6 0 16 1q20 2 27 2q41 0 41 -23q0 -15 -17 -25.5t-102.5 -26.5t-154.5 -16t-94.5 26.5t-30.5 90.5q-62 -59 -125 -88.5t-127 -29.5q-102 0 -157.5 61.5t-55.5 149.5zM170 1008q0 102 50.5 174.5t143.5 72.5q60 0 149 -51q80 -45 111 -45 q67 0 72 78q1 13 5.5 16t38.5 3q36 0 36 -19q0 -97 -47 -169.5t-140 -72.5q-54 0 -139 45q-91 49 -128 49q-59 0 -72 -81q-1 -9 -5.5 -12t-49.5 -3q-25 0 -25 15zM306 240q0 -70 29.5 -106.5t72.5 -36.5q58 0 108 53.5t50 188.5q0 42 -6 157q-24 -29 -115 -77 q-83 -44 -111 -78q-28 -35 -28 -101z" />
<glyph unicode="&#xe4;" horiz-adv-x="981" d="M82 189q0 68 33.5 121.5t83 83t163.5 70.5q96 34 128.5 53.5t54.5 57t22 97.5q0 66 -33 105.5t-91 39.5q-50 0 -71 -25q-21 -26 -32 -83q-23 -114 -123 -114q-41 0 -70 24t-29 69q0 96 104.5 143.5t249.5 47.5q125 0 203.5 -38t100.5 -88t22 -156l-2 -237 q0 -187 12.5 -240t53.5 -53q6 0 16 1q20 2 27 2q41 0 41 -23q0 -15 -17 -25.5t-102.5 -26.5t-154.5 -16t-94.5 26.5t-30.5 90.5q-62 -59 -125 -88.5t-127 -29.5q-102 0 -157.5 61.5t-55.5 149.5zM141 1142q0 49 35.5 84.5t84.5 35.5q50 0 85.5 -35.5t35.5 -84.5 q0 -50 -35.5 -85.5t-85.5 -35.5q-49 0 -84.5 35.5t-35.5 85.5zM306 240q0 -70 29.5 -106.5t72.5 -36.5q58 0 108 53.5t50 188.5q0 42 -6 157q-24 -29 -115 -77q-83 -44 -111 -78q-28 -35 -28 -101zM565 1142q0 49 35.5 84.5t85.5 35.5q49 0 84.5 -35.5t35.5 -84.5 q0 -50 -35.5 -85.5t-84.5 -35.5q-50 0 -85.5 35.5t-35.5 85.5z" />
<glyph unicode="&#xe5;" horiz-adv-x="981" d="M82 189q0 68 33.5 121.5t83 83t163.5 70.5q96 34 128.5 53.5t54.5 57t22 97.5q0 66 -33 105.5t-91 39.5q-50 0 -71 -25q-21 -26 -32 -83q-23 -114 -123 -114q-41 0 -70 24t-29 69q0 96 104.5 143.5t249.5 47.5q125 0 203.5 -38t100.5 -88t22 -156l-2 -237 q0 -187 12.5 -240t53.5 -53q6 0 16 1q20 2 27 2q41 0 41 -23q0 -15 -17 -25.5t-102.5 -26.5t-154.5 -16t-94.5 26.5t-30.5 90.5q-62 -59 -125 -88.5t-127 -29.5q-102 0 -157.5 61.5t-55.5 149.5zM301 1159q0 71 50.5 122t121.5 51q72 0 122.5 -50.5t50.5 -122.5 q0 -71 -51 -121.5t-122 -50.5t-121.5 50.5t-50.5 121.5zM306 240q0 -70 29.5 -106.5t72.5 -36.5q58 0 108 53.5t50 188.5q0 42 -6 157q-24 -29 -115 -77q-83 -44 -111 -78q-28 -35 -28 -101zM391 1159q0 -34 24 -58.5t58 -24.5q35 0 59 24.5t24 58.5q0 35 -24 59t-59 24 q-34 0 -58 -24t-24 -59z" />
<glyph unicode="&#xe6;" horiz-adv-x="1451" d="M82 171q0 70 33.5 127t78.5 87t149 68q101 38 138 58.5t62.5 62t25.5 96.5q0 68 -35.5 107t-88.5 39q-70 0 -100 -103q-34 -122 -129 -122q-47 0 -71 33.5t-24 73.5q0 82 111 129.5t240 47.5q89 0 161.5 -23t128.5 -70q103 90 259 90q116 0 196.5 -55t119.5 -147.5 t39 -157.5q0 -22 -15 -30t-242 -20.5t-316 -12.5q0 -243 76 -313t151 -70q139 0 269 127q32 31 50 31q23 0 23 -23q0 -38 -123.5 -129.5t-300.5 -91.5q-251 0 -351 159q-129 -113 -202 -136.5t-115 -23.5q-74 0 -136 54t-62 138zM309 227q0 -69 33.5 -99t75.5 -30 q52 0 100.5 51.5t48.5 205.5q0 62 -7 139q-18 -30 -65 -53q-113 -55 -149 -96q-37 -41 -37 -118zM803 511q84 2 193 13.5t120 22.5t11 53q0 99 -38.5 157t-105.5 58q-59 0 -107.5 -49.5t-66.5 -201.5z" />
<glyph unicode="&#xe7;" horiz-adv-x="960" d="M86 423q0 187 128.5 321.5t324.5 134.5q128 0 225.5 -61.5t97.5 -145.5q0 -50 -29.5 -78.5t-74.5 -28.5q-86 0 -123 124q-20 68 -44 97q-25 29 -72 29q-82 0 -123.5 -82t-41.5 -246q0 -188 68 -300.5t176 -112.5q144 0 203 171q19 54 45 54q28 0 28 -30q0 -78 -75 -175 t-236 -113q-11 -23 -21 -49q75 0 112.5 -35.5t37.5 -76.5q0 -77 -86 -126.5t-250 -49.5q-47 0 -47 29q0 28 62 36q101 12 101 66q0 47 -69 48q77 98 89 157q-190 15 -298 139t-108 304z" />
<glyph unicode="&#xe8;" horiz-adv-x="981" d="M82 397q0 203 132.5 340.5t330.5 137.5q186 0 283.5 -125t97.5 -238q0 -36 -19 -43t-123 -7l-434 -6q-1 -29 -1 -42q0 -142 69.5 -240.5t187.5 -98.5q121 0 238 105q24 21 34 21q26 0 26 -28q0 -22 -60 -79t-147 -86t-180 -29q-204 0 -319.5 124.5t-115.5 293.5z M318 1277q0 34 26.5 59.5t59.5 25.5q44 0 88 -45t133 -177.5t89 -143.5t-13.5 -23t-25.5 -12q-23 0 -143 95l-154 121q-60 47 -60 100zM356 529q148 -2 171 -2q113 0 138.5 16t25.5 65q0 82 -47 145t-112 63q-154 0 -176 -287z" />
<glyph unicode="&#xe9;" horiz-adv-x="981" d="M82 397q0 203 132.5 340.5t330.5 137.5q186 0 283.5 -125t97.5 -238q0 -36 -19 -43t-123 -7l-434 -6q-1 -29 -1 -42q0 -142 69.5 -240.5t187.5 -98.5q121 0 238 105q24 21 34 21q26 0 26 -28q0 -22 -60 -79t-147 -86t-180 -29q-204 0 -319.5 124.5t-115.5 293.5zM352 996 q0 11 89.5 144.5t133 177.5t87.5 44q34 0 60 -25.5t26 -57.5q0 -61 -105 -138q-82 -60 -155 -120t-97 -60q-12 0 -25.5 12t-13.5 23zM356 529q148 -2 171 -2q113 0 138.5 16t25.5 65q0 82 -47 145t-112 63q-154 0 -176 -287z" />
<glyph unicode="&#xea;" horiz-adv-x="981" d="M82 397q0 203 132.5 340.5t330.5 137.5q186 0 283.5 -125t97.5 -238q0 -36 -19 -43t-123 -7l-434 -6q-1 -29 -1 -42q0 -142 69.5 -240.5t187.5 -98.5q121 0 238 105q24 21 34 21q26 0 26 -28q0 -22 -60 -79t-147 -86t-180 -29q-204 0 -319.5 124.5t-115.5 293.5zM231 977 q0 5 13 29l184 349h176l178 -343q16 -30 16 -35q0 -10 -33 -10h-51l-197 208l-206 -208h-50q-30 0 -30 10zM356 529q148 -2 171 -2q113 0 138.5 16t25.5 65q0 82 -47 145t-112 63q-154 0 -176 -287z" />
<glyph unicode="&#xeb;" horiz-adv-x="981" d="M82 397q0 203 132.5 340.5t330.5 137.5q186 0 283.5 -125t97.5 -238q0 -36 -19 -43t-123 -7l-434 -6q-1 -29 -1 -42q0 -142 69.5 -240.5t187.5 -98.5q121 0 238 105q24 21 34 21q26 0 26 -28q0 -22 -60 -79t-147 -86t-180 -29q-204 0 -319.5 124.5t-115.5 293.5z M158 1142q0 49 35.5 84.5t84.5 35.5q50 0 85.5 -35.5t35.5 -84.5q0 -50 -35.5 -85.5t-85.5 -35.5q-49 0 -84.5 35.5t-35.5 85.5zM356 529q148 -2 171 -2q113 0 138.5 16t25.5 65q0 82 -47 145t-112 63q-154 0 -176 -287zM582 1142q0 49 35.5 84.5t85.5 35.5q49 0 84.5 -35.5 t35.5 -84.5q0 -50 -35.5 -85.5t-84.5 -35.5q-50 0 -85.5 35.5t-35.5 85.5z" />
<glyph unicode="&#xec;" horiz-adv-x="619" d="M40 1277q0 34 26.5 59.5t59.5 25.5q44 0 88 -45t133 -177.5t89 -143.5t-13.5 -23t-25.5 -12q-23 0 -143 95l-154 121q-60 47 -60 100zM44 18q0 26 58 31q77 7 86 51.5t9 180.5q0 176 -5.5 323.5t-20.5 168.5t-78 28q-49 5 -49 29t50 28l21 2l312 19q4 -140 4 -499 l-3 -215q0 -65 21.5 -87t70.5 -29q56 -7 56 -32q0 -27 -44 -27q-21 0 -73 3q-110 7 -218 7q-53 0 -108 -5q-33 -4 -45 -4q-44 0 -44 27z" />
<glyph unicode="&#xed;" horiz-adv-x="619" d="M45 18q0 26 58 31q77 7 86 51.5t9 180.5q0 176 -5.5 323.5t-20.5 168.5t-78 28q-49 5 -49 29t50 28l21 2l312 19q4 -140 4 -499l-3 -215q0 -65 21.5 -87t70.5 -29q56 -7 56 -32q0 -27 -44 -27q-21 0 -73 3q-110 7 -218 7q-53 0 -108 -5q-33 -4 -45 -4q-44 0 -44 27z M146 996q0 11 89.5 144.5t133 177.5t87.5 44q34 0 60 -25.5t26 -57.5q0 -61 -105 -138q-82 -60 -155 -120t-97 -60q-12 0 -25.5 12t-13.5 23z" />
<glyph unicode="&#xee;" horiz-adv-x="619" d="M26 977q0 5 13 29l184 349h176l178 -343q16 -30 16 -35q0 -10 -33 -10h-51l-197 208l-206 -208h-50q-30 0 -30 10zM45 18q0 26 58 31q77 7 86 51.5t9 180.5q0 176 -5.5 323.5t-20.5 168.5t-78 28q-49 5 -49 29t50 28l21 2l312 19q4 -140 4 -499l-3 -215q0 -65 21.5 -87 t70.5 -29q56 -7 56 -32q0 -27 -44 -27q-21 0 -73 3q-110 7 -218 7q-53 0 -108 -5q-33 -4 -45 -4q-44 0 -44 27z" />
<glyph unicode="&#xef;" horiz-adv-x="619" d="M-23 1142q0 49 35.5 84.5t84.5 35.5q50 0 85.5 -35.5t35.5 -84.5q0 -50 -35.5 -85.5t-85.5 -35.5q-49 0 -84.5 35.5t-35.5 85.5zM45 18q0 26 58 31q77 7 86 51.5t9 180.5q0 176 -5.5 323.5t-20.5 168.5t-78 28q-49 5 -49 29t50 28l21 2l312 19q4 -140 4 -499l-3 -215 q0 -65 21.5 -87t70.5 -29q56 -7 56 -32q0 -27 -44 -27q-21 0 -73 3q-110 7 -218 7q-53 0 -108 -5q-33 -4 -45 -4q-44 0 -44 27zM401 1142q0 49 35.5 84.5t85.5 35.5q49 0 84.5 -35.5t35.5 -84.5q0 -50 -35.5 -85.5t-84.5 -35.5q-50 0 -85.5 35.5t-35.5 85.5z" />
<glyph unicode="&#xf0;" d="M89 419q0 190 131 321.5t308 131.5q55 0 115 -26q-57 142 -154 287l-202 -134l-42 63l200 131q-89 102 -200 178h122q127 -92 164 -122l196 129l41 -63l-178 -116q248 -233 342.5 -412t94.5 -344q0 -117 -62.5 -218.5t-172.5 -171t-259 -69.5q-209 0 -326.5 130.5 t-117.5 304.5zM353 457q0 -147 49.5 -279t152.5 -132q96 0 143.5 89t47.5 266q0 183 -52.5 297.5t-146.5 114.5q-102 0 -148 -100.5t-46 -255.5z" />
<glyph unicode="&#xf1;" d="M26 18q0 25 33 29q51 6 69 28t26.5 137.5t8.5 275.5q0 204 -15 252.5t-72 70.5q-41 16 -41 31q0 24 59 24q166 0 269 13q38 -87 44 -195q68 96 147.5 144t170.5 48q76 0 139 -39t85.5 -93t22.5 -153l-9 -399q0 -82 15 -109t63 -35q40 -7 40 -32q0 -26 -39 -26 q-33 0 -145 8q-39 2 -63 2q-23 0 -132 -9h-49q-41 0 -41 27q0 22 37 29q34 7 54 23t26.5 157t6.5 280q0 154 -24.5 211t-93.5 57q-85 0 -157.5 -124.5t-72.5 -382.5q0 -100 10 -145t24.5 -56.5t61.5 -19.5q28 -5 28 -29q0 -28 -41 -28q-20 0 -44 2q-96 9 -104 9 q-144 0 -236 -10q-15 -2 -24 -2q-37 0 -37 29zM251 1008q0 102 50.5 174.5t143.5 72.5q60 0 149 -51q80 -45 111 -45q67 0 72 78q1 13 5.5 16t38.5 3q36 0 36 -19q0 -97 -47 -169.5t-140 -72.5q-54 0 -139 45q-91 49 -128 49q-59 0 -72 -81q-1 -9 -5.5 -12t-49.5 -3 q-25 0 -25 15z" />
<glyph unicode="&#xf2;" d="M83 422q0 203 139.5 328.5t339.5 125.5q203 0 333.5 -118.5t130.5 -305.5q0 -184 -137 -327t-348 -143q-194 0 -326 120t-132 320zM322 1277q0 34 26.5 59.5t59.5 25.5q44 0 88 -45t133 -177.5t89 -143.5t-13.5 -23t-25.5 -12q-23 0 -143 95l-154 121q-60 47 -60 100z M351 461q0 -182 55.5 -298.5t152.5 -116.5q95 0 143 93t48 245q0 164 -54.5 296.5t-156.5 132.5q-90 0 -139 -92.5t-49 -259.5z" />
<glyph unicode="&#xf3;" d="M83 422q0 203 139.5 328.5t339.5 125.5q203 0 333.5 -118.5t130.5 -305.5q0 -184 -137 -327t-348 -143q-194 0 -326 120t-132 320zM351 461q0 -182 55.5 -298.5t152.5 -116.5q95 0 143 93t48 245q0 164 -54.5 296.5t-156.5 132.5q-90 0 -139 -92.5t-49 -259.5zM391 996 q0 11 89.5 144.5t133 177.5t87.5 44q34 0 60 -25.5t26 -57.5q0 -61 -105 -138q-82 -60 -155 -120t-97 -60q-12 0 -25.5 12t-13.5 23z" />
<glyph unicode="&#xf4;" d="M83 422q0 203 139.5 328.5t339.5 125.5q203 0 333.5 -118.5t130.5 -305.5q0 -184 -137 -327t-348 -143q-194 0 -326 120t-132 320zM271 977q0 5 13 29l184 349h176l178 -343q16 -30 16 -35q0 -10 -33 -10h-51l-197 208l-206 -208h-50q-30 0 -30 10zM351 461 q0 -182 55.5 -298.5t152.5 -116.5q95 0 143 93t48 245q0 164 -54.5 296.5t-156.5 132.5q-90 0 -139 -92.5t-49 -259.5z" />
<glyph unicode="&#xf5;" d="M83 422q0 203 139.5 328.5t339.5 125.5q203 0 333.5 -118.5t130.5 -305.5q0 -184 -137 -327t-348 -143q-194 0 -326 120t-132 320zM252 1008q0 102 50.5 174.5t143.5 72.5q60 0 149 -51q80 -45 111 -45q67 0 72 78q1 13 5.5 16t38.5 3q36 0 36 -19q0 -97 -47 -169.5 t-140 -72.5q-54 0 -139 45q-91 49 -128 49q-59 0 -72 -81q-1 -9 -5.5 -12t-49.5 -3q-25 0 -25 15zM351 461q0 -182 55.5 -298.5t152.5 -116.5q95 0 143 93t48 245q0 164 -54.5 296.5t-156.5 132.5q-90 0 -139 -92.5t-49 -259.5z" />
<glyph unicode="&#xf6;" d="M83 422q0 203 139.5 328.5t339.5 125.5q203 0 333.5 -118.5t130.5 -305.5q0 -184 -137 -327t-348 -143q-194 0 -326 120t-132 320zM222 1142q0 49 35.5 84.5t84.5 35.5q50 0 85.5 -35.5t35.5 -84.5q0 -50 -35.5 -85.5t-85.5 -35.5q-49 0 -84.5 35.5t-35.5 85.5zM351 461 q0 -182 55.5 -298.5t152.5 -116.5q95 0 143 93t48 245q0 164 -54.5 296.5t-156.5 132.5q-90 0 -139 -92.5t-49 -259.5zM646 1142q0 49 35.5 84.5t85.5 35.5q49 0 84.5 -35.5t35.5 -84.5q0 -50 -35.5 -85.5t-84.5 -35.5q-50 0 -85.5 35.5t-35.5 85.5z" />
<glyph unicode="&#xf7;" horiz-adv-x="1365" d="M139 475v131h1088v-131h-1088zM599 81q0 35 24.5 59.5t59.5 24.5t59.5 -24.5t24.5 -59.5t-24.5 -59.5t-59.5 -24.5t-59.5 24.5t-24.5 59.5zM599 1000q0 35 24.5 59.5t59.5 24.5t59.5 -24.5t24.5 -59.5t-24.5 -59.5t-59.5 -24.5t-59.5 24.5t-24.5 59.5z" />
<glyph unicode="&#xf8;" d="M83 422q0 143 66.5 242t173 155.5t239.5 56.5q161 0 287 -82l90 94l56 -53l-86 -89q117 -117 117 -294q0 -184 -136.5 -327t-348.5 -143q-171 0 -286 86l-97 -101l-55 52l96 100q-116 122 -116 303zM351 461q0 -80 16 -168l341 355q-59 165 -169 165q-88 0 -138 -89 t-50 -263zM390 207q51 -161 169 -161q100 0 145.5 99t45.5 232q0 97 -18 186z" />
<glyph unicode="&#xf9;" d="M43 826q0 27 39 27q268 0 298 6q5 -103 5 -281q0 -270 5 -345.5t39.5 -113.5t78.5 -38q52 0 105.5 39t79 102t25.5 206l2 221q0 88 -9.5 116t-64.5 30q-60 3 -60 31q0 17 14.5 21.5t76.5 4.5q139 0 259 7q4 -39 4 -427q0 -312 6 -340.5t65 -33.5q35 -4 35 -29 q0 -29 -40 -29q-8 0 -25 1q-28 2 -66 2q-133 0 -147 -1q-16 -1 -27 -1q-19 0 -23.5 6.5t-4.5 38.5q0 52 7 105q-69 -84 -145.5 -126t-160.5 -42q-255 0 -255 286v309q0 160 -11.5 187.5t-60.5 34.5q-44 6 -44 26zM286 1277q0 34 26.5 59.5t59.5 25.5q44 0 88 -45t133 -177.5 t89 -143.5t-13.5 -23t-25.5 -12q-23 0 -143 95l-154 121q-60 47 -60 100z" />
<glyph unicode="&#xfa;" d="M43 826q0 27 39 27q268 0 298 6q5 -103 5 -281q0 -270 5 -345.5t39.5 -113.5t78.5 -38q52 0 105.5 39t79 102t25.5 206l2 221q0 88 -9.5 116t-64.5 30q-60 3 -60 31q0 17 14.5 21.5t76.5 4.5q139 0 259 7q4 -39 4 -427q0 -312 6 -340.5t65 -33.5q35 -4 35 -29 q0 -29 -40 -29q-8 0 -25 1q-28 2 -66 2q-133 0 -147 -1q-16 -1 -27 -1q-19 0 -23.5 6.5t-4.5 38.5q0 52 7 105q-69 -84 -145.5 -126t-160.5 -42q-255 0 -255 286v309q0 160 -11.5 187.5t-60.5 34.5q-44 6 -44 26zM392 996q0 11 89.5 144.5t133 177.5t87.5 44q34 0 60 -25.5 t26 -57.5q0 -61 -105 -138q-82 -60 -155 -120t-97 -60q-12 0 -25.5 12t-13.5 23z" />
<glyph unicode="&#xfb;" d="M43 826q0 27 39 27q268 0 298 6q5 -103 5 -281q0 -270 5 -345.5t39.5 -113.5t78.5 -38q52 0 105.5 39t79 102t25.5 206l2 221q0 88 -9.5 116t-64.5 30q-60 3 -60 31q0 17 14.5 21.5t76.5 4.5q139 0 259 7q4 -39 4 -427q0 -312 6 -340.5t65 -33.5q35 -4 35 -29 q0 -29 -40 -29q-8 0 -25 1q-28 2 -66 2q-133 0 -147 -1q-16 -1 -27 -1q-19 0 -23.5 6.5t-4.5 38.5q0 52 7 105q-69 -84 -145.5 -126t-160.5 -42q-255 0 -255 286v309q0 160 -11.5 187.5t-60.5 34.5q-44 6 -44 26zM272 977q0 5 13 29l184 349h176l178 -343q16 -30 16 -35 q0 -10 -33 -10h-51l-197 208l-206 -208h-50q-30 0 -30 10z" />
<glyph unicode="&#xfc;" d="M43 826q0 27 39 27q268 0 298 6q5 -103 5 -281q0 -270 5 -345.5t39.5 -113.5t78.5 -38q52 0 105.5 39t79 102t25.5 206l2 221q0 88 -9.5 116t-64.5 30q-60 3 -60 31q0 17 14.5 21.5t76.5 4.5q139 0 259 7q4 -39 4 -427q0 -312 6 -340.5t65 -33.5q35 -4 35 -29 q0 -29 -40 -29q-8 0 -25 1q-28 2 -66 2q-133 0 -147 -1q-16 -1 -27 -1q-19 0 -23.5 6.5t-4.5 38.5q0 52 7 105q-69 -84 -145.5 -126t-160.5 -42q-255 0 -255 286v309q0 160 -11.5 187.5t-60.5 34.5q-44 6 -44 26zM223 1142q0 49 35.5 84.5t84.5 35.5q50 0 85.5 -35.5 t35.5 -84.5q0 -50 -35.5 -85.5t-85.5 -35.5q-49 0 -84.5 35.5t-35.5 85.5zM647 1142q0 49 35.5 84.5t85.5 35.5q49 0 84.5 -35.5t35.5 -84.5q0 -50 -35.5 -85.5t-84.5 -35.5q-50 0 -85.5 35.5t-35.5 85.5z" />
<glyph unicode="&#xfd;" horiz-adv-x="1024" d="M-19 -389q0 43 34.5 81.5t90.5 38.5q90 0 114 -107q13 -54 40 -54q68 0 146.5 138.5t78.5 206.5q0 34 -63 183l-168 388q-105 238 -134 273.5t-67 44.5q-39 8 -39 28q0 29 51 29q12 0 81 -7q42 -5 108 -5q109 0 191 8l43 4q40 0 40 -27q0 -26 -48 -35q-32 -6 -50 -27.5 t-18 -41.5q0 -22 53.5 -167t142.5 -342l82 228q67 189 67 259q0 83 -94 96q-42 7 -42 29q0 28 41 28q16 0 58 -5q44 -5 104 -5q40 0 97 6q48 6 55 6q48 0 48 -30q0 -17 -31 -25q-77 -21 -114 -85.5t-156 -402.5q-155 -439 -224.5 -587t-154 -211t-180.5 -63 q-86 0 -134.5 42.5t-48.5 109.5zM373 996q0 11 89.5 144.5t133 177.5t87.5 44q34 0 60 -25.5t26 -57.5q0 -61 -105 -138q-82 -60 -155 -120t-97 -60q-12 0 -25.5 12t-13.5 23z" />
<glyph unicode="&#xfe;" d="M-31 -514q0 25 35 29q67 6 90 24.5t35 64.5t17 233.5t5 339.5l-1 353l1 393q0 281 -7 332.5t-72 54.5q-48 3 -48 29q0 16 14 21t66 5h283v-623q58 64 120.5 95.5t129.5 31.5q162 0 278 -138t116 -300q0 -172 -124.5 -312t-286.5 -140q-54 0 -115 18t-130 53 q0 -377 18.5 -449.5t110.5 -84.5q49 -6 49 -28q0 -27 -40 -27l-293 10q-41 0 -112 -5q-58 -5 -84 -5q-55 0 -55 25zM374 339q0 -165 47.5 -227.5t131.5 -62.5q96 0 143.5 87.5t47.5 261.5q0 185 -54 282t-134 97q-91 0 -136.5 -109.5t-45.5 -328.5z" />
<glyph unicode="&#xff;" horiz-adv-x="1024" d="M-19 -389q0 43 34.5 81.5t90.5 38.5q90 0 114 -107q13 -54 40 -54q68 0 146.5 138.5t78.5 206.5q0 34 -63 183l-168 388q-105 238 -134 273.5t-67 44.5q-39 8 -39 28q0 29 51 29q12 0 81 -7q42 -5 108 -5q109 0 191 8l43 4q40 0 40 -27q0 -26 -48 -35q-32 -6 -50 -27.5 t-18 -41.5q0 -22 53.5 -167t142.5 -342l82 228q67 189 67 259q0 83 -94 96q-42 7 -42 29q0 28 41 28q16 0 58 -5q44 -5 104 -5q40 0 97 6q48 6 55 6q48 0 48 -30q0 -17 -31 -25q-77 -21 -114 -85.5t-156 -402.5q-155 -439 -224.5 -587t-154 -211t-180.5 -63 q-86 0 -134.5 42.5t-48.5 109.5zM179 1142q0 49 35.5 84.5t84.5 35.5q50 0 85.5 -35.5t35.5 -84.5q0 -50 -35.5 -85.5t-85.5 -35.5q-49 0 -84.5 35.5t-35.5 85.5zM603 1142q0 49 35.5 84.5t85.5 35.5q49 0 84.5 -35.5t35.5 -84.5q0 -50 -35.5 -85.5t-84.5 -35.5 q-50 0 -85.5 35.5t-35.5 85.5z" />
<glyph unicode="&#x152;" horiz-adv-x="2261" d="M89 639q0 191 96 354t253 249.5t360 86.5q66 0 177 -15q124 -16 211 -16q72 0 191 10q86 7 173 7h518l59 -276q6 -29 6 -35q0 -26 -31 -26q-21 0 -41 32q-74 118 -169 180t-257 62q-84 0 -182 -18q-14 -114 -16 -233l-3 -273q124 0 164.5 6.5t84 44.5t68.5 105 q18 51 42 51q27 0 27 -33q0 -12 -1 -29q-11 -101 -11 -311q0 -46 5 -89q2 -16 2 -24q0 -34 -30 -34q-12 0 -17.5 7.5t-21.5 53.5q-24 67 -52.5 100.5t-90 54.5t-169.5 25v-421q0 -82 13 -108.5t55.5 -42.5t134.5 -16q223 0 334.5 67.5t174.5 182.5q14 27 32 27q28 0 28 -25 q0 -9 -3 -22q-2 -7 -7 -30l-61 -274h-501q-100 0 -220 13q-151 16 -236 16q-65 0 -185 -15q-162 -20 -247 -20q-313 0 -485 194.5t-172 456.5zM430 659q0 -230 91 -412t292 -182q102 0 176.5 46.5t111 121t51.5 222.5t15 317q0 482 -344 482q-184 0 -288.5 -153t-104.5 -442 z" />
<glyph unicode="&#x153;" horiz-adv-x="1664" d="M73 429q0 117 62.5 221.5t174.5 174.5t252 70q207 0 341 -148q131 149 313 149q170 0 278 -122t108 -302q0 -15 -17 -15l-320 -3q-150 0 -253 4q4 -215 79.5 -299t175.5 -84q107 0 235 116q20 18 31 18q30 0 30 -26q0 -29 -105 -115t-269 -86q-188 0 -325 179 q-78 -89 -165 -134t-184 -45q-186 0 -314 134.5t-128 312.5zM342 465q0 -210 49.5 -315t148.5 -105q98 0 166.5 112.5t68.5 277.5q0 188 -58 292.5t-159 104.5t-158.5 -100.5t-57.5 -266.5zM1017 518q86 -3 130 -3q201 0 215.5 18t14.5 62q0 100 -43 169t-118 69 q-88 0 -139.5 -89t-59.5 -226z" />
<glyph unicode="&#x178;" horiz-adv-x="1472" d="M14 1298q0 31 35 31q16 0 50 -3q155 -11 227 -11q114 0 256 11q29 2 49 2q34 0 34 -26q0 -25 -37 -29q-103 -10 -103 -73q0 -67 297 -467q279 364 279 445q0 23 -15.5 47t-89.5 45q-30 8 -30 28q0 31 36 31q10 0 27 -2q128 -11 195 -11q73 0 173 10q19 2 32 2 q29 0 29 -27q0 -25 -29 -28q-67 -7 -123.5 -44.5t-137 -143t-179 -249.5t-108.5 -175.5t-10 -217.5q0 -282 25.5 -338.5t126.5 -56.5q36 0 36 -29q0 -30 -40 -30q-30 0 -165 9q-77 5 -110 5q-109 0 -247 -13q-26 -2 -41 -2q-38 0 -38 29q0 25 29 28q98 12 123.5 65.5 t25.5 235.5q0 164 -19 218.5t-110 201.5l-181 284q-91 135 -139.5 173t-104.5 48q-28 5 -28 27zM440 1557q0 49 35.5 84.5t84.5 35.5q50 0 85.5 -35.5t35.5 -84.5q0 -50 -35.5 -85.5t-85.5 -35.5q-49 0 -84.5 35.5t-35.5 85.5zM864 1557q0 49 35.5 84.5t85.5 35.5 q49 0 84.5 -35.5t35.5 -84.5q0 -50 -35.5 -85.5t-84.5 -35.5q-50 0 -85.5 35.5t-35.5 85.5z" />
<glyph unicode="&#x2c6;" horiz-adv-x="683" d="M58 977q0 5 13 29l184 349h176l178 -343q16 -30 16 -35q0 -10 -33 -10h-51l-197 208l-206 -208h-50q-30 0 -30 10z" />
<glyph unicode="&#x2dc;" horiz-adv-x="683" d="M38 1008q0 102 50.5 174.5t143.5 72.5q60 0 149 -51q80 -45 111 -45q67 0 72 78q1 13 5.5 16t38.5 3q36 0 36 -19q0 -97 -47 -169.5t-140 -72.5q-54 0 -139 45q-91 49 -128 49q-59 0 -72 -81q-1 -9 -5.5 -12t-49.5 -3q-25 0 -25 15z" />
<glyph unicode="&#x2013;" horiz-adv-x="1024" d="M-12 435v154h1048v-154h-1048z" />
<glyph unicode="&#x2014;" horiz-adv-x="2048" d="M-12 435v154h2072v-154h-2072z" />
<glyph unicode="&#x2018;" horiz-adv-x="448" d="M45 1047q0 106 141 208t180 102q25 0 25 -28q0 -17 -20 -29q-147 -91 -147 -141q0 -22 54 -52q76 -42 76 -101q0 -49 -38.5 -82.5t-104.5 -33.5q-85 0 -125.5 49t-40.5 108z" />
<glyph unicode="&#x2019;" horiz-adv-x="448" d="M52 918q0 16 20 29q147 91 147 141q0 22 -54 52q-75 42 -75 101q0 49 38 82.5t104 33.5q83 0 124.5 -47.5t41.5 -109.5q0 -112 -144.5 -211t-176.5 -99q-25 0 -25 28z" />
<glyph unicode="&#x201a;" horiz-adv-x="448" d="M52 -180q0 17 20 29q147 92 147 141q0 22 -54 52q-75 42 -75 101q0 49 38.5 82.5t103.5 33.5q83 0 124.5 -47.5t41.5 -108.5q0 -107 -140.5 -209t-180.5 -102q-25 0 -25 28z" />
<glyph unicode="&#x201c;" horiz-adv-x="853" d="M40 1047q0 106 141 208t180 102q25 0 25 -28q0 -17 -20 -29q-147 -91 -147 -141q0 -22 54 -52q76 -42 76 -101q0 -49 -38.5 -82.5t-104.5 -33.5q-85 0 -125.5 49t-40.5 108zM456 1047q0 106 141 208t180 102q26 0 26 -28q0 -17 -21 -29q-147 -91 -147 -141q0 -22 55 -52 q75 -42 75 -101q0 -49 -38.5 -82.5t-104.5 -33.5q-85 0 -125.5 49t-40.5 108z" />
<glyph unicode="&#x201d;" horiz-adv-x="853" d="M51 918q0 16 20 29q147 91 147 141q0 22 -54 52q-75 42 -75 101q0 49 38 82.5t104 33.5q83 0 124.5 -47.5t41.5 -109.5q0 -112 -144.5 -211t-176.5 -99q-25 0 -25 28zM467 918q0 16 21 29q147 91 147 141q0 22 -55 52q-75 42 -75 101q0 49 38.5 82.5t103.5 33.5 q83 0 125 -47.5t42 -109.5q0 -106 -141 -208t-180 -102q-26 0 -26 28z" />
<glyph unicode="&#x201e;" horiz-adv-x="981" d="M114 -180q0 17 20 29q147 92 147 141q0 22 -54 52q-75 42 -75 101q0 49 38.5 82.5t103.5 33.5q83 0 124.5 -47.5t41.5 -108.5q0 -107 -140.5 -209t-180.5 -102q-25 0 -25 28zM530 -180q0 17 21 29q147 92 147 141q0 22 -55 52q-75 42 -75 101q0 49 38.5 82.5t103.5 33.5 q83 0 125 -47.5t42 -108.5q0 -112 -145 -211.5t-176 -99.5q-26 0 -26 28z" />
<glyph unicode="&#x2022;" horiz-adv-x="725" d="M77 676q0 118 84 202t202 84t202 -84t84 -202t-84 -202t-202 -84q-119 0 -202.5 84t-83.5 202z" />
<glyph unicode="&#x2026;" horiz-adv-x="2048" d="M202 120q0 57 41 98t98 41q58 0 99 -41t41 -98q0 -58 -41 -99t-99 -41q-57 0 -98 41t-41 99zM885 120q0 57 40.5 98t98.5 41t98.5 -41t40.5 -98q0 -58 -41 -99t-98 -41q-58 0 -98.5 41t-40.5 99zM1567 120q0 57 41 98t99 41q57 0 98 -41t41 -98q0 -58 -41 -99t-98 -41 q-58 0 -99 41t-41 99z" />
<glyph unicode="&#x2039;" horiz-adv-x="619" d="M55 431q337 282 429 380q17 17 52 17q25 0 25 -12l-3 -9q-13 -20 -101 -178l-119 -198q53 -83 103 -171l87 -154l35 -64q0 -11 -14 -11q-35 0 -43.5 7t-99.5 87z" />
<glyph unicode="&#x203a;" horiz-adv-x="619" d="M55 818q0 10 13 10q31 0 39.5 -4.5t149.5 -127.5l306 -267q-337 -282 -429 -380q-17 -18 -53 -18q-25 0 -25 13l4 9q13 20 101 177l118 199q-53 83 -102 170l-88 154z" />
<glyph unicode="&#x20ac;" horiz-adv-x="1087" d="M18 373l21 94h125l-2 57q0 28 2 39h-146l21 94h135q43 204 173.5 324.5t307.5 120.5q160 0 273.5 -63t113.5 -177q0 -52 -32 -86.5t-84 -34.5t-86.5 33t-34.5 82q0 29 33 86q16 28 16 35q0 24 -48 42.5t-124 18.5q-215 0 -244 -381h307l-20 -94h-291v-96h311l-20 -94 h-287q29 -328 258 -328q112 0 193 49t110 115q15 29 29 29q19 0 19 -25q0 -68 -100 -150.5t-259 -82.5q-193 0 -327.5 103.5t-180.5 289.5h-162z" />
<glyph unicode="&#x2122;" horiz-adv-x="2048" d="M-3 1099v226h777v-226h-35q-3 74 -42 124t-152 50h-38v-588q0 -84 20 -108.5t83 -24.5v-35h-454v35q66 3 84.5 19t18.5 118v584h-35q-185 0 -194 -174h-33zM884 517v35q71 3 90.5 25.5t19.5 109.5v468q0 87 -21 109.5t-89 22.5v38h368l231 -495l229 495h347v-38 q-64 0 -82.5 -25t-18.5 -109v-473q0 -76 19.5 -100.5t81.5 -27.5v-35h-461v35q74 1 94 24.5t20 104.5v505l-320 -669h-24l-318 669v-502q0 -65 6 -85t29.5 -33t79.5 -14v-35h-281z" />
<glyph unicode="&#xe000;" horiz-adv-x="860" d="M0 860h860v-860h-860v860z" />
<glyph unicode="&#xfb01;" horiz-adv-x="1302" d="M43 774q0 13 10 42t26.5 35t117.5 11q0 259 120 381.5t333 122.5q139 0 202 -48t63 -105q0 -37 -28 -63.5t-75 -26.5q-81 0 -145 108q-30 52 -50 63t-45 11q-70 0 -105 -75q-31 -68 -31 -310v-58q137 0 178.5 -6t41.5 -20q0 -7 -11.5 -38.5t-19 -38t-26.5 -6.5l-163 -3 q-4 -419 -4 -472q0 -136 29 -178t104 -53q46 -6 46 -30q0 -26 -48 -26q-28 0 -95 5q-64 5 -120 5q-70 0 -167 -7q-64 -4 -82 -4q-38 0 -38 28q0 19 24 25q70 17 87 40t21 120t4 547q-30 1 -79 1q-75 0 -75 23zM728 18q0 26 58 31q77 7 86 51.5t9 180.5q0 176 -5.5 323.5 t-20.5 168.5t-78 28q-49 5 -49 29t50 28l21 2l312 19q4 -140 4 -499l-3 -215q0 -65 21.5 -87t70.5 -29q56 -7 56 -32q0 -27 -44 -27q-21 0 -73 3q-110 7 -218 7q-53 0 -108 -5q-33 -4 -45 -4q-44 0 -44 27zM809 1217q0 60 42 102t102 42q59 0 101.5 -42t42.5 -102 q0 -59 -42.5 -101.5t-101.5 -42.5q-60 0 -102 42.5t-42 101.5z" />
<glyph unicode="&#xfb02;" horiz-adv-x="1302" d="M43 774q0 13 10 42t26.5 35t117.5 11q0 259 120 381.5t333 122.5q139 0 202 -48t63 -105q0 -37 -28 -63.5t-75 -26.5q-81 0 -145 108q-30 52 -50 63t-45 11q-70 0 -105 -75q-31 -68 -31 -310v-58q137 0 178.5 -6t41.5 -20q0 -7 -11.5 -38.5t-19 -38t-26.5 -6.5l-163 -3 q-4 -419 -4 -472q0 -136 29 -178t104 -53q46 -6 46 -30q0 -26 -48 -26q-28 0 -95 5q-64 5 -120 5q-70 0 -167 -7q-64 -4 -82 -4q-38 0 -38 28q0 19 24 25q70 17 87 40t21 120t4 547q-30 1 -79 1q-75 0 -75 23zM694 1286q0 15 12.5 20.5t61.5 9.5q205 17 334 51l3 -839 q1 -402 21 -439t80 -40q70 -3 70 -28q0 -31 -43 -31q-12 0 -35 2q-97 8 -188 8q-148 0 -219 -7q-20 -2 -36 -2q-45 0 -45 27q0 26 51 29q55 3 80.5 20t31 47.5t5.5 142.5l-4 393l3 312q0 194 -18.5 235.5t-109.5 56.5q-55 8 -55 32z" />
<glyph unicode="&#xfb03;" horiz-adv-x="1985" d="M43 774q0 13 10 42t26.5 35t117.5 11q0 259 120 381.5t333 122.5q139 0 202 -48t63 -105q0 -37 -28 -63.5t-75 -26.5q-81 0 -145 108q-30 52 -50 63t-45 11q-70 0 -105 -75q-31 -68 -31 -310v-58q137 0 178.5 -6t41.5 -20q0 -7 -11.5 -38.5t-19 -38t-26.5 -6.5l-163 -3 q-4 -419 -4 -472q0 -136 29 -178t104 -53q46 -6 46 -30q0 -26 -48 -26q-28 0 -95 5q-64 5 -120 5q-70 0 -167 -7q-64 -4 -82 -4q-38 0 -38 28q0 19 24 25q70 17 87 40t21 120t4 547q-30 1 -79 1q-75 0 -75 23zM726 774q0 13 10 42t26.5 35t117.5 11q0 259 120 381.5 t333 122.5q139 0 202 -48t63 -105q0 -37 -28 -63.5t-75 -26.5q-81 0 -145 108q-30 52 -50 63t-45 11q-70 0 -105 -75q-31 -68 -31 -310v-58q137 0 178.5 -6t41.5 -20q0 -7 -11.5 -38.5t-19 -38t-26.5 -6.5l-163 -3q-4 -419 -4 -472q0 -136 29 -178t104 -53q46 -6 46 -30 q0 -26 -48 -26q-28 0 -95 5q-64 5 -120 5q-70 0 -167 -7q-64 -4 -82 -4q-38 0 -38 28q0 19 24 25q70 17 87 40t21 120t4 547q-30 1 -79 1q-75 0 -75 23zM1411 18q0 26 58 31q77 7 86 51.5t9 180.5q0 176 -5.5 323.5t-20.5 168.5t-78 28q-49 5 -49 29t50 28l21 2l312 19 q4 -140 4 -499l-3 -215q0 -65 21.5 -87t70.5 -29q56 -7 56 -32q0 -27 -44 -27q-21 0 -73 3q-110 7 -218 7q-53 0 -108 -5q-33 -4 -45 -4q-44 0 -44 27zM1492 1217q0 60 42 102t102 42q59 0 101.5 -42t42.5 -102q0 -59 -42.5 -101.5t-101.5 -42.5q-60 0 -102 42.5t-42 101.5z " />
<glyph unicode="&#xfb04;" horiz-adv-x="1985" d="M43 774q0 13 10 42t26.5 35t117.5 11q0 259 120 381.5t333 122.5q139 0 202 -48t63 -105q0 -37 -28 -63.5t-75 -26.5q-81 0 -145 108q-30 52 -50 63t-45 11q-70 0 -105 -75q-31 -68 -31 -310v-58q137 0 178.5 -6t41.5 -20q0 -7 -11.5 -38.5t-19 -38t-26.5 -6.5l-163 -3 q-4 -419 -4 -472q0 -136 29 -178t104 -53q46 -6 46 -30q0 -26 -48 -26q-28 0 -95 5q-64 5 -120 5q-70 0 -167 -7q-64 -4 -82 -4q-38 0 -38 28q0 19 24 25q70 17 87 40t21 120t4 547q-30 1 -79 1q-75 0 -75 23zM726 774q0 13 10 42t26.5 35t117.5 11q0 259 120 381.5 t333 122.5q139 0 202 -48t63 -105q0 -37 -28 -63.5t-75 -26.5q-81 0 -145 108q-30 52 -50 63t-45 11q-70 0 -105 -75q-31 -68 -31 -310v-58q137 0 178.5 -6t41.5 -20q0 -7 -11.5 -38.5t-19 -38t-26.5 -6.5l-163 -3q-4 -419 -4 -472q0 -136 29 -178t104 -53q46 -6 46 -30 q0 -26 -48 -26q-28 0 -95 5q-64 5 -120 5q-70 0 -167 -7q-64 -4 -82 -4q-38 0 -38 28q0 19 24 25q70 17 87 40t21 120t4 547q-30 1 -79 1q-75 0 -75 23zM1377 1286q0 15 12.5 20.5t61.5 9.5q205 17 334 51l3 -839q1 -402 21 -439t80 -40q70 -3 70 -28q0 -31 -43 -31 q-12 0 -35 2q-97 8 -188 8q-148 0 -219 -7q-20 -2 -36 -2q-45 0 -45 27q0 26 51 29q55 3 80.5 20t31 47.5t5.5 142.5l-4 393l3 312q0 194 -18.5 235.5t-109.5 56.5q-55 8 -55 32z" />
</font>
</defs>
</svg>
