<?xml version="1.0" standalone="no"?>
<!DOCTYPE svg PUBLIC "-//W3C//DTD SVG 1.1//EN" "http://www.w3.org/Graphics/SVG/1.1/DTD/svg11.dtd" >
<svg xmlns="http://www.w3.org/2000/svg">
<metadata>
This is a custom SVG webfont generated by Font Squirrel.
Copyright   : Copyright c 2010 by Anatoletype  fRED Published  by Anatoletype All rights reserved
Designer    : Elena Albertoni and fRED Bordfeld
Foundry     : Anatoletype  fRED
Foundry URL : httpanatoletypenet
</metadata>
<defs>
<font id="DejaWebItalic" horiz-adv-x="1501" >
<font-face units-per-em="2048" ascent="1556" descent="-492" />
<missing-glyph horiz-adv-x="469" />
<glyph unicode=" "  horiz-adv-x="469" />
<glyph unicode="&#x09;" horiz-adv-x="469" />
<glyph unicode="&#xa0;" horiz-adv-x="469" />
<glyph unicode="!" horiz-adv-x="661" d="M226 76q0 79 30.5 121.5t102.5 42.5q48 0 72.5 -24t24.5 -73q0 -41 -8 -71t-25 -49.5t-43 -29t-62 -9.5q-47 0 -69.5 22t-22.5 70zM321 421q3 24 7 62l9 85l11 100l12 106l14 106t14 97l79 516h175l-79 -516q-7 -45 -17 -97l-19 -106l-21 -106l-19 -100l-17 -85l-13 -62 h-136z" />
<glyph unicode="&#x22;" horiz-adv-x="829" d="M345 1018l58 475h172l-93 -475h-137zM671 1018l58 475h171l-93 -475h-136z" />
<glyph unicode="#" horiz-adv-x="1571" d="M201 411l25 159h325l128 328h-297l26 160h333l157 412h153l-159 -412h268l160 412h151l-159 -412h288l-26 -160h-324l-126 -328h293l-24 -159h-331l-158 -411h-151l158 411h-270l-158 -411h-151l159 411h-290zM703 570h270l125 328h-268z" />
<glyph unicode="$" horiz-adv-x="1163" d="M138 165l129 136q29 -26 62.5 -48t73.5 -38.5t88 -26.5q22 -4 46 -7l84 545l-95 63q-52 37 -93 80t-66 95t-25 117q0 93 43.5 168t115.5 128t165 81q56 17 113 24l33 209h153l-33 -208q17 -2 32 -4q51 -8 99 -24.5t93.5 -41t88.5 -58.5l-126 -140q-58 49 -134 74 q-37 12 -80 18l-77 -490q54 -34 105 -70q53 -37 94 -80.5t66 -96t25 -117.5q0 -66 -21.5 -124.5t-59.5 -108.5t-91 -89.5t-116 -67.5t-135 -43l-30 -6l-41 -263h-153l39 255q-47 2 -90 10q-60 12 -111.5 33t-94.5 50.5t-76 65.5zM534 1128q0 -51 25 -93t66 -79 q29 -26 64 -51l63 406q-29 -3 -55 -8q-51 -11 -87 -34t-56 -58t-20 -83zM692 188q13 2 26 6q59 15 104.5 44.5t73.5 72t28 97.5q0 52 -25 95t-66 79q-33 29 -72 56z" />
<glyph unicode="%" horiz-adv-x="1877" d="M268 974q0 64 9 129.5t29 126t52.5 113t79.5 91.5t109.5 61.5t143.5 22.5q72 0 123 -26t83.5 -70.5t47 -103t14.5 -122.5q0 -65 -9 -130.5t-29.5 -126t-52.5 -113t-79 -91.5t-109.5 -61t-142.5 -22q-72 0 -123.5 26t-83.5 70t-47 102.5t-15 123.5zM330 9l1309 1534 l121 -82l-1309 -1534zM445 990q0 -35 6 -71t21 -65.5t40 -48.5t63 -19q52 0 88 25.5t59 65t35 87t17.5 91.5t6.5 78t1 47q0 34 -6 70.5t-20.5 66t-39.5 48.5t-63 19q-31 0 -58 -12t-50.5 -35t-42 -56.5t-31 -77.5t-19.5 -97.5t-7 -115.5zM1155 294q0 65 9 130.5t29.5 126 t52.5 113t79 91.5t109.5 61t142.5 22q72 0 123 -26t83.5 -70.5t47 -103t14.5 -122.5q0 -65 -9 -130.5t-29 -126t-52.5 -113t-79.5 -91.5t-109.5 -61t-142.5 -22q-72 0 -123 26t-83.5 70t-47 102.5t-14.5 123.5zM1332 310q0 -35 6 -71t20.5 -65.5t39.5 -48.5t63 -19 q52 0 88 25.5t59 65t35 87t17.5 91.5t6.5 78t1 47q0 34 -6 70.5t-20.5 66t-39.5 48.5t-63 19q-31 0 -58 -12t-50 -35t-41.5 -56.5t-31 -77.5t-19.5 -97.5t-7 -115.5z" />
<glyph unicode="&#x26;" horiz-adv-x="1557" d="M173 335q0 83 28.5 158t78.5 136t118.5 106t148.5 68q-53 15 -94 44t-69.5 66.5t-43.5 81t-15 87.5q0 105 46.5 186.5t125 137.5t181 85t214.5 29q45 0 97.5 -5.5t103.5 -17t97 -30.5t79.5 -45.5t50.5 -60.5q12 -25 12 -54q0 -12 -2 -25l-25 -162h352l-23 -145h-352 l-95 -622q-6 -38 -6 -70q0 -13 1 -24q3 -42 18.5 -71t46 -45t78.5 -16q13 0 31.5 1.5t38.5 4.5t39.5 6.5t34.5 8.5l3 -134q-15 -7 -38 -14.5t-49.5 -13.5t-53.5 -10t-50 -4q-82 0 -139 19.5t-90 61t-42 106.5q-4 25 -4 54q0 46 9 101l143 928q3 23 -11.5 41t-41 31.5 t-61 23.5t-70.5 16t-69.5 8.5t-57.5 2.5q-64 0 -125 -14.5t-109 -45.5t-77 -78t-29 -112q0 -52 23.5 -96t67.5 -76t106.5 -50t141.5 -18h37l-24 -155h-58q-81 0 -160.5 -22t-142.5 -64.5t-102 -104.5t-39 -141q0 -62 23 -110.5t64 -82.5t99 -51.5t129 -17.5q55 0 98 5t90 16 l10 -133q-46 -20 -104 -31.5t-140 -11.5q-101 0 -184.5 23.5t-143 69t-92.5 113.5t-33 158z" />
<glyph unicode="'" horiz-adv-x="480" d="M339 1048l54 445h165l-84 -445h-135z" />
<glyph unicode="(" horiz-adv-x="712" d="M231 433q0 171 32.5 323.5t91.5 290.5t141.5 263.5t181.5 243.5l119 -67q-65 -86 -119 -168.5t-96.5 -164t-74.5 -163t-52.5 -166t-31 -173.5t-10.5 -184q0 -82 8.5 -168.5t24 -172.5t38 -167.5t50.5 -153.5l-146 -79q-39 81 -68.5 169.5t-49 179.5t-29.5 181.5 t-10 175.5z" />
<glyph unicode=")" horiz-adv-x="670" d="M33 -206q65 86 119 168.5t96.5 164t74.5 163t52.5 166t31 173.5t10.5 184q0 82 -8.5 168.5t-24 172.5t-38 167.5t-50.5 153.5l146 79q39 -81 68.5 -169.5t49 -179.5t29.5 -181.5t10 -175.5q0 -171 -32.5 -323.5t-91.5 -290.5t-141.5 -263.5t-181.5 -243.5z" />
<glyph unicode="*" horiz-adv-x="978" d="M208 858l362 195l-302 194l68 99l280 -203l59 377h104l-59 -377l342 203l39 -99l-363 -194l303 -195l-70 -98l-278 203l-59 -377h-104l59 377l-344 -203z" />
<glyph unicode="+" horiz-adv-x="1536" d="M348 565l25 154h432l69 449h155l-70 -449h434l-25 -154h-433l-76 -491h-154l76 491h-433z" />
<glyph unicode="," horiz-adv-x="580" d="M129 -254q12 18 30 50l36 67q17 34 29 65t12 46q0 9 -7 19t-15.5 24.5t-15.5 34t-7 47.5q0 38 11.5 64.5t30.5 43.5t43 25t50 8q41 0 69 -25.5t28 -81.5q0 -49 -19 -106t-48.5 -115t-65 -113t-69.5 -99z" />
<glyph unicode="-" horiz-adv-x="826" d="M244 498l23 145h496l-23 -145h-496z" />
<glyph unicode="." horiz-adv-x="574" d="M190 76q0 79 30.5 121.5t101.5 42.5q48 0 72.5 -24t24.5 -73q0 -41 -8 -71t-25 -49.5t-43 -29t-62 -9.5q-46 0 -68.5 22t-22.5 70z" />
<glyph unicode="/" horiz-adv-x="697" d="M1 -190l741 1683h154l-741 -1683h-154z" />
<glyph unicode="0" horiz-adv-x="1253" d="M205 509q0 117 16 232.5t50 219.5t87 193t126 154t167.5 102t212.5 37q71 0 129 -20t103 -56t78.5 -86.5t55 -110t32 -127t10.5 -138.5q0 -117 -16 -232.5t-49.5 -219.5t-86 -193t-125.5 -153.5t-167.5 -101.5t-211.5 -37q-107 0 -184.5 44t-128 118t-74.5 171t-24 204z M399 561q0 -76 12.5 -150t43 -132.5t81 -94.5t126.5 -36q78 0 139 31t107.5 83.5t78.5 123t52.5 149t29.5 161.5t9 161q0 51 -5 101.5t-17.5 96.5t-32 85.5t-49 68.5t-68.5 45.5t-90 16.5q-76 0 -136.5 -31.5t-107 -85t-79 -124.5t-53.5 -150t-31 -161t-10 -158z" />
<glyph unicode="1" horiz-adv-x="1005" d="M178 0l24 152h286l170 1100l-309 -117l-26 137l360 146h177l-197 -1266h262l-24 -152h-723z" />
<glyph unicode="2" horiz-adv-x="1103" d="M146 0l24 152l375 359l162 162q71 74 120.5 140t75.5 127.5t26 123.5q0 54 -17.5 94t-49.5 66t-77 38.5t-99 12.5q-72 0 -156 -17.5t-171 -50.5l-32 147q43 21 93 38.5t102.5 29.5t106.5 18.5t104 6.5q82 0 153 -21t123.5 -62.5t82.5 -103.5t30 -144q0 -94 -22.5 -169.5 t-69 -147.5t-116.5 -148l-166 -171l-335 -328h600l-24 -152h-843z" />
<glyph unicode="3" horiz-adv-x="1077" d="M107 59l62 157q82 -37 166.5 -54.5t165.5 -17.5q61 0 120.5 22t106.5 60.5t75.5 91t28.5 114.5q0 65 -33 109t-85.5 71t-118 38.5t-130.5 11.5h-108l24 152h118q66 0 135.5 20.5t126 58.5t93 91.5t36.5 119.5q0 46 -19.5 78.5t-52.5 53.5t-75.5 30.5t-88.5 9.5 q-37 0 -71.5 -3.5t-69 -10.5t-69.5 -17.5t-71 -23.5l-32 149q43 18 88 32.5t90.5 24t91 15t89.5 5.5q77 0 147 -19t122.5 -57.5t83.5 -96t31 -134.5q0 -76 -24 -136.5t-64 -107t-92 -80.5t-107 -56q43 -14 84 -38.5t73.5 -61t52 -85.5t19.5 -110q0 -115 -46.5 -206.5 t-125 -155t-182 -97.5t-218.5 -34q-45 0 -91.5 6t-92 17t-87.5 27t-76 37z" />
<glyph unicode="4" horiz-adv-x="1210" d="M132 342l30 188l723 888h242l-144 -924h216l-24 -152h-216l-53 -342h-175l53 342h-652zM331 494h477l112 734z" />
<glyph unicode="5" horiz-adv-x="1129" d="M165 65l63 163q38 -18 77.5 -33t81.5 -25.5t87 -16.5t93 -6q76 0 138 25t106 70.5t68 108.5t24 139q0 56 -19 99.5t-53.5 73t-82 44.5t-103.5 15q-34 0 -78.5 -3t-92 -9t-93.5 -14t-82 -18l116 740h732l-24 -152h-557l-60 -385q21 4 44 7.5t47 5.5t48 3t48 1 q85 0 158.5 -25t128 -71.5t86 -113.5t31.5 -152q0 -129 -41.5 -233.5t-117 -178t-181.5 -113.5t-235 -40q-54 0 -105 7t-96.5 20t-85 30t-70.5 37z" />
<glyph unicode="6" horiz-adv-x="1165" d="M186 442q0 116 18 236t56 231.5t96 209.5t137.5 171t181.5 115t227 42q43 0 85 -6t80.5 -17t73.5 -25.5t64 -31.5l-71 -152q-24 13 -56 24.5t-67 20t-71 13.5t-69 5q-84 0 -150 -28.5t-117 -76.5t-88 -110.5t-64 -129.5q-12 -29 -20 -53l-16 -44l-16 -40q-8 -21 -18 -44 l9 -5q23 35 53 60.5t65 47.5q21 13 48.5 24.5t59 19.5t66 13t69.5 5q85 0 157 -28.5t124.5 -79.5t82.5 -122t30 -156q0 -124 -40.5 -226.5t-114 -176.5t-176 -115t-226.5 -41q-99 0 -174 36.5t-126 100t-77 149t-26 184.5zM367 410q0 -65 20.5 -115t56.5 -84t85.5 -52 t108.5 -18q71 0 131 27.5t103.5 75t68 111t24.5 134.5q0 60 -19 108t-53.5 81.5t-83.5 51.5t-109 18q-71 0 -132 -28.5t-105.5 -75.5t-70 -108t-25.5 -126z" />
<glyph unicode="7" horiz-adv-x="1039" d="M300 1266l24 152h835l-22 -135l-117 -168q-62 -94 -125.5 -201.5t-125.5 -224t-116.5 -234.5t-98.5 -234t-71 -221h-175q27 113 72 233t100.5 239.5t118 235t125 218.5t121.5 190t107 150h-652z" />
<glyph unicode="8" horiz-adv-x="1180" d="M186 302q0 95 35.5 166t93.5 126t132 97q48 27 98 52q-14 9 -28 17q-54 34 -96.5 74.5t-68.5 90.5t-26 114q0 96 42 172t111.5 128t159.5 79.5t187 27.5q68 0 133.5 -19.5t117 -57t83 -91.5t31.5 -122q0 -94 -35.5 -164.5t-94 -125.5t-132.5 -97l-52 -28l41 -26 q55 -35 97.5 -77t68.5 -93.5t26 -117.5q0 -106 -43 -190.5t-116.5 -143t-170 -90t-202.5 -31.5q-77 0 -147.5 23t-125 65.5t-87 103.5t-32.5 138zM363 348q0 -51 21.5 -91t57.5 -67t83 -41t99 -14q58 0 113 17t98 48.5t69.5 77.5t26.5 103t-26 101.5t-68.5 81.5t-97.5 68 q-19 12 -39 23l-75 -35q-74 -34 -132.5 -73.5t-94 -87t-35.5 -111.5zM505 1088q0 -54 26 -96.5t68.5 -78.5t96.5 -68q15 -8 29 -17l25 12q74 34 132 73t93.5 86.5t35.5 110.5q0 45 -19 77.5t-50.5 53.5t-73 31t-87.5 10q-50 0 -99.5 -11.5t-88.5 -35.5t-63.5 -60.5 t-24.5 -86.5z" />
<glyph unicode="9" horiz-adv-x="1165" d="M181 50l71 152q24 -13 56 -24.5t67 -20t71 -13.5t69 -5q84 0 150 28.5t117 76.5t88 110.5t64 129.5q12 29 21 53l16 44l15 41l18 43l-9 5q-23 -35 -53 -60.5t-65 -47.5q-21 -13 -48.5 -24.5t-59 -19.5t-66 -13t-69.5 -5q-85 0 -157 28.5t-124.5 79.5t-82.5 122t-30 156 q0 124 40.5 226.5t114 176.5t176 115t226.5 41q99 0 174 -36.5t126 -100t77 -149t26 -184.5q0 -116 -18 -236t-56 -231.5t-96 -209.5t-137.5 -171t-181.5 -115t-227 -42q-43 0 -85 6t-80.5 17t-73.5 25.5t-64 31.5zM421 928q0 -60 19 -108t53.5 -81.5t83.5 -51.5t109 -18 q71 0 132 28.5t105.5 75.5t70 108t25.5 126t-20.5 115t-56.5 84t-85.5 52t-108.5 18q-71 0 -131 -27.5t-103.5 -75t-68 -111t-24.5 -134.5z" />
<glyph unicode=":" horiz-adv-x="574" d="M190 76q0 79 30.5 121.5t101.5 42.5q48 0 72.5 -24t24.5 -73q0 -41 -8 -71t-25 -49.5t-43 -29t-62 -9.5q-46 0 -68.5 22t-22.5 70zM317 896q0 79 30.5 121.5t101.5 42.5q48 0 72.5 -24t24.5 -73q0 -82 -32.5 -120.5t-104.5 -38.5q-47 0 -69.5 22t-22.5 70z" />
<glyph unicode=";" horiz-adv-x="581" d="M129 -254q12 18 30 50l36 67q17 34 29 65t12 46q0 9 -7 19t-15.5 24.5t-15.5 34t-7 47.5q0 38 11.5 64.5t30.5 43.5t43 25t50 8q41 0 69 -25.5t28 -81.5q0 -49 -19 -106t-48.5 -115t-65 -113t-69.5 -99zM317 897q0 79 31 121t102 42q48 0 72 -24t24 -73q0 -41 -8 -71 t-25 -49.5t-42.5 -29t-61.5 -9.5q-46 0 -69 22t-23 71z" />
<glyph unicode="&#x3c;" horiz-adv-x="1435" d="M263 553l26 167l1078 438l51 -150l-912 -367l799 -365l-101 -158z" />
<glyph unicode="=" horiz-adv-x="1537" d="M315 348l25 154h1020l-25 -154h-1020zM380 765l25 154h1020l-25 -154h-1020z" />
<glyph unicode="&#x3e;" horiz-adv-x="1538" d="M212 276l929 372l-799 365l88 145l943 -435l-27 -167l-1078 -438z" />
<glyph unicode="?" horiz-adv-x="990" d="M347 76q0 79 30.5 121.5t101.5 42.5q49 0 73.5 -24t24.5 -73q0 -82 -33 -120.5t-105 -38.5q-47 0 -69.5 22t-22.5 70zM367 1438q44 20 88.5 35.5t89 26t87.5 15.5t84 5q79 0 142 -18.5t107.5 -54t68 -87.5t23.5 -119q0 -80 -29.5 -141.5t-74 -112.5t-98 -96t-102 -92.5 t-85 -102t-47.5 -123.5q-2 -15 -5 -34l-7 -40l-6 -41.5t-5 -36.5h-176l5 36q2 14 4.5 27t4.5 26.5t5 31.5q15 96 52 166t84 124.5t98 97t93 82t69 81.5t27 95q0 80 -52 120.5t-142 40.5q-30 0 -60.5 -3.5t-63.5 -10.5t-70 -19t-81 -28z" />
<glyph unicode="@" horiz-adv-x="1997" d="M182 381q0 150 32 292.5t94 269t153 232.5t208 182.5t259 119.5t307 43q127 0 233.5 -25t191.5 -71.5t148.5 -112.5t106 -147.5t63.5 -176.5t21 -200q0 -109 -16.5 -207.5t-46.5 -182.5t-73.5 -152t-97.5 -115.5t-117.5 -73.5t-134.5 -26q-97 0 -156 39t-76 121 q-22 -33 -57 -63.5t-78 -53t-91 -36t-94 -13.5q-72 0 -130.5 28t-100 80.5t-63.5 127.5t-22 170q0 137 35 259t102 213.5t165.5 145t226.5 53.5q53 0 104.5 -9.5t99 -26t90 -39t77.5 -49.5l-89 -574q-8 -50 -8 -86q0 -11 1 -21q3 -42 16.5 -66.5t36.5 -34.5t54 -10 q47 0 85.5 23.5t67.5 65t50 97t34.5 120t20 134t6.5 139.5q0 148 -41 260.5t-121 188.5t-197.5 114.5t-269.5 38.5q-133 0 -246.5 -37t-205 -102t-161.5 -154t-117.5 -193t-71.5 -219.5t-24 -232.5q0 -141 39 -260.5t115.5 -206.5t190 -135.5t261.5 -48.5q43 0 87.5 6 t88.5 17t86 26.5t81 34.5l57 -122q-49 -27 -103 -48t-111 -36t-115 -23t-116 -8q-179 0 -317.5 55.5t-233.5 155t-144 239t-49 307.5zM824 467q0 -142 52 -215.5t139 -73.5q40 0 77 12.5t70.5 35t63.5 53t56 66.5l80 527q-42 35 -96.5 55.5t-133.5 20.5q-77 0 -135 -36 t-96.5 -100t-57.5 -152t-19 -193z" />
<glyph unicode="A" horiz-adv-x="1322" d="M40 0l748 1493h209l283 -1493h-191l-66 391h-603l-187 -391h-193zM499 543h491l-131 751z" />
<glyph unicode="B" horiz-adv-x="1251" d="M165 0l232 1493h437q90 0 168.5 -16.5t137 -53.5t92 -95t33.5 -142q0 -70 -18 -130.5t-52 -108.5t-83 -83t-110 -54q45 -13 84 -40t68.5 -66t46.5 -88.5t17 -108.5q0 -132 -50 -227.5t-136.5 -157.5t-202.5 -92t-247 -30h-417zM364 152h263q86 0 159 15t126.5 51t83.5 96 t30 150q0 64 -27 110.5t-72.5 77t-106 45.5t-127.5 15h-242zM475 864h262q63 0 123.5 16.5t107.5 50.5t76 86t29 122q0 55 -22 93.5t-60 62.5t-89.5 35t-111.5 11h-242z" />
<glyph unicode="C" horiz-adv-x="1320" d="M218 587q0 124 25 241.5t72.5 221t116 190t155.5 149t190 97t221 34.5q69 0 133 -16.5t120.5 -45.5t103 -68t79.5 -83l-110 -127q-36 40 -77.5 71.5t-88 53.5t-97.5 33.5t-106 11.5q-83 0 -155.5 -28t-133 -78t-108 -118t-80 -148.5t-50 -169.5t-17.5 -180 q0 -117 28.5 -208t79.5 -153t120 -94t150 -32q53 0 109 13.5t109 37t101 54.5t86 66l85 -122q-49 -45 -106 -84.5t-123 -69t-141.5 -47t-161.5 -17.5q-134 0 -233.5 49t-165 132.5t-98 195.5t-32.5 238z" />
<glyph unicode="D" horiz-adv-x="1415" d="M165 0l232 1493h409q170 0 289.5 -44.5t194.5 -123t109.5 -185t34.5 -230.5q0 -230 -64.5 -401t-180.5 -284t-278 -169t-357 -56h-389zM364 152h234q168 0 289.5 51t200 145t116 225t37.5 292q0 97 -24.5 184t-81 151.5t-148 102.5t-225.5 38h-214z" />
<glyph unicode="E" horiz-adv-x="1139" d="M165 0l232 1493h850l-24 -152h-675l-76 -498h648l-25 -152h-648l-83 -539h693l-24 -152h-868z" />
<glyph unicode="F" horiz-adv-x="1074" d="M165 0l232 1493h811l-24 -152h-636l-81 -527h608l-24 -152h-608l-103 -662h-175z" />
<glyph unicode="G" horiz-adv-x="1453" d="M216 597q0 140 31 263t86 225.5t131.5 183.5t167.5 136.5t193.5 85t210.5 29.5q81 0 151.5 -16t130.5 -44.5t109 -68t85 -86.5l-111 -125q-38 40 -84.5 72t-99 53.5t-108 33t-110.5 11.5q-93 0 -172.5 -27.5t-145.5 -77t-116.5 -117t-85.5 -147.5t-53 -169.5t-18 -181.5 q0 -121 31.5 -212.5t88.5 -153t137 -92.5t178 -31q47 0 92.5 7.5t89 22.5t84.5 38t77 54l56 365h-311l25 152h486l-95 -597q-58 -56 -121.5 -96t-132 -65.5t-140.5 -38t-147 -12.5q-137 0 -246 45t-185.5 127.5t-117.5 198t-41 255.5z" />
<glyph unicode="H" horiz-adv-x="1390" d="M165 0l232 1493h175l-102 -657h709l101 657h176l-232 -1493h-175l106 684h-709l-106 -684h-175z" />
<glyph unicode="I" horiz-adv-x="506" d="M165 0l232 1493h175l-232 -1493h-175z" />
<glyph unicode="J" horiz-adv-x="595" d="M-94 -410l27 169l25 1q64 3 115 19.5t88.5 47.5t61.5 76.5t33 106.5l229 1483h175l-225 -1453q-18 -114 -60.5 -198.5t-109 -140.5t-156 -83.5t-199.5 -27.5h-4z" />
<glyph unicode="K" horiz-adv-x="1224" d="M165 0l232 1493h175l-99 -638l684 638h223l-755 -700l582 -793h-220l-535 719l-112 -719h-175z" />
<glyph unicode="L" horiz-adv-x="1054" d="M165 0l232 1493h175l-208 -1341h662l-24 -152h-837z" />
<glyph unicode="M" horiz-adv-x="1702" d="M150 0l10 60l20 102l25 134l29 157l34 172l34 177l135 691h224l144 -794l25 -143q12 -67 20.5 -126.5t14.5 -112t8 -99.5h12q21 57 46.5 117t54.5 122l60 124l63 126l394 786h235l-84 -690l-22 -177l-21 -172l-20 -157l-17 -134l-13 -102q-6 -42 -9 -61h-176q3 17 10 66 l15 117l19 154l23 176l23 182l21 173q8 69 16 128t13 103q6 51 12 93l-12 2l-155 -318l-424 -876h-181l-148 857l-58 335l-9 -1l-20 -108l-23 -118l-27 -145l-32 -168l-32 -174l-31 -164l-27 -144l-20 -108q-8 -45 -10 -62h-169z" />
<glyph unicode="N" horiz-adv-x="1396" d="M165 0l232 1493h193l373 -856l47 -107l41 -97q19 -45 34 -84.5t24 -72.5l6 2q3 31 8 72l13 100l18.5 135.5t26.5 179.5l112 728h169l-232 -1493h-194l-375 855l-46 106l-41 97l-33 86q-15 39 -25 72l-7 -2l-5 -46q-3 -24 -6 -52q-4 -28 -8 -60l-9 -66l-11 -72l-11 -78 l-128 -840h-166z" />
<glyph unicode="O" d="M214 586q0 120 22.5 235.5t67.5 219t111 191.5t152.5 152t193.5 100t233 36q136 0 235.5 -53t164.5 -140t96 -197t31 -224q0 -139 -26 -262t-74.5 -227t-118 -186.5t-156.5 -140t-189.5 -88t-217.5 -30.5q-118 0 -214.5 45.5t-165.5 127t-107 194t-38 247.5zM406 628 q0 -114 24.5 -204t72 -153t117 -96t159.5 -33q89 0 165 26t137 73.5t107.5 114t77.5 146.5t47 171.5t16 189.5q0 99 -21.5 187.5t-67.5 155t-117.5 105.5t-170.5 39q-91 0 -166.5 -29.5t-136.5 -81t-106.5 -121t-76 -149.5t-45.5 -167.5t-15 -173.5z" />
<glyph unicode="P" horiz-adv-x="1149" d="M165 0l232 1493h395q125 0 211.5 -26.5t140 -73.5t77.5 -110.5t24 -137.5q0 -135 -48.5 -238.5t-132 -174t-195.5 -107t-239 -36.5h-199l-91 -589h-175zM455 741h219q87 0 157 23.5t119 69t75.5 112.5t26.5 155q0 53 -15.5 97t-51.5 76t-94 49.5t-143 17.5h-200z" />
<glyph unicode="Q" d="M215 581q0 148 28.5 275t80 231.5t123 185t159 135.5t187 83.5t206.5 28.5q117 0 213 -42t165 -120.5t107 -191.5t38 -255q0 -155 -28.5 -277t-74 -215t-102.5 -160.5t-112.5 -114t-105 -74t-80.5 -40.5l211 -215l-167 -117l-237 278l-19 -2q-10 -1 -20.5 -1.5t-22.5 -1 t-26 -0.5q-116 0 -212.5 42t-165.5 120.5t-107 191.5t-38 256zM413 631q0 -56 8 -115t26 -114.5t46.5 -105.5t69.5 -87t95.5 -58.5t124.5 -21.5q104 0 201.5 52t173 148.5t121 233t45.5 304.5q0 117 -28 209t-77.5 155.5t-117 97t-147.5 33.5q-68 0 -135 -23.5t-127 -67.5 t-111 -108t-88.5 -145t-58.5 -178.5t-21 -208.5z" />
<glyph unicode="R" horiz-adv-x="1233" d="M165 0l232 1493h388q113 0 196.5 -25.5t138 -70.5t81 -107t26.5 -134q0 -85 -27.5 -160.5t-76 -136t-114.5 -104t-144 -63.5l-2 -5q45 -13 80 -47t62 -80.5t47 -102t36 -110.5l99 -347h-196l-90 295q-21 69 -49.5 131t-68.5 109.5t-94 75t-127 27.5h-123l-99 -638h-175z M463 790h213q81 0 147.5 23t113 65t72 100t25.5 128q0 53 -20 96.5t-57.5 74t-92.5 47.5t-124 17h-192z" />
<glyph unicode="S" horiz-adv-x="1133" d="M124 149l106 137q29 -32 66 -59.5t80 -47.5t91 -31.5t100 -11.5q58 0 116.5 17t105 50t75.5 80t29 107q0 55 -24 99t-63.5 82t-89.5 73l-104 70l-102 73.5t-89.5 83t-63.5 101t-24 124.5q0 102 42.5 181t112 133t159.5 82t186 28q53 0 104 -10t96.5 -28t85.5 -43.5 t72 -56.5l-101 -141q-28 21 -65 42t-77.5 37t-82.5 26t-79 10q-49 0 -97 -12t-86 -37.5t-61.5 -65.5t-23.5 -96q0 -55 24 -99t63.5 -82.5t89.5 -73.5l102 -70l102.5 -73.5t90 -83t63.5 -100.5t24 -124q0 -109 -46.5 -195.5t-124 -147t-177.5 -92.5t-207 -32q-56 0 -112 12 t-107.5 35t-97 55.5t-81.5 74.5z" />
<glyph unicode="T" horiz-adv-x="1119" d="M241 1341l24 152h1062l-25 -152h-443l-213 -1341h-175l213 1341h-443z" />
<glyph unicode="U" horiz-adv-x="1378" d="M248 348q-5 43 -5 90q0 83 15 177l137 878h175l-134 -862q-14 -91 -14 -170q0 -12 1 -24q3 -90 33.5 -155.5t95.5 -102.5t174 -37q101 0 174 37.5t122.5 101.5t79 150t44.5 184l137 878h167l-133 -862q-25 -158 -69 -280.5t-117.5 -206.5t-181 -128t-259.5 -44 q-139 0 -232 45t-145 128.5t-65 202.5z" />
<glyph unicode="V" horiz-adv-x="1313" d="M279 1493h184l117 -629l43 -230l37 -202l26 -142l10 -54h3l12 24l35 69l50 103l64 130l74 146l77 156l311 629h188l-747 -1493h-199z" />
<glyph unicode="W" horiz-adv-x="1863" d="M322 1493h171l65 -922q3 -44 6 -99.5t5 -107.5t2.5 -93t-0.5 -57h5q4 15 19 59l34 97l39 109q20 55 36 94l345 920h235l65 -919q2 -26 4 -60.5t3.5 -71t2.5 -73.5t2 -68t1.5 -54.5t0.5 -32.5h2q3 10 11 34l20 58l25 71l28 76l26 71l21 55l344 914h176l-558 -1493h-250 l-40 613l-10 151l-9 144l-9 126q-4 58 -6.5 101t-4.5 67l-1 24h-2l-9 -24l-25 -67l-38 -101l-47 -126l-53 -144l-57 -151l-229 -613h-250z" />
<glyph unicode="X" horiz-adv-x="1294" d="M48 0l620 795l-329 698h204l262 -546l429 546h192l-551 -706l372 -787h-205l-305 634l-497 -634h-192z" />
<glyph unicode="Y" horiz-adv-x="1244" d="M279 1493h197l280 -684l485 684h201l-622 -852l-100 -641h-183l100 641z" />
<glyph unicode="Z" horiz-adv-x="1118" d="M102 0l24 152l878 1189h-674l24 152h872l-24 -152l-879 -1189h717l-24 -152h-914z" />
<glyph unicode="[" horiz-adv-x="702" d="M106 -270l283 1826h388l-22 -143h-221l-239 -1540h221l-22 -143h-388z" />
<glyph unicode="\" horiz-adv-x="700" d="M268 1493h156l220 -1683h-156z" />
<glyph unicode="]" horiz-adv-x="702" d="M123 -270l23 143h220l238 1540h-220l22 143h388l-284 -1826h-387z" />
<glyph unicode="^" horiz-adv-x="1538" d="M325 936l590 557h180l416 -557h-184l-348 395l-469 -395h-185z" />
<glyph unicode="_" horiz-adv-x="1110" d="M35 -171l23 143h986l-23 -143h-986z" />
<glyph unicode="`" horiz-adv-x="840" d="M467 1605l151 93l201 -340l-111 -70z" />
<glyph unicode="a" horiz-adv-x="1182" d="M179 405q0 99 16 193t47 176.5t77.5 151t107.5 118t137 77t166 27.5q41 0 84.5 -7t83 -22.5t73 -40t54.5 -58.5l31 100h130l-115 -616l-20 -504h-140l-4 226q-21 -34 -44 -65q-42 -57 -94.5 -99t-115 -66t-135.5 -24q-91 0 -155.5 34t-105 93t-59.5 137.5t-19 168.5z M362 451q0 -59 10 -117t33.5 -104t61.5 -74.5t94 -28.5q37 0 76.5 18.5t76.5 51t71.5 77t62.5 96t48 108.5q7 19 12 39l68 317q-18 40 -49.5 70t-71 50t-84 29.5t-89.5 9.5q-53 0 -98 -21.5t-80.5 -59.5t-62 -90t-44 -112t-26.5 -126t-9 -133z" />
<glyph unicode="b" horiz-adv-x="1155" d="M178 111l224 1445h165l-87 -556q27 34 66 61t82.5 46.5t87.5 30t83 10.5q91 0 157 -30t109 -85.5t64 -133.5t21 -174q0 -159 -39.5 -296.5t-116 -239t-190 -159.5t-260.5 -58q-49 0 -98.5 8.5t-97 26t-91 43.5t-79.5 61zM359 212q19 -20 46 -35.5t57.5 -26.5t63 -17 t64.5 -6q93 0 163.5 42.5t118.5 117t72.5 175.5t24.5 217q0 79 -15 138t-43 98t-69.5 58.5t-93.5 19.5q-47 0 -92.5 -20t-85.5 -52.5t-72.5 -73t-53.5 -80.5z" />
<glyph unicode="c" horiz-adv-x="989" d="M183 432q0 175 49.5 308.5t134.5 224t197 137t238 46.5q40 0 79 -5.5t75.5 -16t69.5 -26.5t61 -37l-72 -135q-50 30 -119 47.5t-139 17.5q-71 0 -141.5 -30.5t-126 -94t-90 -161.5t-34.5 -232q0 -75 17.5 -139t52 -110.5t87 -72.5t121.5 -26q32 0 68.5 5t72.5 14 t70.5 21.5t63.5 27.5l30 -131q-33 -20 -75.5 -37t-88.5 -29t-94 -19t-91 -7q-112 0 -191 38t-129 102t-73 147t-23 173z" />
<glyph unicode="d" horiz-adv-x="1182" d="M179 405q0 99 16 193t47 176.5t77.5 151t107.5 118t137 77t166 27.5q36 0 74.5 -7.5t73 -21.5t64 -34t47.5 -44l79 515h166l-163 -1052l-20 -504h-140l-5 233q-21 -38 -46 -72q-42 -57 -93.5 -99t-113.5 -66t-135 -24q-91 0 -155.5 34t-105 93t-59.5 137.5t-19 168.5z M362 451q0 -59 10 -117t33.5 -104t61.5 -74.5t94 -28.5q37 0 76 18.5t75.5 51t70 77t61 96t46.5 108.5q18 51 27 102l2 12l37 242q-18 40 -46.5 70t-64 50t-77 29.5t-86.5 9.5q-53 0 -98 -21.5t-80.5 -59.5t-62 -90t-44 -112t-26.5 -126t-9 -133z" />
<glyph unicode="e" horiz-adv-x="1060" d="M181 425q0 113 20.5 210.5t58 178t90 142.5t116.5 105t136.5 65t151.5 22q77 0 139.5 -22.5t106 -62t67 -93.5t23.5 -117q0 -73 -21 -128t-58 -94t-87 -64.5t-109 -40.5t-123.5 -20.5t-129.5 -5.5q-38 0 -73.5 2.5t-63.5 5.5q-33 4 -61 8q-5 -48 -5 -90q0 -38 4 -72 q8 -72 36 -123t76.5 -78t120.5 -27q44 0 87 5.5t84.5 16t82 25t80.5 31.5l39 -126q-40 -21 -87.5 -40.5t-101 -34t-111 -23t-117.5 -8.5q-100 0 -170.5 33.5t-115 93.5t-65 143t-20.5 183zM391 660l74 -8q32 -3 71 -5.5t74 -2.5q63 0 119 9t98 30t66.5 54.5t24.5 82.5 q0 42 -16 74.5t-43.5 54t-66 32.5t-83.5 11q-62 0 -112 -24t-89.5 -67.5t-68.5 -105t-48 -135.5z" />
<glyph unicode="f" horiz-adv-x="703" d="M192 975l23 145h195l13 84q16 99 48.5 168.5t83.5 114t120.5 64.5t159.5 20q32 0 67 -6t68 -19l-47 -129q-28 5 -61.5 8.5t-72.5 3.5q-42 0 -74.5 -11t-56.5 -34t-40 -60.5t-24 -89.5l-18 -114h282l-23 -145h-282l-155 -975h-166l155 975h-195z" />
<glyph unicode="g" horiz-adv-x="1153" d="M146 -381l59 154q22 -14 52 -27t65 -23t75 -16t83 -6q87 0 161.5 24t128.5 70.5t85 115.5t31 158v41q0 26 -1 57q0 22 -1 47q-17 -27 -36 -53q-43 -57 -96 -99t-115.5 -66t-135.5 -24q-91 0 -155.5 34t-105 93t-59.5 137.5t-19 168.5q0 99 16 193t47 176.5t77.5 151 t107.5 118t137 77t166 27.5q41 0 84.5 -7t83 -22.5t73 -40t54.5 -58.5l31 100h130l-125 -622q2 -91 4 -169q1 -33 1.5 -67t1 -64.5t1 -54.5t0.5 -38q0 -93 -22 -171t-62 -140t-96.5 -108.5t-125 -77.5t-147 -46.5t-163.5 -15.5q-47 0 -89 6t-78.5 15.5t-67.5 23t-55 28.5z M345 451q0 -59 10 -117t33.5 -104t61.5 -74.5t94 -28.5q37 0 76.5 18.5t77.5 51t73 77t63 96t48 108.5l2 4l75 352q-18 40 -49.5 70t-71 50t-84 29.5t-89.5 9.5q-53 0 -98 -21.5t-80.5 -59.5t-62 -90t-44 -112t-26.5 -126t-9 -133z" />
<glyph unicode="h" horiz-adv-x="1172" d="M161 0l241 1556h165l-88 -566q42 42 82 71.5t80.5 49t83 28.5t89.5 9q101 0 166.5 -33t101 -92t42.5 -141q2 -26 2 -54q0 -60 -10 -127l-108 -701h-165l102 664q10 61 10 117v10q-1 60 -19.5 105t-59 71t-109.5 26q-50 0 -99 -20t-92 -52.5t-77 -73t-55 -80.5l-119 -767 h-164z" />
<glyph unicode="i" horiz-adv-x="485" d="M160 0l173 1120h166l-174 -1120h-165zM367 1407q0 70 25.5 108t89.5 38q42 0 62 -21t20 -63q0 -72 -27.5 -107.5t-90.5 -35.5q-41 0 -60 19.5t-19 61.5z" />
<glyph unicode="j" horiz-adv-x="485" d="M-105 -426l4 143q49 2 91.5 16.5t75 43.5t55 73t31.5 105l180 1165h165l-176 -1141q-15 -93 -50 -168t-89 -127.5t-126 -81t-161 -28.5zM366 1407q0 70 25.5 108t90.5 38q41 0 61 -21t20 -63q0 -72 -27 -107.5t-90 -35.5q-42 0 -61 19.5t-19 61.5z" />
<glyph unicode="k" horiz-adv-x="1024" d="M161 0l241 1556h165l-139 -908l169 157l74 68l80 77q40 40 77 83.5t64 86.5h198q-36 -56 -74 -103.5t-78.5 -91t-84.5 -85.5l-92 -87l-169 -157l431 -596h-218l-395 547l-85 -547h-164z" />
<glyph unicode="l" horiz-adv-x="486" d="M161 0l241 1556h165l-242 -1556h-164z" />
<glyph unicode="m" horiz-adv-x="1770" d="M161 0l173 1120h129l3 -136q63 78 149 121t179 43q58 0 103.5 -13t79.5 -37t56.5 -58t34.5 -77q37 45 77 79.5t85 58t95.5 35.5t108.5 12q91 0 152.5 -28.5t96.5 -82t43 -131.5q3 -28 3 -58q0 -54 -9 -117l-113 -731h-165l108 701q6 41 8 79q1 14 1 29q0 21 -2 41 q-4 33 -15.5 59.5t-31.5 45t-50 28.5t-71 10q-48 0 -93.5 -20t-85.5 -52.5t-72 -72.5t-53 -80l-119 -768h-165l109 701q6 40 8 77q1 12 1 23q0 25 -4 47q-4 33 -15.5 59.5t-31.5 45.5t-49.5 29.5t-70.5 10.5q-44 0 -89.5 -20t-86.5 -52.5t-74.5 -73t-53.5 -80.5l-119 -767 h-164z" />
<glyph unicode="n" horiz-adv-x="1186" d="M161 0l173 1120h131l2 -136q28 33 65.5 62.5t82.5 52t97 36t109 13.5q103 0 170.5 -33t103.5 -93t43 -144q2 -25 2 -52q0 -62 -11 -132l-107 -694h-166l103 664q9 61 9 116v11q-1 60 -20.5 104.5t-61 70.5t-111.5 26q-52 0 -101.5 -18.5t-93 -49t-78.5 -71.5t-58 -86 l-119 -767h-164z" />
<glyph unicode="o" horiz-adv-x="1163" d="M182 423q0 174 44 309t122 227.5t186.5 140.5t237.5 48q85 0 156 -29.5t122 -86.5t79 -141.5t28 -193.5q0 -174 -43.5 -309t-121.5 -227.5t-186 -140.5t-236 -48q-86 0 -157.5 29.5t-122.5 86.5t-79.5 141t-28.5 194zM363 447q0 -83 17 -143t49 -99.5t79 -58.5t106 -19 q75 0 141.5 33t115.5 100.5t77.5 170t28.5 242.5q0 165 -66 242.5t-184 77.5q-76 0 -142 -32.5t-115.5 -100t-78 -170.5t-28.5 -243z" />
<glyph unicode="p" horiz-adv-x="1153" d="M93 -426l239 1546h131l3 -136q27 38 67.5 68.5t86.5 51.5t92.5 32.5t84.5 11.5q91 0 157 -30t109 -85.5t64 -133.5t21 -174q0 -159 -39.5 -296.5t-116 -239t-190 -159.5t-260.5 -58q-54 0 -109 10t-108 30l-67 -438h-165zM353 191q53 -33 112.5 -48.5t122.5 -15.5 q93 0 163.5 42.5t118.5 117t72.5 175.5t24.5 217q0 79 -15 138t-43 98t-69.5 58.5t-93.5 19.5q-47 0 -92.5 -20t-85.5 -52.5t-72.5 -73t-53.5 -80.5z" />
<glyph unicode="q" horiz-adv-x="1152" d="M181 405q0 99 16 193t47 176.5t77.5 151t107.5 118t137 77t166 27.5q41 0 81 -7t76 -22.5t66.5 -40t51.5 -58.5l31 100h130l-239 -1546h-166l82 536q-31 -32 -69 -57.5t-80 -43.5t-87 -27.5t-90 -9.5q-91 0 -155 34t-104.5 93t-59.5 137.5t-19 168.5zM365 453 q0 -60 10 -118t33.5 -104.5t61 -75t93.5 -28.5q45 0 89.5 13.5t85 37t76 55.5t62.5 69l82 532q-18 40 -46.5 70t-64 50t-77 29.5t-86.5 9.5q-53 0 -97.5 -21.5t-80 -59.5t-62 -89.5t-44 -111.5t-26.5 -126t-9 -132z" />
<glyph unicode="r" horiz-adv-x="728" d="M161 0l173 1120h130l2 -148q36 43 79.5 76t90 55.5t94 33.5t90.5 11q6 0 15 -0.5t19 -1.5t19 -2t14 -2l-52 -198q-13 5 -29.5 7t-30.5 2q-53 0 -99 -9t-86.5 -29t-76.5 -52.5t-68 -79.5l-120 -783h-164z" />
<glyph unicode="s" horiz-adv-x="929" d="M105 88l81 137q30 -22 63 -40t67 -31t69 -20t71 -7q47 0 90 13t76 38t52.5 60t19.5 79q0 46 -32.5 82.5t-81 69.5t-105 66t-105 73t-81 89.5t-32.5 115.5q0 77 31.5 139t87 105.5t131 67t164.5 23.5q43 0 86.5 -8t83.5 -21t74.5 -31t60.5 -37l-73 -134 q-57 35 -120.5 55.5t-141.5 20.5q-38 0 -74 -10t-64 -29.5t-45 -48.5t-17 -66q0 -46 32.5 -82.5t81 -69.5t105 -66t105 -73t81 -89.5t32.5 -115.5q0 -87 -36 -155.5t-97.5 -116.5t-143.5 -73.5t-175 -25.5q-46 0 -90 7.5t-84.5 22.5t-77.5 36.5t-69 49.5z" />
<glyph unicode="t" horiz-adv-x="774" d="M201 975l18 112l189 33l70 318h145l-50 -318h330l-22 -145h-331l-95 -622q-9 -55 -9 -97q0 -40 12 -68q12 -29 38 -45t71 -16q15 0 34.5 2t40 5.5t39.5 8t34 9.5l26 -127q-21 -14 -48 -23.5t-55.5 -16.5t-56.5 -10t-50 -3q-80 0 -133 24t-82 70.5t-36 115.5q-2 22 -2 46 q0 52 10 114l97 633h-184z" />
<glyph unicode="u" horiz-adv-x="1176" d="M214 208q-8 39 -8 84.5t8 98.5l112 729h163l-105 -699q-7 -46 -7 -85q0 -26 3 -48q8 -56 33 -91.5t66 -52.5t95 -17q48 0 94.5 13.5t88.5 37t77.5 55.5t62.5 69l126 818h166l-173 -1120h-153l12 120q-24 -31 -61.5 -58t-83.5 -47t-97 -31.5t-102 -11.5q-81 0 -147 26 t-109.5 79t-60.5 131z" />
<glyph unicode="v" horiz-adv-x="1062" d="M246 1120h180l110 -651l14 -83q7 -39 12 -75t9 -68t5 -61h4l143 306q37 78 75 168l71 177q33 87 58.5 162.5t36.5 124.5h166q-18 -81 -42.5 -159.5t-55 -155.5t-65.5 -153.5t-74 -153.5l-251 -498h-204z" />
<glyph unicode="w" horiz-adv-x="1545" d="M251 1120h171l47 -557q4 -39 7.5 -94.5t5.5 -111t1.5 -103t-3.5 -68.5h6q2 14 10 40l19 59q11 33 25 70l27 73l27 70l23 58l225 564h235l47 -557l4 -60l4 -71l4 -75q2 -38 2 -71t-1 -59.5t-3 -40.5h6l157 408q25 66 49 139t43 143.5t33 134t20 109.5h162 q-11 -66 -28.5 -141t-42 -157t-56 -169.5t-69.5 -177.5l-199 -475h-209l-59 667q-3 29 -6 68t-5 79.5t-2.5 78.5t1.5 65h-6q-7 -28 -21 -70l-30 -83l-30 -79l-21 -53l-269 -673h-205z" />
<glyph unicode="x" horiz-adv-x="1098" d="M53 0l479 578l-282 542h201l209 -403l334 403h201l-450 -544l295 -576h-200l-226 436l-360 -436h-201z" />
<glyph unicode="y" horiz-adv-x="1066" d="M34 -425l61 141q17 -7 40 -11.5t40 -4.5q36 0 78 32t87.5 89t93.5 135q5 8 10 17l-199 1147h172l112 -673l14 -89q7 -45 11.5 -85t5.5 -72q1 -13 1 -22l71 139l99 206l72 160q34 78 63 153.5t52.5 146.5t40.5 136h174q-24 -82 -49.5 -158.5t-54.5 -152t-62 -151 t-71 -154.5l-122 -243q-61 -119 -124 -225.5t-126.5 -196.5t-127 -155.5t-127 -102t-124.5 -36.5q-15 0 -30 2t-29 6t-27 9.5t-25 12.5z" />
<glyph unicode="z" horiz-adv-x="940" d="M91 0l23 145l679 830h-528l23 145h730l-23 -145l-681 -830h568l-23 -145h-768z" />
<glyph unicode="{" horiz-adv-x="1132" d="M288 541l22 143h57q76 0 126 22.5t82 60.5t49 88.5t26 106.5q8 57 13 114.5t13 111.5q15 99 39.5 166.5t64.5 109.5t99 62.5t145 26.5q21 2 44 2.5t49 0.5h56l-21 -143h-63q-71 0 -114.5 -11.5t-69.5 -38t-39 -70.5t-23 -109q-8 -48 -13 -103.5t-13 -114.5 q-9 -59 -25 -115.5t-44 -104.5t-71.5 -83.5t-108.5 -50.5q44 -12 73 -38t46 -60t24 -73.5t7 -78.5q0 -66 -10 -118t-21.5 -99.5t-21.5 -94t-10 -101.5q0 -38 9 -64t30.5 -43t57 -24.5t89.5 -7.5h62l-23 -144h-56q-26 0 -49 0.5t-43 2.5q-67 5 -114 20.5t-77 44.5t-43.5 73.5 t-13.5 107.5q0 54 6.5 99.5t15.5 86.5t18.5 80t15.5 79q7 50 7 96v11q-1 51 -20.5 89.5t-62.5 61.5t-119 23h-57z" />
<glyph unicode="|" horiz-adv-x="566" d="M128 -483l318 2048h156l-318 -2048h-156z" />
<glyph unicode="}" horiz-adv-x="1133" d="M149 -334l23 144h64q71 0 114.5 11.5t69 38t38 70.5t22.5 109q8 48 13 103.5t15 114.5q9 58 24 115t43 105t71.5 83.5t108.5 51.5q-50 12 -81 39t-47 63.5t-20 80.5q-2 20 -2 41q0 25 3 52q3 49 13 97l20 95q11 48 19 96t8 97q0 38 -8.5 64.5t-29.5 43.5t-56.5 24.5 t-88.5 7.5h-65l22 143h58q25 0 48 -0.5t44 -2.5q67 -5 113.5 -20.5t76 -44.5t43 -73.5t13.5 -107.5q0 -55 -6.5 -100.5t-15 -86.5t-18 -79.5t-15.5 -77.5q-8 -50 -8 -96v-10q1 -51 20.5 -89.5t63 -61t119.5 -22.5h57l-21 -143h-58q-76 0 -126.5 -23t-82 -61.5t-48 -89.5 t-25.5 -107q-9 -57 -14 -114t-13 -111q-14 -87 -33.5 -149.5t-50 -104.5t-74.5 -66.5t-106 -36.5q-37 -7 -81 -9.5t-95 -2.5h-58z" />
<glyph unicode="~" horiz-adv-x="1539" d="M250 467l28 178q43 31 87.5 58t91.5 47t96 31.5t101 11.5q45 0 86 -10t80 -25t77 -33t76.5 -33t78.5 -25t83 -10q48 0 95 13.5t92 36t87.5 51.5t81.5 59l-28 -178q-44 -32 -88.5 -58.5t-91 -46.5t-95.5 -31t-100 -11q-45 0 -86.5 10t-80 25t-76 32.5t-76 32.5t-79 25 t-84.5 10q-49 0 -96 -13.5t-92 -35.5t-87 -51t-81 -60z" />
<glyph unicode="&#xa1;" horiz-adv-x="618" d="M149 -16l79 516q7 45 17 97l19 106l21 106l19 100l17 85l13 62h136q-3 -24 -7 -62l-9 -85l-11 -100l-12 -106l-14 -106t-14 -97l-79 -516h-175zM335 1334q0 41 8 71t25 49.5t43 29t62 9.5q47 0 69.5 -22t22.5 -70q0 -79 -30.5 -121.5t-102.5 -42.5q-48 0 -72.5 24 t-24.5 73z" />
<glyph unicode="&#xa2;" horiz-adv-x="1026" d="M163 437q0 174 54 307t145.5 223t211.5 135q64 24 132 36l35 222h161l-34 -213q25 -2 48 -5q44 -5 84 -15.5t76.5 -26.5t68.5 -37l-72 -135q-56 30 -134 47q-47 11 -96 15l-136 -862q18 1 36 4q41 5 81.5 14t79 21.5t71.5 27.5l30 -131q-36 -20 -82.5 -37t-97.5 -29 t-103 -19l-40 -4l-35 -223h-161l36 227q-62 10 -112 31q-87 39 -142 103.5t-80 148.5t-25 175zM347 484q0 -77 20 -142.5t60.5 -113t99.5 -74.5q11 -5 21 -9l133 835q-26 -7 -53 -17q-77 -30 -139.5 -92t-102 -158t-39.5 -229z" />
<glyph unicode="&#xa3;" horiz-adv-x="1221" d="M139 0l24 152q82 7 133 54t83 121.5t50 168.5t33 195h-225l25 152h225l22 150q19 120 55.5 217.5t94.5 166t139.5 106t190.5 37.5q44 0 88 -7t84.5 -19.5t76.5 -29t63 -34.5l-105 -147q-24 12 -51 23t-58 19.5t-68 13.5t-80 5q-55 0 -96 -18.5t-71 -57.5t-50 -99.5 t-33 -145.5l-27 -180h433l-25 -152h-433q-19 -125 -40.5 -214.5t-45.5 -153t-51.5 -104.5t-57.5 -67h650l-24 -152h-929z" />
<glyph unicode="&#xa4;" horiz-adv-x="1220" d="M127 197l224 206q-17 42 -27 92.5t-10 95.5q0 79 29 149t83 137l-160 206l124 115l159 -207q54 36 112 56t118 20q61 0 113 -20.5t96 -53.5l223 209l88 -115l-223 -206q9 -20 15.5 -42.5t11 -46.5t7 -47.5t2.5 -45.5q0 -85 -29.5 -155.5t-84.5 -137.5l161 -207l-122 -113 l-160 207q-54 -35 -111.5 -56.5t-118.5 -21.5q-60 0 -113 21t-97 53l-225 -207zM459 606q0 -45 14.5 -87t41.5 -74.5t66.5 -52t89.5 -19.5q61 0 115 26.5t94.5 69.5t63.5 98t23 112q0 45 -14.5 86.5t-42 73.5t-67 51t-89.5 19q-61 0 -114.5 -25.5t-93.5 -68t-63.5 -97 t-23.5 -112.5z" />
<glyph unicode="&#xa5;" horiz-adv-x="1221" d="M210 455l20 123h383l8 51l-56 155h-304l20 123h242l-202 586h170l246 -700l458 700h171l-383 -586h242l-19 -123h-303l-102 -155l-8 -51h381l-19 -123h-380l-71 -455h-181l70 455h-383z" />
<glyph unicode="&#xa6;" horiz-adv-x="566" d="M149 -350l118 758h156l-118 -758h-156zM297 674l118 758h156l-118 -758h-156z" />
<glyph unicode="&#xa7;" horiz-adv-x="960" d="M147 -137l26 164q28 -15 58.5 -29t63 -25t66.5 -17.5t69 -6.5q45 0 86 10t72.5 31.5t50 55.5t18.5 81q0 37 -19.5 69t-51.5 61t-72 57l-84 56q-42 30 -82.5 62t-72.5 70t-51.5 82.5t-19.5 99.5q0 104 57 186t158 136q-38 36 -57.5 84.5t-19.5 100.5q0 81 32.5 142.5 t86.5 103t124 62.5t144 21q73 0 141 -15.5t131 -42.5l-26 -164q-27 15 -56.5 29t-60.5 25t-64 17.5t-67 6.5q-42 0 -81 -9.5t-69 -30t-48 -52t-18 -74.5q0 -35 19.5 -65t51.5 -58t73 -56l84 -57q42 -29 83 -61.5t73 -70.5t51.5 -83t19.5 -99q0 -105 -59 -184.5t-158 -135.5 q36 -38 57 -86.5t21 -102.5q0 -83 -31.5 -147t-85.5 -108.5t-127 -67.5t-156 -23q-75 0 -144.5 16t-135.5 42zM358 734q0 -54 34 -102t82.5 -89t101.5 -74l92 -59q26 18 52 39.5t46.5 46.5t33 53.5t12.5 60.5q0 35 -16 68.5t-42 64.5t-59.5 59t-68 52.5l-66.5 45.5l-58 36 q-26 -19 -52 -40.5t-46.5 -46.5t-33 -53.5t-12.5 -61.5z" />
<glyph unicode="&#xa8;" horiz-adv-x="840" d="M362 1459q0 69 26 105.5t89 36.5q39 0 59 -21t20 -63q0 -70 -28 -104.5t-87 -34.5q-41 0 -60 19.5t-19 61.5zM756 1459q0 69 26 105.5t89 36.5q39 0 59 -20.5t20 -62.5q0 -70 -27.5 -105t-87.5 -35q-41 0 -60 19.5t-19 61.5z" />
<glyph unicode="&#xa9;" horiz-adv-x="1812" d="M287 613q0 120 28.5 233.5t81.5 213t129 182.5t170.5 142.5t206.5 92.5t237 33q95 0 177 -22t150.5 -62.5t122 -98t90 -129t56 -156t19.5 -177.5q0 -119 -29 -231.5t-83 -211.5t-131 -181t-172 -141t-206.5 -92t-235.5 -33q-143 0 -256.5 48.5t-192.5 134t-120.5 202.5 t-41.5 253zM418 637q0 -119 36.5 -217.5t102.5 -169t159 -109.5t206 -39q147 0 275 54.5t223 152.5t149.5 234t54.5 300q0 117 -35.5 216t-101.5 170.5t-160 112t-211 40.5q-112 0 -207 -29t-172.5 -80t-137 -121t-100 -153t-61 -175t-20.5 -187zM590 655q0 132 42 235 t114 174t169.5 108t208.5 37q28 0 60.5 -4.5t66 -13.5t65.5 -21.5t59 -28.5l-70 -127q-44 24 -102.5 37.5t-118.5 13.5q-61 0 -118 -24.5t-101.5 -72.5t-71.5 -119t-27 -164q0 -66 17 -115t48 -81t75 -48t98 -16q24 0 53 3.5t60 10.5t62 17t58 22l29 -122q-29 -16 -66 -29.5 t-77.5 -23.5t-82 -15.5t-79.5 -5.5q-81 0 -149 25t-117.5 73t-77 117.5t-27.5 157.5z" />
<glyph unicode="&#xaa;" horiz-adv-x="883" d="M199 461l21 130h629l-21 -130h-629zM239 890q0 84 35 144.5t99 100t154.5 58.5t201.5 19h56q4 23 4 42t-4 34q-6 32 -27 52.5t-56.5 30t-87.5 9.5q-24 0 -52.5 -3t-59.5 -9t-61.5 -14.5t-58.5 -19.5l-14 124q37 15 75 26.5t75.5 19.5t73.5 12.5t70 4.5q79 0 137.5 -19.5 t94 -61.5t46.5 -108q6 -30 6 -65q0 -43 -8 -95l-71 -455h-158l2 15q2 15 5 33q4 21 8 49q-24 -29 -55.5 -50.5t-67 -36.5t-72 -22.5t-69.5 -7.5q-51 0 -92 14.5t-69.5 40t-44 61t-15.5 77.5zM410 934q0 -42 25.5 -69t73.5 -27q42 0 84 16t76.5 44.5t59 66t31.5 81.5l5 31 h-80q-131 0 -203 -32.5t-72 -110.5z" />
<glyph unicode="&#xab;" horiz-adv-x="1224" d="M174 583l545 482l85 -104l-383 -373l264 -385l-120 -82zM731 581l504 454l87 -103l-344 -346l236 -356l-120 -82z" />
<glyph unicode="&#xac;" horiz-adv-x="1539" d="M286 692l27 170h1186l-90 -575h-154l64 405h-1033z" />
<glyph unicode="&#xad;" horiz-adv-x="692" d="M175 479l25 164h497l-26 -164h-496z" />
<glyph unicode="&#xae;" horiz-adv-x="1714" d="M424 1010q0 100 23.5 194t67.5 176.5t106.5 151t141.5 117.5t172.5 76.5t198.5 27.5q79 0 148 -18.5t125.5 -52.5t100.5 -82t74 -107.5t45.5 -128.5t15.5 -144q0 -99 -24 -192t-69 -175t-108.5 -150t-142.5 -116.5t-172 -75.5t-195 -27q-119 0 -213 39.5t-159.5 110 t-100.5 167t-35 209.5zM548 1031q0 -96 29 -174.5t82.5 -134.5t128.5 -87t167 -31q119 0 222 44t179 122.5t119.5 188t43.5 240.5q0 93 -28 172.5t-80.5 137t-128.5 90.5t-172 33q-135 0 -239.5 -50t-176.5 -133.5t-109 -192t-37 -225.5zM733 799l104 675h247 q112 0 172.5 -38t60.5 -123q0 -37 -10 -68t-30.5 -56t-50.5 -43t-69 -30q-2 0 -3 -1l-3 -1q19 -5 36.5 -16.5t32 -28.5t26.5 -40.5t21 -53.5l55 -176h-146l-58 169q-9 28 -21.5 47t-29 29.5t-37.5 15t-49 4.5h-71l-41 -265h-136zM926 1170h111q27 0 51.5 9t42.5 24t28.5 35 t10.5 42q0 45 -30 65.5t-86 20.5h-98z" />
<glyph unicode="&#xaf;" horiz-adv-x="840" d="M402 1386l20 130h571l-20 -130h-571z" />
<glyph unicode="&#xb0;" horiz-adv-x="909" d="M264 1159q0 78 34 146t90 118.5t129 79.5t151 29q66 0 121.5 -22t95 -61t62 -91.5t22.5 -113.5q0 -78 -34 -146.5t-90.5 -119t-129 -79.5t-150.5 -29q-65 0 -120 22.5t-95.5 61.5t-63 92t-22.5 113zM418 1177q0 -34 12.5 -64t35 -52.5t53 -35.5t67.5 -13q44 0 85 17 t72.5 46t50.5 67.5t19 82.5q0 34 -12.5 64t-35 52.5t-53.5 35.5t-68 13q-44 0 -84.5 -17t-72 -46t-50.5 -67.5t-19 -82.5z" />
<glyph unicode="&#xb1;" horiz-adv-x="1536" d="M373 725l24 154h431l62 399h155l-62 -399h433l-24 -154h-433l-68 -441h-155l68 441h-431z" />
<glyph unicode="&#xb2;" horiz-adv-x="682" d="M180 668l22 140l202 178q62 55 101.5 94t62 70t31 58.5t8.5 60.5q0 48 -26.5 76t-81.5 28q-46 0 -98 -10.5t-98 -33.5l-14 136q27 11 59 21t65 17t65.5 11t60.5 4q63 0 110 -14.5t77.5 -41t46 -64.5t15.5 -84q0 -49 -10.5 -90t-38.5 -83.5t-77 -91t-125 -113.5l-147 -128 h349l-21 -140h-538z" />
<glyph unicode="&#xb3;" horiz-adv-x="648" d="M175 686l62 148q39 -16 87.5 -26t95.5 -10q70 0 110 33.5t40 90.5q0 25 -11.5 44t-34 32t-56.5 19.5t-79 6.5h-57l22 140h69q44 0 78 11t57.5 29t36 42t12.5 51q0 35 -26 56t-76 21q-46 0 -88.5 -9.5t-80.5 -23.5l-17 130q23 10 50.5 19t57.5 15.5t60 10t57 3.5 q122 0 182 -43t60 -127q0 -41 -13 -77t-36.5 -65.5t-54.5 -51.5t-67 -34q31 -8 56 -24t42.5 -38t26.5 -48t9 -54q0 -69 -25.5 -125t-73.5 -96t-116 -61.5t-153 -21.5q-58 0 -104.5 7.5t-101.5 25.5z" />
<glyph unicode="&#xb4;" horiz-adv-x="840" d="M429 1368l307 343l135 -101l-343 -322z" />
<glyph unicode="&#xb5;" horiz-adv-x="1163" d="M59 -426l245 1546h165l-104 -651q-8 -53 -9.5 -98.5t5.5 -83t22.5 -66.5t40.5 -49t61 -30.5t83 -10.5q79 0 137 29.5t97.5 78.5t62.5 112.5t34 131.5l101 637h167l-137 -862q-6 -38 -6.5 -62.5t4.5 -38.5t15 -20t25 -6q22 0 37 4.5t26 11.5l4 -127q-17 -9 -36.5 -18 t-40 -16t-41.5 -11t-39 -4q-37 0 -61.5 12.5t-38.5 34t-20 50.5t-7 61q-29 -38 -66.5 -67t-80 -49t-89 -30.5t-91.5 -10.5t-80 8t-61.5 22t-46 34t-32.5 43l-80 -505h-165z" />
<glyph unicode="&#xb6;" horiz-adv-x="1170" d="M300 1002q0 111 39 201.5t108 155t162.5 99.5t201.5 35h412l-261 -1690h-129l243 1567h-176l-243 -1567h-131l132 846q-83 7 -149.5 34t-113 72t-71 107.5t-24.5 139.5z" />
<glyph unicode="&#xb7;" horiz-adv-x="507" d="M261 677q0 37 6.5 65.5t21 48t38 29.5t56.5 10q43 0 64.5 -22t21.5 -67q0 -75 -29 -112.5t-94 -37.5q-44 0 -64.5 20.5t-20.5 65.5z" />
<glyph unicode="&#xb8;" horiz-adv-x="839" d="M154 -485q28 34 54 69.5t47.5 75t37.5 83.5t24 96h172q-9 -60 -33 -112.5t-57.5 -100.5t-73.5 -91.5t-82 -83.5z" />
<glyph unicode="&#xb9;" horiz-adv-x="678" d="M230 668l21 140h174l84 545l-193 -74l-3 137l223 87h164l-107 -695h158l-22 -140h-499z" />
<glyph unicode="&#xba;" horiz-adv-x="843" d="M189 461l21 130h628l-21 -130h-628zM231 1021q0 116 31.5 208.5t89 157.5t138 100t178.5 35q66 0 119.5 -22.5t91.5 -64.5t58.5 -102t20.5 -134q0 -117 -31.5 -209.5t-89 -157.5t-138 -99.5t-177.5 -34.5q-67 0 -120.5 22.5t-91.5 64.5t-58.5 102t-20.5 134zM398 1044 q0 -108 43 -157.5t121 -49.5q45 0 87 20.5t73.5 62t50.5 105.5t19 151q0 108 -44 157.5t-121 49.5q-45 0 -86.5 -20.5t-73 -62.5t-50.5 -105.5t-19 -150.5z" />
<glyph unicode="&#xbb;" horiz-adv-x="1224" d="M95 254l344 346l-236 356l120 82l363 -433l-504 -454zM613 225l383 373l-264 385l120 82l391 -462l-545 -482z" />
<glyph unicode="&#xbc;" horiz-adv-x="1838" d="M230 668l21 140h174l84 545l-193 -74l-3 137l223 87h164l-107 -695h158l-22 -140h-499zM274 9l1304 1534l122 -82l-1304 -1534zM1103 179l27 170l412 486h201l-80 -515h129l-23 -141h-128l-28 -179h-167l27 179h-370zM1279 320h217l49 321z" />
<glyph unicode="&#xbd;" horiz-adv-x="1827" d="M230 668l21 140h174l84 545l-193 -74l-3 137l223 87h164l-107 -695h158l-22 -140h-499zM274 9l1304 1534l122 -82l-1304 -1534zM1129 0l22 140l202 178q63 55 102.5 94t62 70t31 58.5t8.5 60.5q0 48 -27 76t-81 28q-46 0 -98.5 -10.5t-98.5 -33.5l-15 136q27 11 59.5 21 t66 17t66 11t59.5 4q63 0 109.5 -14.5t77.5 -41t46 -64.5t15 -84q0 -49 -10.5 -90t-38.5 -83t-76.5 -91t-124.5 -114l-149 -128h351l-22 -140h-537z" />
<glyph unicode="&#xbe;" horiz-adv-x="1852" d="M208 686l62 148q40 -16 88.5 -26t95.5 -10q70 0 109.5 33.5t39.5 90.5q0 51 -45 75.5t-136 26.5h-57l22 140h70q43 0 77.5 11t57.5 29t35.5 42t12.5 51q0 35 -26 56t-75 21q-47 0 -89 -9.5t-81 -23.5l-16 130q22 10 50 19t57.5 15.5t59.5 10t57 3.5q123 0 183 -42.5 t60 -127.5q0 -41 -13.5 -77t-36.5 -65.5t-54.5 -51.5t-67.5 -34q31 -8 56 -24t42.5 -38t26.5 -48t9 -54q0 -69 -25.5 -125t-73.5 -96t-116 -61.5t-153 -21.5q-58 0 -104.5 7.5t-101.5 25.5zM274 9l1304 1534l122 -82l-1304 -1534zM1103 179l27 170l412 486h201l-80 -515h129 l-23 -141h-128l-28 -179h-167l27 179h-370zM1279 320h217l49 321z" />
<glyph unicode="&#xbf;" horiz-adv-x="948" d="M106 263q0 80 29.5 141.5t74 112.5t98 96t102 92.5t85 102t47.5 123.5q2 15 5 34l7 40l6 41.5t5 36.5h176l-5 -35q-2 -15 -4.5 -28t-4.5 -26.5t-5 -31.5q-15 -96 -52 -166t-84 -124.5t-98 -97t-93 -82t-69 -81.5t-27 -95q0 -80 52 -120.5t142 -40.5q30 0 60.5 3.5 t63.5 10.5t70 19t81 28l28 -150q-44 -20 -88.5 -35.5t-89 -26t-87.5 -15.5t-84 -5q-79 0 -142 18.5t-107.5 54t-68 87.5t-23.5 119zM586 1361q0 82 33 120.5t105 38.5q47 0 69.5 -22t22.5 -70q0 -79 -30.5 -121.5t-101.5 -42.5q-49 0 -73.5 24t-24.5 73z" />
<glyph unicode="&#xc0;" horiz-adv-x="1322" d="M40 0l748 1493h209l283 -1493h-191l-66 391h-603l-187 -391h-193zM499 543h491l-131 751zM576 1782l125 127l352 -209l-84 -88z" />
<glyph unicode="&#xc1;" horiz-adv-x="1322" d="M40 0l748 1493h209l283 -1493h-191l-66 391h-603l-187 -391h-193zM499 543h491l-131 751zM798 1700l417 209l108 -131l-446 -170z" />
<glyph unicode="&#xc2;" horiz-adv-x="1322" d="M40 0l748 1493h209l283 -1493h-191l-66 391h-603l-187 -391h-193zM499 543h491l-131 751zM641 1691l325 213l261 -207l-79 -90l-203 128l-234 -128z" />
<glyph unicode="&#xc3;" horiz-adv-x="1322" d="M40 0l748 1493h209l283 -1493h-191l-66 391h-603l-187 -391h-193zM499 543h491l-131 751zM595 1704q18 31 43.5 61.5t57 54.5t67.5 38.5t77 14.5q49 0 81.5 -14.5t58 -32.5t49.5 -32.5t58 -14.5q19 0 36 7.5t31.5 20.5t27 30.5t23.5 36.5l85 -59q-24 -45 -50 -77.5 t-56 -53t-64 -30.5t-72 -10q-54 0 -88 14.5t-59 31.5l-47 32q-22 15 -52 15q-21 0 -37.5 -8.5t-31.5 -22t-29 -30.5l-26 -35z" />
<glyph unicode="&#xc4;" horiz-adv-x="1322" d="M40 0l748 1493h209l283 -1493h-191l-66 391h-603l-187 -391h-193zM499 543h491l-131 751zM627 1700q0 69 25.5 105t90.5 36q42 0 62.5 -20.5t20.5 -62.5q0 -69 -28 -103t-89 -34q-42 0 -62 19t-20 60zM1049 1700q0 68 25.5 104.5t90.5 36.5q41 0 61.5 -20.5t20.5 -62.5 q0 -70 -29 -103.5t-87 -33.5q-42 0 -62 19t-20 60z" />
<glyph unicode="&#xc5;" horiz-adv-x="1322" d="M40 0l748 1493h4q-13 9 -24 20q-23 24 -35.5 56t-12.5 70q0 47 18.5 90.5t51.5 77t77.5 53.5t97.5 20q45 0 77.5 -15t53.5 -39t31 -54.5t10 -61.5q0 -54 -18.5 -99t-51.5 -78q-29 -30 -69 -48l282 -1485h-191l-66 391h-603l-187 -391h-193zM499 543h491l-131 751z M833 1660q0 -42 24.5 -63.5t60.5 -21.5q45 0 75.5 29t30.5 80q0 16 -5 31t-15 27t-25 19.5t-35 7.5q-48 0 -79.5 -30t-31.5 -79z" />
<glyph unicode="&#xc6;" horiz-adv-x="1914" d="M41 0l1076 1493h906l-24 -152h-675l-76 -498h647l-25 -152h-647l-83 -539h693l-24 -152h-869l61 391h-500l-272 -391h-188zM613 543h412l116 751z" />
<glyph unicode="&#xc7;" horiz-adv-x="1320" d="M218 587q0 124 25 241.5t72.5 221t116 190t155.5 149t190 97t221 34.5q69 0 133 -16.5t120.5 -45.5t103 -68t79.5 -83l-110 -127q-36 40 -77.5 71.5t-88 53.5t-97.5 33.5t-106 11.5q-83 0 -155.5 -28t-133 -78t-108 -118t-80 -148.5t-50 -169.5t-17.5 -180 q0 -117 28.5 -208t79.5 -153t120 -94t150 -32q53 0 109 13.5t109 37t101 54.5t86 66l85 -122q-49 -45 -106 -84.5t-123 -69t-141.5 -47t-161.5 -17.5q-134 0 -233.5 49t-165 132.5t-98 195.5t-32.5 238zM506 -485q28 34 54 69.5t47.5 75t37.5 83.5t24 96h172 q-9 -60 -33 -112.5t-57.5 -100.5t-73.5 -91.5t-82 -83.5z" />
<glyph unicode="&#xc8;" horiz-adv-x="1139" d="M165 0l232 1493h850l-24 -152h-675l-76 -498h648l-25 -152h-648l-83 -539h693l-24 -152h-868zM556 1782l125 127l352 -209l-84 -88z" />
<glyph unicode="&#xc9;" horiz-adv-x="1139" d="M165 0l232 1493h850l-24 -152h-675l-76 -498h648l-25 -152h-648l-83 -539h693l-24 -152h-868zM730 1700l417 209l108 -131l-446 -170z" />
<glyph unicode="&#xca;" horiz-adv-x="1139" d="M165 0l232 1493h850l-24 -152h-675l-76 -498h648l-25 -152h-648l-83 -539h693l-24 -152h-868zM563 1691l325 213l261 -207l-79 -90l-203 128l-234 -128z" />
<glyph unicode="&#xcb;" horiz-adv-x="1139" d="M165 0l232 1493h850l-24 -152h-675l-76 -498h648l-25 -152h-648l-83 -539h693l-24 -152h-868zM562 1700q0 69 25.5 105t90.5 36q42 0 62.5 -20.5t20.5 -62.5q0 -69 -28 -103t-89 -34q-42 0 -62 19t-20 60zM984 1700q0 68 25.5 104.5t90.5 36.5q41 0 61.5 -20.5 t20.5 -62.5q0 -70 -29 -103.5t-87 -33.5q-42 0 -62 19t-20 60z" />
<glyph unicode="&#xcc;" horiz-adv-x="506" d="M172 0l232 1493h175l-232 -1493h-175zM177 1782l125 127l352 -209l-84 -88z" />
<glyph unicode="&#xcd;" horiz-adv-x="506" d="M165 0l232 1493h175l-232 -1493h-175zM379 1700l417 209l108 -131l-446 -170z" />
<glyph unicode="&#xce;" horiz-adv-x="506" d="M165 0l232 1493h175l-232 -1493h-175zM228 1691l325 213l261 -207l-79 -90l-203 128l-234 -128z" />
<glyph unicode="&#xcf;" horiz-adv-x="506" d="M165 0l232 1493h175l-232 -1493h-175zM214 1700q0 69 25.5 105t90.5 36q42 0 62.5 -20.5t20.5 -62.5q0 -69 -28 -103t-89 -34q-42 0 -62 19t-20 60zM636 1700q0 68 25.5 104.5t90.5 36.5q41 0 61.5 -20.5t20.5 -62.5q0 -70 -29 -103.5t-87 -33.5q-42 0 -62 19t-20 60z " />
<glyph unicode="&#xd0;" horiz-adv-x="1426" d="M123 707l20 130h163l102 656h409q170 0 289.5 -44.5t194.5 -123t109.5 -185t34.5 -230.5q0 -230 -64.5 -401t-180.5 -284t-278 -169t-357 -56h-389l110 707h-163zM375 152h234q168 0 289.5 51t200 145t116 225t37.5 292q0 97 -24.5 184t-81 151.5t-148 102.5t-225.5 38 h-214l-78 -504h294l-20 -130h-294z" />
<glyph unicode="&#xd1;" horiz-adv-x="1396" d="M165 0l232 1493h193l373 -856l47 -107l41 -96l34 -85.5t24 -72.5l6 2q3 31 8 72l13 100q7 58 18 135.5t27 179.5l112 728h169l-232 -1493h-194l-375 855l-46 106l-41 97l-33 86q-15 39 -25 72l-7 -2l-5 -46q-2 -24 -5.5 -52.5t-8.5 -59.5l-9 -66l-11 -72l-11 -78 l-128 -840h-166zM631 1704q18 31 43.5 61.5t57 54.5t67.5 38.5t77 14.5q49 0 81.5 -14.5t58 -32.5t49.5 -32.5t58 -14.5q19 0 36 7.5t31.5 20.5t27 30.5t23.5 36.5l85 -59q-24 -45 -50 -77.5t-56 -53t-64 -30.5t-72 -10q-54 0 -88 14.5t-59 31.5l-47 32q-22 15 -52 15 q-21 0 -37.5 -8.5t-31.5 -22t-29 -30.5l-26 -35z" />
<glyph unicode="&#xd2;" d="M214 586q0 120 22.5 235.5t67.5 219t111 191.5t152.5 152t193.5 100t233 36q136 0 235.5 -53t164.5 -140t96 -197t31 -224q0 -139 -26 -262t-74.5 -227t-118 -186.5t-156.5 -140t-189.5 -88t-217.5 -30.5q-118 0 -214.5 45.5t-165.5 127t-107 194t-38 247.5zM406 628 q0 -114 24.5 -204t72 -153t117 -96t159.5 -33q89 0 165 26t137 73.5t107.5 114t77.5 146.5t47 171.5t16 189.5q0 99 -21.5 187.5t-67.5 155t-117.5 105.5t-170.5 39q-91 0 -166.5 -29.5t-136.5 -81t-106.5 -121t-76 -149.5t-45.5 -167.5t-15 -173.5zM741 1782l125 127 l352 -209l-84 -88z" />
<glyph unicode="&#xd3;" d="M214 586q0 120 22.5 235.5t67.5 219t111 191.5t152.5 152t193.5 100t233 36q136 0 235.5 -53t164.5 -140t96 -197t31 -224q0 -139 -26 -262t-74.5 -227t-118 -186.5t-156.5 -140t-189.5 -88t-217.5 -30.5q-118 0 -214.5 45.5t-165.5 127t-107 194t-38 247.5zM406 628 q0 -114 24.5 -204t72 -153t117 -96t159.5 -33q89 0 165 26t137 73.5t107.5 114t77.5 146.5t47 171.5t16 189.5q0 99 -21.5 187.5t-67.5 155t-117.5 105.5t-170.5 39q-91 0 -166.5 -29.5t-136.5 -81t-106.5 -121t-76 -149.5t-45.5 -167.5t-15 -173.5zM843 1700l417 209 l108 -131l-446 -170z" />
<glyph unicode="&#xd4;" d="M214 586q0 120 22.5 235.5t67.5 219t111 191.5t152.5 152t193.5 100t233 36q136 0 235.5 -53t164.5 -140t96 -197t31 -224q0 -139 -26 -262t-74.5 -227t-118 -186.5t-156.5 -140t-189.5 -88t-217.5 -30.5q-118 0 -214.5 45.5t-165.5 127t-107 194t-38 247.5zM406 628 q0 -114 24.5 -204t72 -153t117 -96t159.5 -33q89 0 165 26t137 73.5t107.5 114t77.5 146.5t47 171.5t16 189.5q0 99 -21.5 187.5t-67.5 155t-117.5 105.5t-170.5 39q-91 0 -166.5 -29.5t-136.5 -81t-106.5 -121t-76 -149.5t-45.5 -167.5t-15 -173.5zM733 1691l325 213 l261 -207l-79 -90l-203 128l-234 -128z" />
<glyph unicode="&#xd5;" d="M214 586q0 120 22.5 235.5t67.5 219t111 191.5t152.5 152t193.5 100t233 36q136 0 235.5 -53t164.5 -140t96 -197t31 -224q0 -139 -26 -262t-74.5 -227t-118 -186.5t-156.5 -140t-189.5 -88t-217.5 -30.5q-118 0 -214.5 45.5t-165.5 127t-107 194t-38 247.5zM406 628 q0 -114 24.5 -204t72 -153t117 -96t159.5 -33q89 0 165 26t137 73.5t107.5 114t77.5 146.5t47 171.5t16 189.5q0 99 -21.5 187.5t-67.5 155t-117.5 105.5t-170.5 39q-91 0 -166.5 -29.5t-136.5 -81t-106.5 -121t-76 -149.5t-45.5 -167.5t-15 -173.5zM685 1704 q18 31 43.5 61.5t57 54.5t67.5 38.5t77 14.5q49 0 81.5 -14.5t58 -32.5t49.5 -32.5t58 -14.5q19 0 36 7.5t31.5 20.5t27 30.5t23.5 36.5l85 -59q-24 -45 -50 -77.5t-56 -53t-64 -30.5t-72 -10q-54 0 -88 14.5t-59 31.5l-47 32q-22 15 -52 15q-21 0 -37.5 -8.5t-31.5 -22 t-29 -30.5l-26 -35z" />
<glyph unicode="&#xd6;" d="M214 586q0 120 22.5 235.5t67.5 219t111 191.5t152.5 152t193.5 100t233 36q136 0 235.5 -53t164.5 -140t96 -197t31 -224q0 -139 -26 -262t-74.5 -227t-118 -186.5t-156.5 -140t-189.5 -88t-217.5 -30.5q-118 0 -214.5 45.5t-165.5 127t-107 194t-38 247.5zM406 628 q0 -114 24.5 -204t72 -153t117 -96t159.5 -33q89 0 165 26t137 73.5t107.5 114t77.5 146.5t47 171.5t16 189.5q0 99 -21.5 187.5t-67.5 155t-117.5 105.5t-170.5 39q-91 0 -166.5 -29.5t-136.5 -81t-106.5 -121t-76 -149.5t-45.5 -167.5t-15 -173.5zM720 1700q0 69 25.5 105 t90.5 36q42 0 62.5 -20.5t20.5 -62.5q0 -69 -28 -103t-89 -34q-42 0 -62 19t-20 60zM1142 1700q0 68 25.5 104.5t90.5 36.5q41 0 61.5 -20.5t20.5 -62.5q0 -70 -29 -103.5t-87 -33.5q-42 0 -62 19t-20 60z" />
<glyph unicode="&#xd7;" horiz-adv-x="1446" d="M243 216l471 418l-315 389l127 110l314 -387l433 385l90 -109l-434 -386l341 -418l-128 -110l-339 416l-469 -417z" />
<glyph unicode="&#xd8;" d="M79 -45l226 252q-32 53 -53 117q-38 113 -38 254q0 148 28.5 275.5t80 232t124 185.5t160 136.5t187.5 84t208 28.5q116 0 212 -42q80 -35 142 -96l192 215l109 -89l-216 -241q26 -46 44 -100q38 -112 38 -254q0 -148 -28.5 -275.5t-80 -232.5t-123.5 -185.5 t-159.5 -135.5t-188 -83.5t-207.5 -28.5q-116 0 -212 41q-73 32 -131 84l-206 -230zM407 625q0 -117 28 -207q8 -24 17 -46l767 857q-50 58 -116 89q-69 32 -149 32q-103 0 -201 -49.5t-175 -143.5t-124 -228.5t-47 -303.5zM529 249q46 -49 105 -76q69 -31 150 -31 q69 0 136.5 22.5t128 65.5t112 105.5t89 143t59 177.5t21.5 210q0 117 -29 207q-4 14 -9 27z" />
<glyph unicode="&#xd9;" horiz-adv-x="1378" d="M248 348q-5 43 -5 90q0 82 15 177l137 878h175l-134 -862q-14 -91 -14 -170v-25q3 -89 34 -154.5t96 -102.5t174 -37q101 0 174 37.5t122.5 101.5t79 150t44.5 184l137 878h167l-133 -862q-25 -158 -69 -280.5t-117.5 -206.5t-181 -128t-259.5 -44q-139 0 -232 45 t-145 128.5t-65 202.5zM623 1788l125 127l352 -209l-84 -88z" />
<glyph unicode="&#xda;" horiz-adv-x="1378" d="M248 348q-5 43 -5 90q0 82 15 177l137 878h175l-134 -862q-14 -91 -14 -170v-25q3 -89 34 -154.5t96 -102.5t174 -37q101 0 174 37.5t122.5 101.5t79 150t44.5 184l137 878h167l-133 -862q-25 -158 -69 -280.5t-117.5 -206.5t-181 -128t-259.5 -44q-139 0 -232 45 t-145 128.5t-65 202.5zM800 1700l417 209l108 -131l-446 -170z" />
<glyph unicode="&#xdb;" horiz-adv-x="1378" d="M248 348q-5 43 -5 90q0 82 15 177l137 878h175l-134 -862q-14 -91 -14 -170v-25q3 -89 34 -154.5t96 -102.5t174 -37q101 0 174 37.5t122.5 101.5t79 150t44.5 184l137 878h167l-133 -862q-25 -158 -69 -280.5t-117.5 -206.5t-181 -128t-259.5 -44q-139 0 -232 45 t-145 128.5t-65 202.5zM670 1691l325 213l261 -207l-79 -90l-203 128l-234 -128z" />
<glyph unicode="&#xdc;" horiz-adv-x="1378" d="M248 348q-5 43 -5 90q0 82 15 177l137 878h175l-134 -862q-14 -91 -14 -170v-25q3 -89 34 -154.5t96 -102.5t174 -37q101 0 174 37.5t122.5 101.5t79 150t44.5 184l137 878h167l-133 -862q-25 -158 -69 -280.5t-117.5 -206.5t-181 -128t-259.5 -44q-139 0 -232 45 t-145 128.5t-65 202.5zM657 1700q0 69 25.5 105t90.5 36q42 0 62.5 -20.5t20.5 -62.5q0 -69 -28 -103t-89 -34q-42 0 -62 19t-20 60zM1079 1700q0 68 25.5 104.5t90.5 36.5q41 0 61.5 -20.5t20.5 -62.5q0 -70 -29 -103.5t-87 -33.5q-42 0 -62 19t-20 60z" />
<glyph unicode="&#xdd;" horiz-adv-x="1244" d="M279 1493h197l280 -684l485 684h201l-622 -852l-100 -641h-183l100 641zM768 1700l417 209l108 -131l-446 -170z" />
<glyph unicode="&#xde;" horiz-adv-x="1149" d="M165 0l232 1493h175l-41 -260h221q125 0 211.5 -26.5t140 -73.5t77.5 -110.5t24 -137.5q0 -135 -48.5 -238.5t-132 -174t-196 -107t-239.5 -36.5h-198l-51 -329h-175zM415 481h218q87 0 157.5 23.5t119.5 69t75.5 112.5t26.5 155q0 53 -15.5 97t-51.5 76t-94 49.5 t-143 17.5h-200z" />
<glyph unicode="&#xdf;" horiz-adv-x="1181" d="M161 0l162 1046q18 120 56.5 214.5t102 160.5t154.5 100.5t214 34.5q61 0 116.5 -19t97.5 -53t67 -81.5t25 -104.5q0 -80 -25 -137t-63 -99.5t-81.5 -74t-81.5 -62t-63 -63t-25 -76.5q0 -39 24 -69.5t60 -58t78 -55.5t78 -62.5t60 -79t24 -104.5q0 -82 -33.5 -152.5 t-93.5 -122t-143 -81t-182 -29.5q-67 0 -126.5 20t-99.5 57l82 137q15 -12 36 -22.5t45.5 -18.5t51.5 -13t55 -5q42 0 83 11t72.5 33.5t51 56.5t19.5 80q0 42 -24 73t-60.5 58t-78.5 54t-78.5 60.5t-60.5 76.5t-24 103q0 73 25 125t63 91.5t82 71t82 65t63 72.5t25 93 q0 37 -14.5 65.5t-40.5 48t-61.5 29t-77.5 9.5q-66 0 -114.5 -25.5t-82 -68.5t-54 -100t-30.5 -121l-168 -1088h-169z" />
<glyph unicode="&#xe0;" horiz-adv-x="1182" d="M179 405q0 99 16 193t47 176.5t77.5 151t107.5 118t137 77t166 27.5q41 0 84.5 -7t83 -22.5t73 -40t54.5 -58.5l31 100h130l-115 -616l-20 -504h-140l-4 226q-21 -34 -44 -65q-42 -57 -94.5 -99t-115 -66t-135.5 -24q-91 0 -155.5 34t-105 93t-59.5 137.5t-19 168.5z M362 451q0 -59 10 -117t33.5 -104t61.5 -74.5t94 -28.5q37 0 76.5 18.5t76.5 51t71.5 77t62.5 96t48 108.5q7 19 12 39l68 317q-18 40 -49.5 70t-71 50t-84 29.5t-89.5 9.5q-53 0 -98 -21.5t-80.5 -59.5t-62 -90t-44 -112t-26.5 -126t-9 -133zM471 1605l151 93l201 -340 l-111 -70z" />
<glyph unicode="&#xe1;" horiz-adv-x="1182" d="M179 405q0 99 16 193t47 176.5t77.5 151t107.5 118t137 77t166 27.5q41 0 84.5 -7t83 -22.5t73 -40t54.5 -58.5l31 100h130l-115 -616l-20 -504h-140l-4 226q-21 -34 -44 -65q-42 -57 -94.5 -99t-115 -66t-135.5 -24q-91 0 -155.5 34t-105 93t-59.5 137.5t-19 168.5z M362 451q0 -59 10 -117t33.5 -104t61.5 -74.5t94 -28.5q37 0 76.5 18.5t76.5 51t71.5 77t62.5 96t48 108.5q7 19 12 39l68 317q-18 40 -49.5 70t-71 50t-84 29.5t-89.5 9.5q-53 0 -98 -21.5t-80.5 -59.5t-62 -90t-44 -112t-26.5 -126t-9 -133zM641 1368l307 343l135 -101 l-343 -322z" />
<glyph unicode="&#xe2;" horiz-adv-x="1182" d="M179 405q0 99 16 193t47 176.5t77.5 151t107.5 118t137 77t166 27.5q41 0 84.5 -7t83 -22.5t73 -40t54.5 -58.5l31 100h130l-115 -616l-20 -504h-140l-4 226q-21 -34 -44 -65q-42 -57 -94.5 -99t-115 -66t-135.5 -24q-91 0 -155.5 34t-105 93t-59.5 137.5t-19 168.5z M362 451q0 -59 10 -117t33.5 -104t61.5 -74.5t94 -28.5q37 0 76.5 18.5t76.5 51t71.5 77t62.5 96t48 108.5q7 19 12 39l68 317q-18 40 -49.5 70t-71 50t-84 29.5t-89.5 9.5q-53 0 -98 -21.5t-80.5 -59.5t-62 -90t-44 -112t-26.5 -126t-9 -133zM421 1388l369 296l273 -293 l-106 -95l-198 185l-244 -185z" />
<glyph unicode="&#xe3;" horiz-adv-x="1182" d="M179 405q0 99 16 193t47 176.5t77.5 151t107.5 118t137 77t166 27.5q41 0 84.5 -7t83 -22.5t73 -40t54.5 -58.5l31 100h130l-115 -616l-20 -504h-140l-4 226q-21 -34 -44 -65q-42 -57 -94.5 -99t-115 -66t-135.5 -24q-91 0 -155.5 34t-105 93t-59.5 137.5t-19 168.5z M362 451q0 -59 10 -117t33.5 -104t61.5 -74.5t94 -28.5q37 0 76.5 18.5t76.5 51t71.5 77t62.5 96t48 108.5q7 19 12 39l68 317q-18 40 -49.5 70t-71 50t-84 29.5t-89.5 9.5q-53 0 -98 -21.5t-80.5 -59.5t-62 -90t-44 -112t-26.5 -126t-9 -133zM428 1433q18 31 43.5 63 t57 57.5t68 42t77.5 16.5q33 0 57.5 -10t43.5 -25t35 -32t32 -32t33.5 -25t40.5 -10q19 0 36 11t32 27.5t28 37.5l24 39l86 -59q-48 -91 -108 -141t-137 -50q-36 0 -62.5 10t-46.5 24.5t-35.5 32t-30 32t-30.5 24.5t-36 10t-37 -10t-32 -25t-29 -34l-27 -37z" />
<glyph unicode="&#xe4;" horiz-adv-x="1182" d="M179 405q0 99 16 193t47 176.5t77.5 151t107.5 118t137 77t166 27.5q41 0 84.5 -7t83 -22.5t73 -40t54.5 -58.5l31 100h130l-115 -616l-20 -504h-140l-4 226q-21 -34 -44 -65q-42 -57 -94.5 -99t-115 -66t-135.5 -24q-91 0 -155.5 34t-105 93t-59.5 137.5t-19 168.5z M362 451q0 -59 10 -117t33.5 -104t61.5 -74.5t94 -28.5q37 0 76.5 18.5t76.5 51t71.5 77t62.5 96t48 108.5q7 19 12 39l68 317q-18 40 -49.5 70t-71 50t-84 29.5t-89.5 9.5q-53 0 -98 -21.5t-80.5 -59.5t-62 -90t-44 -112t-26.5 -126t-9 -133zM477 1459q0 69 26 105.5 t89 36.5q39 0 59 -21t20 -63q0 -70 -28 -104.5t-87 -34.5q-41 0 -60 19.5t-19 61.5zM871 1459q0 69 26 105.5t89 36.5q39 0 59 -20.5t20 -62.5q0 -70 -27.5 -105t-87.5 -35q-41 0 -60 19.5t-19 61.5z" />
<glyph unicode="&#xe5;" horiz-adv-x="1182" d="M179 405q0 99 16 193t47 176.5t77.5 151t107.5 118t137 77t166 27.5q41 0 84.5 -7t83 -22.5t73 -40t54.5 -58.5l31 100h130l-115 -616l-20 -504h-140l-4 226q-21 -34 -44 -65q-42 -57 -94.5 -99t-115 -66t-135.5 -24q-91 0 -155.5 34t-105 93t-59.5 137.5t-19 168.5z M362 451q0 -59 10 -117t33.5 -104t61.5 -74.5t94 -28.5q37 0 76.5 18.5t76.5 51t71.5 77t62.5 96t48 108.5q7 19 12 39l68 317q-18 40 -49.5 70t-71 50t-84 29.5t-89.5 9.5q-53 0 -98 -21.5t-80.5 -59.5t-62 -90t-44 -112t-26.5 -126t-9 -133zM565 1439q0 47 18.5 90.5 t51.5 77t77.5 53.5t97.5 20q45 0 77.5 -15t53.5 -39t31 -54.5t10 -61.5q0 -54 -18.5 -99t-51 -78t-76.5 -51.5t-95 -18.5q-40 0 -72.5 13.5t-55.5 37t-35.5 55.5t-12.5 70zM678 1460q0 -42 24.5 -63.5t60.5 -21.5q45 0 75.5 29t30.5 80q0 16 -5 31t-15 27t-25 19.5t-35 7.5 q-48 0 -79.5 -30t-31.5 -79z" />
<glyph unicode="&#xe6;" horiz-adv-x="1727" d="M139 241q0 127 50 214t138 140t206 76.5t255 23.5h88q7 43 7 81q0 25 -4 47q-7 56 -35 93.5t-78 57t-123 19.5q-29 0 -67 -4.5t-79.5 -13.5t-84.5 -22t-82 -29l-10 139q51 22 100 38t95.5 26.5t89.5 15.5t83 5q60 0 112.5 -9t95.5 -29.5t75 -54t51 -81.5 q78 85 172.5 129.5t204.5 44.5q77 0 139.5 -22.5t106 -62t67 -93.5t23.5 -117q0 -73 -21 -128t-58 -94t-87 -64.5t-109 -40.5t-123.5 -20.5t-129.5 -5.5q-38 0 -73.5 2.5t-63.5 5.5q-33 4 -61 8q-5 -48 -5 -90q0 -38 4 -72q8 -73 36 -123.5t76.5 -77.5t120.5 -27 q44 0 87 5.5t84.5 16t82 25t80.5 31.5l39 -126q-40 -21 -87.5 -40.5t-101 -34t-111 -23t-117.5 -8.5q-66 0 -118.5 17t-93 48.5t-68.5 75t-44 96.5q-38 -54 -90.5 -98t-112.5 -74.5t-123.5 -47.5t-121.5 -17q-66 0 -119 20t-90 55.5t-57 85t-20 108.5zM320 286 q0 -74 42.5 -116.5t112.5 -42.5q61 0 121.5 26t111.5 74t87.5 114.5t48.5 147.5l9 61h-104q-100 0 -179.5 -14t-135 -45t-85 -81.5t-29.5 -123.5zM1036 660l74 -8q32 -3 71 -5.5t74 -2.5q63 0 119 9t98 30t66.5 54.5t24.5 82.5q0 42 -16 74.5t-43.5 54t-66 32.5t-83.5 11 q-62 0 -112 -24t-89.5 -67.5t-68.5 -105t-48 -135.5z" />
<glyph unicode="&#xe7;" horiz-adv-x="989" d="M183 432q0 175 49.5 308.5t134.5 224t197 137t238 46.5q40 0 79 -5.5t75.5 -16t69.5 -26.5t61 -37l-72 -135q-50 30 -119 47.5t-139 17.5q-71 0 -141.5 -30.5t-126 -94t-90 -161.5t-34.5 -232q0 -75 17.5 -139t52 -110.5t87 -72.5t121.5 -26q32 0 68.5 5t72.5 14 t70.5 21.5t63.5 27.5l30 -131q-33 -20 -75.5 -37t-88.5 -29t-94 -19t-91 -7q-112 0 -191 38t-129 102t-73 147t-23 173zM309 -485q28 34 54 69.5t47.5 75t37.5 83.5t24 96h172q-9 -60 -33 -112.5t-57.5 -100.5t-73.5 -91.5t-82 -83.5z" />
<glyph unicode="&#xe8;" horiz-adv-x="1082" d="M181 425q0 113 20.5 210.5t58 178t90 142.5t116.5 105t136.5 65t151.5 22q77 0 139.5 -22.5t106 -62t67 -93.5t23.5 -117q0 -73 -21 -128t-58 -94t-87 -64.5t-109 -40.5t-123.5 -20.5t-129.5 -5.5q-38 0 -73.5 2.5t-63.5 5.5q-33 4 -61 8q-5 -48 -5 -90q0 -38 4 -72 q8 -73 36 -123.5t76.5 -77.5t120.5 -27q44 0 87 5.5t84.5 16t82 25t80.5 31.5l39 -126q-40 -21 -87.5 -40.5t-101 -34t-111 -23t-117.5 -8.5q-100 0 -170.5 33.5t-115 93.5t-65 143t-20.5 183zM391 660l74 -8q32 -3 71 -5.5t74 -2.5q63 0 119 9t98 30t66.5 54.5t24.5 82.5 q0 42 -16 74.5t-43.5 54t-66 32.5t-83.5 11q-62 0 -112 -24t-89.5 -67.5t-68.5 -105t-48 -135.5zM522 1605l151 93l201 -340l-111 -70z" />
<glyph unicode="&#xe9;" horiz-adv-x="1082" d="M181 425q0 113 20.5 210.5t58 178t90 142.5t116.5 105t136.5 65t151.5 22q77 0 139.5 -22.5t106 -62t67 -93.5t23.5 -117q0 -73 -21 -128t-58 -94t-87 -64.5t-109 -40.5t-123.5 -20.5t-129.5 -5.5q-38 0 -73.5 2.5t-63.5 5.5q-33 4 -61 8q-5 -48 -5 -90q0 -38 4 -72 q8 -73 36 -123.5t76.5 -77.5t120.5 -27q44 0 87 5.5t84.5 16t82 25t80.5 31.5l39 -126q-40 -21 -87.5 -40.5t-101 -34t-111 -23t-117.5 -8.5q-100 0 -170.5 33.5t-115 93.5t-65 143t-20.5 183zM391 660l74 -8q32 -3 71 -5.5t74 -2.5q63 0 119 9t98 30t66.5 54.5t24.5 82.5 q0 42 -16 74.5t-43.5 54t-66 32.5t-83.5 11q-62 0 -112 -24t-89.5 -67.5t-68.5 -105t-48 -135.5zM720 1368l307 343l135 -101l-343 -322z" />
<glyph unicode="&#xea;" horiz-adv-x="1082" d="M181 425q0 113 20.5 210.5t58 178t90 142.5t116.5 105t136.5 65t151.5 22q77 0 139.5 -22.5t106 -62t67 -93.5t23.5 -117q0 -73 -21 -128t-58 -94t-87 -64.5t-109 -40.5t-123.5 -20.5t-129.5 -5.5q-38 0 -73.5 2.5t-63.5 5.5q-33 4 -61 8q-5 -48 -5 -90q0 -38 4 -72 q8 -73 36 -123.5t76.5 -77.5t120.5 -27q44 0 87 5.5t84.5 16t82 25t80.5 31.5l39 -126q-40 -21 -87.5 -40.5t-101 -34t-111 -23t-117.5 -8.5q-100 0 -170.5 33.5t-115 93.5t-65 143t-20.5 183zM391 660l74 -8q32 -3 71 -5.5t74 -2.5q63 0 119 9t98 30t66.5 54.5t24.5 82.5 q0 42 -16 74.5t-43.5 54t-66 32.5t-83.5 11q-62 0 -112 -24t-89.5 -67.5t-68.5 -105t-48 -135.5zM520 1388l369 296l273 -293l-106 -95l-198 185l-244 -185z" />
<glyph unicode="&#xeb;" horiz-adv-x="1082" d="M181 425q0 113 20.5 210.5t58 178t90 142.5t116.5 105t136.5 65t151.5 22q77 0 139.5 -22.5t106 -62t67 -93.5t23.5 -117q0 -73 -21 -128t-58 -94t-87 -64.5t-109 -40.5t-123.5 -20.5t-129.5 -5.5q-38 0 -73.5 2.5t-63.5 5.5q-33 4 -61 8q-5 -48 -5 -90q0 -38 4 -72 q8 -73 36 -123.5t76.5 -77.5t120.5 -27q44 0 87 5.5t84.5 16t82 25t80.5 31.5l39 -126q-40 -21 -87.5 -40.5t-101 -34t-111 -23t-117.5 -8.5q-100 0 -170.5 33.5t-115 93.5t-65 143t-20.5 183zM391 660l74 -8q32 -3 71 -5.5t74 -2.5q63 0 119 9t98 30t66.5 54.5t24.5 82.5 q0 42 -16 74.5t-43.5 54t-66 32.5t-83.5 11q-62 0 -112 -24t-89.5 -67.5t-68.5 -105t-48 -135.5zM567 1459q0 69 26 105.5t89 36.5q39 0 59 -21t20 -63q0 -70 -28 -104.5t-87 -34.5q-41 0 -60 19.5t-19 61.5zM961 1459q0 69 26 105.5t89 36.5q39 0 59 -20.5t20 -62.5 q0 -70 -27.5 -105t-87.5 -35q-41 0 -60 19.5t-19 61.5z" />
<glyph unicode="&#xec;" horiz-adv-x="486" d="M161 0l173 1120h165l-174 -1120h-164zM182 1605l151 93l201 -340l-111 -70z" />
<glyph unicode="&#xed;" horiz-adv-x="486" d="M161 0l173 1120h165l-174 -1120h-164zM360 1368l307 343l135 -101l-343 -322z" />
<glyph unicode="&#xee;" horiz-adv-x="486" d="M147 1388l369 296l273 -293l-106 -95l-198 185l-244 -185zM172 0l173 1120h165l-174 -1120h-164z" />
<glyph unicode="&#xef;" horiz-adv-x="486" d="M161 0l173 1120h165l-174 -1120h-164zM183 1459q0 69 26 105.5t89 36.5q39 0 59 -21t20 -63q0 -70 -28 -104.5t-87 -34.5q-41 0 -60 19.5t-19 61.5zM577 1459q0 69 26 105.5t89 36.5q39 0 59 -20.5t20 -62.5q0 -70 -27.5 -105t-87.5 -35q-41 0 -60 19.5t-19 61.5z" />
<glyph unicode="&#xf0;" horiz-adv-x="1163" d="M182 424q0 79 14.5 159.5t44 156t75.5 141.5t108.5 114.5t142.5 77t179 28.5q13 0 31 -1t37 -3t36.5 -4.5t29.5 -5.5q-13 27 -27 52.5t-29.5 49t-32 44.5t-35.5 41l-189 -86l-60 97l168 80q-8 10 -24 24l-34 27q-18 14 -36 26l-31 20l114 105q16 -9 38 -24.5t45 -33.5 l43 -38q21 -19 34 -33l222 101l59 -103l-198 -92q63 -78 110 -164t77.5 -173t45.5 -171.5t15 -159.5q0 -88 -14.5 -174.5t-45.5 -165t-78 -145t-112.5 -115.5t-149 -76.5t-186.5 -27.5q-104 0 -177.5 37.5t-120 100t-68 144t-21.5 170.5zM362 448q0 -74 14.5 -133.5 t45.5 -101t78.5 -64t112.5 -22.5q74 0 130 24.5t96 65.5t66.5 95.5t42 115.5t22 123.5t6.5 120.5q0 29 -2.5 62.5t-8.5 66.5t-15.5 63t-22.5 52q-19 7 -39.5 13t-42.5 10.5t-43.5 6.5t-42.5 2q-116 0 -192 -40.5t-122 -109t-64.5 -159.5t-18.5 -191z" />
<glyph unicode="&#xf1;" horiz-adv-x="1186" d="M161 0l173 1120h131l2 -136q28 33 65.5 62.5t82.5 52t97 36t109 13.5q103 0 170.5 -33t103.5 -93t43 -144q2 -25 2 -52q0 -62 -11 -132l-107 -694h-166l103 664q9 61 9 116v11q-1 60 -20.5 104.5t-61 70.5t-111.5 26q-52 0 -101.5 -18.5t-93 -49t-78.5 -71.5t-58 -86 l-119 -767h-164zM474 1433q18 31 43.5 63t57 57.5t68 42t77.5 16.5q33 0 57.5 -10t43.5 -25t35 -32t32 -32t33.5 -25t40.5 -10q19 0 36 11t32 27.5t28 37.5l24 39l86 -59q-48 -91 -108 -141t-137 -50q-36 0 -62.5 10t-46.5 24.5t-35.5 32t-30 32t-30.5 24.5t-36 10t-37 -10 t-32 -25t-29 -34l-27 -37z" />
<glyph unicode="&#xf2;" horiz-adv-x="1163" d="M182 423q0 174 44 309t122 227.5t186.5 140.5t237.5 48q85 0 156 -29.5t122 -86.5t79 -141.5t28 -193.5q0 -174 -43.5 -309t-121.5 -227.5t-186 -140.5t-236 -48q-86 0 -157.5 29.5t-122.5 86.5t-79.5 141t-28.5 194zM363 447q0 -83 17 -143t49 -99.5t79 -58.5t106 -19 q75 0 141.5 33t115.5 100.5t77.5 170t28.5 242.5q0 165 -66 242.5t-184 77.5q-76 0 -142 -32.5t-115.5 -100t-78 -170.5t-28.5 -243zM506 1605l151 93l201 -340l-111 -70z" />
<glyph unicode="&#xf3;" horiz-adv-x="1163" d="M182 423q0 174 44 309t122 227.5t186.5 140.5t237.5 48q85 0 156 -29.5t122 -86.5t79 -141.5t28 -193.5q0 -174 -43.5 -309t-121.5 -227.5t-186 -140.5t-236 -48q-86 0 -157.5 29.5t-122.5 86.5t-79.5 141t-28.5 194zM363 447q0 -83 17 -143t49 -99.5t79 -58.5t106 -19 q75 0 141.5 33t115.5 100.5t77.5 170t28.5 242.5q0 165 -66 242.5t-184 77.5q-76 0 -142 -32.5t-115.5 -100t-78 -170.5t-28.5 -243zM715 1368l307 343l135 -101l-343 -322z" />
<glyph unicode="&#xf4;" horiz-adv-x="1163" d="M182 423q0 174 44 309t122 227.5t186.5 140.5t237.5 48q85 0 156 -29.5t122 -86.5t79 -141.5t28 -193.5q0 -174 -43.5 -309t-121.5 -227.5t-186 -140.5t-236 -48q-86 0 -157.5 29.5t-122.5 86.5t-79.5 141t-28.5 194zM363 447q0 -83 17 -143t49 -99.5t79 -58.5t106 -19 q75 0 141.5 33t115.5 100.5t77.5 170t28.5 242.5q0 165 -66 242.5t-184 77.5q-76 0 -142 -32.5t-115.5 -100t-78 -170.5t-28.5 -243zM482 1388l369 296l273 -293l-106 -95l-198 185l-244 -185z" />
<glyph unicode="&#xf5;" horiz-adv-x="1162" d="M182 423q0 174 44 309t122 227.5t186.5 140.5t237.5 48q85 0 156 -29.5t122 -86.5t79 -141.5t28 -193.5q0 -174 -43.5 -309t-121.5 -227.5t-186 -140.5t-236 -48q-86 0 -157.5 29.5t-122.5 86.5t-79.5 141t-28.5 194zM363 447q0 -83 17 -143t49 -99.5t79 -58.5t106 -19 q75 0 141.5 33t115.5 100.5t77.5 170t28.5 242.5q0 165 -66 242.5t-184 77.5q-76 0 -142 -32.5t-115.5 -100t-78 -170.5t-28.5 -243zM469 1433q18 31 43.5 63t57 57.5t68 42t77.5 16.5q33 0 57.5 -10t43.5 -25t35 -32t32 -32t33.5 -25t40.5 -10q19 0 36 11t32 27.5t28 37.5 l24 39l86 -59q-48 -91 -108 -141t-137 -50q-36 0 -62.5 10t-46.5 24.5t-35.5 32t-30 32t-30.5 24.5t-36 10t-37 -10t-32 -25t-29 -34l-27 -37z" />
<glyph unicode="&#xf6;" horiz-adv-x="1163" d="M182 423q0 174 44 309t122 227.5t186.5 140.5t237.5 48q85 0 156 -29.5t122 -86.5t79 -141.5t28 -193.5q0 -174 -43.5 -309t-121.5 -227.5t-186 -140.5t-236 -48q-86 0 -157.5 29.5t-122.5 86.5t-79.5 141t-28.5 194zM363 447q0 -83 17 -143t49 -99.5t79 -58.5t106 -19 q75 0 141.5 33t115.5 100.5t77.5 170t28.5 242.5q0 165 -66 242.5t-184 77.5q-76 0 -142 -32.5t-115.5 -100t-78 -170.5t-28.5 -243zM524 1459q0 69 26 105.5t89 36.5q39 0 59 -21t20 -63q0 -70 -28 -104.5t-87 -34.5q-41 0 -60 19.5t-19 61.5zM918 1459q0 69 26 105.5 t89 36.5q39 0 59 -20.5t20 -62.5q0 -70 -27.5 -105t-87.5 -35q-41 0 -60 19.5t-19 61.5z" />
<glyph unicode="&#xf7;" horiz-adv-x="1537" d="M348 565l25 154h1020l-25 -154h-1020zM698 156q0 71 30.5 106.5t89.5 35.5q42 0 64.5 -21t22.5 -66q0 -72 -31.5 -106t-90.5 -34q-42 0 -63.5 20.5t-21.5 64.5zM834 1055q0 72 30 107.5t90 35.5q42 0 64 -21t22 -66q0 -72 -31 -106t-90 -34q-42 0 -63.5 20t-21.5 64z" />
<glyph unicode="&#xf8;" horiz-adv-x="1162" d="M125 -90l144 202q-37 50 -59 116q-28 84 -28 193q0 174 44 309.5t122.5 228.5t187 141t237.5 48q85 0 156 -29q22 -9 42 -21l146 205l120 -86l-158 -221q31 -46 51 -104q28 -84 28 -193q0 -174 -44 -309.5t-122.5 -228.5t-187 -141t-237.5 -48q-86 0 -157 29l-29 14 l-135 -190zM362 445q0 -100 25 -168l482 677q-58 39 -140 39q-76 0 -143 -33t-116.5 -100.5t-78.5 -170.5t-29 -244zM483 158q54 -31 129 -31q76 0 143 33t116.5 100.5t78 171t28.5 243.5q0 88 -20 151z" />
<glyph unicode="&#xf9;" horiz-adv-x="1176" d="M214 208q-8 39 -8 84.5t8 98.5l112 729h163l-105 -699q-7 -46 -7 -85q0 -25 3 -48q8 -55 33 -91t66 -53t95 -17q48 0 94.5 13.5t88.5 37t77.5 55.5t62.5 69l126 818h166l-173 -1120h-153l12 120q-24 -31 -61.5 -58t-83.5 -47t-97 -31.5t-102 -11.5q-81 0 -147 26 t-109.5 78.5t-60.5 131.5zM530 1605l151 93l201 -340l-111 -70z" />
<glyph unicode="&#xfa;" horiz-adv-x="1176" d="M214 208q-8 39 -8 84.5t8 98.5l112 729h163l-105 -699q-7 -46 -7 -85q0 -25 3 -48q8 -55 33 -91t66 -53t95 -17q48 0 94.5 13.5t88.5 37t77.5 55.5t62.5 69l126 818h166l-173 -1120h-153l12 120q-24 -31 -61.5 -58t-83.5 -47t-97 -31.5t-102 -11.5q-81 0 -147 26 t-109.5 78.5t-60.5 131.5zM708 1368l307 343l135 -101l-343 -322z" />
<glyph unicode="&#xfb;" horiz-adv-x="1176" d="M214 208q-8 39 -8 84.5t8 98.5l112 729h163l-105 -699q-7 -46 -7 -85q0 -25 3 -48q8 -55 33 -91t66 -53t95 -17q48 0 94.5 13.5t88.5 37t77.5 55.5t62.5 69l126 818h166l-173 -1120h-153l12 120q-24 -31 -61.5 -58t-83.5 -47t-97 -31.5t-102 -11.5q-81 0 -147 26 t-109.5 78.5t-60.5 131.5zM488 1388l369 296l273 -293l-106 -95l-198 185l-244 -185z" />
<glyph unicode="&#xfc;" horiz-adv-x="1176" d="M214 208q-8 39 -8 84.5t8 98.5l112 729h163l-105 -699q-7 -46 -7 -85q0 -25 3 -48q8 -55 33 -91t66 -53t95 -17q48 0 94.5 13.5t88.5 37t77.5 55.5t62.5 69l126 818h166l-173 -1120h-153l12 120q-24 -31 -61.5 -58t-83.5 -47t-97 -31.5t-102 -11.5q-81 0 -147 26 t-109.5 78.5t-60.5 131.5zM531 1459q0 69 26 105.5t89 36.5q39 0 59 -21t20 -63q0 -70 -28 -104.5t-87 -34.5q-41 0 -60 19.5t-19 61.5zM925 1459q0 69 26 105.5t89 36.5q39 0 59 -20.5t20 -62.5q0 -70 -27.5 -105t-87.5 -35q-41 0 -60 19.5t-19 61.5z" />
<glyph unicode="&#xfd;" horiz-adv-x="1066" d="M34 -425l61 141q17 -7 40 -11.5t40 -4.5q36 0 78 32t87.5 89t93.5 135q5 8 10 17l-199 1147h172l112 -673l14 -89q7 -45 11.5 -85t5.5 -72q1 -13 1 -22l71 139l99 206l72 160q34 78 63 153.5t52.5 146.5t40.5 136h174q-24 -82 -49.5 -158.5t-54.5 -152t-62 -151 t-71 -154.5l-122 -242q-61 -120 -124 -226.5t-126.5 -196.5t-127 -155.5t-127 -102t-124.5 -36.5q-15 0 -30 2t-29 6t-27 9.5t-25 12.5zM679 1368l307 343l135 -101l-343 -322z" />
<glyph unicode="&#xfe;" horiz-adv-x="1153" d="M93 -426l308 1985h164l-60 -389q-7 -42 -18 -92t-26 -93l4 -1q26 38 67 68.5t87 51.5t93 32.5t85 11.5q91 0 157 -30t109 -85.5t64 -133.5t21 -174q0 -159 -39.5 -296.5t-116 -239t-190 -159.5t-260.5 -58q-54 0 -109 10t-108 30l-67 -438h-165zM357 212q19 -20 46 -35.5 t57.5 -26.5t63 -17t64.5 -6q93 0 163.5 42.5t118.5 117t72.5 175.5t24.5 217q0 79 -15 138t-43 98t-69.5 58.5t-93.5 19.5q-47 0 -92.5 -20t-85.5 -52.5t-72.5 -73t-53.5 -80.5z" />
<glyph unicode="&#xff;" horiz-adv-x="1066" d="M34 -425l61 141q17 -7 40 -11.5t40 -4.5q36 0 78 32t87.5 89t93.5 135q5 8 10 17l-199 1147h172l112 -673l14 -89q7 -45 11.5 -85t5.5 -72q1 -13 1 -22l71 139l99 206l72 160q34 78 63 153.5t52.5 146.5t40.5 136h174q-24 -82 -49.5 -158.5t-54.5 -152t-62 -151 t-71 -154.5l-122 -242q-61 -120 -124 -226.5t-126.5 -196.5t-127 -155.5t-127 -102t-124.5 -36.5q-15 0 -30 2t-29 6t-27 9.5t-25 12.5zM509 1459q0 69 26 105.5t89 36.5q39 0 59 -21t20 -63q0 -70 -28 -104.5t-87 -34.5q-41 0 -60 19.5t-19 61.5zM903 1459q0 69 26 105.5 t89 36.5q39 0 59 -20.5t20 -62.5q0 -70 -27.5 -105t-87.5 -35q-41 0 -60 19.5t-19 61.5z" />
<glyph unicode="&#x152;" horiz-adv-x="1895" d="M215 589q0 147 30 273t84 229.5t129.5 183.5t167 134.5t196.5 82.5t218 28q53 0 100.5 -6.5t92.5 -20.5h771l-24 -152h-624l-30 -195l-20 -132l-14 -92l-12 -79h596l-25 -152h-596l-83 -539h642l-24 -152h-817q-48 -14 -96 -21t-97 -7q-126 0 -230 42.5t-178.5 122 t-115.5 194t-41 258.5zM409 639q0 -120 32 -213t88.5 -156t132.5 -95.5t164 -32.5q44 0 87.5 12t88.5 29l173 1119q-43 21 -87.5 34.5t-93.5 13.5q-74 0 -146.5 -22t-137.5 -64t-120 -103t-95.5 -140t-63 -175t-22.5 -207z" />
<glyph unicode="&#x153;" horiz-adv-x="1856" d="M182 423q0 174 44 309t122 227.5t186.5 140.5t237.5 48q122 0 209 -51t133 -152q80 101 187.5 152t238.5 51q73 0 132.5 -22.5t102 -62t66 -93.5t23.5 -117q0 -73 -21 -128t-58 -94t-87 -64.5t-109 -40.5t-123.5 -20.5t-129.5 -5.5q-38 0 -73 2.5t-63 5.5q-33 4 -61 8 q-5 -48 -5 -90q0 -38 4 -72q8 -73 36 -123.5t76.5 -77.5t119.5 -27q44 0 87 5.5t84.5 16t82 25t80.5 31.5l39 -126q-40 -21 -87.5 -40.5t-101 -34t-111 -23t-117.5 -8.5q-69 0 -123 18.5t-94.5 50t-69 73t-46.5 87.5q-39 -53 -86 -95t-100.5 -72t-113 -46t-123.5 -16 q-86 0 -157.5 29.5t-122.5 86.5t-79.5 141t-28.5 194zM363 447q0 -83 17 -143t49 -99.5t79 -58.5t106 -19q75 0 141.5 33t115.5 100.5t77.5 170t28.5 242.5q0 165 -66 242.5t-184 77.5q-76 0 -142 -32.5t-115.5 -100t-78 -170.5t-28.5 -243zM1165 660l74 -8q32 -3 71 -5.5 t74 -2.5q63 0 119 9t98 30t66.5 54.5t24.5 82.5q0 42 -15.5 74.5t-42.5 54t-63 32.5t-76 11q-66 0 -118.5 -24t-93 -67.5t-70 -105t-48.5 -135.5z" />
<glyph unicode="&#x178;" horiz-adv-x="1244" d="M279 1493h197l280 -684l485 684h201l-622 -852l-100 -641h-183l100 641zM585 1700q0 69 25.5 105t90.5 36q42 0 62.5 -20.5t20.5 -62.5q0 -69 -28 -103t-89 -34q-42 0 -62 19t-20 60zM1007 1700q0 68 25.5 104.5t90.5 36.5q41 0 61.5 -20.5t20.5 -62.5q0 -70 -29 -103.5 t-87 -33.5q-42 0 -62 19t-20 60z" />
<glyph unicode="&#x2c6;" horiz-adv-x="840" d="M318 1388l369 296l273 -293l-106 -95l-198 185l-244 -185z" />
<glyph unicode="&#x2dc;" horiz-adv-x="808" d="M301 1433q18 31 43.5 63t57 57.5t68 42t77.5 16.5q33 0 57.5 -10t43.5 -25t35 -32t32 -32t33.5 -25t40.5 -10q19 0 36 11t32 27.5t28 37.5l24 39l86 -59q-48 -91 -108 -141t-137 -50q-36 0 -62.5 10t-46.5 24.5t-35.5 32t-30 32t-30.5 24.5t-36 10t-37 -10t-32 -25 t-29 -34l-27 -37z" />
<glyph unicode="&#x2013;" horiz-adv-x="960" d="M177 489l22 144h764l-23 -144h-763z" />
<glyph unicode="&#x2014;" horiz-adv-x="1906" d="M177 489l22 144h1710l-22 -144h-1710z" />
<glyph unicode="&#x2018;" horiz-adv-x="574" d="M331 1057q0 31 11 69t29 79.5t42 85t50.5 84.5t53.5 78t52 66l102 -43q-14 -19 -32 -47t-36 -59.5t-34 -65.5t-26 -65q13 -20 24 -49t11 -68q0 -50 -12.5 -81.5t-34 -49.5t-50 -25t-60.5 -7q-43 0 -66.5 26.5t-23.5 71.5z" />
<glyph unicode="&#x2019;" horiz-adv-x="574" d="M292 1003q14 19 32 47t36 59.5t34 65.5t26 65q-13 20 -24 49t-11 68q0 50 12.5 81.5t34 49.5t50 25t60.5 7q43 0 66.5 -26.5t23.5 -71.5q0 -31 -11 -69t-29 -79.5t-42 -85t-50.5 -84.5t-53.5 -78t-52 -66z" />
<glyph unicode="&#x201a;" horiz-adv-x="537" d="M56 -262q14 19 32 47t36 59.5t34 65.5t26 65q-13 20 -24 49t-11 68q0 50 12.5 81.5t34 49.5t50 25t60.5 7q43 0 66.5 -26.5t23.5 -71.5q0 -31 -11 -69t-29 -79.5t-42 -85t-50.5 -84.5t-53.5 -78t-52 -66z" />
<glyph unicode="&#x201c;" horiz-adv-x="981" d="M331 1057q0 31 11 69t29 79.5t42 85t50.5 84.5t53.5 78t52 66l102 -43q-14 -19 -32 -47t-36 -60t-34 -65.5t-26 -64.5q13 -20 24 -49t11 -68q0 -50 -12.5 -81.5t-33.5 -49.5t-49.5 -25t-61.5 -7q-43 0 -66.5 26.5t-23.5 71.5zM738 1057q0 31 11 69t29 79.5t42 85 t50.5 84.5t53.5 78t52 66l102 -43q-14 -19 -32 -47t-36 -59.5t-34 -65.5t-26 -65q13 -20 24 -49t11 -68q0 -50 -12.5 -81.5t-34 -49.5t-50 -25t-60.5 -7q-43 0 -66.5 26.5t-23.5 71.5z" />
<glyph unicode="&#x201d;" horiz-adv-x="981" d="M292 1003q14 19 32 47t36 59.5t34 65.5t26 65q-13 20 -24 49t-11 68q0 50 12.5 81.5t34 49.5t50 25t60.5 7q43 0 66.5 -26.5t23.5 -71.5q0 -31 -11 -69t-29 -79.5t-42 -85t-50.5 -84.5t-53.5 -78t-52 -66zM699 1003q14 19 32 47t36 60t34 65.5t26 64.5q-13 20 -24 49 t-11 68q0 50 12.5 81.5t33.5 49.5t49.5 25t61.5 7q43 0 66.5 -26.5t23.5 -71.5q0 -31 -11 -69t-29 -79.5t-42 -85t-50.5 -84.5t-53.5 -78t-52 -66z" />
<glyph unicode="&#x201e;" horiz-adv-x="943" d="M56 -262q14 19 32 47t36 59.5t34 65.5t26 65q-13 20 -24 49t-11 68q0 50 12.5 81.5t34 49.5t50 25t60.5 7q43 0 66.5 -26.5t23.5 -71.5q0 -31 -11 -69t-29 -79.5t-42 -85t-50.5 -84.5t-53.5 -78t-52 -66zM463 -262q14 19 32 47t36 60t34 65.5t26 64.5q-13 20 -24 49 t-11 68q0 50 12.5 81.5t33.5 49.5t49.5 25t61.5 7q43 0 66.5 -26.5t23.5 -71.5q0 -31 -11 -69t-29 -79.5t-42 -85t-50.5 -84.5t-53.5 -78t-52 -66z" />
<glyph unicode="&#x2022;" horiz-adv-x="964" d="M337 608q0 71 17 130.5t52.5 102t91 66.5t132.5 24q57 0 97 -16t65 -43.5t36.5 -65.5t11.5 -82q0 -79 -21.5 -140t-60 -102t-92.5 -62.5t-119 -21.5q-105 0 -157.5 55t-52.5 155z" />
<glyph unicode="&#x2026;" horiz-adv-x="1518" d="M190 76q0 79 30.5 121.5t101.5 42.5q48 0 72.5 -24t24.5 -73q0 -41 -8 -71t-25 -49.5t-43 -29t-62 -9.5q-46 0 -68.5 22t-22.5 70zM661 77q0 79 31 121t102 42q48 0 72.5 -24t24.5 -73q0 -82 -33.5 -120.5t-103.5 -38.5q-47 0 -70 22t-23 71zM1134 76q0 79 30.5 121.5 t101.5 42.5q48 0 72.5 -24t24.5 -73q0 -41 -8 -71t-24.5 -49.5t-42.5 -29t-62 -9.5q-47 0 -69.5 22t-22.5 70z" />
<glyph unicode="&#x2039;" horiz-adv-x="729" d="M174 583l570 476l89 -97l-410 -378l275 -352l-103 -93z" />
<glyph unicode="&#x203a;" horiz-adv-x="729" d="M88 245l410 378l-275 352l103 93l421 -444l-570 -476z" />
<glyph unicode="&#x20ac;" horiz-adv-x="1463" d="M114 488l24 152h206q1 7 2 19l2 24l3 25q2 13 4 22q6 38 13 72l16 69h-210l24 152h239q22 56 56 115t79.5 114t102.5 104t126 85.5t150 57.5t174 21q69 0 131.5 -12.5t118 -38t104.5 -64.5t92 -91l-131 -135q-36 45 -75 76.5t-83.5 51t-94.5 28.5t-109 9 q-90 0 -163.5 -33.5t-130.5 -83t-96.5 -105t-59.5 -99.5h630l-23 -152h-665q-14 -51 -24 -100t-10 -109l-1 -1v-8v-13h664l-24 -152h-634q5 -37 17.5 -76.5t33 -77.5t50 -72t68.5 -59.5t89.5 -40.5t112.5 -15q48 0 96.5 9.5t98.5 29.5t102 52.5t108 78.5l83 -115 q-69 -60 -134 -103.5t-130 -72t-132 -42t-140 -13.5q-89 0 -161.5 20.5t-129 57t-98 85.5t-69.5 106.5t-43.5 120.5t-19.5 127h-229z" />
<glyph unicode="&#x2122;" horiz-adv-x="1623" d="M250 1380l17 113h628l-17 -113h-243l-98 -634h-142l99 634h-244zM871 746l115 747h199l67 -285q8 -43 15 -89t11.5 -89.5t6.5 -81.5q1 -19 1 -35t-1 -29h6q10 32 25 70l34 80l40 86l42 90l156 283h184l-115 -747h-140l39 250q17 114 37.5 193t36.5 135l-7 4 q-23 -56 -54 -119l-62 -125l-177 -338h-142l-65 337l-12 67q-6 33 -11 64.5t-9 60.5t-7 53l-7 -2q-5 -57 -13 -138.5t-25 -193.5l-38 -248h-130z" />
<glyph unicode="&#xe000;" horiz-adv-x="1120" d="M0 1120h1120v-1120h-1120v1120z" />
<glyph unicode="&#xfb01;" horiz-adv-x="1193" d="M192 975l23 145h194l14 84q15 99 47.5 168.5t83.5 114t121 64.5t160 20q32 0 66.5 -6t67.5 -19l-47 -129q-14 3 -29 5t-31.5 3.5t-35 2.5t-37.5 1q-42 0 -75 -11t-57 -34t-40 -60.5t-24 -89.5l-18 -114h636l-173 -1120h-165l150 975h-471l-150 -975h-166l151 975h-195z M1080 1407q0 70 25.5 108t89.5 38q41 0 61 -21t20 -63q0 -71 -27.5 -107t-89.5 -36q-41 0 -60 19.5t-19 61.5z" />
<glyph unicode="&#xfb02;" horiz-adv-x="1194" d="M192 975l23 145h194l14 84q15 95 49 164.5t88 114.5t128 66.5t168 21.5q45 0 97.5 -6.5t107.5 -19t108 -30t98 -38.5l-229 -1477h-165l213 1377q-27 12 -58.5 21.5t-67 16t-74 10.5t-78.5 4q-49 0 -85.5 -11.5t-63 -35.5t-42.5 -61t-24 -87l-18 -114h282l-23 -145h-282 l-150 -975h-166l151 975h-195z" />
<glyph unicode="&#xfb03;" horiz-adv-x="1829" d="M192 975l23 145h194l14 84q15 99 47.5 168.5t83.5 114t121 64.5t160 20q32 0 66.5 -6t67.5 -19l-47 -129q-27 5 -60.5 8.5t-72.5 3.5q-42 0 -75 -11t-57 -34t-40 -60.5t-24 -89.5l-18 -114h471l14 84q15 99 47.5 168.5t83.5 114t120.5 64.5t159.5 20q32 0 67 -6t67 -19 l-47 -129q-26 5 -60 8.5t-72 3.5q-42 0 -75 -11t-57.5 -34t-40.5 -60.5t-24 -89.5l-18 -114h636l-173 -1120h-166l150 975h-470l-150 -975h-165l150 975h-471l-150 -975h-166l151 975h-195zM1715 1407q0 70 25.5 108t89.5 38q42 0 62 -21t20 -63q0 -71 -27.5 -107t-90.5 -36 q-41 0 -60 19.5t-19 61.5z" />
<glyph unicode="&#xfb04;" horiz-adv-x="1831" d="M192 975l23 145h194l14 84q15 99 47.5 168.5t83.5 114t121 64.5t160 20q32 0 66.5 -6t67.5 -19l-47 -129q-27 5 -60.5 8.5t-72.5 3.5q-42 0 -75 -11t-57 -34t-40 -60.5t-24 -89.5l-18 -114h471l14 84q15 95 49 164.5t88 114.5t128 66.5t168 21.5q45 0 97.5 -6.5 t107.5 -19t108 -30t98 -38.5l-229 -1477h-165l213 1377q-27 12 -58.5 21.5t-67 16t-74 10.5t-78.5 4q-49 0 -85.5 -11.5t-63 -35.5t-42.5 -61t-24 -87l-18 -114h282l-23 -145h-282l-150 -975h-166l150 975h-471l-150 -975h-166l151 975h-195z" />
</font>
</defs>
</svg>
